<svg width="261" height="405" viewBox="0 0 261 405" fill="none" xmlns="http://www.w3.org/2000/svg">
<path d="M246.977 229.472C246.577 229.072 245.677 229.072 245.377 229.672C236.777 247.572 227.277 266.772 208.577 275.872C207.877 276.172 207.977 277.272 208.577 277.672C214.677 281.372 221.577 282.672 228.477 281.572C219.977 295.972 206.477 307.372 190.477 312.972C183.977 315.272 177.077 316.472 170.277 314.472C164.477 312.772 159.677 308.572 156.077 303.872C148.077 293.272 147.477 279.072 148.277 266.372C155.377 261.972 162.177 257.072 168.077 251.072C172.977 246.072 176.177 239.472 177.877 232.272C178.077 231.972 178.277 231.672 178.077 231.372C179.777 223.372 179.777 214.872 178.377 207.572C176.977 200.372 173.777 193.572 168.977 188.072C168.977 187.672 168.677 187.372 168.277 187.272C166.677 185.472 164.877 183.872 162.977 182.272C162.977 181.972 162.777 181.672 162.477 181.472C162.177 181.272 161.877 181.172 161.477 181.172C157.177 177.972 152.477 175.372 147.977 172.772C147.777 172.672 147.477 172.572 147.277 172.672C147.077 156.672 146.677 140.672 146.177 124.672C146.177 124.672 146.277 124.672 146.277 124.572C163.877 123.472 181.277 121.272 198.577 117.772C199.077 117.672 199.277 117.172 199.377 116.772C200.577 107.472 200.777 98.1719 200.077 88.7719C199.977 88.0719 199.477 87.7719 198.877 87.7719C198.777 87.4719 198.577 87.2719 198.177 87.1719C180.077 82.7719 161.577 81.5719 143.077 81.7719C142.877 78.6719 142.677 75.0719 142.577 71.2719C142.777 71.3719 143.077 71.3719 143.377 71.2719C159.177 64.2719 163.077 45.9719 160.177 30.4719C158.677 22.2719 155.677 14.4719 149.277 8.97193C143.377 3.97193 135.777 1.17194 128.177 0.271937C112.577 -1.62806 97.6773 6.57193 90.4773 20.3719C86.8773 27.2719 85.9774 34.9719 87.1774 42.6719C88.4774 50.8719 91.3773 60.0719 97.3773 66.1719C97.3773 66.1719 97.4773 66.1719 97.4773 66.2719C96.5773 67.8719 95.7773 69.5719 95.0773 71.1719C93.0773 75.4719 91.4774 79.8719 90.1774 84.3719C78.5774 85.3719 66.9773 86.7719 55.6773 89.1719C55.1773 88.9719 54.5773 89.1719 54.3773 89.8719C52.3773 96.4719 51.9773 103.172 53.2773 109.972C53.7773 112.772 54.6773 115.872 56.1773 118.372C57.5773 120.672 61.3773 120.572 63.5773 120.872C69.8773 121.872 76.1773 122.772 82.5773 123.472C82.8773 123.772 83.3773 123.772 83.7773 123.572C85.6773 123.772 87.5773 123.972 89.5773 124.172C93.3773 138.172 101.577 150.872 112.677 160.172C112.777 174.172 111.877 188.072 112.077 202.072C112.177 214.672 111.977 227.172 111.077 239.672C110.177 252.672 109.377 265.572 110.177 278.572C110.177 278.672 110.177 278.772 110.277 278.872C109.277 279.472 108.177 280.072 107.177 280.672C100.277 284.772 93.9773 289.472 88.4773 295.272C87.1773 296.672 85.8774 298.072 84.6774 299.572C84.2774 299.672 83.8773 300.072 83.8773 300.472C80.4773 304.672 77.2774 308.972 74.1774 313.372C74.1774 313.472 74.0773 313.472 74.0773 313.572C72.4773 313.172 70.9773 312.672 69.4773 312.072C60.0773 308.572 52.1773 301.672 44.9773 294.972C41.5773 291.772 38.1773 288.572 34.9773 285.172C33.5773 283.672 32.3773 282.172 31.3773 280.572C39.0773 280.772 46.5773 279.772 53.9773 277.572C54.7773 277.372 55.0773 276.072 54.1773 275.672C34.0773 266.772 24.0773 246.372 15.1774 227.572C14.8774 226.972 13.9773 226.872 13.5773 227.372C4.67731 238.872 0.577313 252.872 0.0773132 267.272C-0.422687 280.372 1.2773 297.272 11.8773 306.372C12.4773 306.872 13.2773 306.672 13.5773 305.872C15.5773 300.872 17.9773 295.972 20.6773 291.272C24.3773 298.272 28.8773 304.972 33.6773 311.272C37.5773 316.372 41.6773 321.272 45.8773 326.172C50.4773 331.572 55.8773 335.172 62.1773 338.272C58.9773 349.972 57.0773 361.972 60.2773 373.472C60.1773 373.872 60.2773 374.272 60.5773 374.572C61.1773 376.472 61.8773 378.472 62.7773 380.372C66.5773 388.372 71.7773 396.472 79.2773 401.072C79.4773 401.472 79.8773 401.672 80.3773 401.672C83.4773 403.472 87.0773 404.572 90.9773 404.772C95.1773 405.072 98.8773 401.172 95.7773 397.472C94.1773 395.572 90.8773 394.572 88.8773 393.272C85.7773 391.172 82.9773 388.572 80.4773 385.772C69.9773 374.172 67.0773 357.372 71.7773 342.672C94.4773 353.572 117.677 365.272 131.177 387.472C131.677 388.372 132.877 387.972 133.077 387.172C150.677 366.172 177.277 356.372 199.477 341.172C216.277 329.672 234.377 314.072 242.077 294.572C244.877 297.872 247.777 301.072 250.877 304.072C251.377 304.572 252.077 304.372 252.477 303.872C256.277 298.672 257.677 292.572 258.577 286.272C259.577 279.272 260.077 272.172 260.277 265.072C259.677 252.372 256.777 238.672 246.977 229.472ZM150.377 262.472C150.577 260.172 150.677 257.972 150.877 255.672C150.877 255.472 150.877 255.272 150.777 255.072C151.777 254.172 152.777 253.272 153.677 252.372C153.877 253.272 154.277 254.272 154.477 255.172C154.777 256.572 154.877 257.972 154.877 259.372C153.377 260.472 151.877 261.472 150.377 262.472ZM159.877 255.672C158.877 256.472 157.877 257.272 156.877 257.972C156.877 257.272 156.777 256.672 156.677 255.972C156.377 254.272 155.777 252.772 155.477 251.072C155.477 250.972 155.377 250.772 155.377 250.772L158.377 247.472C159.577 249.472 160.377 251.672 160.877 253.972C160.977 254.272 161.077 254.472 161.277 254.572C160.777 254.972 160.377 255.272 159.877 255.672ZM162.777 253.272C162.277 250.572 161.277 248.072 159.677 245.772C160.577 244.672 161.377 243.472 162.177 242.272C164.077 244.072 165.577 246.172 166.577 248.572C166.677 248.772 166.777 248.972 166.977 249.072C165.677 250.472 164.277 251.872 162.777 253.272ZM168.277 247.372C167.177 244.672 165.477 242.372 163.377 240.472C164.377 238.772 165.377 237.072 166.177 235.272C166.377 235.372 166.677 235.372 166.877 235.272C167.177 235.472 167.777 235.772 167.877 235.872C168.577 236.272 169.277 236.772 169.877 237.372C170.977 238.272 171.877 239.472 172.677 240.672C171.377 243.072 169.977 245.272 168.277 247.372ZM174.977 234.372C174.577 235.772 174.077 237.172 173.577 238.472C172.677 237.272 171.677 236.272 170.577 235.372C169.877 234.772 168.377 233.572 167.077 233.272C167.777 231.672 168.277 229.972 168.777 228.372C171.177 229.272 173.477 230.572 175.577 232.072C175.377 232.772 175.177 233.572 174.977 234.372ZM176.077 229.772C173.977 228.272 171.777 227.172 169.277 226.272C169.677 224.572 169.977 222.772 170.177 220.972C172.677 221.672 174.877 222.972 176.777 224.772C176.777 226.372 176.477 228.072 176.077 229.772ZM177.177 222.172C175.277 220.672 173.077 219.472 170.677 218.872H170.477C170.577 217.672 170.577 216.472 170.577 215.272C170.577 214.672 170.477 213.972 170.477 213.372C172.777 213.772 174.877 214.472 176.977 215.472C177.077 215.572 177.277 215.572 177.377 215.572C177.477 217.772 177.377 219.972 177.177 222.172ZM175.977 206.272C176.277 207.572 176.577 208.872 176.777 210.072C176.977 211.172 177.077 212.172 177.177 213.272C174.977 212.272 172.677 211.572 170.277 211.272C169.977 209.172 169.477 207.072 168.877 204.972C171.277 205.172 173.577 205.572 175.877 206.272H175.977ZM175.377 204.072C172.977 203.472 170.577 203.072 168.077 202.872C167.277 200.872 166.377 198.972 165.177 197.172C167.577 196.872 170.077 196.772 172.577 196.972C173.677 199.172 174.577 201.572 175.377 204.072ZM167.377 189.272C168.877 190.972 170.277 192.772 171.377 194.772C168.877 194.672 166.377 194.772 163.877 195.172C162.577 193.472 161.077 191.972 159.377 190.572C161.977 189.772 164.677 189.472 167.377 189.272ZM160.677 183.272C162.377 184.572 163.977 185.972 165.477 187.372C162.777 187.672 160.077 188.072 157.577 189.072C156.177 187.972 154.677 186.872 153.277 185.772C154.177 184.972 155.777 184.672 156.777 184.272L158.877 183.672C159.077 183.772 160.077 183.472 160.677 183.272ZM154.677 179.172C155.977 179.972 157.277 180.772 158.477 181.672C157.677 181.972 156.877 182.272 156.277 182.372C154.777 182.872 152.877 183.372 151.677 184.572C150.677 183.772 149.777 182.972 148.877 182.172C150.477 180.772 152.377 179.772 154.577 179.172H154.677ZM152.377 177.772C150.477 178.472 148.877 179.472 147.377 180.772C147.377 178.772 147.277 176.772 147.277 174.772L152.377 177.772ZM147.377 183.572C150.277 186.272 153.677 188.572 156.777 191.072C158.977 192.872 161.177 194.872 162.877 197.272C166.977 203.072 168.577 210.272 168.577 217.272C168.577 232.372 159.077 245.372 148.077 254.872C147.777 255.172 147.477 255.372 147.177 255.672C147.577 231.572 147.577 207.572 147.377 183.572ZM148.777 256.872C148.577 259.072 148.477 261.272 148.277 263.472V263.872C146.877 264.772 145.377 265.672 143.877 266.572C143.777 264.772 143.777 262.972 143.677 261.172C143.677 261.072 143.677 260.872 143.577 260.772C145.377 259.572 147.077 258.272 148.777 256.872ZM197.577 89.2719H197.977C198.577 98.1719 198.377 107.072 197.377 115.972C189.777 117.472 182.177 118.772 174.477 119.772C177.577 108.372 177.377 96.4719 173.877 85.1719C181.877 86.0719 189.777 87.3719 197.577 89.2719ZM171.677 84.9719C175.377 96.3719 175.577 108.472 172.277 120.072C168.577 120.572 164.977 120.972 161.277 121.372C163.477 109.072 163.377 96.5719 160.977 84.2719C164.577 84.3719 168.077 84.6719 171.677 84.9719ZM158.877 84.1719C161.377 96.4719 161.477 108.972 159.177 121.272V121.572C154.677 121.972 150.177 122.372 145.677 122.572H145.477C135.077 118.372 123.677 118.672 113.577 123.572C109.277 123.472 104.877 123.172 100.577 122.872C98.2773 116.972 96.9773 110.772 96.7773 104.372C96.4773 97.7719 97.6773 91.4719 99.8773 85.5719C108.877 84.9719 117.877 84.6719 126.877 84.1719C137.477 83.8719 148.177 83.6719 158.877 84.1719ZM112.977 125.672C112.677 130.872 112.377 136.172 112.277 141.372C107.677 136.572 104.077 131.072 101.477 125.072C105.277 125.372 109.077 125.572 112.977 125.672ZM116.177 50.0719C119.577 48.8719 123.277 47.9719 126.877 47.5719C129.777 47.2719 132.777 47.5719 135.577 48.5719C140.077 50.0719 139.477 54.4719 139.677 58.3719C140.077 64.8719 140.477 75.1719 140.877 81.9719C136.177 82.0719 131.477 82.1719 126.777 82.3719C122.577 82.5719 118.277 82.7719 113.977 82.9719V82.6719C113.977 76.4719 114.077 66.1719 114.277 59.9719C114.477 57.7719 113.677 50.9719 116.177 50.0719ZM128.077 45.4719C124.277 45.5719 120.477 46.6719 116.877 47.7719C115.477 48.1719 114.477 48.5719 113.777 49.2719C113.577 49.0719 113.377 49.0719 113.077 49.0719C109.177 49.2719 106.677 51.7719 104.477 54.5719C97.6773 48.3719 97.1773 38.1719 100.777 30.1719C104.777 21.4719 113.877 15.4719 123.377 14.8719C133.177 14.2719 142.877 20.5719 146.677 29.4719C150.077 37.6719 147.777 47.4719 141.577 53.6719C141.577 53.0719 141.477 52.4719 141.477 51.8719C140.877 46.0719 132.477 45.2719 128.077 45.4719ZM112.877 51.0719C112.777 51.3719 112.777 51.6719 112.777 51.9719C112.577 53.8719 112.377 56.0719 112.277 58.2719C109.777 57.5719 107.277 57.5719 104.677 57.4719C106.777 54.2719 109.377 51.3719 112.877 51.0719ZM111.877 60.2719C110.777 61.7719 109.677 63.3719 108.677 64.8719C108.577 64.8719 108.477 64.7719 108.277 64.7719C105.677 64.4719 103.077 64.3719 100.377 64.5719C100.777 63.9719 101.077 63.2719 101.477 62.6719C102.077 61.6719 102.677 60.5719 103.377 59.4719C106.177 59.5719 109.077 59.4719 111.877 60.2719ZM112.077 63.4719C111.977 66.3719 111.977 69.2719 111.977 72.0719C110.177 72.0719 108.477 71.8719 106.777 71.4719C108.477 68.7719 110.177 66.0719 112.077 63.4719ZM111.977 74.1719V82.5719C111.977 82.6719 111.977 82.8719 112.077 82.9719C108.277 83.1719 104.477 83.3719 100.577 83.5719C101.977 80.0719 103.777 76.6719 105.677 73.2719C107.777 73.9719 109.877 74.2719 111.977 74.1719ZM89.3773 44.5719C87.6773 36.9719 88.3773 29.3719 91.5773 22.2719C97.6773 8.87194 111.477 1.47194 125.877 2.17194C133.177 2.47194 140.277 5.17194 146.177 9.27194C153.177 14.1719 155.977 21.7719 157.777 29.7719C161.177 44.6719 157.377 62.5719 142.277 69.4719C142.077 64.9719 141.877 60.3719 141.577 56.1719C141.677 56.1719 141.777 56.0719 141.877 55.9719C149.477 49.2719 151.977 38.3719 148.477 28.8719C144.877 18.9719 134.377 12.9719 124.177 12.6719C103.777 12.1719 85.7773 40.2719 102.877 55.9719C102.977 56.0719 102.977 56.0719 103.077 56.0719C102.777 56.5719 102.477 56.9719 102.177 57.4719C102.077 57.5719 101.977 57.7719 101.877 57.8719C100.577 59.8719 99.2773 61.9719 98.0773 64.1719C93.0773 58.9719 90.9773 51.6719 89.3773 44.5719ZM99.2773 66.6719H99.4773C102.177 66.4719 104.777 66.4719 107.477 66.6719C106.577 68.0719 105.677 69.5719 104.777 71.0719C104.577 70.8719 104.377 70.7719 104.077 70.7719C101.577 70.8719 99.0774 71.1719 96.6774 71.8719C97.3774 70.1719 98.2773 68.4719 99.2773 66.6719ZM94.2773 77.3719L95.4773 74.3719C95.5773 74.3719 95.6773 74.3719 95.8773 74.2719C98.3773 73.3719 100.977 72.8719 103.677 72.7719C102.577 74.7719 101.577 76.6719 100.577 78.6719C100.377 78.5719 100.177 78.4719 99.8773 78.5719C97.6773 79.0719 95.3774 79.6719 93.1774 80.3719C93.5774 79.4719 93.8773 78.4719 94.2773 77.3719ZM92.4773 82.8719H92.8773C95.1773 82.1719 97.3774 81.4719 99.6774 80.9719C98.9774 82.5719 98.3773 84.0719 97.8773 85.6719H97.7773C95.4773 86.3719 93.1773 87.2719 90.9773 88.3719C91.3773 86.4719 91.8773 84.6719 92.4773 82.8719ZM90.3773 90.7719C92.5773 89.6719 94.7773 88.7719 97.0773 87.9719C96.4773 90.0719 95.8773 92.2719 95.4773 94.5719C95.3773 94.5719 95.3773 94.5719 95.2773 94.6719C93.2773 95.6719 91.2774 96.6719 89.1774 97.7719C89.4774 95.3719 89.8773 93.0719 90.3773 90.7719ZM71.5773 120.072C68.0773 119.572 64.5773 119.072 61.0773 118.472C58.6773 118.072 57.3773 117.372 56.3773 114.972C55.7773 113.572 55.3773 111.972 55.0773 110.472C53.4773 104.072 53.8773 97.3719 55.7773 91.1719H55.9773C64.1773 89.4719 72.4773 88.1719 80.8773 87.2719C77.5773 98.4719 77.7773 110.172 81.3773 121.272C77.9773 120.872 74.7773 120.472 71.5773 120.072ZM83.4773 121.572C79.6773 110.372 79.4773 98.4719 82.9773 87.0719L89.2773 86.4719C87.7773 92.4719 86.8774 98.5719 86.6774 104.772C86.5774 110.572 87.1773 116.372 88.5773 121.972C86.8773 121.872 85.1773 121.672 83.4773 121.572ZM88.9773 100.172C90.9773 99.1719 93.0773 98.0719 95.0773 97.0719C94.8773 98.8719 94.6774 100.772 94.6774 102.672H94.5773C92.6773 103.972 90.6774 105.072 88.6774 105.972C88.6774 104.072 88.7773 102.072 88.9773 100.172ZM88.7773 108.372C90.8773 107.372 92.7774 106.272 94.6774 105.072C94.7774 107.072 94.9774 109.072 95.1774 111.172C95.1774 111.172 95.0773 111.172 95.0773 111.272C92.9773 112.672 91.0773 114.472 89.5773 116.472C89.1773 113.772 88.8773 111.072 88.7773 108.372ZM90.0773 118.772C90.2773 118.772 90.5773 118.572 90.7773 118.372C92.0773 116.472 93.7774 114.772 95.6774 113.372C96.0774 115.472 96.5774 117.472 97.1774 119.472C95.1774 120.972 93.1773 122.472 91.3773 124.172C90.7773 122.372 90.3773 120.572 90.0773 118.772ZM91.9773 126.372C93.8773 124.672 95.7773 123.072 97.7773 121.572C98.2773 123.172 98.9773 124.672 99.5773 126.172C99.1773 126.172 98.8773 126.272 98.5773 126.572C97.1773 128.572 95.6773 130.572 94.2773 132.572C93.4773 130.572 92.6773 128.472 91.9773 126.372ZM95.2773 134.672L95.4773 134.472C97.0773 132.172 98.7773 129.972 100.377 127.672C100.977 128.972 101.677 130.172 102.377 131.372C102.077 131.372 101.777 131.572 101.677 131.872L98.0773 139.972C97.0773 138.272 96.0773 136.572 95.2773 134.672ZM99.2773 142.172C99.2773 142.072 99.3773 142.072 99.3773 141.972L102.877 133.872C103.077 133.772 103.177 133.672 103.277 133.372V133.272C104.277 134.872 105.377 136.472 106.477 137.972C106.277 138.072 106.177 138.272 106.077 138.472L102.777 147.472C101.677 145.772 100.477 143.972 99.2773 142.172ZM104.477 149.472C105.677 146.272 106.877 142.972 108.077 139.772C108.977 140.872 109.977 141.972 110.977 143.072C110.177 146.772 109.377 150.372 108.577 154.072C107.077 152.572 105.777 150.972 104.477 149.472ZM112.177 157.472C111.577 156.872 110.877 156.272 110.277 155.672V155.572C110.877 152.672 111.577 149.772 112.177 146.872V157.472ZM112.477 241.072C113.577 228.072 112.977 215.072 113.577 202.072C114.777 175.872 114.177 150.572 115.077 125.372V125.272C124.177 120.972 134.677 120.572 144.077 124.272V124.372C145.477 168.572 145.877 212.872 145.077 257.172V257.372C134.877 265.472 123.077 271.472 111.677 277.872C110.977 265.572 111.477 253.272 112.477 241.072ZM137.277 265.272C138.777 264.272 140.277 263.272 141.677 262.272C141.777 263.972 141.777 265.672 141.877 267.372C141.877 267.572 141.877 267.672 141.977 267.772C140.477 268.672 138.877 269.572 137.377 270.472C137.477 268.972 137.577 267.472 137.577 265.972C137.577 265.672 137.477 265.372 137.277 265.272ZM135.477 266.372C135.377 268.172 135.277 269.972 135.177 271.672C133.777 272.472 132.477 273.272 131.077 273.972C131.277 272.172 131.377 270.472 131.577 268.672C132.877 267.972 134.177 267.172 135.477 266.372ZM129.177 275.172C127.577 276.072 126.077 276.972 124.477 277.872C124.677 276.372 124.777 274.872 124.777 273.272C124.777 273.072 124.777 272.972 124.677 272.772C126.277 271.872 127.877 270.972 129.377 270.072C129.277 271.572 129.077 273.072 128.977 274.672C129.077 274.872 129.077 275.072 129.177 275.172ZM122.777 273.972C122.777 275.672 122.577 277.472 122.377 279.172C120.977 279.972 119.677 280.772 118.277 281.572V276.472C119.677 275.672 121.177 274.772 122.777 273.972ZM114.077 278.872L116.177 277.672V282.372C116.177 282.572 116.177 282.672 116.277 282.772C114.677 283.772 112.977 284.772 111.377 285.872V280.772C111.377 280.672 111.377 280.472 111.277 280.372C112.177 279.872 113.177 279.372 114.077 278.872ZM104.877 284.272L109.377 281.572V286.272C109.377 286.572 109.477 286.872 109.677 286.972C108.177 287.972 106.677 289.072 105.177 290.072C104.877 288.172 104.777 286.272 104.877 284.372V284.272ZM98.2773 311.372C93.8773 314.172 88.8773 315.272 83.7773 315.172C84.5773 313.872 85.3773 312.572 86.2773 311.372C86.5773 311.172 86.7773 310.972 86.7773 310.672C92.8773 302.272 100.777 295.472 109.277 289.572C110.777 298.472 105.677 306.672 98.2773 311.372ZM102.777 285.672C102.777 287.472 102.877 289.272 103.277 291.072C103.277 291.172 103.377 291.372 103.377 291.472C101.977 292.472 100.677 293.572 99.3773 294.572C98.7773 292.772 98.3773 290.872 98.0773 288.972C99.5773 287.772 101.177 286.672 102.777 285.672ZM91.8773 294.272C93.2773 292.872 94.7773 291.572 96.2773 290.372C96.5773 292.272 97.0774 294.172 97.6774 295.972C96.3774 297.072 95.0773 298.272 93.8773 299.472C92.8773 297.972 92.0774 296.372 91.6774 294.572C91.6774 294.472 91.7773 294.372 91.8773 294.272ZM89.9773 296.272C90.4773 297.772 91.2774 299.272 92.1774 300.572C92.2774 300.672 92.3773 300.872 92.4773 300.872C91.2773 302.072 90.1773 303.272 89.0773 304.472C87.9773 303.272 86.8773 301.972 85.8773 300.772C87.2773 299.172 88.5773 297.672 89.9773 296.272ZM84.5773 302.372C85.5773 303.672 86.6773 304.872 87.7773 306.072C86.9773 306.972 86.2773 307.972 85.5773 308.872C85.0773 308.472 84.5773 307.972 84.0773 307.572C83.6773 307.272 83.3773 306.872 82.9773 306.572L82.4773 306.072L82.2773 305.872C82.2773 305.772 82.2774 305.572 82.1774 305.472V305.372L84.5773 302.372ZM80.7773 307.272L81.0773 307.572L84.3773 310.572C83.7773 311.472 83.1773 312.272 82.5773 313.172C82.4773 313.072 82.4773 313.072 82.2773 312.972C80.8773 312.172 79.5774 311.372 78.1774 310.572C79.0774 309.472 79.8773 308.372 80.7773 307.272ZM77.0773 312.272C78.4773 313.072 79.8773 313.972 81.3773 314.772C81.4773 314.872 81.5774 314.872 81.6774 314.872C81.6774 314.972 81.5773 314.972 81.5773 315.072C79.5773 314.872 77.6773 314.572 75.7773 314.172C76.0773 313.572 76.5773 312.872 77.0773 312.272ZM61.7773 346.572C63.7773 346.972 65.7773 347.072 67.7773 346.872H67.8773C67.4773 348.772 67.1773 350.672 66.9773 352.572C66.7773 352.472 66.6773 352.372 66.3773 352.372H60.6773C60.9773 350.372 61.3773 348.472 61.7773 346.572ZM60.4773 354.372H66.4773C66.6773 354.372 66.7773 354.372 66.9773 354.272C66.8773 355.272 66.8773 356.272 66.8773 357.272C66.7773 357.272 66.6773 357.372 66.5773 357.372C64.5773 358.572 62.3773 359.372 60.0773 359.672C60.0773 357.972 60.2773 356.172 60.4773 354.372ZM60.0773 361.772C62.4773 361.472 64.7773 360.772 66.9773 359.672C67.0773 361.072 67.1773 362.472 67.4773 363.872C67.2773 363.872 67.1773 363.972 66.9773 364.072C65.5773 365.072 63.9773 365.972 62.3773 366.672C61.8773 366.872 61.1773 367.072 60.4773 367.272C60.1773 365.372 60.0773 363.572 60.0773 361.772ZM60.6773 369.272C60.9773 369.272 61.9773 368.872 62.1773 368.872C62.7773 368.672 63.2773 368.372 63.8773 368.172C65.2773 367.572 66.5773 366.772 67.7773 365.972C67.9773 366.872 68.1773 367.772 68.3773 368.572C68.3773 368.572 68.2773 368.572 68.2773 368.672C66.2773 370.472 63.8773 371.672 61.4773 372.772C61.0773 371.572 60.8773 370.472 60.6773 369.272ZM92.1774 402.772C91.1774 402.972 90.1773 402.972 89.2773 402.872C89.0773 402.872 88.9773 402.872 88.7773 402.772C89.9773 401.272 90.9773 399.672 91.5773 397.772C91.8773 397.972 92.1773 398.072 92.4773 398.272C94.4773 399.272 94.3774 400.672 92.1774 402.772ZM89.6774 396.872C88.9774 398.972 87.8773 400.872 86.2773 402.472L84.1774 401.872C83.0774 401.572 82.0773 401.072 81.0773 400.572C81.7773 399.972 82.6773 399.472 83.2773 398.772C84.2773 397.372 85.1773 395.872 86.0773 394.472C87.2773 395.372 88.4774 396.072 89.6774 396.872ZM82.0773 391.172L84.4773 393.272L81.7773 397.472C81.1773 398.472 80.0773 398.872 79.2773 399.572C77.9773 398.772 76.7774 397.872 75.6774 396.872C78.3774 395.472 80.4773 393.572 82.0773 391.172ZM78.5773 387.572C79.1773 388.272 79.8773 388.972 80.5773 389.672C78.9773 392.172 76.8774 393.972 74.1774 395.172C73.4774 394.472 72.8774 393.672 72.1774 392.972C74.4774 391.572 76.4773 389.972 78.2773 387.972C78.4773 387.872 78.5773 387.772 78.5773 387.572ZM77.5773 386.272C77.3773 386.272 77.1773 386.372 76.9773 386.572C75.2773 388.472 73.2773 390.072 71.0773 391.372C70.2773 390.272 69.4774 389.072 68.6774 387.772C69.0774 387.572 69.5773 387.472 69.7773 387.372C70.5773 386.972 71.3773 386.572 72.0773 386.172C73.2773 385.472 74.4773 384.572 75.5773 383.572C76.1773 384.572 76.8773 385.472 77.5773 386.272ZM74.3773 381.972C73.0773 383.172 71.6774 384.172 70.1774 385.072C69.4774 385.472 68.3773 385.772 67.5773 386.172C66.6773 384.572 65.7773 382.972 64.9773 381.372C67.1773 379.872 69.8773 379.272 71.8773 377.572C72.5773 379.072 73.4773 380.572 74.3773 381.972ZM68.9773 370.672C69.4773 372.372 70.1773 374.072 70.8773 375.672C68.9773 377.572 66.1773 378.272 63.9773 379.672C63.1773 378.072 62.5773 376.372 61.9773 374.772C64.4773 373.472 66.8773 372.272 68.9773 370.672ZM68.3773 344.872C68.2773 344.772 68.0773 344.772 67.7773 344.772C65.8773 344.972 64.0773 344.872 62.1773 344.472C62.5773 342.772 62.9773 340.972 63.4773 339.272L69.1774 341.972C68.8774 343.072 68.5773 343.972 68.3773 344.872ZM255.877 285.172C255.177 291.072 253.877 296.972 250.577 302.072C247.577 299.072 244.677 295.972 241.977 292.672C243.977 286.872 245.177 280.672 244.977 274.172C244.977 272.872 242.877 272.872 242.977 274.172C243.577 304.772 216.077 327.872 192.577 342.972C171.677 356.472 147.777 366.172 131.277 385.372C117.077 363.072 92.7773 350.972 69.5773 339.972C63.0773 336.872 56.2773 334.172 50.8773 329.272C45.5773 324.572 41.2773 318.572 36.8773 312.972C27.9773 301.772 20.0773 289.672 15.7773 275.972C15.3773 274.672 13.3773 275.272 13.7773 276.472C15.1773 280.872 16.9773 285.172 18.9773 289.272C18.8773 289.372 18.7773 289.472 18.7773 289.572C16.0773 294.172 13.6773 298.972 11.5773 303.972C2.27731 294.972 1.17734 279.472 1.47734 267.272C1.77734 254.072 5.57734 240.772 13.4773 229.972C21.9773 247.872 31.7773 266.872 50.1773 276.172C43.3773 277.872 36.4773 278.672 29.4773 278.372C27.9773 275.872 26.6773 273.172 25.5773 270.372C25.0773 269.172 23.0773 269.672 23.5773 270.872C25.5773 275.972 27.9773 280.572 31.4773 284.772C35.1773 289.272 39.5773 293.172 43.7773 297.072C52.1773 304.972 61.4774 312.072 72.6774 315.372C82.3774 318.272 93.3774 317.472 101.677 311.272C108.777 305.972 112.877 296.972 111.077 288.172C114.677 285.772 118.277 283.472 121.977 281.272C122.377 281.072 122.677 280.872 123.077 280.672C123.477 280.772 123.977 280.572 124.077 280.072C131.277 275.872 138.777 271.872 146.077 267.472C145.377 280.672 146.577 294.572 154.877 305.472C158.177 309.772 162.677 313.572 167.877 315.572C174.477 318.072 181.077 317.572 187.777 315.772C211.277 309.272 230.277 289.572 237.177 266.472C237.577 265.172 235.577 264.672 235.177 265.972C233.777 270.572 231.977 275.072 229.677 279.272H229.377C223.077 280.572 216.877 279.572 211.177 276.672C228.677 267.372 238.177 249.072 246.477 231.772C255.177 240.672 257.477 253.172 257.377 265.272C257.377 271.972 256.677 278.672 255.877 285.172Z" fill="#D2A979"/>
<path d="M77.6774 117.772C71.4774 117.672 65.3773 116.872 59.3773 115.172C58.9773 115.072 58.7774 115.772 59.1774 115.872C65.1774 117.572 71.3774 118.472 77.6774 118.472C78.1774 118.472 78.1774 117.772 77.6774 117.772ZM156.377 118.472C152.077 120.472 147.377 119.672 142.977 118.572C138.577 117.372 134.377 116.272 129.777 116.272C125.277 116.272 121.077 117.572 116.877 118.972C112.377 120.372 107.677 121.572 103.177 119.672C102.777 119.472 102.577 120.172 102.977 120.372C106.977 121.972 111.177 121.372 115.177 120.172C120.077 118.772 124.577 117.072 129.777 116.972C134.977 116.872 139.777 118.572 144.677 119.772C148.677 120.772 152.877 120.972 156.677 119.172C157.177 118.872 156.777 118.272 156.377 118.472ZM171.977 92.4719C171.877 92.0719 171.177 92.1719 171.277 92.6719C173.277 101.172 172.877 110.072 170.277 118.372C170.177 118.772 170.777 118.972 170.977 118.572C173.677 110.172 173.977 101.172 171.977 92.4719ZM193.777 114.372C188.177 115.472 182.577 116.272 176.877 116.872C176.477 116.872 176.377 117.672 176.877 117.572C182.577 116.972 188.277 116.172 193.977 115.072C194.477 114.972 194.277 114.272 193.777 114.372ZM72.1774 114.572L57.4774 112.772C56.9774 112.672 57.0774 113.472 57.4774 113.472L72.1774 115.272C72.5774 115.272 72.5774 114.572 72.1774 114.572ZM64.7773 111.572C62.1773 111.472 59.4773 111.072 56.8773 110.672C56.4773 110.572 56.2774 111.272 56.6774 111.372C59.3774 111.872 62.0773 112.172 64.7773 112.372C65.1773 112.272 65.1773 111.572 64.7773 111.572ZM65.1774 109.872C62.2774 109.372 59.3774 108.972 56.4774 108.872C55.9774 108.872 55.9774 109.572 56.4774 109.572C59.3774 109.672 62.1773 109.972 65.0773 110.572C65.3773 110.672 65.5774 109.972 65.1774 109.872ZM61.1774 107.072C60.7774 107.072 56.9773 106.572 56.3773 106.672C56.3773 106.472 56.1774 106.272 55.9774 106.372H55.8773C55.6773 106.372 55.6773 106.572 55.5773 106.672V106.772C55.5773 106.872 55.6773 106.972 55.7773 107.072C56.2773 107.472 57.2773 107.372 57.8773 107.372C58.9773 107.472 60.0773 107.572 61.2773 107.672C61.6773 107.772 61.6774 107.072 61.1774 107.072ZM60.6774 105.272C58.8774 105.072 57.1773 104.872 55.3773 104.672C54.8773 104.572 54.9773 105.372 55.3773 105.372C57.1773 105.572 58.8774 105.772 60.6774 105.972C61.0774 106.072 61.0774 105.372 60.6774 105.272ZM59.9774 103.172C58.4774 103.072 56.9774 102.872 55.4774 102.572C55.0774 102.472 54.8773 103.172 55.2773 103.272C56.7773 103.572 58.3774 103.772 59.9774 103.872C60.3774 103.872 60.3774 103.172 59.9774 103.172ZM58.0773 101.272C57.1773 101.172 56.2773 101.072 55.2773 101.172C54.7773 101.172 54.7773 101.872 55.2773 101.872C56.1773 101.772 56.9773 101.772 57.8773 101.972C58.3773 102.072 58.5773 101.372 58.0773 101.272ZM57.2773 99.6719C56.5773 99.6719 55.8774 99.5719 55.1774 99.5719C54.6774 99.5719 54.6774 100.272 55.1774 100.272C55.8774 100.272 56.5773 100.372 57.2773 100.372C57.7773 100.372 57.7773 99.6719 57.2773 99.6719ZM56.8773 98.3719C56.4773 98.2719 56.0774 98.2719 55.6774 98.1719C55.2774 98.0719 55.0774 98.7719 55.4774 98.8719C55.8774 98.9719 56.2774 98.9719 56.6774 99.0719C57.0774 99.1719 57.2773 98.4719 56.8773 98.3719ZM194.777 111.972C189.777 113.372 184.577 114.072 179.277 114.072C178.777 114.072 178.777 114.772 179.277 114.772C184.577 114.772 189.777 114.072 194.877 112.572C195.377 112.472 195.177 111.772 194.777 111.972ZM194.677 110.572C192.677 111.272 190.377 111.272 188.277 111.572L181.677 112.472C181.277 112.572 181.177 113.272 181.677 113.172C184.077 112.872 186.577 112.572 188.977 112.172C190.877 111.872 193.077 111.872 194.877 111.272C195.277 111.072 195.077 110.372 194.677 110.572ZM195.177 108.672C191.277 109.072 187.277 109.572 183.377 109.972C182.977 110.072 182.877 110.772 183.377 110.672C187.277 110.272 191.277 109.772 195.177 109.372C195.677 109.272 195.677 108.572 195.177 108.672ZM195.277 106.472C192.177 106.972 189.077 107.372 185.977 107.572C185.477 107.572 185.477 108.272 185.977 108.272C189.177 107.972 192.277 107.572 195.477 107.072C195.877 107.072 195.777 106.372 195.277 106.472ZM194.877 104.272C193.077 104.472 191.377 104.772 189.577 104.972C189.177 105.072 189.077 105.772 189.577 105.672C191.377 105.472 193.077 105.172 194.877 104.972C195.277 104.972 195.277 104.272 194.877 104.272ZM195.377 102.272H191.177C190.677 102.272 190.677 102.972 191.177 102.972H195.377C195.877 102.972 195.877 102.272 195.377 102.272ZM195.177 100.072H192.377C191.877 100.072 191.877 100.772 192.377 100.772H195.177C195.677 100.772 195.677 100.072 195.177 100.072ZM195.077 98.5719H193.677C193.177 98.5719 193.177 99.2719 193.677 99.2719H195.077C195.477 99.2719 195.477 98.5719 195.077 98.5719ZM194.777 96.2719C194.377 96.3719 194.077 96.3719 193.677 96.4719C193.277 96.5719 193.377 97.2719 193.877 97.1719C194.277 97.0719 194.577 97.0719 194.977 96.9719C195.377 96.8719 195.177 96.1719 194.777 96.2719ZM117.777 115.872C112.877 115.872 107.877 116.172 102.977 116.972C102.577 117.072 102.677 117.772 103.177 117.672C107.977 116.972 112.877 116.572 117.777 116.572C118.177 116.572 118.177 115.872 117.777 115.872ZM156.277 115.272H137.377C136.877 115.272 136.877 115.972 137.377 115.972H156.277C156.777 116.072 156.777 115.272 156.277 115.272Z" fill="#D2A979"/>
<path d="M156.277 116.572C153.177 116.672 150.077 116.872 146.877 116.972C146.377 116.972 146.377 117.672 146.877 117.672C149.977 117.572 153.077 117.372 156.277 117.272C156.777 117.172 156.777 116.472 156.277 116.572ZM112.077 118.072C109.577 118.272 107.077 118.272 104.677 118.172C104.177 118.172 104.177 118.872 104.677 118.872C107.177 118.972 109.677 118.972 112.077 118.772C112.577 118.672 112.577 117.972 112.077 118.072ZM120.277 112.972C113.977 113.472 107.677 113.872 101.377 114.172C100.877 114.172 100.877 114.872 101.377 114.872C107.677 114.572 113.977 114.172 120.277 113.672C120.677 113.672 120.677 112.972 120.277 112.972ZM117.077 111.672C111.677 111.872 106.277 112.072 100.777 112.272C100.277 112.272 100.277 112.972 100.777 112.972C106.177 112.772 111.577 112.572 117.077 112.372C117.477 112.372 117.477 111.672 117.077 111.672ZM109.977 108.672C106.677 108.872 103.477 109.272 100.177 109.772C99.7774 109.872 99.8773 110.572 100.377 110.472C103.577 109.972 106.777 109.572 109.977 109.372C110.477 109.372 110.477 108.672 109.977 108.672ZM109.777 106.572C106.277 106.772 102.877 106.972 99.3773 106.972C98.8773 106.972 98.8773 107.672 99.3773 107.672C102.877 107.572 106.377 107.472 109.777 107.272C110.277 107.272 110.277 106.572 109.777 106.572ZM107.177 104.172C104.577 104.472 101.877 104.672 99.1774 104.772C98.6774 104.772 98.6774 105.472 99.1774 105.472C101.877 105.372 104.477 105.172 107.177 104.872C107.577 104.772 107.577 104.072 107.177 104.172ZM102.177 102.272L98.0773 102.572C97.5773 102.572 97.5773 103.272 98.0773 103.272L102.177 102.972C102.677 102.972 102.677 102.272 102.177 102.272ZM100.277 100.272C99.5773 100.172 98.7773 100.272 98.0773 100.372C97.6773 100.472 97.7773 101.072 98.2773 101.072C98.9773 100.972 99.6773 100.972 100.277 100.972C100.677 101.072 100.677 100.372 100.277 100.272ZM158.577 111.772C152.177 112.272 145.877 112.772 139.477 113.172C138.977 113.172 138.977 113.872 139.477 113.872C145.877 113.372 152.177 112.872 158.577 112.472C159.077 112.472 159.077 111.772 158.577 111.772ZM159.277 109.572C153.877 109.672 148.577 110.172 143.277 111.072C142.877 111.172 142.977 111.872 143.477 111.772C148.677 110.872 153.977 110.372 159.277 110.272C159.777 110.272 159.777 109.572 159.277 109.572ZM158.977 106.972L144.277 108.172C143.777 108.172 143.777 108.872 144.277 108.872L158.977 107.672C159.377 107.672 159.377 106.972 158.977 106.972ZM158.977 105.172C155.177 105.372 151.477 105.672 147.677 106.072C147.277 106.072 147.177 106.872 147.677 106.772C151.477 106.372 155.177 106.072 158.977 105.872C159.377 105.872 159.377 105.172 158.977 105.172ZM158.777 103.272C156.077 103.372 153.477 103.572 150.777 103.672C150.277 103.672 150.277 104.372 150.777 104.372C153.477 104.272 156.077 104.072 158.777 103.972C159.277 103.972 159.277 103.272 158.777 103.272ZM158.077 101.372H153.277C152.777 101.372 152.777 102.072 153.277 102.072H158.077C158.577 102.072 158.577 101.372 158.077 101.372ZM157.677 98.6719H155.377C154.877 98.6719 154.877 99.3719 155.377 99.3719H157.677C158.177 99.3719 158.177 98.6719 157.677 98.6719ZM158.677 96.7719C158.077 96.9719 157.377 97.0719 156.777 96.7719C156.377 96.6719 156.177 97.2719 156.577 97.4719C157.377 97.6719 158.177 97.6719 158.877 97.4719C159.277 97.2719 159.077 96.5719 158.677 96.7719ZM164.177 114.472C163.977 115.772 163.777 117.072 163.477 118.372C163.377 118.772 164.077 118.972 164.177 118.572L164.877 114.672C164.977 114.272 164.277 114.072 164.177 114.472ZM166.077 109.972C166.177 112.872 165.877 115.672 165.077 118.472C164.977 118.872 165.677 119.072 165.777 118.672C166.577 115.772 166.877 112.872 166.777 109.972C166.777 109.572 166.077 109.572 166.077 109.972ZM168.777 107.172C168.777 106.672 168.077 106.672 168.077 107.172C168.377 110.872 168.177 114.572 167.277 118.172C167.177 118.572 167.877 118.772 167.977 118.372C168.877 114.672 169.177 110.972 168.777 107.172ZM171.277 104.172C171.277 103.772 170.477 103.672 170.577 104.172C171.077 108.872 170.677 113.472 169.377 118.072C169.277 118.472 169.977 118.672 170.077 118.272C171.377 113.672 171.777 108.972 171.277 104.172ZM137.577 52.1719C137.577 51.6719 136.877 51.6719 136.877 52.1719C137.477 60.9719 137.677 69.8719 137.477 78.6719C137.477 79.1719 138.177 79.1719 138.177 78.6719C138.377 69.8719 138.177 61.0719 137.577 52.1719ZM135.777 57.3719C135.777 56.8719 135.077 56.8719 135.077 57.3719C135.177 64.4719 135.277 71.4719 135.377 78.5719C135.377 79.0719 136.077 79.0719 136.077 78.5719C135.977 71.4719 135.877 64.3719 135.777 57.3719ZM133.577 61.9719C133.577 61.4719 132.877 61.4719 132.877 61.9719L133.177 77.8719C133.177 78.3719 133.877 78.3719 133.877 77.8719L133.577 61.9719ZM131.077 65.0719C130.877 69.1719 130.677 73.1719 130.677 77.2719C130.677 77.7719 131.377 77.7719 131.377 77.2719C131.477 73.1719 131.577 69.1719 131.777 65.0719C131.777 64.6719 131.077 64.6719 131.077 65.0719ZM128.377 67.7719C128.377 71.2719 128.177 74.7719 127.777 78.1719C127.777 78.6719 128.477 78.5719 128.477 78.1719C128.877 74.6719 129.077 71.2719 129.077 67.7719C129.077 67.2719 128.377 67.2719 128.377 67.7719ZM126.277 71.8719C126.077 74.0719 125.977 76.3719 125.777 78.5719C125.777 79.0719 126.477 79.0719 126.477 78.5719C126.677 76.3719 126.777 74.0719 126.977 71.8719C126.977 71.3719 126.277 71.3719 126.277 71.8719ZM124.177 74.5719C123.977 75.7719 123.777 76.9719 123.577 78.0719C123.477 78.4719 124.177 78.6719 124.277 78.2719C124.477 77.0719 124.677 75.8719 124.877 74.7719C124.877 74.2719 124.277 74.0719 124.177 74.5719ZM122.377 75.8719C121.977 76.4719 121.777 77.1719 121.777 77.8719C121.777 78.3719 122.477 78.3719 122.477 77.8719C122.477 77.2719 122.577 76.7719 122.977 76.2719C123.277 75.8719 122.677 75.4719 122.377 75.8719ZM151.877 34.5719C151.377 27.6719 148.777 19.8719 142.277 16.2719C141.877 16.0719 141.477 16.6719 141.877 16.8719C148.177 20.3719 150.477 27.8719 151.077 34.5719C151.777 42.3719 149.577 50.6719 143.477 55.8719C143.177 56.1719 143.677 56.6719 143.977 56.3719C150.377 50.9719 152.477 42.5719 151.877 34.5719Z" fill="#D2A979"/>
<path d="M153.677 37.9719C153.477 46.0719 151.077 55.5719 142.577 58.6719C142.177 58.8719 142.377 59.4719 142.777 59.3719C151.577 56.1719 154.177 46.4719 154.377 37.9719C154.377 37.5719 153.677 37.5719 153.677 37.9719Z" fill="#D2A979"/>
<path d="M153.077 51.372C150.977 56.272 147.777 60.072 142.477 61.472C142.077 61.572 142.177 62.272 142.677 62.172C148.277 60.772 151.577 56.772 153.777 51.572C153.877 51.172 153.177 50.972 153.077 51.372Z" fill="#D2A979"/>
<path d="M155.877 45.172C156.077 53.972 150.777 61.772 142.577 64.872C142.177 65.072 142.377 65.672 142.777 65.572C151.277 62.372 156.777 54.272 156.577 45.272C156.577 44.672 155.877 44.672 155.877 45.172ZM102.277 56.672C95.3774 51.272 92.6773 42.372 95.3773 34.072C95.4773 33.672 94.8774 33.472 94.6774 33.872C91.8774 42.372 94.6774 51.672 101.777 57.172C102.177 57.472 102.677 56.972 102.277 56.672Z" fill="#D2A979"/>
<path d="M100.877 57.8719C95.0773 53.4719 91.7774 46.5719 92.0774 39.2719C92.0774 38.7719 91.3773 38.7719 91.3773 39.2719C91.0773 46.7719 94.5774 53.9719 100.477 58.4719C100.877 58.7719 101.177 58.1719 100.877 57.8719Z" fill="#D2A979"/>
<path d="M98.9773 60.9719C94.9773 58.1719 92.7773 53.1719 91.3773 48.6719C89.9773 43.9719 89.6773 39.0719 90.2773 34.2719C90.3773 33.7719 89.5773 33.8719 89.5773 34.2719C88.8773 39.5719 89.3773 44.9719 91.0773 50.0719C92.4773 54.4719 94.7773 58.9719 98.6773 61.6719C99.0773 61.7719 99.3773 61.1719 98.9773 60.9719ZM112.777 11.9719C104.877 15.3719 98.4773 21.6719 95.0773 29.5719C94.8773 29.9719 95.4773 30.3719 95.6773 29.9719C99.0773 22.1719 105.377 15.9719 113.177 12.5719C113.477 12.3719 113.177 11.7719 112.777 11.9719ZM152.777 20.1719C151.077 15.7719 147.977 12.3719 144.177 9.77192C141.977 8.27192 139.477 7.17192 136.877 6.27192C134.277 5.37192 131.377 4.47192 128.577 4.77192C128.177 4.77192 128.077 5.57192 128.577 5.47192C133.277 4.97192 138.777 7.37192 142.677 9.67192C146.877 12.0719 150.277 15.7719 152.077 20.2719C152.177 20.7719 152.877 20.5719 152.777 20.1719ZM117.377 126.072V130.272C117.377 130.772 118.077 130.772 118.077 130.272V126.072C118.077 125.572 117.377 125.572 117.377 126.072ZM115.277 126.772V129.572C115.277 130.072 115.977 130.072 115.977 129.572V126.772C115.977 126.272 115.277 126.272 115.277 126.772ZM119.577 124.872V130.072C119.577 130.572 120.277 130.572 120.277 130.072V124.872C120.277 124.372 119.577 124.372 119.577 124.872ZM122.377 123.672V131.672C122.377 132.172 123.077 132.172 123.077 131.672V123.672C123.077 123.272 122.377 123.272 122.377 123.672ZM124.677 123.472V130.072C124.677 130.572 125.377 130.572 125.377 130.072V123.472C125.477 122.972 124.677 122.972 124.677 123.472ZM126.877 124.872V134.572C126.877 135.072 127.577 135.072 127.577 134.572V124.872C127.577 124.372 126.877 124.372 126.877 124.872ZM129.177 124.872V136.872C129.177 137.372 129.877 137.372 129.877 136.872V124.872C129.877 124.372 129.177 124.372 129.177 124.872ZM132.277 124.372C132.277 123.872 131.577 123.872 131.577 124.372C131.677 127.072 131.777 129.872 131.877 132.572C131.877 133.072 132.577 133.072 132.577 132.572C132.477 129.872 132.377 127.172 132.277 124.372ZM134.377 124.872C134.277 130.972 134.177 137.172 134.077 143.272C134.077 143.772 134.777 143.772 134.777 143.272C134.877 137.172 134.977 130.972 135.077 124.872C135.177 124.372 134.477 124.372 134.377 124.872ZM137.277 125.372C137.277 124.872 136.577 124.872 136.577 125.372C137.377 135.772 137.577 146.072 137.177 156.472C137.177 156.972 137.877 156.972 137.877 156.472C138.277 146.072 138.077 135.672 137.277 125.372ZM138.777 126.072V177.272C138.777 177.772 139.477 177.772 139.477 177.272V126.072C139.477 125.572 138.777 125.572 138.777 126.072ZM141.277 126.272C141.277 125.772 140.577 125.772 140.577 126.272C142.477 168.872 142.577 211.572 141.077 254.272C141.077 254.772 141.777 254.772 141.777 254.272C143.377 211.672 143.177 168.972 141.277 126.272ZM139.677 181.472C139.677 180.972 138.977 180.972 138.977 181.472C139.077 206.672 139.177 231.872 139.277 257.172C139.277 257.672 139.977 257.672 139.977 257.172C139.877 231.872 139.777 206.672 139.677 181.472ZM136.677 201.272C136.677 200.772 135.977 200.772 135.977 201.272C137.577 220.272 138.077 239.272 137.277 258.272C137.277 258.772 137.977 258.772 137.977 258.272C138.777 239.272 138.277 220.172 136.677 201.272ZM134.177 214.672C134.177 214.172 133.477 214.172 133.477 214.672C133.977 230.572 134.377 246.372 134.877 262.272C134.877 262.772 135.577 262.772 135.577 262.272C135.077 246.472 134.677 230.572 134.177 214.672ZM130.877 229.072C130.777 240.072 130.477 251.072 130.077 262.072C130.077 262.572 130.777 262.572 130.777 262.072C131.177 251.072 131.477 240.072 131.577 229.072C131.577 228.572 130.877 228.572 130.877 229.072ZM127.577 240.572V264.572C127.577 265.072 128.277 265.072 128.277 264.572V240.572C128.277 240.172 127.577 240.172 127.577 240.572ZM125.477 250.972C124.877 255.872 124.577 260.872 124.577 265.772C124.577 266.272 125.277 266.272 125.277 265.772C125.277 260.772 125.577 255.872 126.177 250.972C126.277 250.572 125.577 250.572 125.477 250.972ZM121.377 254.772V267.272C121.377 267.772 122.077 267.772 122.077 267.272V254.772C122.177 254.272 121.377 254.272 121.377 254.772ZM118.877 258.272V268.172C118.877 268.672 119.577 268.672 119.577 268.172V258.272C119.577 257.872 118.877 257.872 118.877 258.272ZM117.777 262.772C117.777 262.272 117.077 262.372 117.077 262.772C116.877 265.072 116.777 267.372 116.977 269.572C116.977 270.072 117.677 270.072 117.677 269.572C117.577 267.272 117.577 265.072 117.777 262.772ZM114.877 263.172C114.177 264.072 114.277 265.172 114.277 266.372V272.872C114.277 273.372 114.977 273.372 114.977 272.872V268.272C114.977 267.072 114.477 264.672 115.377 263.672C115.677 263.372 115.177 262.872 114.877 263.172ZM114.277 256.672C114.177 256.372 113.977 256.072 113.877 255.872C113.777 255.772 113.777 255.572 113.677 255.472C113.677 255.472 113.577 255.372 113.577 255.272L113.677 255.172C113.877 254.672 112.977 254.372 112.777 254.872C112.677 255.272 112.877 255.572 113.077 255.872C113.277 256.272 113.477 256.672 113.777 257.072C113.877 257.472 114.577 257.072 114.277 256.672ZM115.077 254.272C114.577 253.272 114.177 252.272 113.677 251.172C113.477 250.772 112.877 251.072 113.077 251.572C113.577 252.572 113.977 253.572 114.477 254.672C114.677 255.072 115.277 254.772 115.077 254.272ZM115.277 249.872C114.877 249.272 114.477 248.572 114.077 247.972C113.877 247.572 113.177 247.972 113.477 248.372C113.877 248.972 114.277 249.672 114.677 250.272C114.877 250.572 115.477 250.272 115.277 249.872ZM115.277 246.572C114.977 245.972 114.577 245.372 114.277 244.772C114.077 244.372 113.477 244.772 113.677 245.172C113.977 245.772 114.377 246.372 114.677 246.972C114.877 247.272 115.477 246.972 115.277 246.572ZM115.477 243.572C115.277 242.872 114.977 242.272 114.577 241.772C114.277 241.372 113.677 241.772 113.977 242.172C114.377 242.672 114.577 243.172 114.777 243.772C114.877 244.172 115.577 244.072 115.477 243.572ZM116.177 240.672C115.677 239.872 115.277 239.072 114.777 238.272C114.577 237.872 113.977 238.272 114.177 238.672C114.677 239.472 115.077 240.272 115.577 241.072C115.877 241.372 116.477 241.072 116.177 240.672ZM116.377 237.572C116.077 237.172 115.877 236.772 115.577 236.372C115.377 235.972 115.077 235.472 114.777 235.172C114.177 234.772 113.677 235.472 114.177 235.872C114.277 235.972 114.377 235.972 114.477 235.872C114.577 235.972 114.677 236.172 114.677 236.172C114.777 236.372 114.977 236.572 115.077 236.772C115.277 237.172 115.577 237.472 115.777 237.872C115.977 238.372 116.577 237.972 116.377 237.572ZM129.377 199.572C128.777 198.872 128.377 197.972 128.377 197.072C128.377 196.672 127.577 196.572 127.677 197.072C127.777 198.172 128.177 199.172 128.977 200.072C129.177 200.372 129.677 199.872 129.377 199.572ZM130.177 195.672C129.777 194.872 129.477 194.072 129.077 193.172C128.877 192.772 128.277 193.072 128.477 193.572C128.877 194.372 129.177 195.172 129.577 196.072C129.777 196.472 130.377 196.172 130.177 195.672ZM129.777 190.772C129.577 190.272 129.277 189.872 129.077 189.372C128.877 188.972 128.277 189.372 128.477 189.772C128.677 190.272 128.977 190.672 129.177 191.172C129.377 191.572 129.977 191.172 129.777 190.772ZM130.477 189.072C129.977 188.272 129.577 187.372 129.077 186.572C128.877 186.172 128.277 186.572 128.477 186.972C128.977 187.772 129.377 188.672 129.877 189.472C130.077 189.772 130.677 189.472 130.477 189.072ZM130.777 186.572C130.177 185.672 129.577 184.672 128.977 183.772C128.777 183.372 128.077 183.772 128.377 184.172C128.977 185.072 129.577 186.072 130.177 186.972C130.477 187.272 131.077 186.972 130.777 186.572ZM130.577 182.972L129.077 180.572C128.877 180.172 128.177 180.572 128.477 180.972L129.977 183.372C130.177 183.672 130.777 183.372 130.577 182.972ZM130.377 179.172C129.977 178.472 129.677 177.772 129.277 177.072C129.077 176.672 128.477 177.072 128.677 177.472L129.777 179.572C129.977 179.872 130.677 179.572 130.377 179.172ZM130.777 174.972C130.177 174.172 129.677 173.272 129.077 172.472C128.877 172.072 128.177 172.472 128.477 172.872C129.077 173.672 129.577 174.572 130.177 175.372C130.377 175.672 130.977 175.372 130.777 174.972ZM128.877 167.672C128.477 167.372 128.177 167.972 128.477 168.272C129.177 168.872 129.677 169.672 129.777 170.472C129.877 170.872 130.477 170.772 130.477 170.272C130.377 169.272 129.777 168.372 128.877 167.672ZM130.777 163.172C130.277 162.772 129.877 162.472 129.377 162.072C128.977 161.772 128.477 162.272 128.877 162.572C129.377 162.972 129.777 163.272 130.277 163.672C130.677 163.872 131.177 163.372 130.777 163.172ZM118.577 162.972C118.177 162.472 117.677 161.872 117.277 161.372C116.977 160.972 116.577 160.472 116.077 160.572C115.277 160.772 116.077 161.972 116.577 161.472L116.677 161.572C116.877 161.772 117.077 161.972 117.177 162.272C117.477 162.672 117.877 163.072 118.177 163.472C118.377 163.872 118.877 163.372 118.577 162.972ZM118.077 158.872C117.377 158.072 116.577 157.272 115.877 156.472C115.577 156.172 115.077 156.672 115.377 156.972C116.077 157.772 116.877 158.572 117.577 159.372C117.877 159.672 118.377 159.172 118.077 158.872ZM118.777 156.072C117.877 154.972 116.877 153.972 115.977 152.872C115.677 152.572 115.177 153.072 115.477 153.372C116.377 154.472 117.377 155.472 118.277 156.572C118.577 156.872 119.077 156.372 118.777 156.072ZM117.277 150.772L115.877 149.372C115.577 149.072 115.077 149.572 115.377 149.872L116.777 151.272C117.177 151.572 117.677 151.072 117.277 150.772ZM137.977 96.3719C137.477 95.3719 136.877 94.3719 136.377 93.2719C136.177 92.8719 135.577 93.2719 135.777 93.6719C136.277 94.6719 136.877 95.6719 137.377 96.7719C137.577 97.0719 138.177 96.7719 137.977 96.3719ZM140.677 96.7719C139.677 94.8719 138.677 93.0719 137.677 91.1719C137.477 90.7719 136.877 91.1719 137.077 91.5719C138.077 93.4719 139.077 95.2719 140.077 97.1719C140.377 97.4719 140.977 97.1719 140.677 96.7719ZM141.477 91.7719C140.977 90.8719 140.477 89.8719 140.077 88.9719C139.877 88.5719 139.277 88.9719 139.477 89.3719C139.977 90.2719 140.477 91.2719 140.877 92.1719C141.077 92.5719 141.677 92.1719 141.477 91.7719ZM142.777 89.6719C142.377 89.0719 141.877 88.4719 141.477 87.8719C141.177 87.4719 140.577 87.8719 140.877 88.2719C141.277 88.8719 141.777 89.4719 142.177 90.0719C142.477 90.3719 143.077 90.0719 142.777 89.6719ZM143.877 87.5719L143.177 86.1719C143.077 85.9719 142.777 85.9719 142.577 86.0719L141.577 87.0719C141.277 87.3719 141.777 87.8719 142.077 87.5719L142.777 86.8719C142.977 87.1719 143.077 87.5719 143.277 87.8719C143.477 88.3719 144.077 87.9719 143.877 87.5719ZM131.477 280.472C131.477 279.972 130.777 279.972 130.777 280.472C130.577 309.272 130.977 337.972 131.777 366.772C131.777 367.272 132.477 367.272 132.477 366.772C131.577 337.972 131.277 309.172 131.477 280.472ZM170.677 318.772C161.177 318.772 154.177 312.172 150.277 303.972C145.977 294.972 145.377 284.472 144.077 274.672C143.977 274.172 143.377 274.372 143.377 274.872C144.777 285.072 145.477 295.872 150.177 305.272C154.177 313.272 161.577 319.372 170.777 319.372C171.177 319.472 171.177 318.772 170.677 318.772Z" fill="#D2A979"/>
<path d="M157.977 317.572C151.477 314.572 148.077 308.072 145.977 301.672C143.277 293.572 142.177 284.772 141.977 276.272C141.977 275.772 141.277 275.772 141.277 276.272C141.477 285.072 142.677 293.972 145.477 302.372C147.577 308.872 151.177 315.272 157.577 318.272C157.977 318.372 158.377 317.772 157.977 317.572Z" fill="#D2A979"/>
<path d="M150.977 314.672C145.977 311.072 144.277 304.672 142.577 298.972C140.477 292.072 138.877 284.872 139.777 277.572C139.877 277.072 139.077 277.172 139.077 277.572C138.177 285.172 139.977 292.572 142.077 299.772C143.777 305.372 145.577 311.572 150.577 315.172C150.977 315.572 151.377 314.972 150.977 314.672Z" fill="#D2A979"/>
<path d="M146.077 313.572C139.577 303.272 137.877 291.072 136.377 279.272C136.277 278.872 135.577 278.772 135.677 279.272C137.177 291.172 138.877 303.572 145.477 313.972C145.677 314.372 146.277 313.972 146.077 313.572Z" fill="#D2A979"/>
<path d="M141.677 313.172C136.977 302.772 134.377 291.472 133.977 280.072C133.977 279.572 133.277 279.572 133.277 280.072C133.777 291.672 136.377 302.972 141.077 313.572C141.277 313.972 141.877 313.572 141.677 313.172ZM130.977 381.572C127.877 373.072 121.177 366.872 114.077 361.672C105.477 355.372 96.2774 349.772 86.9774 344.672C77.6774 339.572 67.6774 335.572 58.4774 330.172C49.5774 325.072 42.4774 317.772 36.4774 309.472C31.8774 303.172 28.0774 296.372 24.1774 289.572C23.9774 289.172 23.3774 289.572 23.5774 289.972C28.2774 298.272 33.0774 306.572 39.0774 314.072C45.2774 321.872 52.6774 327.872 61.3773 332.572C70.8773 337.572 80.6774 341.872 90.0774 347.072C99.2774 352.272 108.477 357.972 116.777 364.572C122.477 369.172 127.677 374.672 130.277 381.672C130.377 382.172 131.077 381.972 130.977 381.572Z" fill="#D2A979"/>
<path d="M131.877 377.272C129.077 368.472 120.877 362.172 113.777 356.772C105.577 350.472 96.5773 345.072 87.0773 340.772C78.4773 336.872 69.4773 333.772 60.9773 329.372C51.8773 324.672 44.4773 318.472 38.8773 309.872C36.4773 306.272 34.4773 302.372 32.3773 298.572C32.1773 298.172 31.5773 298.572 31.7773 298.972C36.4773 307.772 41.4773 316.372 49.2773 322.772C56.3773 328.572 64.7773 332.272 73.1773 335.672C82.5773 339.572 91.7773 343.372 100.577 348.572C109.377 353.872 118.077 360.072 125.177 367.572C127.877 370.372 130.077 373.672 131.277 377.372C131.377 377.872 132.077 377.672 131.877 377.272ZM231.077 298.172C226.977 307.572 220.577 315.572 213.377 322.772C205.977 330.272 197.777 337.272 188.377 342.272C183.677 344.772 178.577 346.672 173.677 348.872C169.177 350.972 164.777 353.372 160.477 355.972C152.077 361.072 144.277 367.172 137.277 373.972L133.477 377.772C133.177 378.072 133.677 378.572 133.977 378.272C140.977 370.872 148.777 364.372 157.277 358.772C161.477 355.972 165.777 353.572 170.277 351.272C174.977 348.872 179.877 346.972 184.677 344.772C194.177 340.472 202.377 333.972 209.977 326.872C217.177 320.172 223.877 312.772 228.777 304.272C229.877 302.372 230.877 300.372 231.677 298.372C231.877 298.172 231.277 297.772 231.077 298.172Z" fill="#D2A979"/>
<path d="M228.077 295.872C220.577 312.572 207.877 326.672 192.177 335.972C188.177 338.372 183.977 340.372 179.677 341.972C174.877 343.872 169.977 345.272 165.277 347.372C160.577 349.572 156.477 352.872 152.377 356.072C147.977 359.672 143.577 363.272 139.277 367.072C138.077 368.172 136.877 369.172 135.677 370.272C135.377 370.572 135.877 371.072 136.177 370.772C140.377 366.972 144.677 363.272 149.077 359.572C153.477 355.972 157.777 352.272 162.677 349.472C167.477 346.672 172.877 345.172 177.977 343.272C182.077 341.772 186.177 339.972 189.977 337.872C205.477 329.472 218.277 316.172 226.377 300.572C227.077 299.172 227.777 297.672 228.477 296.172C228.877 295.772 228.277 295.472 228.077 295.872ZM32.7773 276.572C21.5773 265.572 17.6773 249.872 14.9773 234.872C14.8773 234.472 14.1773 234.572 14.2773 235.072C17.0773 250.172 20.9773 265.972 32.2773 277.072C32.5773 277.372 33.0773 276.872 32.7773 276.572Z" fill="#D2A979"/>
<path d="M36.4773 276.372C26.3773 266.072 19.7773 252.772 17.3773 238.572C17.2773 238.172 16.5774 238.272 16.6774 238.772C19.0774 253.072 25.8773 266.472 35.9773 276.872C36.2773 277.172 36.7773 276.672 36.4773 276.372Z" fill="#D2A979"/>
<path d="M42.4774 275.872C32.2774 270.172 26.7774 259.572 21.6774 249.472C21.4774 249.072 20.8774 249.472 21.0774 249.872C26.1774 260.072 31.7774 270.772 42.0774 276.572C42.5774 276.672 42.8774 276.072 42.4774 275.872ZM16.1774 289.772C15.7774 287.972 14.6774 286.272 13.9774 284.472C13.2774 282.572 12.5774 280.572 11.9774 278.572C10.6774 274.272 9.87735 269.772 9.37735 265.272C8.37735 256.672 8.87737 247.872 10.7774 239.472C10.8774 239.072 10.1774 238.872 10.0774 239.272C8.17736 247.772 7.67736 256.572 8.57736 265.272C8.97736 269.372 9.77735 273.472 10.8773 277.572C11.4773 279.772 12.1774 281.972 12.9774 284.072C13.6774 285.972 14.8773 287.972 15.3773 289.872C15.5773 290.372 16.2774 290.172 16.1774 289.772Z" fill="#D2A979"/>
<path d="M13.8773 293.372C6.37729 278.972 4.07733 262.272 7.47733 246.372C7.57733 245.972 6.87732 245.772 6.77732 246.172C3.37732 262.272 5.67732 279.172 13.2773 293.672C13.4773 294.172 14.0773 293.772 13.8773 293.372Z" fill="#D2A979"/>
<path d="M9.67739 294.572C4.87739 283.972 2.97736 272.172 4.27736 260.572C4.27736 260.072 3.57735 260.172 3.57735 260.572C2.27735 272.272 4.17735 284.172 9.07735 294.872C9.17735 295.372 9.77739 295.072 9.67739 294.572ZM248.677 239.272C248.577 238.872 247.877 238.972 247.977 239.472C250.977 256.472 250.177 273.972 245.577 290.672C245.477 291.072 246.177 291.272 246.277 290.872C250.877 274.072 251.777 256.472 248.677 239.272Z" fill="#D2A979"/>
<path d="M251.677 246.272C251.677 245.872 250.877 245.772 250.977 246.272C251.977 256.072 251.977 265.972 250.977 275.872C250.477 280.972 249.577 286.072 248.477 291.072C248.177 292.172 247.277 293.972 248.077 294.972C248.477 295.472 248.977 294.672 248.977 294.372C248.977 294.172 248.877 294.072 248.677 294.072C248.677 294.072 248.577 294.072 248.577 293.972H248.477C248.877 291.572 250.577 283.572 250.777 282.672C251.377 278.872 251.777 275.072 252.077 271.172C252.677 262.872 252.577 254.472 251.677 246.272ZM255.877 260.172C255.877 259.672 255.177 259.672 255.177 260.172C255.777 272.672 254.077 285.172 250.277 297.172C250.177 297.572 250.777 297.772 250.977 297.372C254.777 285.272 256.477 272.772 255.877 260.172ZM242.377 244.972C239.077 255.672 233.577 265.672 226.377 274.272C226.077 274.572 226.577 275.172 226.877 274.772C234.177 266.072 239.677 255.972 242.977 245.172C243.177 244.772 242.477 244.572 242.377 244.972Z" fill="#D2A979"/>
<path d="M237.277 251.972C233.077 261.572 226.877 270.172 218.877 277.072C218.577 277.372 219.077 277.872 219.377 277.572C227.377 270.672 233.677 262.072 237.877 252.372C238.077 251.872 237.477 251.472 237.277 251.972ZM128.577 290.772C128.677 314.772 128.377 338.672 127.777 362.672C127.777 363.172 128.477 363.172 128.477 362.672C129.077 338.672 129.277 314.772 129.277 290.772C129.277 290.372 128.577 290.372 128.577 290.772ZM126.377 310.172C126.377 327.372 126.277 344.572 125.977 361.772C125.977 362.272 126.677 362.272 126.677 361.772C126.977 344.572 127.077 327.372 127.077 310.172C127.077 309.672 126.377 309.672 126.377 310.172ZM123.377 332.072L123.277 358.672C123.277 359.172 123.977 359.172 123.977 358.672L124.077 332.072C124.077 331.572 123.377 331.572 123.377 332.072ZM121.477 345.972C121.477 345.472 120.777 345.472 120.777 345.972L120.977 355.672C120.977 356.172 121.677 356.172 121.677 355.672L121.477 345.972ZM113.577 289.372C113.477 288.972 112.777 289.072 112.877 289.572C114.677 299.072 110.377 309.172 102.277 314.372C101.877 314.572 102.277 315.272 102.677 314.972C111.077 309.572 115.477 299.172 113.577 289.372Z" fill="#D2A979"/>
<path d="M116.177 288.272C116.077 287.872 115.377 287.772 115.477 288.272C116.377 294.872 115.077 301.572 111.777 307.372C111.577 307.772 112.177 308.172 112.377 307.772C115.777 301.772 117.077 294.972 116.177 288.272ZM95.4774 318.272C88.3774 321.472 80.4774 320.672 73.2774 318.572C66.8774 316.672 60.7774 313.772 55.0774 310.272C43.8774 303.372 34.3774 293.672 27.6774 282.272C27.4774 281.872 26.8774 282.272 27.0774 282.672C34.0774 294.472 43.9774 304.372 55.6774 311.472C61.6774 315.072 68.1774 317.972 74.8773 319.772C81.7773 321.672 89.2773 321.972 95.8773 318.972C96.2773 318.772 95.8774 318.172 95.4774 318.272Z" fill="#D2A979"/>
</svg>
