<svg width="462" height="709" viewBox="0 0 462 709" fill="none" xmlns="http://www.w3.org/2000/svg">
<path d="M213.5 128.461C217.2 131.061 219.4 134.661 220 139.161C220.3 141.661 219.7 144.161 218.8 146.461C218.5 147.161 218 147.661 218.2 148.461C218.3 148.861 218.6 149.161 219 149.061H219.2C219.6 148.961 219.9 148.661 219.8 148.261V148.061C219.8 147.861 219.7 147.761 219.6 147.661C219.9 146.561 220.9 144.561 221.1 143.661C221.6 141.361 221.4 139.061 221 136.761C220.2 132.861 217.5 129.561 214.4 127.261C213.7 126.661 212.7 127.861 213.5 128.461ZM250 54.3606C248.5 62.5606 245.5 70.4607 242 77.9607C241.6 78.8607 243 79.4607 243.4 78.5607C249.3 65.7607 257 46.9607 249.2 33.4607C248.7 32.6607 247.5 33.5606 248 34.3606C251.5 40.5606 251.2 47.6606 250 54.3606ZM240.5 82.6607C235.7 92.0607 230.2 101.161 224.1 109.861C223.5 110.661 224.7 111.561 225.3 110.761C231.5 101.961 237 92.8607 241.9 83.2607C242.3 82.3607 240.9 81.8606 240.5 82.6607ZM194.6 132.661C194.2 133.061 193.8 133.561 193.4 133.961C192.8 134.661 193.9 135.561 194.6 134.861C195 134.461 195.4 133.961 195.8 133.561C196.4 132.861 195.2 131.961 194.6 132.661ZM197 136.761C197.2 136.561 197.5 136.361 197.7 136.161C198 136.461 198.5 136.461 198.8 136.061C199.3 135.361 199.8 134.761 200.4 134.061C201 133.261 199.8 132.361 199.2 133.161C199 133.161 198.9 133.161 198.7 133.361C197.9 134.061 197 134.861 196.2 135.561C195.4 136.161 196.3 137.361 197 136.761ZM203.9 140.561C205.5 139.161 207 137.661 208.3 135.961C208.9 135.161 207.7 134.261 207.1 135.061C205.9 136.661 204.5 138.061 203 139.361C202.3 139.961 203.2 141.161 203.9 140.561ZM207.4 141.561C208.3 140.661 209.1 139.761 210 138.861C210.7 138.161 209.5 137.261 208.8 137.961C207.9 138.861 207.1 139.761 206.2 140.661C205.5 141.361 206.7 142.261 207.4 141.561ZM211.1 139.461L208.8 142.561C208.2 143.361 209.4 144.261 210 143.461C210.8 142.461 211.5 141.461 212.3 140.361C212.9 139.661 211.7 138.761 211.1 139.461ZM209.3 102.561L211.7 99.3606C212.3 98.5606 211.1 97.6607 210.5 98.4607C209.7 99.5607 208.9 100.661 208.1 101.661C207.6 102.361 208.7 103.361 209.3 102.561ZM211.7 103.661C213.6 101.761 215.3 99.7607 216.9 97.5607C217.5 96.7607 216.3 95.8606 215.7 96.6607C214.1 98.8606 212.4 100.861 210.5 102.761C209.9 103.361 211.1 104.261 211.7 103.661ZM216.1 104.861C218.6 101.661 220.9 98.2607 223 94.6607C223.5 93.8606 222.1 93.2607 221.6 94.0607C219.6 97.4607 217.3 100.761 214.9 103.861C214.3 104.661 215.5 105.561 216.1 104.861ZM227.3 91.6607C224.9 96.4607 221.7 100.761 218.5 105.061C217.9 105.861 219.1 106.761 219.7 105.961C222.9 101.561 226.2 97.1607 228.7 92.1607C229.1 91.3606 227.8 90.7607 227.3 91.6607ZM233 88.5607C230.1 95.6607 226 101.961 220.9 107.661C220.3 108.361 221.4 109.261 222.1 108.561C227.3 102.861 231.4 96.3606 234.4 89.1607C234.7 88.2607 233.3 87.6607 233 88.5607ZM199.5 99.2607L200.5 96.8606C200.9 95.9606 199.5 95.3607 199.1 96.2607L198.1 98.6607C197.7 99.5607 199.1 100.061 199.5 99.2607ZM203 99.9607L204.4 97.7607C204.9 96.9607 203.7 96.0606 203.2 96.8606C202.7 97.5606 202.3 98.3607 201.8 99.0607C201.4 99.7607 202.5 100.761 203 99.9607ZM206.3 100.261L207.3 98.8606C207.9 98.0606 206.7 97.1607 206.1 97.9607L205.1 99.3606C204.5 100.161 205.7 101.061 206.3 100.261ZM212.5 118.061C215.6 119.261 218.2 120.861 220.6 123.061C221.3 123.761 222.2 122.561 221.5 121.861C219 119.561 216.2 117.861 213 116.661C212.2 116.361 211.6 117.761 212.5 118.061ZM213.6 115.961C215.6 116.661 217.3 117.761 218.9 119.161C219.6 119.761 220.5 118.661 219.8 117.961C218.1 116.461 216.2 115.361 214.1 114.561C213.3 114.261 212.7 115.661 213.6 115.961ZM255.6 6.86065C255 6.16065 253.8 7.06066 254.4 7.76066C258.8 12.9607 256.7 20.8607 253.5 26.1607C253 26.9606 254.2 27.8607 254.7 27.0607C258.3 21.1607 260.5 12.5606 255.6 6.86065Z" fill="#E8E8E8"/>
<path d="M253.8 15.2606C254.3 19.0606 252.6 22.3606 250.9 25.6606C250.5 26.4606 251.8 27.0606 252.3 26.2606C254.1 22.7606 255.9 19.1606 255.3 15.1606C255.2 14.1606 253.7 14.3606 253.8 15.2606ZM250.8 19.7606C250.6 20.9606 250.1 22.1606 249.3 23.1606C248.7 23.9606 249.9 24.8606 250.5 24.0606C251.4 22.8606 252 21.4606 252.3 19.9606C252.5 18.9606 251 18.7606 250.8 19.7606ZM247.7 21.2606C244.5 19.4606 240.8 18.9606 237.2 19.7606C236.3 19.9606 236.5 21.4606 237.4 21.2606C240.8 20.4606 244.1 20.9606 247.2 22.6606C248 23.1606 248.5 21.7606 247.7 21.2606ZM212.6 51.4606C212.6 52.3606 214.1 52.6606 214.1 51.6606V49.6606C214.1 48.7606 212.6 48.4606 212.6 49.4606C212.7 50.1606 212.6 50.7606 212.6 51.4606ZM211.1 55.2606C211.1 56.1606 212.6 56.4606 212.6 55.4606V52.8606C212.6 51.9606 211.1 51.6606 211.1 52.6606V55.2606ZM209.8 57.5606C209.9 58.3606 209.9 59.2606 210 60.0606C210.1 61.0606 211.6 60.8606 211.5 59.8606C211.4 59.0606 211.3 58.1606 211.3 57.3606C211.2 56.3606 209.7 56.5606 209.8 57.5606ZM208 61.7606L208.5 64.8606C208.6 65.7606 210.1 65.6606 210 64.6606L209.5 61.5606C209.4 60.6606 207.9 60.8606 208 61.7606ZM208.2 68.3606L208 66.6606C207.9 65.6606 206.4 65.8606 206.5 66.8606L206.7 68.5606C206.8 69.4606 208.3 69.3606 208.2 68.3606ZM205.1 70.7606C205.2 71.3606 205.3 71.8606 205.4 72.4606C205.6 73.3606 207.1 73.2606 206.9 72.2606C206.8 71.6606 206.7 71.1606 206.6 70.5606C206.4 69.6606 204.9 69.7606 205.1 70.7606ZM245.6 40.9606C246.1 40.4606 246.5 39.9606 247 39.5606C247.7 38.8606 246.5 37.9606 245.8 38.6606C245.3 39.1606 244.9 39.6606 244.4 40.0606C243.8 40.7606 244.9 41.6606 245.6 40.9606ZM247 41.5606L244.8 43.7606C244.1 44.4606 245.3 45.3606 246 44.6606L248.2 42.4606C248.9 41.7606 247.7 40.8606 247 41.5606ZM247.1 46.2606C246.2 47.0606 245.3 47.9606 244.5 48.7606C243.8 49.4606 244.7 50.6606 245.4 49.9606L248 47.4606C248.7 46.7606 247.8 45.5606 247.1 46.2606ZM246.4 50.5606L244.1 52.7606C243.4 53.4606 244.6 54.3606 245.3 53.6606C246.1 52.9606 246.8 52.1606 247.6 51.4606C248.3 50.8606 247.1 49.9606 246.4 50.5606ZM245.3 55.1606C244.6 55.8606 243.9 56.4606 243.3 57.1606C242.6 57.8606 243.5 59.0606 244.2 58.3606C244.9 57.6606 245.6 57.0606 246.2 56.3606C246.9 55.7606 246 54.5606 245.3 55.1606ZM244.6 59.6606C243.7 60.3606 242.9 61.0606 242 61.7606C241.3 62.3606 242.2 63.5606 242.9 62.9606C243.8 62.2606 244.6 61.5606 245.5 60.8606C246.2 60.2606 245.3 59.0606 244.6 59.6606ZM243.1 65.0606C242.1 65.8606 241.1 66.6606 240.2 67.5606C239.5 68.1606 240.4 69.3606 241.1 68.7606C242.1 67.9606 243.1 67.1606 244 66.2606C244.7 65.6606 243.8 64.4606 243.1 65.0606ZM240 72.1606C240.4 71.5606 241 71.1606 241.7 70.8606C242.6 70.5606 242 69.1606 241.1 69.4606C240.2 69.8606 239.4 70.3606 238.8 71.1606C238.3 71.9606 239.4 72.8606 240 72.1606ZM235 79.3606C236.2 78.0606 237.6 76.9606 239.1 75.9606C239.9 75.3606 239 74.2606 238.2 74.7606C236.6 75.8606 235.2 77.0606 233.9 78.4606C233.2 79.0606 234.3 80.0606 235 79.3606ZM234.6 83.7606L237.6 81.3606C238.3 80.7606 237.5 79.5606 236.7 80.1606L233.7 82.5606C233 83.2606 233.9 84.4606 234.6 83.7606ZM17.5 574.461C17.9 574.061 18.3 573.561 18.7 573.161C19.3 572.461 18.2 571.561 17.5 572.261C17.1 572.661 16.7 573.161 16.3 573.561C15.7 574.261 16.9 575.161 17.5 574.461ZM15.1 570.461C14.3 571.161 13.4 571.961 12.6 572.661C11.9 573.261 12.8 574.461 13.5 573.861C14.3 573.161 15.2 572.361 16 571.661C16.7 570.961 15.8 569.761 15.1 570.461ZM4.69995 565.561C3.79995 566.461 2.99995 567.361 2.09995 568.261C1.39995 568.961 2.59995 569.861 3.29995 569.161C4.19995 568.261 4.99995 567.361 5.89995 566.461C6.59995 565.861 5.39995 564.961 4.69995 565.561ZM2.79995 604.661L0.399951 607.861C-0.200049 608.661 0.999951 609.561 1.59995 608.761C2.39995 607.661 3.19995 606.561 3.99995 605.561C4.59995 604.761 3.39995 603.861 2.79995 604.661ZM12.6 607.961L11.6 610.361C11.2 611.261 12.6 611.861 13 610.961L14 608.561C14.4 607.661 13 607.061 12.6 607.961ZM9.09995 607.261L7.69995 609.461C7.19995 610.261 8.39995 611.161 8.89995 610.361C9.39995 609.661 9.79995 608.861 10.3 608.161C10.8 607.361 9.59995 606.461 9.09995 607.261ZM5.79995 606.961L4.79995 608.361C4.19995 609.161 5.39995 610.061 5.99995 609.261L6.99995 607.861C7.59995 607.061 6.39995 606.161 5.79995 606.961ZM0.199951 651.161V655.161C0.599951 655.261 0.999951 655.061 0.999951 654.561V651.961C0.999951 651.461 0.599951 651.161 0.199951 651.161ZM2.29995 649.661C2.19995 648.861 2.09995 647.961 2.09995 647.161C1.99995 646.161 0.499951 646.361 0.599951 647.361C0.699951 648.161 0.799951 649.061 0.799951 649.861C0.999951 650.861 2.39995 650.661 2.29995 649.661ZM4.09995 645.361L3.59995 642.261C3.49995 641.361 1.99995 641.461 2.09995 642.461L2.59995 645.561C2.69995 646.561 4.19995 646.361 4.09995 645.361ZM3.89995 638.861L4.09995 640.561C4.19995 641.561 5.69995 641.361 5.59995 640.361L5.39995 638.661C5.29995 637.661 3.79995 637.861 3.89995 638.861ZM6.99995 636.461C6.89995 635.861 6.79995 635.361 6.69995 634.761C6.49995 633.861 4.99995 633.961 5.19995 634.961C5.29995 635.561 5.39995 636.061 5.49995 636.661C5.69995 637.561 7.19995 637.361 6.99995 636.461ZM71.7 409.161L70.5 408.261C65.4 417.561 62.1 427.661 58.4 437.661L45.7999 471.861C45.5 472.761 46.7999 473.361 47.2 472.461C51.2 461.561 55.2 450.561 59.2999 439.661C63.0999 429.361 66.5 418.761 71.7 409.161ZM77 412.561C76.6 412.361 76.1 412.061 75.7 411.761C72.3999 419.461 69.3 427.161 66.5 435.061C66.2 435.961 67.4999 436.561 67.8999 435.661C70.7 427.861 73.8 420.161 77 412.561ZM78.6 413.361L72.2 428.561C71.7999 429.461 73.2 430.061 73.6 429.161L80 414.061C79.5 413.861 79 413.561 78.6 413.361ZM83.5 415.761C83.3 415.661 83.2 415.661 83 415.561C82.6 416.461 82.2 417.261 81.7 418.161C81.2 418.961 82.6 419.561 83.1 418.761C83.6 417.961 83.9999 417.061 84.3999 416.161C84.0999 415.961 83.8 415.861 83.5 415.761ZM73.5 461.661C73.1 460.761 71.7999 461.361 72.1 462.261C72.2999 462.661 72.5 463.161 72.6 463.561C73 464.461 74.3 463.861 74 462.961L73.5 461.661ZM72.3999 458.361C72.7 459.261 73.1 460.161 73.6 460.961C74.1 461.761 75.2999 460.861 74.7999 460.061C74.3999 459.361 74.1 458.561 73.7999 457.861C73.4999 456.861 72.0999 457.461 72.3999 458.361ZM74.7 454.561C74.8999 455.161 75 455.861 75.2 456.461C75.3999 457.361 76.8999 457.161 76.7 456.261L76.2 454.361C76 453.461 74.5 453.561 74.7 454.561ZM77.3999 452.961C77.7 453.861 79.1 453.261 78.7999 452.361C78.4999 451.461 78.1 450.461 77.7999 449.561C77.4999 448.661 76.0999 449.261 76.3999 450.161C76.7 451.061 77.0999 451.961 77.3999 452.961ZM78.8999 447.861C78.8999 448.061 79 448.161 79 448.361V448.661C78.9 449.661 80.4 449.861 80.5 448.861C80.6 447.961 80.2 446.861 79.8999 446.061C79.4999 445.161 78.1 445.761 78.5 446.661C78.7 446.961 78.7999 447.461 78.8999 447.861ZM80.1 444.461L80.3999 445.661C80.5999 446.561 82.0999 446.361 81.8999 445.461L81.6 444.261C81.4 443.361 79.9 443.461 80.1 444.461ZM81.5 441.861C81.6 441.961 81.6 442.161 81.5 442.261C81 443.061 82.1 443.961 82.7 443.161C83.2 442.461 83.2 441.661 82.7 440.961C82.1 440.161 81 441.061 81.5 441.861ZM52 485.461C46.2999 482.161 40.0999 480.161 33.5 479.561C28.4 479.161 25.6 482.961 23.8 487.261C23.4 488.161 24.8 488.761 25.2 487.861C26.1 485.661 27.2 483.661 29.1 482.061C31.2 480.361 34.5 481.161 36.9 481.461C42.1 482.261 47 484.161 51.5 486.761C52.2999 487.361 52.7999 485.961 52 485.461ZM66.8999 496.261C67.4999 495.761 68 495.261 68.6 494.761C69.2999 494.161 68.3999 492.961 67.7 493.561L66 495.061C65.3 495.761 66.0999 496.961 66.8999 496.261ZM63.7 494.961L65.1 493.861C65.9 493.261 65 492.061 64.2 492.661L62.7999 493.761C62 494.361 62.9 495.561 63.7 494.961ZM60.4 493.061C61.3 492.461 61.9 491.661 62.5 490.761C63 489.961 61.6 489.361 61.1 490.161C60.7 490.861 60.2 491.361 59.5 491.861C58.7999 492.461 59.6 493.561 60.4 493.061ZM57.5 491.761C58.2999 491.161 59 490.461 59.6 489.661C60.2 488.961 59 487.961 58.4 488.761C57.9 489.461 57.3 490.061 56.6 490.561C55.8 491.161 56.7 492.361 57.5 491.761ZM55.2 490.161C55.9 489.861 56.4 489.361 56.6 488.561C56.9 487.661 55.5 487.061 55.2 487.961C55.1 488.361 54.9 488.561 54.6 488.761C53.8 489.161 54.4 490.561 55.2 490.161ZM331.2 461.061C328.6 464.761 325 466.961 320.5 467.561C318 467.861 315.5 467.261 313.2 466.361C312.5 466.061 312 465.561 311.2 465.761C310.8 465.861 310.5 466.161 310.6 466.561V466.761C310.7 467.161 311 467.461 311.4 467.361H311.6C311.8 467.361 311.9 467.261 312 467.161C313.1 467.461 315.1 468.461 316 468.661C318.3 469.161 320.6 468.961 322.9 468.561C326.8 467.761 330.1 465.061 332.4 461.961C332.9 461.261 331.8 460.261 331.2 461.061ZM381 490.861C393.8 496.761 412.6 504.461 426.1 496.661C426.9 496.161 426 494.961 425.2 495.461C419 499.061 412 498.761 405.2 497.461C397 495.961 389.1 492.961 381.6 489.461C380.7 489.161 380.2 490.461 381 490.861ZM348.9 472.761C357.7 478.961 366.8 484.461 376.4 489.361C377.3 489.761 377.8 488.461 377 487.961C367.6 483.161 358.5 477.661 349.8 471.561C349 471.061 348.1 472.261 348.9 472.761ZM324.7 442.161C325.1 442.561 325.6 442.961 326 443.361C326.7 443.961 327.6 442.861 326.9 442.161C326.5 441.761 326 441.361 325.6 440.961C324.9 440.261 324 441.461 324.7 442.161ZM322.9 444.561C323.6 445.361 324.4 446.261 325.1 447.061C325.7 447.761 326.9 446.861 326.3 446.161C325.6 445.361 324.8 444.461 324.1 443.661C323.5 442.961 322.3 443.761 322.9 444.561ZM320.6 446.561C321.9 448.161 323.2 449.661 324.8 451.061C325.5 451.661 326.4 450.561 325.7 449.861C324.3 448.561 323 447.161 321.8 445.661C321.2 444.961 320 445.861 320.6 446.561ZM319.1 451.461C320.5 453.061 322 454.561 323.7 455.861C324.5 456.461 325.4 455.261 324.6 454.661C323 453.461 321.6 452.061 320.3 450.561C319.7 449.861 318.5 450.761 319.1 451.461ZM319 453.761C318.3 453.061 317.4 454.261 318.1 454.961C319 455.861 319.9 456.661 320.8 457.561C321.5 458.261 322.4 457.061 321.7 456.361C320.8 455.461 319.9 454.661 319 453.761ZM316.2 457.561C317.2 458.361 318.2 459.061 319.3 459.861C320.1 460.461 321 459.261 320.2 458.661L317.1 456.361C316.3 455.761 315.4 456.961 316.2 457.561Z" fill="#E8E8E8"/>
<path d="M313.9 460.961C315.5 462.361 317 463.661 318.7 464.861C319.5 465.461 320.4 464.261 319.6 463.661L314.8 459.761C314.1 459.161 313.2 460.261 313.9 460.961ZM357.1 456.861L360.3 459.261C361.1 459.861 362 458.661 361.2 458.061C360.1 457.261 359 456.461 358 455.661C357.2 455.061 356.3 456.261 357.1 456.861ZM356 459.261C357.9 461.161 359.9 462.861 362.1 464.461C362.9 465.061 363.8 463.861 363 463.261C360.8 461.661 358.8 459.961 356.9 458.061C356.3 457.461 355.4 458.661 356 459.261ZM354.8 463.561C358 466.061 361.4 468.361 365 470.461C365.8 470.961 366.4 469.561 365.6 469.061C362.2 467.061 358.9 464.761 355.8 462.361C355 461.861 354.1 462.961 354.8 463.561ZM353.7 467.261C358.1 470.461 362.5 473.761 367.5 476.261C368.4 476.661 368.9 475.361 368.1 474.861C363.3 472.461 359 469.261 354.7 466.061C353.8 465.561 352.9 466.661 353.7 467.261ZM351.1 469.561C356.8 474.761 363.3 478.861 370.5 481.861C371.4 482.261 372 480.861 371.1 480.461C364 477.561 357.7 473.461 352 468.361C351.3 467.761 350.4 468.961 351.1 469.561ZM360.4 447.061L362.8 448.061C363.7 448.461 364.3 447.061 363.4 446.661L361 445.661C360.1 445.261 359.6 446.661 360.4 447.061ZM359.7 450.561L361.9 451.961C362.7 452.461 363.6 451.261 362.8 450.761C362.1 450.261 361.3 449.861 360.6 449.361C359.8 448.861 358.9 450.061 359.7 450.561ZM361.7 453.661L360.3 452.661C359.5 452.061 358.6 453.261 359.4 453.861L360.8 454.861C361.5 455.361 362.5 454.161 361.7 453.661ZM341.6 460.061C340.4 463.161 338.8 465.761 336.6 468.161C335.9 468.861 337.1 469.761 337.8 469.061C340.1 466.561 341.8 463.761 343 460.561C343.3 459.761 341.9 459.161 341.6 460.061ZM341.7 467.361C343.2 465.661 344.3 463.761 345.1 461.661C345.4 460.761 344.1 460.161 343.7 461.061C343 463.061 341.9 464.761 340.5 466.361C339.9 467.161 341.1 468.161 341.7 467.361ZM452.8 503.161C453.5 502.561 452.6 501.361 451.9 501.961C446.7 506.361 438.8 504.261 433.5 501.061C432.7 500.561 431.8 501.761 432.6 502.261C438.5 505.861 447 508.061 452.8 503.161Z" fill="#E8E8E8"/>
<path d="M444.5 502.861C445.5 502.761 445.3 501.261 444.3 501.361C440.5 501.861 437.2 500.161 433.9 498.461C433.1 498.061 432.5 499.361 433.3 499.861C436.9 501.661 440.5 503.361 444.5 502.861ZM435.6 498.061C436.8 498.961 438.2 499.561 439.7 499.861C440.6 500.061 440.8 498.561 439.9 498.361C438.7 498.161 437.5 497.661 436.5 496.861C435.8 496.361 434.8 497.461 435.6 498.061ZM437 494.661C436.5 495.461 437.9 496.061 438.4 495.261C440.2 492.061 440.7 488.361 439.9 484.761C439.7 483.861 438.2 484.061 438.4 484.961C439.2 488.261 438.7 491.661 437 494.661ZM408 461.661H410C410.9 461.661 411.2 460.161 410.2 460.161H408.2C407.2 460.161 407 461.661 408 461.661ZM404.2 460.061H406.8C407.7 460.061 408 458.561 407 458.561H404.4C403.5 458.561 403.3 460.061 404.2 460.061ZM399.8 459.061C400.6 458.961 401.5 458.861 402.3 458.861C403.3 458.761 403.1 457.261 402.1 457.361C401.3 457.461 400.4 457.561 399.6 457.561C398.7 457.661 398.9 459.061 399.8 459.061ZM395 457.461L398.1 456.961C399 456.861 398.9 455.361 397.9 455.461L394.8 455.961C393.9 456.161 394 457.661 395 457.461ZM391.3 455.761L393 455.561C394 455.461 393.8 453.961 392.8 454.061L391.1 454.261C390.2 454.361 390.3 455.861 391.3 455.761ZM387.4 454.461C388 454.361 388.5 454.261 389.1 454.161C390 453.961 389.9 452.461 388.9 452.661C388.3 452.761 387.8 452.861 387.2 452.961C386.2 453.161 386.4 454.661 387.4 454.461ZM418.7 493.161C419.2 493.661 419.7 494.061 420.1 494.561C420.8 495.261 421.7 494.061 421 493.361C420.5 492.861 420 492.461 419.6 491.961C418.9 491.361 418 492.461 418.7 493.161ZM415 493.461L417.2 495.661C417.9 496.361 418.8 495.161 418.1 494.461L415.9 492.261C415.2 491.661 414.3 492.761 415 493.461ZM409.7 492.861L412.2 495.461C412.9 496.161 414.1 495.261 413.4 494.561C412.6 493.661 411.7 492.761 410.9 491.961C410.2 491.361 409 492.161 409.7 492.861ZM405.9 492.861C406.6 493.661 407.4 494.361 408.1 495.161C408.8 495.861 409.7 494.661 409 493.961L406.8 491.661C406.1 491.061 405.2 492.161 405.9 492.861ZM401.3 491.761C402 492.461 402.6 493.161 403.3 493.761C404 494.461 405.2 493.561 404.5 492.861C403.8 492.161 403.2 491.461 402.5 490.861C401.8 490.161 400.6 491.061 401.3 491.761ZM396.7 490.461C397.4 491.361 398.1 492.161 398.8 493.061C399.4 493.761 400.6 492.861 400 492.161C399.3 491.261 398.6 490.461 397.9 489.561C397.2 488.861 396 489.761 396.7 490.461ZM390.9 488.561C391.7 489.561 392.5 490.561 393.4 491.461C394 492.161 395.2 491.261 394.6 490.561C393.8 489.561 393 488.561 392.1 487.661C391.5 486.961 390.3 487.861 390.9 488.561ZM387.5 487.561C388.1 487.961 388.5 488.561 388.8 489.261C389.1 490.161 390.5 489.561 390.2 488.661C389.8 487.761 389.3 486.961 388.5 486.361C387.7 485.761 386.7 486.961 387.5 487.561ZM383.7 486.561C384.3 487.361 385.4 486.461 384.9 485.661C383.8 484.061 382.6 482.661 381.2 481.361C380.5 480.661 379.6 481.861 380.3 482.561C381.6 483.761 382.7 485.161 383.7 486.561ZM379.5 484.261L377.1 481.261C376.5 480.561 375.3 481.361 375.9 482.161L378.3 485.161C378.9 485.861 380.1 484.961 379.5 484.261ZM22 305.961C14.7 303.261 7.49995 300.661 0.199951 297.961V299.561C6.79995 301.961 13.4 304.461 20.1 306.861C31 310.861 42.2 314.461 52.2999 320.261C52.5 319.861 52.7999 319.361 53 318.961C43.2999 313.361 32.5 309.861 22 305.961ZM50.1 324.261C41.7 320.561 33.2 317.161 24.6 314.061C23.7 313.761 23.1 315.061 24 315.461C32.6 318.561 41.1 321.961 49.5 325.661C49.7 325.161 49.9 324.661 50.1 324.261ZM48.2 328.461C48.2999 328.261 48.4 328.061 48.4 327.961C48.5 327.761 48.5 327.561 48.6 327.461C48.6 327.361 48.6 327.361 48.7 327.261L31 319.761C30.1 319.361 29.5 320.761 30.4 321.161L48.1 328.661C48.2 328.561 48.2 328.461 48.2 328.461ZM47.7999 329.661C44.2999 328.061 40.7999 326.461 37.2999 324.761C36.3999 324.361 35.7999 325.761 36.7 326.161C40.2 327.761 43.7 329.361 47.2 331.061C47.4 330.561 47.5999 330.161 47.7999 329.661ZM5.09995 322.261C4.49995 322.461 3.79995 322.561 3.19995 322.761C2.29995 322.961 2.49995 324.461 3.39995 324.261L5.29995 323.761C6.19995 323.561 5.99995 322.061 5.09995 322.261ZM9.59995 323.961C8.69995 324.261 7.69995 324.661 6.79995 324.961C5.89995 325.261 6.49995 326.661 7.39995 326.361C8.29995 326.061 9.29995 325.661 10.2 325.361C11 325.061 10.5 323.661 9.59995 323.961ZM13 326.061C12.6 326.261 12.2 326.361 11.8 326.461C11.6 326.461 11.5 326.561 11.3 326.561H11C9.99995 326.461 9.79995 327.961 10.8 328.061C11.7 328.161 12.8 327.761 13.6 327.461C14.5 326.961 13.9 325.561 13 326.061ZM15.2 327.661L14 327.961C13.1 328.161 13.3 329.661 14.2 329.461L15.4 329.161C16.3 328.861 16.2 327.461 15.2 327.661ZM17.8 328.961C17.7 329.061 17.5 329.061 17.4 328.961C16.6 328.461 15.7 329.561 16.5 330.161C17.2 330.661 18 330.661 18.7 330.161C19.5 329.661 18.6 328.461 17.8 328.961ZM338.3 282.461C336.8 284.461 334.5 285.761 332.3 286.761C331.6 287.061 330.9 287.061 330.5 287.661C330.3 287.961 330.3 288.461 330.6 288.661C330.7 288.661 330.7 288.761 330.8 288.761C331.1 289.061 331.6 288.961 331.8 288.661L331.9 288.561C332 288.461 332.1 288.261 332.1 288.161C333.1 287.561 335.2 286.961 336 286.461C338 285.261 339.5 283.461 340.8 281.461C343 278.161 343.4 273.961 342.8 270.061C342.6 269.161 341.2 269.261 341.3 270.261C342 274.861 341 278.961 338.3 282.461ZM419.4 243.761C412.6 248.461 404.8 251.961 397.1 254.861C396.2 255.161 396.8 256.561 397.7 256.261C410.9 251.361 429.7 243.561 433.7 228.461C433.9 227.561 432.5 227.361 432.2 228.261C430.3 235.161 425.1 239.861 419.4 243.761ZM392.7 257.061C382.6 260.361 372.4 262.861 361.9 264.661C361 264.861 361.1 266.261 362.1 266.161C372.7 264.361 383.1 261.761 393.3 258.461C394.1 258.161 393.6 256.761 392.7 257.061ZM324.9 259.961C324.3 259.961 323.7 260.061 323.1 260.061C322.1 260.061 322.3 261.561 323.3 261.561C323.9 261.561 324.5 261.461 325.1 261.461C326 261.461 325.8 259.961 324.9 259.961ZM327.2 263.361C326.1 263.261 325 263.161 323.9 263.161C322.9 263.061 322.7 264.561 323.7 264.661C324.8 264.761 325.9 264.861 327 264.861C328 264.861 328.2 263.361 327.2 263.361ZM329.4 266.361C327.5 266.461 325.6 266.361 323.7 266.161C322.7 266.061 322.5 267.561 323.5 267.661C325.5 267.861 327.6 267.961 329.6 267.861C330.6 267.761 330.4 266.361 329.4 266.361ZM332.1 270.461C330.1 270.761 328.1 270.761 326.1 270.661C325.1 270.561 324.9 272.061 325.9 272.161C328 272.361 330.2 272.261 332.3 271.961C333.2 271.861 333.1 270.361 332.1 270.461ZM331.2 273.761C329.9 273.761 328.7 273.861 327.4 273.861C326.4 273.861 326.6 275.361 327.6 275.361C328.9 275.361 330.1 275.261 331.4 275.261C332.3 275.261 332.2 273.761 331.2 273.761ZM331.7 276.461L327.9 276.961C326.9 277.061 327.1 278.561 328.1 278.461C329.4 278.261 330.6 278.061 331.9 277.961C332.8 277.861 332.7 276.361 331.7 276.461Z" fill="#E8E8E8"/>
<path d="M328.9 282.561C331 282.461 333 282.261 335.1 281.961C336.1 281.861 335.9 280.361 334.9 280.461C332.9 280.661 330.8 280.861 328.7 281.061C327.8 281.061 328 282.561 328.9 282.561ZM360.4 246.961C359.1 247.161 357.8 247.361 356.4 247.561C355.5 247.661 355.6 249.161 356.6 249.061L360.6 248.461C361.5 248.361 361.3 246.861 360.4 246.961ZM365.4 249.461C362.8 249.861 360.1 250.061 357.4 250.061C356.4 250.061 356.6 251.561 357.6 251.561C360.3 251.561 362.9 251.361 365.6 250.961C366.5 250.861 366.3 249.361 365.4 249.461ZM371.3 251.861C367.4 252.861 363.5 253.561 359.6 254.061C358.6 254.161 358.8 255.661 359.8 255.561C363.9 255.061 367.9 254.261 371.9 253.261C372.8 252.961 372.2 251.561 371.3 251.861ZM377.1 254.161C372 255.861 366.7 256.561 361.4 257.461C360.5 257.561 360.6 259.061 361.6 258.961C367 258.161 372.5 257.361 377.7 255.561C378.5 255.161 378 253.861 377.1 254.161ZM383.2 255.961C376.1 258.861 368.8 260.561 361.2 260.861C360.2 260.861 360.4 262.361 361.4 262.361C369.2 261.961 376.6 260.361 383.8 257.361C384.7 256.961 384.1 255.561 383.2 255.961ZM353.9 237.461L351.5 238.461C350.6 238.861 351.2 240.161 352.1 239.861L354.5 238.861C355.3 238.461 354.7 237.061 353.9 237.461ZM356.4 240.761C355.5 240.961 354.7 241.161 353.8 241.361C352.9 241.561 353 243.061 354 242.861L356.6 242.261C357.5 241.961 357.3 240.461 356.4 240.761ZM357.6 243.561L355.9 243.861C355 244.061 355.1 245.461 356.1 245.361L357.8 245.061C358.7 244.861 358.5 243.461 357.6 243.561ZM350 271.661C350 272.661 351.5 272.461 351.5 271.461C351.4 268.061 350.6 264.861 349.2 261.761C348.8 260.861 347.4 261.461 347.8 262.361C349.2 265.361 349.9 268.461 350 271.661ZM351.7 267.661C351.8 268.661 353.2 268.461 353.2 267.461C353 265.261 352.5 263.061 351.6 261.061C351.2 260.161 349.8 260.761 350.2 261.661C351 263.561 351.5 265.561 351.7 267.661ZM441.9 226.261C441 226.461 441.1 227.961 442.1 227.761C448.8 226.161 456.4 221.661 457 214.161C457.1 213.161 455.6 212.961 455.5 213.961C455 220.761 447.9 224.861 441.9 226.261Z" fill="#E8E8E8"/>
<path d="M440.4 224.161C439.5 224.461 440 225.861 441 225.561C444.8 224.361 448.5 223.061 451 219.861C451.6 219.061 450.4 218.161 449.8 218.961C447.5 221.861 443.9 223.061 440.4 224.161ZM441.2 222.761C442.7 222.461 444.1 221.961 445.4 221.061C446.2 220.561 445.3 219.361 444.5 219.861C443.5 220.561 442.3 221.061 441.1 221.261C440.1 221.361 440.3 222.861 441.2 222.761ZM439.8 219.361C440.1 220.261 441.4 219.761 441.2 218.761C440.2 215.161 437.9 212.261 434.8 210.261C434 209.761 433.1 210.961 433.9 211.461C436.8 213.261 438.9 215.961 439.8 219.361ZM396 216.461C396.5 215.961 397 215.561 397.4 215.061C398.1 214.361 397.2 213.161 396.5 213.861C396 214.361 395.5 214.761 395.1 215.261C394.4 215.961 395.3 217.161 396 216.461ZM392.2 218.061L394 216.261C394.7 215.561 393.8 214.361 393.1 215.061L391.3 216.861C390.6 217.561 391.5 218.761 392.2 218.061ZM388.3 220.361C388.8 219.761 389.4 219.061 389.9 218.461C390.5 217.761 389.3 216.861 388.7 217.561C388.2 218.161 387.6 218.861 387.1 219.461C386.5 220.261 387.7 221.161 388.3 220.361ZM383.8 222.761L385.6 220.261C386.2 219.461 385 218.561 384.4 219.361L382.6 221.861C382.1 222.661 383.3 223.561 383.8 222.761ZM380 224.061L381.1 222.661C381.7 221.861 380.5 220.961 379.9 221.761L378.8 223.161C378.2 223.961 379.4 224.861 380 224.061ZM376.3 225.961C376.6 225.461 377 224.961 377.3 224.461C377.8 223.661 376.7 222.761 376.1 223.561C375.8 224.061 375.4 224.561 375.1 225.061C374.6 225.861 375.8 226.761 376.3 225.961ZM425.8 231.261H427.8C428.8 231.261 428.6 229.761 427.6 229.761H425.6C424.7 229.761 424.8 231.261 425.8 231.261ZM423.4 234.061H426.6C427.6 234.061 427.4 232.561 426.4 232.561H423.2C422.3 232.561 422.4 234.061 423.4 234.061ZM419.3 237.361L423 237.461C423.9 237.461 424.2 235.961 423.2 235.961C422 235.961 420.8 235.861 419.5 235.861C418.5 235.861 418.3 237.361 419.3 237.361ZM416.6 240.061H419.8C420.8 240.061 420.6 238.561 419.6 238.561H416.4C415.4 238.561 415.6 240.061 416.6 240.061ZM412.5 242.461C413.4 242.461 414.4 242.461 415.3 242.561C416.2 242.561 416.5 241.061 415.5 241.061C414.6 241.061 413.6 241.061 412.7 240.961C411.8 240.961 411.6 242.461 412.5 242.461ZM408.3 244.861L411.6 245.161C412.6 245.261 412.8 243.761 411.8 243.661L408.5 243.361C407.6 243.361 407.4 244.761 408.3 244.861ZM402.9 247.661C404.2 247.761 405.4 247.861 406.7 247.961C407.7 248.061 407.9 246.561 406.9 246.461C405.6 246.361 404.4 246.261 403.1 246.161C402.2 246.061 402 247.561 402.9 247.661ZM399.8 249.261C400.5 249.161 401.2 249.261 401.9 249.561C402.8 249.961 403.4 248.561 402.5 248.161C401.6 247.761 400.6 247.661 399.7 247.761C398.7 247.961 398.8 249.461 399.8 249.261ZM396.7 249.861C394.8 249.561 392.9 249.361 391 249.361C390 249.361 390.2 250.861 391.2 250.861C393 250.861 394.7 251.061 396.5 251.361C397.4 251.461 397.6 249.961 396.7 249.861ZM387.7 253.761C389 253.861 390.2 254.061 391.5 254.161C392.5 254.261 392.7 252.761 391.7 252.661C390.4 252.561 389.2 252.361 387.9 252.261C387 252.161 386.8 253.661 387.7 253.761ZM231.6 311.161C221 316.061 210.4 320.961 199.9 325.861C190.6 330.161 181.4 334.861 171.7 337.961C171.8 338.461 171.9 338.961 172 339.361C181.4 336.361 190.2 331.961 199.1 327.761C210.1 322.661 221.1 317.561 232.2 312.461C233.1 312.161 232.5 310.761 231.6 311.161ZM170.3 333.261C177.5 330.361 184.6 327.261 191.6 323.961C192.5 323.561 191.9 322.161 191 322.561C184 325.861 177 328.861 169.8 331.761C170 332.261 170.2 332.761 170.3 333.261ZM169.2 330.161L183 324.561C183.9 324.161 183.3 322.861 182.4 323.161L168.7 328.761C168.9 329.261 169.1 329.661 169.2 330.161ZM206.9 300.761C207.1 300.361 207.3 299.861 207.4 299.461C207.8 298.561 206.4 297.961 206 298.861L205.5 300.161C205.1 301.061 206.5 301.661 206.9 300.761ZM202.5 302.761C202.1 303.661 203.4 304.161 203.9 303.361C204.3 302.561 204.7 301.661 204.9 300.661C205.1 299.761 203.7 299.561 203.4 300.461C203.2 301.261 202.9 301.961 202.5 302.761ZM199.6 304.361C199.9 303.861 200.3 303.261 200.6 302.761C201.1 301.961 199.9 301.061 199.4 301.861L198.4 303.461C197.9 304.261 199.1 305.161 199.6 304.361ZM195.2 306.361C195.6 305.461 196.1 304.561 196.5 303.661C196.9 302.761 195.5 302.261 195.1 303.061C194.7 303.961 194.2 304.861 193.8 305.761C193.5 306.661 194.8 307.161 195.2 306.361ZM191.3 307.361C191.4 306.961 191.7 306.561 191.9 306.161C192 306.061 192.1 305.861 192.2 305.761C192.2 305.761 192.5 305.361 192.4 305.561C193.1 304.961 192.2 303.761 191.5 304.361C190.8 304.961 190.3 305.961 190 306.761C189.6 307.661 191 308.261 191.3 307.361ZM188.6 307.761L189.2 306.661C189.7 305.861 188.5 304.961 188 305.761L187.4 306.861C187 307.661 188.1 308.561 188.6 307.761ZM185.8 308.561C185.8 308.361 185.9 308.261 186.1 308.261C187 308.061 186.9 306.661 185.9 306.761C185 306.961 184.5 307.461 184.3 308.261C184.1 309.361 185.6 309.561 185.8 308.561ZM246.5 315.861C249.8 319.761 254.5 319.061 258.8 317.261C259.7 316.861 259.1 315.461 258.2 315.861C256 316.761 253.8 317.461 251.4 317.261C248.7 316.961 246.9 314.061 245.4 312.161C242.3 307.961 240.2 303.061 238.9 298.061C238.7 297.161 237.3 297.661 237.5 298.661C239.2 304.961 242.2 310.761 246.5 315.861ZM234.7 280.461C234 280.461 233.2 280.361 232.5 280.361C231.5 280.261 231.3 281.761 232.3 281.861L234.5 281.961C235.4 281.961 235.6 280.461 234.7 280.461ZM236 283.661L234.2 283.461C233.2 283.361 233 284.861 234 284.961L235.8 285.161C236.7 285.261 236.9 283.761 236 283.661ZM236.9 287.261C235.8 287.061 234.8 287.161 233.8 287.461C232.9 287.761 233.4 289.061 234.4 288.861C235.2 288.661 235.9 288.661 236.7 288.761C237.7 288.861 237.9 287.461 236.9 287.261ZM235.3 291.761C236.2 291.661 237 291.661 237.9 291.761C238.9 291.861 239.1 290.361 238.1 290.261C237.1 290.161 236.1 290.161 235.1 290.261C234.2 290.361 234.4 291.861 235.3 291.761ZM237 294.461C237.3 294.261 237.6 294.261 238 294.361C238.9 294.661 239.5 293.261 238.6 292.961C237.9 292.761 237.2 292.761 236.5 293.061C235.5 293.561 236.1 294.861 237 294.461ZM44.4 366.561C33.4 369.461 23.3 374.661 13 379.361C8.69995 381.361 4.49995 383.261 0.199951 385.261V386.861C4.19995 385.061 8.19995 383.161 12.2 381.361C22.8 376.461 33.2999 370.961 44.7 367.961C44.6 367.461 44.5 367.061 44.4 366.561ZM45.7999 372.361C37.2999 375.661 28.7999 379.361 20.5 383.261C19.6 383.661 20.2 385.061 21.1 384.661C29.4 380.761 37.7999 377.161 46.2999 373.861C46.0999 373.361 45.8999 372.861 45.7999 372.361ZM46.7999 375.461L29.1 382.661C28.2 383.061 28.8 384.361 29.7 384.061L47.4 376.961C47.1 376.361 47 375.961 46.7999 375.461ZM48.6 380.061C46.9 380.861 45.0999 381.461 43.2999 382.061C42.3999 382.361 42.9 383.761 43.9 383.461C45.7 382.961 47.5 382.261 49.2999 381.461C49 380.961 48.8 380.561 48.6 380.061ZM5.19995 406.461C4.99995 406.861 4.79995 407.361 4.69995 407.761C4.29995 408.661 5.69995 409.261 6.09995 408.361L6.59995 407.061C6.99995 406.161 5.59995 405.561 5.19995 406.461ZM9.59995 404.461C9.99995 403.561 8.69995 403.061 8.19995 403.861C7.79995 404.661 7.39995 405.561 7.19995 406.561C6.99995 407.461 8.39995 407.661 8.69995 406.761C8.89995 405.961 9.19995 405.161 9.59995 404.461ZM12.5 402.861C12.2 403.361 11.8 403.961 11.5 404.461C11 405.261 12.2 406.161 12.7 405.361L13.7 403.761C14.2 402.961 13 402.061 12.5 402.861ZM16.9 400.861C16.5 401.761 16 402.661 15.6 403.561C15.2 404.461 16.6 404.961 17 404.161C17.4 403.261 17.9 402.361 18.3 401.461C18.6 400.561 17.3 399.961 16.9 400.861ZM20.8 399.861C20.7 400.261 20.4 400.661 20.2 401.061C20.1 401.161 20 401.361 19.9 401.461C19.9 401.461 19.6 401.861 19.7 401.661C19 402.261 19.9 403.461 20.6 402.861C21.3 402.261 21.8 401.261 22.1 400.461C22.5 399.561 21.1 398.961 20.8 399.861ZM23.5 399.461L22.9 400.561C22.4 401.361 23.6 402.261 24.1 401.461L24.7 400.361C25.1 399.561 24 398.661 23.5 399.461ZM26.3 398.561C26.3 398.761 26.2 398.861 26 398.861C25.1 399.061 25.2 400.461 26.2 400.361C27.1 400.161 27.6 399.661 27.8 398.861C28 397.861 26.5 397.661 26.3 398.561ZM215.9 666.961C211.2 660.161 207.7 652.361 204.8 644.661C204.5 643.761 203.1 644.361 203.4 645.261C208.3 658.461 216.1 677.261 231.2 681.261C232.1 681.461 232.3 680.061 231.4 679.761C224.5 677.861 219.8 672.661 215.9 666.961ZM195 609.461C194.8 608.561 193.4 608.661 193.5 609.661C195.3 620.261 197.9 630.661 201.2 640.861C201.5 641.761 202.9 641.161 202.6 640.261C199.3 630.161 196.8 619.861 195 609.461ZM199.6 570.661C199.6 569.661 198.1 569.861 198.1 570.861C198.1 571.461 198.2 572.061 198.2 572.661C198.2 573.661 199.7 573.461 199.7 572.461C199.6 571.861 199.6 571.261 199.6 570.661ZM196.6 571.461C196.7 570.461 195.2 570.261 195.1 571.261C195 572.361 194.9 573.461 194.9 574.561C194.8 575.561 196.3 575.761 196.4 574.761C196.4 573.661 196.5 572.561 196.6 571.461ZM193.5 571.261C193.6 570.261 192.1 570.061 192 571.061C191.8 573.061 191.7 575.161 191.8 577.161C191.8 578.161 193.3 577.961 193.3 576.961C193.2 575.061 193.3 573.161 193.5 571.261ZM189 573.661C189.1 572.661 187.6 572.461 187.5 573.461C187.3 575.561 187.4 577.761 187.7 579.861C187.8 580.861 189.3 580.661 189.2 579.661C188.9 577.661 188.8 575.661 189 573.661ZM185.8 574.961C185.8 573.961 184.3 574.161 184.3 575.161C184.3 576.461 184.4 577.661 184.4 578.961C184.4 579.961 185.9 579.761 185.9 578.761C185.9 577.461 185.8 576.261 185.8 574.961ZM182.6 575.461C182.5 574.461 181 574.661 181.1 575.661C181.3 576.961 181.5 578.161 181.6 579.461C181.7 580.461 183.2 580.261 183.1 579.261L182.6 575.461ZM211.2 608.061C211.3 608.961 212.8 608.861 212.7 607.861C212.5 606.561 212.3 605.261 212.1 603.861C212 602.961 210.5 603.061 210.6 604.061L211.2 608.061ZM208.7 613.061C208.8 613.961 210.3 613.861 210.2 612.861C209.8 610.261 209.6 607.561 209.6 604.861C209.6 603.861 208.1 604.061 208.1 605.061C208.1 607.761 208.3 610.461 208.7 613.061ZM206.5 619.361C206.7 620.261 208.1 619.761 207.9 618.761C206.9 614.861 206.2 610.961 205.7 607.061C205.6 606.061 204.1 606.261 204.2 607.261C204.7 611.361 205.4 615.361 206.5 619.361ZM204.2 625.161C204.5 626.061 205.9 625.461 205.6 624.561C203.9 619.461 203.2 614.161 202.3 608.861C202.2 607.961 200.7 608.061 200.8 609.061C201.6 614.461 202.4 619.961 204.2 625.161ZM202.3 631.361C202.7 632.261 204 631.661 203.7 630.761C200.8 623.661 199.1 616.361 198.8 608.761C198.8 607.761 197.3 607.961 197.3 608.961C197.7 616.661 199.4 624.161 202.3 631.361ZM220.8 601.961C221.2 602.861 222.5 602.261 222.2 601.361L221.2 598.961C220.8 598.061 219.5 598.661 219.8 599.561L220.8 601.961ZM218.3 601.361C218.1 600.461 216.6 600.561 216.8 601.561L217.4 604.161C217.6 605.061 219.1 604.961 218.9 603.961C218.7 603.061 218.5 602.261 218.3 601.361ZM214.6 605.261C214.8 606.161 216.2 606.061 216.1 605.061L215.8 603.361C215.6 602.461 214.2 602.561 214.3 603.561L214.6 605.261ZM197.3 595.361C194.3 596.661 191.2 597.461 188 597.561C187 597.561 187.2 599.061 188.2 599.061C191.6 598.961 194.8 598.161 197.9 596.761C198.7 596.361 198.2 594.961 197.3 595.361ZM198 597.661C196.1 598.561 194.1 599.061 192 599.161C191 599.261 191.2 600.661 192.2 600.661C194.4 600.461 196.6 599.961 198.6 599.061C199.5 598.661 198.9 597.261 198 597.661ZM245.7 703.061C238.9 702.461 234.8 695.461 233.3 689.461C233.1 688.561 231.6 688.661 231.8 689.661C233.4 696.361 237.9 703.961 245.4 704.561C246.4 704.661 246.7 703.161 245.7 703.061Z" fill="#E8E8E8"/>
<path d="M239.9 698.461C240.7 699.061 241.6 697.861 240.8 697.261C237.8 694.961 236.6 691.361 235.6 687.861C235.3 686.961 233.9 687.461 234.2 688.461C235.3 692.261 236.6 695.961 239.9 698.461Z" fill="#E8E8E8"/>
<path d="M238.6 692.961C239.1 693.761 240.3 692.861 239.8 692.061C239.1 691.061 238.6 689.861 238.4 688.661C238.2 687.761 236.8 687.861 236.9 688.861C237.2 690.261 237.7 691.661 238.6 692.961ZM240.9 688.761C244.5 687.761 247.4 685.461 249.4 682.361C249.9 681.561 248.7 680.661 248.2 681.461C246.4 684.461 243.7 686.461 240.3 687.361C239.4 687.561 240 688.961 240.9 688.761ZM243.1 643.461C243.6 643.961 244 644.461 244.5 644.861C245.2 645.561 246.4 644.661 245.7 643.961C245.2 643.461 244.8 642.961 244.3 642.561C243.7 641.961 242.5 642.861 243.1 643.461ZM241.6 639.761L243.4 641.561C244.1 642.261 245.3 641.361 244.6 640.661L242.8 638.861C242.1 638.161 240.9 639.061 241.6 639.761ZM239.3 635.861C239.9 636.361 240.6 636.961 241.2 637.461C241.9 638.061 242.8 636.861 242.1 636.261C241.5 635.761 240.8 635.161 240.2 634.661C239.4 634.061 238.5 635.261 239.3 635.861ZM236.9 631.361L239.4 633.161C240.2 633.761 241.1 632.561 240.3 631.961L237.8 630.161C237 629.661 236.1 630.761 236.9 631.361ZM235.5 627.461L236.9 628.561C237.7 629.161 238.6 627.961 237.8 627.361L236.4 626.261C235.7 625.761 234.8 626.861 235.5 627.461ZM233.7 623.861C234.2 624.161 234.7 624.561 235.1 624.861C235.9 625.361 236.8 624.261 236 623.661C235.5 623.361 235 622.961 234.5 622.661C233.8 622.161 232.9 623.261 233.7 623.861ZM229.9 675.161V673.161C229.9 672.161 228.4 672.361 228.4 673.361V675.361C228.5 676.261 229.9 676.161 229.9 675.161ZM227.1 673.961V670.761C227.1 669.761 225.6 669.961 225.6 670.961V674.161C225.6 675.061 227.1 674.861 227.1 673.961ZM223.7 670.661C223.7 669.461 223.8 668.261 223.8 666.961C223.8 666.061 222.3 665.761 222.3 666.761L222.2 670.461C222.2 671.461 223.6 671.661 223.7 670.661ZM221.1 667.161V663.961C221.1 662.961 219.6 663.161 219.6 664.161V667.361C219.6 668.261 221.1 668.061 221.1 667.161ZM217.1 662.861C217.1 663.761 218.6 664.061 218.6 663.061C218.6 662.161 218.6 661.161 218.7 660.261C218.7 659.361 217.2 659.061 217.2 660.061C217.1 660.961 217.1 661.961 217.1 662.861ZM214.5 659.161C214.4 660.161 215.9 660.361 216 659.361L216.3 656.061C216.4 655.061 214.9 654.861 214.8 655.861L214.5 659.161ZM211.7 654.261C211.6 655.261 213.1 655.461 213.2 654.461C213.3 653.161 213.4 651.961 213.5 650.661C213.6 649.661 212.1 649.461 212 650.461C211.9 651.761 211.8 652.961 211.7 654.261ZM210.1 649.461C209.7 650.361 211.1 650.961 211.5 650.061C211.9 649.161 212 648.161 211.9 647.261C211.7 646.361 210.3 646.461 210.4 647.461C210.5 648.061 210.4 648.761 210.1 649.461ZM208.4 643.961C208.2 644.861 209.7 645.161 209.9 644.161C210.2 642.261 210.4 640.361 210.4 638.461C210.4 637.461 208.9 637.661 208.9 638.661C208.8 640.461 208.7 642.261 208.4 643.961ZM207 639.261C207.1 637.961 207.3 636.761 207.4 635.461C207.5 634.461 206 634.261 205.9 635.261C205.8 636.561 205.6 637.761 205.5 639.061C205.4 640.061 206.9 640.261 207 639.261ZM148.5 479.161C143.6 468.561 138.7 457.961 133.8 447.461C129.3 437.661 124.3 427.861 121.2 417.461L119.7 417.761C122.7 427.761 127.4 437.161 131.8 446.661C136.9 457.661 142 468.661 147.1 479.761C147.5 480.661 148.9 480.061 148.5 479.161ZM127.3 415.961C126.8 416.061 126.3 416.261 125.9 416.361C129 424.061 132.2 431.661 135.8 439.161C136.2 440.061 137.6 439.461 137.2 438.561C133.6 431.161 130.3 423.561 127.3 415.961ZM130.3 414.861C129.8 415.061 129.4 415.161 128.9 415.361L135 430.561C135.4 431.461 136.7 430.861 136.4 429.961L130.3 414.861ZM160.7 453.561L159.4 453.061C158.5 452.661 157.9 454.061 158.8 454.461C159.2 454.661 159.7 454.861 160.1 454.961C161 455.361 161.6 453.961 160.7 453.561ZM156.3 451.461C157.1 451.861 158 452.261 159 452.461C159.9 452.661 160.1 451.261 159.2 450.961C158.4 450.761 157.6 450.461 156.9 450.061C156.1 449.661 155.5 450.961 156.3 451.461ZM155.3 447.161C155.8 447.461 156.4 447.861 156.9 448.161C157.7 448.661 158.6 447.461 157.8 446.961L156.2 445.961C155.4 445.461 154.5 446.661 155.3 447.161ZM153.3 442.761C154.2 443.161 155.1 443.661 156 444.061C156.9 444.461 157.4 443.061 156.6 442.661C155.7 442.261 154.8 441.761 153.9 441.361C153 440.961 152.5 442.361 153.3 442.761ZM152.9 437.461C152 437.161 151.4 438.461 152.3 438.861C152.7 438.961 153.1 439.261 153.5 439.461C153.6 439.561 153.8 439.661 153.9 439.761C153.9 439.761 154.3 440.061 154.1 439.961C154.7 440.661 155.9 439.761 155.3 439.061C154.7 438.361 153.7 437.761 152.9 437.461ZM151.9 436.161L153 436.761C153.8 437.261 154.7 436.061 153.9 435.561L152.8 434.961C152 434.461 151.1 435.661 151.9 436.161ZM151.1 433.361C151.3 433.361 151.4 433.461 151.4 433.661C151.6 434.561 153 434.461 152.9 433.461C152.7 432.561 152.2 432.061 151.4 431.861C150.3 431.661 150.1 433.161 151.1 433.361ZM161.1 485.061C154.7 486.761 148.9 489.761 143.8 494.061C139.9 497.361 140.6 502.061 142.4 506.361C142.8 507.261 144.2 506.661 143.8 505.761C142.9 503.561 142.2 501.361 142.4 498.961C142.7 496.261 145.6 494.461 147.5 492.961C151.7 489.861 156.6 487.761 161.6 486.461C162.6 486.161 162 484.761 161.1 485.061ZM177.8 481.961C177.7 482.961 179.2 483.161 179.3 482.161C179.3 481.461 179.4 480.661 179.4 479.961C179.5 478.961 178 478.761 177.9 479.761L177.8 481.961ZM174.5 483.261C174.4 484.261 175.9 484.461 176 483.461L176.2 481.661C176.3 480.661 174.8 480.461 174.7 481.461L174.5 483.261ZM172.4 484.461C172.6 483.361 172.5 482.361 172.2 481.361C171.9 480.461 170.6 480.961 170.8 481.961C171 482.761 171 483.461 170.9 484.261C170.8 485.161 172.2 485.361 172.4 484.461ZM169.4 482.661C169.3 481.661 167.8 481.861 167.9 482.861C168 483.761 168 484.561 167.9 485.461C167.8 486.461 169.3 486.661 169.4 485.661C169.5 484.661 169.5 483.661 169.4 482.661ZM165.2 484.461C165.4 484.761 165.4 485.061 165.3 485.461C165 486.361 166.4 486.961 166.7 486.061C166.9 485.361 166.9 484.661 166.6 483.961C166.1 483.061 164.7 483.661 165.2 484.461ZM22.8 118.361C27.3 117.561 31.3 118.561 34.9 121.361C36.9 122.861 38.2 125.161 39.2 127.361C39.5 128.061 39.5 128.761 40.1 129.161C40.4 129.361 40.9 129.361 41.1 129.061C41.1 128.961 41.2 128.961 41.2 128.861C41.5 128.561 41.4 128.061 41.1 127.861L41 127.761C40.9 127.661 40.7 127.561 40.6 127.561C40 126.561 39.4 124.461 38.9 123.661C37.7 121.661 35.9 120.161 33.9 118.861C30.6 116.661 26.4 116.261 22.5 116.861C21.7 117.061 21.9 118.561 22.8 118.361ZM8.69995 62.0607C6.59995 56.2607 3.79995 49.3606 0.199951 43.1606V46.7607C2.99995 51.8607 5.29995 57.2606 7.29995 62.6606C7.69995 63.5606 8.99995 62.9607 8.69995 62.0607ZM17.1 97.7607C17.3 98.6607 18.7 98.5607 18.6 97.5607C16.8 86.9607 14.2 76.5606 10.9 66.3606C10.6 65.4606 9.19995 66.0606 9.49995 66.9606C12.8 77.0606 15.3 87.3606 17.1 97.7607ZM13.9 134.661C13.9 133.661 12.4 133.861 12.4 134.861C12.4 135.461 12.5 136.061 12.5 136.661C12.5 137.661 14 137.461 14 136.461C14 135.761 14 135.161 13.9 134.661ZM17.3 132.661C17.4 131.661 15.9 131.461 15.8 132.461C15.7 133.561 15.6 134.661 15.6 135.761C15.5 136.761 17 136.961 17.1 135.961C17.1 134.861 17.2 133.761 17.3 132.661ZM20.3 130.061C20.3 129.061 18.8 129.261 18.8 130.261C18.9 132.161 18.8 134.061 18.6 135.961C18.5 136.961 20 137.161 20.1 136.161C20.3 134.061 20.4 132.061 20.3 130.061ZM24.4 127.361C24.3 126.361 22.8 126.561 22.9 127.561C23.2 129.561 23.2 131.561 23.1 133.561C23 134.561 24.5 134.761 24.6 133.761C24.7 131.561 24.7 129.461 24.4 127.361ZM27.7 128.261C27.7 127.261 26.2 127.461 26.2 128.461C26.2 129.761 26.3 130.961 26.3 132.261C26.3 133.261 27.8 133.061 27.8 132.061C27.8 130.761 27.7 129.561 27.7 128.261ZM30.4 127.761C30.3 126.761 28.8 126.961 28.9 127.961L29.4 131.761C29.5 132.761 31 132.561 30.9 131.561C30.8 130.261 30.6 129.061 30.4 127.761Z" fill="#E8E8E8"/>
<path d="M34.4 124.561C34.3 123.561 32.8 123.761 32.9 124.761C33.1 126.761 33.2999 128.861 33.5 130.961C33.5999 131.961 35 131.761 35 130.761C34.7999 128.661 34.6 126.561 34.4 124.561ZM0.899951 99.1606C0.899951 98.6606 0.499951 98.4606 0.199951 98.4606V103.561C0.599951 104.061 1.69995 103.861 1.49995 103.061L0.899951 99.1606ZM3.39995 94.1606C3.29995 93.2606 1.79995 93.3606 1.89995 94.3606C2.29995 96.9606 2.49995 99.6606 2.49995 102.361C2.49995 103.361 3.99995 103.161 3.99995 102.161C3.99995 99.4606 3.79995 96.7606 3.39995 94.1606ZM5.69995 87.7606C5.49995 86.8606 4.09995 87.3606 4.29995 88.3606C5.29995 92.2606 5.99995 96.1606 6.49995 100.061C6.59995 101.061 8.09995 100.861 7.99995 99.8606C7.39995 95.8606 6.69995 91.7606 5.69995 87.7606ZM7.99995 82.0606C7.69995 81.1606 6.29995 81.7606 6.59995 82.6606C8.29995 87.7606 8.99995 93.0606 9.89995 98.3606C9.99995 99.2606 11.5 99.1606 11.4 98.1606C10.5 92.6606 9.69995 87.2606 7.99995 82.0606ZM9.79995 75.8606C9.39995 74.9606 8.09995 75.5606 8.39995 76.4606C11.3 83.5606 13 90.8606 13.3 98.4606C13.3 99.4606 14.8 99.2606 14.8 98.2606C14.4 90.5606 12.8 83.0606 9.79995 75.8606ZM14.8 111.761C17.8 110.461 20.9 109.661 24.1 109.561C25.1 109.561 24.9 108.061 23.9 108.061C20.5 108.161 17.3 108.961 14.2 110.361C13.4 110.861 13.9 112.161 14.8 111.761ZM14.1 109.461C16 108.561 18 108.061 20.1 107.961C21.1 107.861 20.9 106.461 19.9 106.461C17.7 106.661 15.5 107.161 13.5 108.061C12.6 108.561 13.2 109.861 14.1 109.461ZM0.599951 57.1606C0.399951 57.7606 0.199951 58.4606 0.199951 59.0606V59.4606C0.199951 59.6606 0.199951 59.8606 0.299951 60.0606C0.499951 60.9606 1.89995 60.8606 1.79995 59.8606C1.69995 59.1606 1.79995 58.4606 2.09995 57.7606C2.39995 56.8606 0.999951 56.3606 0.599951 57.1606ZM3.79995 63.1606C3.99995 62.2606 2.49995 61.9606 2.29995 62.9606C1.99995 64.8606 1.79995 66.7606 1.79995 68.6606C1.79995 69.6606 3.29995 69.4606 3.29995 68.4606C3.29995 66.6606 3.49995 64.9606 3.79995 63.1606ZM5.09995 67.8606C4.99995 69.1606 4.79995 70.3606 4.69995 71.6606C4.59995 72.6606 6.09995 72.8606 6.19995 71.8606C6.29995 70.5606 6.49995 69.3606 6.59995 68.0606C6.69995 67.1606 5.19995 66.9606 5.09995 67.8606ZM91.1 290.361C91.6 290.261 92 290.061 92.5 289.961C89.5 279.761 84.7 270.161 80.2 260.461C75.2 249.461 70.1 238.461 65 227.461C64.6 226.561 63.2 227.161 63.6 228.061C68.5 238.661 73.3999 249.261 78.2999 259.761C82.8999 269.761 88 279.761 91.1 290.361ZM85.2999 292.361C85.7999 292.161 86.2 291.961 86.7 291.861C83.5 283.861 80.1 275.961 76.5 268.161C76.1 267.261 74.7 267.861 75.1 268.761C78.7 276.461 82.1 284.361 85.2999 292.361ZM82.2999 293.561C82.7999 293.361 83.2 293.161 83.7 292.961L77.1 276.661C76.7 275.761 75.3999 276.361 75.7 277.261L82.2999 293.561ZM77.7999 295.761C78.2 295.561 78.7 295.261 79.1 295.061C78.5 293.661 78 292.261 77.6 290.861C77.2999 289.961 75.8999 290.461 76.2 291.461C76.7 292.861 77.2 294.361 77.7999 295.761ZM53.2 252.761C52.7999 252.561 52.3 252.361 51.9 252.261C51 251.861 50.3999 253.261 51.2999 253.661L52.6 254.161C53.5 254.561 54.1 253.161 53.2 252.761ZM55.7999 255.761C55 255.361 54.1 254.961 53.1 254.761C52.2 254.561 52 255.961 52.9 256.261C53.7 256.461 54.5 256.761 55.2 257.161C56 257.561 56.5999 256.261 55.7999 255.761ZM56.7999 260.061C56.2999 259.761 55.7 259.361 55.2 259.061C54.4 258.561 53.5 259.761 54.2999 260.261L55.9 261.261C56.7 261.761 57.5999 260.561 56.7999 260.061ZM58.7999 264.361C57.8999 263.961 57 263.461 56.1 263.061C55.2 262.661 54.7 264.061 55.5 264.461C56.4 264.861 57.2999 265.361 58.2 265.761C59.1 266.161 59.7 264.861 58.7999 264.361ZM59.2 269.661C60.1 269.961 60.7 268.661 59.7999 268.261C59.3999 268.161 59 267.861 58.6 267.661C58.5 267.561 58.2999 267.461 58.2 267.361C58.2 267.361 57.7999 267.061 58 267.161C57.4 266.461 56.2 267.361 56.7999 268.061C57.3999 268.861 58.4 269.361 59.2 269.661ZM60.2 271.061L59.1 270.461C58.3 269.961 57.4 271.161 58.2 271.661L59.2999 272.261C60.0999 272.661 61 271.561 60.2 271.061ZM61.1 273.861C60.9 273.861 60.7999 273.761 60.7999 273.561C60.5999 272.661 59.2 272.761 59.2999 273.761C59.5 274.661 60 275.161 60.7999 275.361C61.7999 275.561 62 274.061 61.1 273.861ZM51 222.161C57.4 220.461 63.2 217.461 68.2999 213.161C72.2 209.861 71.5 205.161 69.7 200.861C69.2999 199.961 67.8999 200.561 68.2999 201.461C69.2 203.661 69.8999 205.861 69.7 208.261C69.3999 210.961 66.5 212.761 64.6 214.261C60.4 217.361 55.5 219.461 50.5 220.761C49.5 221.061 50.0999 222.361 51 222.161ZM34.2999 225.161C34.3999 224.161 32.8999 223.961 32.7999 224.961C32.7999 225.661 32.7 226.461 32.7 227.161C32.6 228.161 34.1 228.361 34.2 227.361L34.2999 225.161ZM37.6 223.861C37.7 222.861 36.2 222.661 36.1 223.661L35.9 225.461C35.8 226.461 37.3 226.661 37.4 225.661L37.6 223.861ZM41.2 222.961C41.4 222.061 39.9 221.761 39.7 222.761C39.5 223.861 39.6 224.861 39.9 225.861C40.2 226.761 41.5 226.261 41.2999 225.261C41 224.461 41 223.761 41.2 222.961ZM42.7 224.461C42.7999 225.461 44.2999 225.261 44.2 224.261C44.1 223.361 44.1 222.561 44.2 221.661C44.2999 220.661 42.7999 220.461 42.7 221.461C42.6 222.561 42.6 223.461 42.7 224.461ZM46.9 222.661C46.7 222.361 46.7 222.061 46.7999 221.661C47.0999 220.761 45.7 220.161 45.4 221.061C45.2 221.761 45.2 222.461 45.5 223.161C46 224.161 47.4 223.561 46.9 222.661ZM133.9 292.861C134 292.961 134.2 292.961 134.3 293.061L140.3 278.861C140.6 278.261 140.3 277.561 139.6 277.261C139 276.961 138.3 277.261 138 277.861L131.9 292.161C132.7 292.361 133.3 292.661 133.9 292.861ZM129.7 291.261C130 290.561 130.3 289.961 130.7 289.261C130.9 288.961 130.9 288.661 130.8 288.361C130.5 287.561 129.1 287.161 128.5 288.261C128.1 288.961 127.7 289.761 127.4 290.461C128.2 290.761 129 291.061 129.7 291.261ZM138.1 245.561C137.7 245.561 137.3 245.661 137 245.961C136.6 246.361 136.6 246.961 136.9 247.461C137.3 248.061 137.6 248.761 137.8 249.561C137.9 249.861 138.1 250.161 138.4 250.261C138.8 250.461 139.4 250.361 139.7 249.961C140.1 249.661 140.2 249.161 140.1 248.661C139.9 247.861 139.5 247.161 139.1 246.361C139.5 246.361 139.9 246.261 140.2 245.961C140.5 245.661 140.6 245.161 140.5 244.661L140 243.361C139.7 242.561 138.6 242.361 138 242.961C137.7 243.261 137.6 243.761 137.7 244.261L138.1 245.561ZM135.3 249.961C135 250.261 134.9 250.661 135 251.061L135.5 252.961C135.6 253.361 135.9 253.661 136.2 253.861C136.7 254.061 137.2 253.961 137.5 253.661C137.8 253.361 137.9 252.961 137.8 252.561L137.3 250.661C137.2 249.761 135.9 249.461 135.3 249.961ZM133.9 257.861C134 258.161 134.2 258.461 134.5 258.561C134.9 258.761 135.5 258.661 135.8 258.261C136.2 257.961 136.3 257.461 136.1 256.961L135.1 254.161C134.8 253.361 133.7 253.161 133.1 253.761C132.7 254.061 132.6 254.561 132.8 255.061L133.9 257.861ZM134.1 260.361C134 260.061 133.8 259.661 133.7 259.261C133.7 259.061 133.6 258.961 133.6 258.761V258.461C133.6 257.961 133.3 257.661 132.8 257.461C132.4 257.261 132 257.361 131.6 257.561C131.3 257.761 131.1 258.061 131.1 258.461C131 259.361 131.3 260.261 131.5 260.861C131 260.561 130.4 260.561 130 260.961C129.7 261.261 129.6 261.661 129.7 262.061L130 263.261C130 263.361 130 263.361 130.1 263.461C129.7 263.461 129.3 263.561 129.1 263.961C128.5 264.861 128.5 265.761 129 266.661C129.1 266.861 129.3 267.061 129.5 267.161C130 267.361 130.5 267.161 130.9 266.761C131.2 266.361 131.3 265.761 131.1 265.361C131.3 265.061 131.3 264.661 131.2 264.361C131.2 264.261 131.2 264.261 131.1 264.161C131.5 264.161 131.8 264.061 132.1 263.861C132.4 263.561 132.5 263.161 132.4 262.761L132.2 261.961C132.3 261.961 132.3 262.061 132.4 262.061C132.9 262.261 133.5 262.161 133.8 261.761C134.2 261.361 134.3 260.861 134.1 260.361ZM159.8 222.161C161.5 223.161 163.2 223.961 165 224.761C169.4 226.661 173.9 227.761 178.6 228.161C183.1 228.561 186.4 225.961 188.7 220.161C189 219.561 188.7 218.861 188 218.561C187.7 218.461 187.3 218.461 187 218.561C186.7 218.661 186.5 218.861 186.4 219.261C185.6 221.261 184.6 223.261 182.7 224.861C181 226.261 178.2 225.861 176 225.461L175.2 225.361C170.5 224.661 165.7 222.861 160.8 220.061L160.7 219.961C160.1 219.761 159.6 219.961 159.3 220.561C159.1 220.961 159.2 221.761 159.8 222.161ZM142.8 213.161C142.9 213.561 143.2 213.961 143.6 214.161C144 214.361 144.4 214.261 144.8 213.961L146.5 212.461C146.8 212.161 147 211.761 146.9 211.361C146.8 210.461 145.7 209.961 144.9 210.561L143.2 211.961C142.9 212.261 142.8 212.661 142.8 213.161ZM147.1 215.061C147.5 215.261 147.9 215.161 148.3 214.861L149.7 213.761C150 213.461 150.2 213.061 150.2 212.661C150.1 211.761 149 211.261 148.3 211.761L146.9 212.861C146.6 213.161 146.4 213.561 146.4 213.961C146.3 214.561 146.6 214.961 147.1 215.061ZM149.8 217.761C150.3 217.961 151.1 217.861 151.4 217.261C151.7 216.661 152.2 216.161 152.8 215.761C153.2 215.461 153.3 215.161 153.3 214.661C153.2 213.761 152.1 213.261 151.4 213.761C150.5 214.361 149.8 215.161 149.2 216.261C149 216.561 149 216.861 149.1 217.161C149.2 217.461 149.4 217.661 149.8 217.761ZM151.9 218.261C152 218.661 152.3 218.961 152.7 219.161C153.2 219.361 153.8 219.261 154.1 218.761C154.6 218.061 155.2 217.561 155.9 216.961C156.2 216.661 156.4 216.261 156.3 215.861C156.2 214.961 155.1 214.461 154.4 215.061C153.6 215.661 152.9 216.461 152.2 217.261C151.9 217.461 151.8 217.861 151.9 218.261Z" fill="#E8E8E8"/>
<path d="M155.7 220.061C156 220.161 156.4 220.161 156.7 220.061C157 219.961 157.2 219.661 157.3 219.361C157.4 219.061 157.5 218.961 157.7 218.861C158.1 218.661 158.4 218.161 158.4 217.661C158.4 216.861 157.5 216.161 156.7 216.561C155.9 216.961 155.3 217.561 155 218.461C154.7 219.261 155.2 219.861 155.7 220.061Z" fill="#E8E8E8"/>
<path d="M448.5 481.261C444.5 479.561 439.8 478.661 435.3 478.761C432.2 470.061 423.9 462.761 417.1 458.861C413.6 456.861 409.7 454.861 405.6 453.161C389 446.161 370 442.661 356.9 440.661C356.8 440.061 356.6 439.461 356.3 438.861C355.4 436.561 353.6 434.761 351.1 433.761C349.8 433.261 348.4 432.861 346.9 432.761C346.8 432.361 346.7 432.061 346.6 431.761C343.9 423.961 333.2 418.761 328.7 416.861L327.9 416.561C332.4 401.661 335.4 386.361 336.7 370.861C338.9 345.361 336.6 319.561 330.4 294.861C335.4 292.861 344.1 288.661 346.9 282.161C347.3 281.361 347.6 280.461 347.8 279.561C348.1 279.561 348.3 279.561 348.6 279.461C352.2 277.961 354.6 276.161 356.1 273.661C376.7 270.261 396.6 263.861 415.2 254.661C424 250.361 434.4 244.161 437.7 234.561C445.8 234.861 454.1 231.061 458.4 225.061C460.7 221.861 462.8 216.661 460.1 209.861C458.4 205.661 455.8 202.761 452.3 201.261C444.3 197.861 433.7 202.761 427.2 209.461C418.8 205.561 407.7 206.261 400.2 208.261C379.5 213.661 359.8 226.961 344.8 237.961C344.3 237.661 343.7 237.361 343.1 237.061L343 236.961C339.7 235.561 335.6 236.461 332.1 239.261C331.8 239.061 331.5 238.861 331.2 238.761C324 235.261 315.3 237.461 309.4 239.961C309.3 239.961 309.2 240.061 309.1 240.161C296.9 217.661 281.1 197.361 262.2 180.561C250.9 170.561 237.9 161.161 223.3 152.261C223.3 152.161 223.4 152.161 223.4 152.061C226.9 143.961 227.7 137.661 225.7 132.661C225.4 131.761 225 130.961 224.5 130.161C224.7 129.961 224.9 129.761 225 129.461C226.5 125.961 226.9 122.861 226.2 120.061C238.3 103.061 247.8 84.4606 254.5 64.8606C257.7 55.5606 260.7 43.8606 256.2 34.7606C262.1 29.2606 265.3 20.7606 264.1 13.4606C263.5 9.56063 261.3 4.36063 254.5 1.46063C249.3 -0.739368 244.5 -0.439365 240.4 2.26063C233.8 6.76063 230.9 16.8606 231 24.4606C222.3 27.5606 215 35.8606 211.1 42.6606C200.3 61.0606 195.7 84.4606 192.9 102.861C192.3 102.961 191.7 103.161 191.1 103.461C187.7 104.761 185.4 108.261 184.9 112.861C184.5 112.961 184.2 113.061 183.9 113.161C177.9 115.261 173.4 119.861 170.1 127.261C126.8 114.361 81.8 121.461 48.5 131.361C45.8 125.461 39.9 115.261 34.2 112.861C33.4 112.461 32.5 112.161 31.6 111.961C31.6 111.661 31.6 111.461 31.5 111.161C30 107.561 28.2 105.161 25.7 103.661C22.2 83.0606 15.9 63.2606 6.7 44.5606C4.9 40.8606 2.7 36.7606 0 33.0606V39.7606C2.5 44.1606 4.6 48.8606 6.6 53.4606L7.8 56.1606C13.9 70.0606 18.5 85.4606 21.4 101.961C15.9 101.161 9.4 103.761 3.2 106.361L1.4 107.061C0.9 107.261 0.5 107.461 0 107.661V112.061C2.3 110.861 4.8 109.961 6.6 109.261L8.8 108.461C13.6 106.561 18.6 104.561 22.5 106.261C24.4 107.061 25.9 108.661 27.2 111.161C21.6 110.861 16.3 112.661 11.8 114.561L10.5 115.061C7.4 116.361 3.5 117.961 0 119.961V124.661C2.6 123.061 5.5 121.661 8.2 120.561C9.1 120.161 10 119.761 10.8 119.361C16.4 116.661 22.5 114.361 29.2 115.261C29.8 115.361 30.5 115.561 31.2 115.861C36.6 118.161 41.9 126.561 44.7 132.561L41.7 133.461C27.5 138.061 13.7 144.161 0 152.061V157.061C15.6 148.161 31.6 140.961 47.8 135.861H47.9C65.2 130.361 82.7 127.061 100 126.061C102.3 125.961 104.5 125.761 106.8 125.661C114.7 125.161 122.8 124.661 130.8 124.961C149.2 125.661 168.5 130.261 188.3 138.661C209.5 147.661 231.3 160.961 253.1 178.261C310 223.361 340.9 302.261 332 379.261C323.1 455.861 270.5 528.261 198.1 563.661C157.5 583.561 112.8 589.761 69 581.661C50.7 578.261 32.6 572.861 15.3 565.461C10.1 563.261 5.1 560.961 0.1 558.461V562.961C0.8 563.261 1.4 563.561 2.1 563.961H2C1.4 564.861 0.7 565.661 0.1 566.561V568.161C0.4 568.261 0.7 568.261 0.9 567.961L3.2 564.861C3.3 564.761 3.3 564.661 3.3 564.461C4.9 565.261 6.6 566.061 8.2 566.761C8.1 566.761 8.1 566.761 8 566.861C6.4 568.261 4.9 569.761 3.6 571.461C3 572.261 4.2 573.161 4.8 572.361C6 570.761 7.4 569.361 8.9 568.061C9.2 567.761 9.2 567.461 9.1 567.161C10.2 567.661 11.4 568.161 12.5 568.661C11 569.861 9.7 571.061 8.4 572.461C7.8 573.161 8.9 574.061 9.6 573.361C10.9 571.961 12.3 570.661 13.8 569.461L14 569.261C14.1 569.261 14.2 569.361 14.3 569.361C22.2 572.761 30.3 575.661 38.4 578.161C35.9 584.161 32.8 587.861 28.3 590.061C23.1 592.661 15.9 589.861 10 587.661C9 587.261 8.1 586.961 7.3 586.661C5.8 586.161 4.5 585.661 3.3 585.161C2.1 584.661 1.1 584.161 0 583.561V587.861C0.8 588.261 1.6 588.561 2.4 588.961L4.5 589.861C9.7 592.061 16.8 594.961 23 595.061C22.7 597.461 21.9 599.061 20.4 599.961C16.8 602.161 10.4 599.861 5.8 597.861C4.8 597.461 4 597.061 3.2 596.661L1.2 595.761C0.9 595.661 0.5 595.461 0.2 595.361V599.761C0.5 599.861 0.9 600.061 1.2 600.161C2 600.561 2.9 600.861 3.7 601.161L5.5 601.861C8.6 603.161 11.7 604.461 15 604.761C12.6 619.861 8.7 634.761 3.5 648.961C2.5 651.561 1.5 654.261 0.2 656.961V665.661C0.4 665.261 0.6 664.961 0.8 664.561C11.6 646.161 16.2 622.761 19 604.361C19.6 604.261 20.2 604.061 20.8 603.761C24.2 602.461 26.5 598.961 27 594.361C27.4 594.261 27.7 594.161 28 594.061C34.3 591.861 38.9 586.961 42.2 579.061V578.961C64.9 585.661 87.9 589.061 110.1 588.861C128.6 588.661 147.3 585.661 165.9 580.061C169.1 587.761 172.9 592.461 177.6 594.461C178.4 594.861 179.3 595.161 180.2 595.361C180.2 595.661 180.2 595.861 180.3 596.161C181.8 599.761 183.6 602.161 186.1 603.661C189.6 624.261 195.9 644.161 205.1 662.761C209.2 670.961 214.9 680.961 223.8 684.661C224.2 684.861 224.7 685.061 225.2 685.161C224.9 694.761 230.2 704.361 237.8 707.561C241.6 709.161 245.8 709.161 249.9 707.461C255.1 705.361 258.4 701.761 259.3 696.961C260.8 689.061 255.7 679.961 250.3 674.661C254.2 666.361 253.5 655.261 251.5 647.661C246.1 626.961 232.8 607.261 221.8 592.261C222.1 591.761 222.4 591.161 222.7 590.561C224.2 587.161 223.3 583.061 220.4 579.561C220.6 579.261 220.8 578.961 220.9 578.661C224 572.461 222.6 562.861 219.8 555.661C220.5 555.261 221.3 554.761 222 554.361C256 533.361 284.2 503.861 304.3 469.861H304.4C311.3 472.761 321.3 475.361 327 473.061C327.9 472.761 328.7 472.361 329.5 471.861C329.7 472.061 329.9 472.261 330.2 472.361C333.7 473.861 336.8 474.261 339.6 473.561C356.6 485.661 375.2 495.161 394.8 501.861C404.1 505.061 415.8 508.061 424.9 503.561C427.3 506.161 430.4 508.261 433.8 509.761C442.4 513.361 453.7 512.461 458.2 501.961C460 497.761 460.2 493.861 458.8 490.361C456.8 485.661 452.1 482.761 448.5 481.261ZM238.4 10.2606C241.8 2.66063 248.3 3.16063 253.2 4.96063C253.4 5.06063 253.6 5.16063 253.8 5.16063C257.4 6.66063 259.7 9.56063 260.4 13.4606C261.4 19.2606 258.9 26.5606 254.2 31.2606C252.2 28.7606 249.5 26.6606 246.2 25.0606C242.6 23.2606 238.9 22.7606 235.1 23.3606C235.2 19.3606 236.3 15.1606 238.4 10.2606ZM191.5 107.261C195.1 105.061 201.5 107.361 206.1 109.361C207.1 109.761 207.9 110.161 208.7 110.561L210.8 111.461C218 114.561 224.8 117.561 221.9 126.361C218.3 122.361 213.4 119.961 209.4 118.261L207.3 117.361C202.1 115.161 195 112.261 188.8 112.161C189.2 109.861 190.1 108.161 191.5 107.261ZM220.1 150.061C217.7 148.661 215.3 147.361 212.9 145.961C213.1 145.961 213.3 145.861 213.4 145.661C214.8 144.061 216.1 142.561 217.3 140.861C217.9 140.061 216.7 139.161 216.1 139.961L212.2 144.761C212 145.061 212 145.361 212.1 145.561C207.9 143.261 203.6 141.061 199.2 138.861C200.7 137.661 202.1 136.361 203.4 134.861C204 134.161 202.9 133.261 202.2 133.961C200.9 135.361 199.5 136.661 198 137.861C197.9 137.961 197.8 138.061 197.8 138.161C195.6 137.061 193.4 136.061 191.2 134.961C189.5 134.161 187.7 133.361 185.9 132.561C181.9 130.861 177.9 129.361 173.9 128.061C176.3 122.661 179.3 119.161 183.5 117.061C188.7 114.461 195.9 117.261 201.8 119.461C202.8 119.861 203.7 120.161 204.5 120.461C206 120.961 207.3 121.461 208.5 121.961C214 124.261 217.8 126.961 220.5 130.561C223.9 134.961 223.7 141.561 220.1 150.061ZM210.9 107.061C210.1 106.661 209.2 106.361 208.4 106.061L206.6 105.261C203.5 103.961 200.4 102.661 197.1 102.361C199.5 87.2606 203.4 72.3606 208.6 58.1606C213.8 44.1606 222.7 25.7606 241 27.5606C242.5 27.7606 244 28.0606 245.3 28.6606C253 31.9606 255.6 41.3606 254.7 49.2606C253.9 56.5606 251 63.9606 248.2 71.0606C247.8 71.9606 247.5 72.8606 247.1 73.7606C241.6 87.8606 234 102.061 224.3 115.761C221.5 111.861 215.9 109.261 210.9 107.061ZM442.4 204.461C448.6 202.061 453.5 204.461 456.6 211.161C458.3 214.961 458.1 218.661 455.9 222.061C452.7 226.961 445.4 230.461 438.8 230.561C439.2 227.361 438.8 223.961 437.6 220.561C436.3 216.861 434.1 213.761 430.9 211.461C433.8 208.561 437.4 206.361 442.4 204.461ZM387.5 217.261C397.5 212.661 412 207.161 423.5 211.961C426.8 213.361 429.7 215.561 432.1 218.461C434.6 221.561 435.7 225.061 435.3 228.861C434.7 234.061 431.5 239.561 426.5 243.461C420.7 248.061 413.5 251.261 406.5 254.261L403.8 255.461C389.9 261.561 374.5 266.161 358 269.061C358.8 263.561 356.2 257.061 353.6 250.761L352.9 248.961C351.6 245.861 350.3 242.661 348.2 240.161C360.4 231.361 373.7 223.661 387.5 217.261ZM341.5 240.161C345.9 242.061 348.8 249.761 350.6 254.361L351.4 256.561C354.3 263.861 357 270.761 348.7 274.961C349 269.361 347.2 264.061 345.3 259.561L344.8 258.361C342.6 253.161 339.7 246.061 335.4 241.661C337.5 239.761 339.5 239.361 341.5 240.161ZM311.1 243.361C317.9 240.461 323.6 239.761 328.1 241.261C333.6 243.061 336.8 250.161 339.3 255.861C339.7 256.761 340.1 257.661 340.5 258.461C343.2 264.061 345.5 270.161 344.6 276.861C343.7 283.961 335 288.561 329.5 290.761C325.2 274.361 318.9 258.461 311.1 243.361ZM182.7 592.261C177.5 591.561 173.2 587.161 169.8 579.061C170.1 578.961 170.4 578.861 170.6 578.761C170.6 578.961 170.7 579.161 170.9 579.361L171 579.461C171.1 579.561 171.3 579.661 171.4 579.661C172 580.661 172.6 582.761 173.1 583.561C174.3 585.561 176.1 587.061 178.1 588.361C181.4 590.561 185.6 590.961 189.5 590.361C190.4 590.161 190.3 588.761 189.3 588.861C184.8 589.661 180.8 588.661 177.2 585.861C175.2 584.361 173.9 582.061 172.9 579.861C172.6 579.261 172.6 578.761 172.2 578.361C173.9 577.761 175.5 577.261 177.2 576.661C177.3 578.661 177.5 580.761 177.8 582.761C177.9 583.761 179.4 583.561 179.3 582.561C179.1 580.561 178.9 578.461 178.7 576.361C178.7 576.261 178.7 576.161 178.6 576.061C191.5 571.261 204.2 565.261 216.6 558.061C218.6 563.561 220 570.961 218.4 575.761C216.6 581.261 209.5 584.461 203.8 586.961C202.9 587.361 202 587.761 201.2 588.161C195.5 590.761 189.4 593.161 182.7 592.261ZM184.8 596.261C190.4 596.561 195.7 594.761 200.2 592.861L201.5 592.361C206.7 590.161 213.8 587.261 218.2 582.961C219.7 584.861 220.2 586.661 219.8 588.361C218.6 593.161 210 596.461 205.4 598.161L203.2 598.961C198.4 600.861 193.4 602.861 189.5 601.161C187.6 600.361 186 598.761 184.8 596.261ZM255.2 689.961C258.2 697.761 253.2 701.961 248.5 704.161C245.4 705.561 242.4 705.661 239.6 704.461C233.1 701.661 229.2 693.061 229.2 686.361C232.4 686.761 235.8 686.361 239.2 685.161C242.9 683.861 246 681.661 248.3 678.461C251.1 681.261 253.3 684.961 255.2 689.961ZM242.4 634.961C248.7 648.561 255.3 667.861 241.1 679.561C235.5 684.161 229.6 683.061 225.7 681.361C222.1 679.861 218.7 677.161 216.1 673.961C211.5 668.161 208.3 660.961 205.3 653.961L204.1 651.261C198 637.361 193.4 621.961 190.5 605.461C196 606.261 202.5 603.661 208.7 601.061L210.5 600.361C213.6 599.061 216.8 597.761 219.3 595.661C228.3 607.961 236 621.261 242.4 634.961ZM329 468.161C324 471.961 313.9 469.761 306.5 466.761C314.9 451.961 321.8 436.261 327 420.161C327.2 420.261 327.4 420.361 327.6 420.361C332.1 422.261 340 426.261 342.6 431.261C345.2 436.461 342.4 443.661 340.2 449.561C339.8 450.561 339.5 451.461 339.2 452.261C337 458.061 334.3 464.061 329 468.161ZM333.3 469.561C337.5 465.861 339.9 460.761 341.8 456.261L342.3 455.061C344.5 449.861 347.4 442.761 347.5 436.561C350.3 436.861 352 437.961 352.8 439.961C354.5 444.361 351.2 451.861 349.2 456.361L348.2 458.461C345.1 465.661 342.1 472.461 333.3 469.561ZM426.9 498.161C422.8 501.461 416.7 502.961 410.4 502.261C403.1 501.461 395.7 498.561 388.6 495.761C387.7 495.361 386.8 495.061 385.9 494.661C371.8 489.161 357.6 481.561 343.9 471.861C348.4 468.561 351.1 462.061 353.7 455.861L354.5 454.061C355.8 450.961 357.1 447.861 357.4 444.561C372.5 446.961 387.4 450.861 401.6 456.061C403.6 456.761 405.4 457.561 407.1 458.261C425.2 465.961 433.4 475.861 432.2 488.461C431.7 492.561 429.9 495.761 426.9 498.161ZM454.7 500.761C453.6 503.861 451.6 505.961 448.9 507.161C445.2 508.761 440.4 508.461 435.5 506.461C432.8 505.361 430.3 503.661 428.5 501.861C431 499.861 433.1 497.161 434.7 493.861C436.4 490.361 437 486.561 436.4 482.761C440.2 482.861 444.1 483.761 448.7 485.761L449.4 486.061C457 489.361 456.5 495.861 454.7 500.761Z" fill="#E8E8E8"/>
<path d="M181.8 385.661L168.1 379.861C167.8 380.561 167.4 381.361 167.1 382.061L180.9 387.861C181.5 388.161 182.2 387.861 182.5 387.161C182.7 386.661 182.4 385.961 181.8 385.661ZM215.3 385.161L214.2 385.561V385.361C214.1 384.561 213 383.861 212.3 384.361C211.7 384.761 211 385.061 210.2 385.261C209.7 385.461 209.4 385.761 209.4 386.261C209.4 386.761 209.7 387.261 210.2 387.561C210.5 387.661 210.8 387.661 211.1 387.561C211.9 387.361 212.6 386.961 213.4 386.561V386.661C213.4 387.161 213.7 387.661 214.2 387.861C214.5 387.961 214.8 387.961 215.1 387.861L216.4 387.361C216.9 387.161 217.1 386.761 217.2 386.261C216.9 385.561 216.1 384.861 215.3 385.161ZM208.6 382.561L206.7 383.061C206.2 383.161 205.8 383.661 205.7 384.161C205.7 384.661 205.9 385.161 206.4 385.361C206.6 385.461 206.9 385.461 207.1 385.361L209 384.861C209.5 384.761 209.9 384.261 210 383.761C210 382.961 209.4 382.361 208.6 382.561ZM204.7 380.461L201.9 381.461C201.4 381.661 201.1 382.061 201.1 382.461C201.1 382.961 201.4 383.461 201.9 383.661C202.2 383.761 202.5 383.761 202.8 383.661L205.6 382.661C206.1 382.461 206.4 382.061 206.4 381.661C206.3 380.861 205.5 380.161 204.7 380.461ZM202.4 380.161C202.6 379.461 202.1 378.761 201.4 378.661C200.7 378.661 199.9 378.761 199.1 379.061C199.2 378.861 199.3 378.761 199.3 378.561C199.4 377.761 198.7 377.161 197.9 377.361L196.7 377.661C196.6 377.661 196.6 377.761 196.5 377.761C196.5 377.361 196.4 376.961 196 376.761C195.1 376.161 194.2 376.161 193.3 376.661C192.9 376.861 192.7 377.261 192.8 377.661C192.8 378.161 193.2 378.561 193.6 378.761C193.9 378.861 194.3 378.861 194.7 378.661C195.1 378.861 195.5 378.861 195.9 378.661V378.761C195.9 379.261 196.1 379.761 196.6 379.961C196.8 380.061 197.1 380.061 197.3 379.961L198.1 379.761C198 379.961 197.9 380.161 197.9 380.461C197.9 380.961 198.2 381.461 198.6 381.561C198.9 381.661 199.2 381.661 199.5 381.561C199.8 381.461 200.2 381.261 200.6 381.161C200.8 381.161 200.9 381.061 201.1 381.061H201.4C201.8 381.061 202.2 380.661 202.4 380.161ZM240.5 434.061L240.1 433.861C238.4 433.161 236.4 432.161 235 430.361C233.6 428.661 234 425.861 234.4 423.661L234.5 422.861C235.2 418.161 237 413.361 239.8 408.461C240 408.161 240 407.861 239.9 407.561C239.6 406.761 238.2 406.361 237.6 407.361C234.2 413.261 232.2 419.561 231.7 426.061C231.3 430.461 233.8 433.761 239.3 436.061L239.6 436.161C240.2 436.461 240.9 436.161 241.2 435.461C241.4 434.961 241.1 434.261 240.5 434.061ZM245.7 392.361L247.2 394.061C247.3 394.161 247.5 394.361 247.7 394.361C248.2 394.561 248.9 394.361 249.2 393.861C249.5 393.461 249.5 392.861 249.1 392.461L247.6 390.761C247.1 390.161 246.1 390.261 245.6 390.861C245.3 391.361 245.4 391.961 245.7 392.361ZM247.8 395.661L246.7 394.261C246.2 393.661 245.2 393.661 244.7 394.261C244.4 394.661 244.4 395.261 244.7 395.661L245.8 397.061C245.9 397.261 246.1 397.361 246.3 397.461C246.8 397.661 247.4 397.461 247.8 397.061C248.1 396.661 248.1 396.161 247.8 395.661ZM242.4 398.961C243 399.261 243.5 399.761 243.9 400.361C244 400.561 244.2 400.661 244.4 400.761C244.9 400.961 245.5 400.761 245.8 400.361C246.1 399.961 246.2 399.361 245.8 398.861C245.2 397.961 244.4 397.261 243.3 396.661L243.2 396.561C242.6 396.361 242.1 396.561 241.8 397.161C241.6 397.761 241.7 398.561 242.4 398.961ZM240.9 401.661C241.6 402.161 242.1 402.761 242.7 403.461C242.8 403.661 243 403.761 243.2 403.861C243.7 404.061 244.3 403.861 244.7 403.461C245 403.061 245 402.461 244.7 402.061C244.1 401.261 243.3 400.561 242.5 399.861C241.9 399.361 241.1 399.561 240.7 400.161C240.3 400.561 240.4 401.261 240.9 401.661Z" fill="#E8E8E8"/>
<path d="M239.6 403.261C239.4 403.861 239.6 404.461 240.3 404.761H240.4C240.6 404.861 240.7 404.961 240.8 405.061C240.9 405.361 241.2 405.561 241.4 405.661C241.9 405.861 242.5 405.761 242.9 405.361C243.2 405.061 243.3 404.561 243.1 404.061C242.7 403.261 242.1 402.661 241.2 402.361C240.4 402.261 239.8 402.761 239.6 403.261ZM53.2 389.661C35.7999 397.761 18.1 405.261 0.199951 411.961V416.161C18.9 409.161 37.4 401.361 55.6 392.861C54.7 391.861 54 390.761 53.2 389.661ZM0.199951 324.561V328.861C1.39995 329.361 2.49995 329.861 3.69995 330.361C16.1 335.661 28.7999 340.561 41.5 345.261C41.5999 343.961 41.7999 342.561 42 341.261C29.6 336.661 17.2 331.861 5.19995 326.761C3.49995 326.061 1.89995 325.261 0.199951 324.561ZM41.7999 360.361C27.7999 365.961 13.9 371.861 0.199951 378.061V382.361C14.1 376.061 28.2999 369.961 42.5 364.261C42.2 363.061 42 361.761 41.7999 360.361ZM0.199951 295.261C17.6 301.561 35 308.361 52.1 315.661C52.9 314.561 53.6 313.461 54.4 312.361C36.6 304.761 18.4 297.661 0.199951 291.061L0.199951 295.261Z" fill="#E8E8E8"/>
<path d="M263.9 295.261C258.2 274.461 245.3 259.761 232.2 246.961C220.6 235.661 208.2 224.161 194.7 214.361C194.4 213.961 194 213.661 193.5 213.561C189.5 210.761 185.4 208.061 181.2 205.561C176 202.461 170.5 199.761 164.8 197.361C147.4 189.961 128.5 185.861 108.8 185.161C70.7 183.761 34.2 197.461 0.199951 225.861V230.661C5.99995 225.761 12.3 221.061 19.3 216.461C21.6 222.661 25.1 230.761 30.4 233.061L30.7 233.161C32.6 233.861 35 233.961 38.1 233.361C46.2 256.161 55.5 278.861 65.7 300.961C66.7999 300.161 67.7999 299.361 68.8999 298.561C58.8999 276.961 49.8 254.661 41.9 232.361C45.2 231.361 48.4 230.061 51.1 228.961C52.3 228.461 53.3999 228.061 54.2999 227.761C58.7999 226.061 62.2999 224.561 65.2999 222.761C75.7 243.861 85.3999 265.761 94.2999 287.661C95.6 287.361 96.8999 287.161 98.2999 286.961C89.2 264.461 79.2999 242.161 68.7 220.561C72 218.261 74.5 215.661 76.1 212.961C79.5 207.161 74.8999 198.961 71.8999 193.461C71.7 193.161 71.5999 192.861 71.3999 192.561C77.7 191.061 83.9999 189.961 90.3999 189.361C108.4 187.661 126 189.061 142.6 193.561C142.6 193.661 142.5 193.661 142.5 193.761C139.6 199.761 135.2 208.861 138 215.161C138.8 216.961 140.5 218.761 143.1 220.561C132.8 242.161 123.5 264.461 115.2 286.961C116.5 287.161 117.8 287.361 119.2 287.561C127.3 265.461 136.5 243.661 146.6 222.561C150.9 224.861 155.8 226.761 158.6 228.061C159.6 228.461 160.6 228.961 161.6 229.361C164.6 230.661 167.3 231.561 169.9 232.261C162.3 254.361 153.8 276.561 144.7 298.261C145.8 299.061 146.9 299.861 147.9 300.761C157.3 278.561 166 255.761 173.8 233.161C177.8 233.861 181.4 233.861 184.4 233.061C190.3 231.561 192.6 224.661 194.2 219.061C198.6 222.261 203.1 225.861 207.7 229.761C219.8 239.961 234.1 252.061 245 266.361C244.8 266.461 244.6 266.561 244.3 266.561C237.9 268.761 229.1 271.861 226.6 278.261C225.9 280.161 225.8 282.561 226.4 285.661C203.9 293.661 181.5 302.761 159.7 312.861C160.5 313.961 161.3 314.961 162 316.161C183.4 306.261 205.3 297.361 227.3 289.561C228.3 292.861 229.6 296.061 230.7 298.761C231.2 299.961 231.6 301.061 231.9 301.961C233.6 306.461 235.1 309.961 236.9 312.961C215.9 323.261 194.3 332.861 172.5 341.761C172.7 343.061 172.9 344.461 173.1 345.761C195.4 336.761 217.6 326.861 239 316.361C241.3 319.661 243.9 322.161 246.6 323.761C246.9 323.961 247.2 324.061 247.5 324.261C253 326.561 260.3 322.761 265.4 319.861C266.7 329.161 267.4 338.361 267.8 346.561C268.5 361.761 267.6 376.261 265.1 389.761C263.7 389.061 262.1 388.361 260.4 387.661C255.9 385.761 249.4 383.461 244.5 385.661C242.7 386.461 240.9 388.161 239.1 390.761C229 385.961 218.7 381.261 208.4 376.961C196.8 372.061 184.8 367.361 172.9 362.961C172.7 364.261 172.5 365.561 172.2 366.861C183.9 371.161 195.5 375.761 206.9 380.561C217 384.861 227.2 389.461 237.1 394.161C235.5 397.161 234.1 400.361 233 403.061C232.5 404.261 232 405.261 231.6 406.161C229.6 410.461 228.2 414.061 227.3 417.461C205.1 409.861 182.8 401.361 161 392.061C160.2 393.161 159.4 394.261 158.5 395.261C180.8 404.761 203.6 413.461 226.4 421.261C225.7 425.261 225.7 428.861 226.5 431.861C227.4 435.161 230.3 437.861 235.4 440.061C238.1 441.261 241 442.061 243.3 442.661C243.4 442.661 243.5 442.761 243.6 442.761C230.9 461.861 213.3 478.861 192.4 492.261C192.3 491.861 192.1 491.361 192 490.961C189.9 484.661 187.4 476.761 181.6 474.361L181.3 474.261C179.4 473.561 177 473.461 173.9 474.061C165.8 451.261 156.6 428.661 146.3 406.561C145.2 407.361 144.1 408.061 143 408.761C153 430.461 162.1 452.661 170 474.961C166.7 475.961 163.5 477.261 160.8 478.361C159.6 478.861 158.5 479.261 157.6 479.561C153.1 481.261 149.6 482.761 146.6 484.561C136.2 462.861 126.2 440.661 117.2 418.161C115.8 418.361 114.5 418.461 113.1 418.561C122.3 441.561 132.5 464.461 143.4 486.561C140.1 488.861 137.6 491.461 136 494.161C132.6 499.961 137.2 508.161 140.2 513.661C140.4 514.061 140.7 514.461 140.9 514.861C116.7 521.161 91.6 522.261 68 517.761C70.9 511.561 77.1 498.561 74.1 492.061C73.2999 490.261 71.6 488.461 69 486.661C79.6 464.361 89.2999 441.261 97.7999 417.961C96.4999 417.761 95.2 417.461 93.8999 417.161C85.4999 440.061 76.1 462.761 65.7 484.561C61.4 482.261 56.5 480.361 53.7 479.061C52.7 478.661 51.7 478.161 50.7 477.761C47.7 476.461 45 475.561 42.4 474.861C50.2 451.961 59 429.061 68.6 406.661C67.5 405.861 66.3999 405.061 65.3999 404.061C55.5999 426.961 46.6 450.461 38.6 473.961C34.6 473.261 31 473.261 28 474.061C21.2 475.861 16.9 490.361 15.1 496.561L15 496.761C9.99995 493.561 5.09995 490.161 0.399951 486.461V491.261C11.4 499.561 23.4 506.561 36.1 511.961C48.4 517.161 61.1 520.861 74.1 522.861C149.3 534.861 231.4 489.061 260.9 418.761C280.3 372.461 271.1 321.461 263.9 295.261ZM71.8999 212.561C69.2999 217.061 62.4 219.961 57.5 222.161C56.7999 222.461 56.0999 222.761 55.5 223.061C49.9 225.561 44.0999 227.161 37 228.961C35.5 229.361 34.1 229.161 32.7 228.661C27.9 226.661 24.7 219.461 22.7 214.361C37.7999 204.761 52.6 197.961 67.5 193.861V193.961L68.1 195.061C70.9 199.761 74.9999 207.261 71.8999 212.561ZM181.7 229.661C176.6 230.961 169.7 228.261 164.7 226.261C164 225.961 163.3 225.761 162.7 225.461C156.6 223.161 150.8 219.761 145.4 216.461C138.3 212.161 143.5 200.861 146.5 194.561C148.2 195.061 149.9 195.561 151.6 196.161C154.8 197.261 158.1 198.461 161.3 199.861C171.1 204.061 180.7 209.461 190.8 216.561C189.3 221.861 187.3 228.261 181.7 229.661ZM264.9 315.661C260 318.361 252.5 322.561 247.2 319.461C242.7 316.861 239.8 309.961 237.6 305.061C237.3 304.361 237 303.661 236.7 303.061C234.2 297.461 232.6 291.661 230.8 284.561C228.8 276.361 240.4 272.161 246.7 269.961L247.4 269.761C249.8 273.161 252.1 276.761 254 280.461C259.6 290.961 262.9 303.361 264.9 315.661ZM64 517.061C60.4 516.261 56.9 515.361 53.4 514.361C47.8 512.761 42.3 510.761 36.9 508.461C30.5 505.761 24.3 502.561 18.3 498.961C18.3 498.861 18.4 498.861 18.4 498.761L18.5 498.561C20.1 493.261 24.2 479.161 30.5 477.561C35.5999 476.261 42.5 478.961 47.5 480.961C48.2 481.261 48.9 481.461 49.5 481.761C55.5999 484.061 61.3999 487.461 66.7999 490.761C74.2 495.261 66.7999 511.061 64 517.061C64 516.961 64 516.961 64 517.061ZM175.5 501.861C165.6 506.861 155.2 510.861 144.7 513.861C144.7 513.761 144.6 513.661 144.6 513.461L144 512.361C141.3 507.361 137.1 499.961 140.2 494.661C142.8 490.161 149.7 487.261 154.6 485.061C155.3 484.761 156 484.461 156.6 484.161C162.2 481.661 168 480.061 175.1 478.261C176.7 477.861 178.1 477.961 179.5 478.561C184.4 480.661 187 488.361 188.8 493.461C188.9 493.761 189 493.961 189.1 494.261C184.7 497.061 180.2 499.561 175.5 501.861ZM258 415.261C254.8 423.561 250.8 431.561 245.9 439.361L245.1 439.161C242.9 438.561 240.4 437.761 238 436.761C233.4 434.761 230.7 432.361 229.9 429.261C228.6 424.161 231.3 417.261 233.3 412.261C233.6 411.561 233.8 410.861 234.1 410.261C236.3 404.561 239.3 399.261 243.1 392.961C245.8 388.461 251.6 388.261 260.9 392.161C262.1 392.661 263.3 393.261 264.3 393.661C262.7 401.161 260.6 408.361 258 415.261Z" fill="#E8E8E8"/>
<path d="M150.2 273.361C147.5 280.961 144.7 288.661 141 295.961C141.7 296.361 142.4 296.861 143 297.261C146.7 289.961 149.6 282.261 152.3 274.661C152.9 272.961 153.5 271.361 154.1 269.661L166.7 235.461C167.1 234.361 165.8 233.561 165 233.861C164.7 233.961 164.5 234.261 164.4 234.561L152.3 267.461C151.6 269.361 150.9 271.361 150.2 273.361ZM225 411.961L192.2 399.861C190.2 399.161 188.2 398.461 186.3 397.761C181.3 395.961 176.1 394.061 171.1 391.961C168.4 390.761 165.9 389.661 163.5 388.461C163.1 389.161 162.6 389.861 162.2 390.461C164.6 391.761 167.2 392.961 170.1 394.161C175 396.261 180.1 398.061 185 399.861C186.7 400.461 188.3 401.061 190 401.661L224.2 414.261C224.9 414.561 225.6 414.061 225.8 413.561C226 412.861 225.7 412.261 225 411.961ZM135.3 292.861C136 293.261 136.8 293.561 137.5 293.961C140.5 286.861 143.4 279.561 146 272.361C146.4 271.261 145.1 270.461 144.3 270.761C144 270.861 143.8 271.161 143.7 271.461C141.2 278.561 138.3 285.761 135.3 292.861ZM188.2 391.261C181 388.661 173.8 385.861 166.8 382.861C166.7 382.861 166.7 382.861 166.6 382.761C166.2 383.461 165.9 384.261 165.5 384.961C165.6 384.961 165.7 385.061 165.8 385.061C172.8 388.061 180.1 390.861 187.3 393.461C188 393.761 188.7 393.261 188.9 392.761C189.2 392.261 188.9 391.561 188.2 391.261ZM104.6 305.561C104.2 305.061 103.5 304.761 102.6 304.961C77.5 309.761 59.2 331.661 60.7 357.461C62.2 383.161 86.5 402.261 111.2 400.661C139.2 398.861 154 373.161 153.2 347.661C152.4 322.061 129.2 303.561 104.6 305.561ZM113.9 396.061C90.3 401.261 69.8 381.961 65.1 360.161C60.1 336.661 79 314.761 100.8 309.361C101.2 309.661 101.7 309.761 102.4 309.661C125.2 306.361 145.5 321.861 148.8 344.561C152.5 369.261 138.2 390.761 113.9 396.061ZM56.9 325.461C57.7 324.061 55.4 323.161 54.7 324.461C47.4 337.161 47.6 351.761 50.7 365.761C51 367.261 53.5 366.961 53.1 365.461C50.1 351.961 49.8 337.861 56.9 325.461Z" fill="#E8E8E8"/>
<path d="M145.9 317.161C158.5 331.361 161.6 351.661 153.7 368.861C153 370.261 155.3 371.261 155.9 369.861C164.1 351.961 161 330.461 147.8 315.761C146.8 314.561 144.9 316.061 145.9 317.161Z" fill="#E8E8E8"/>
<path d="M159.9 371.761C156.3 382.061 150 391.261 142.2 398.761C141.1 399.861 142.5 401.761 143.7 400.761C152.5 392.261 158.9 382.261 162.9 370.761C166.2 361.161 168.5 349.161 164.4 339.461C163.8 338.061 161.5 338.961 162.1 340.361C166.3 350.161 163.3 362.161 159.9 371.761ZM116.2 402.061C99.5 406.561 81.5 401.261 69.7 388.561C68.6 387.461 66.7 388.861 67.7 390.061C80.2 403.661 99.1 409.161 117 404.361C118.7 403.861 117.7 401.661 116.2 402.061ZM115.8 407.761C107.7 409.761 99.5 409.761 91.4 407.761C89.9 407.361 89.6 409.761 91.1 410.161C99.4 412.261 107.8 412.261 116.2 410.161C117.6 409.861 117.3 407.461 115.8 407.761ZM77.5 310.861C77.6 310.861 77.6 310.961 77.7 310.961C78.2 311.161 78.8 311.061 79.1 310.561L79.2 310.461C79.3 310.261 79.4 310.061 79.4 309.961C81.7 307.361 87.1 305.261 89.8 303.961C93.7 302.061 98 301.061 102.3 300.561C110.2 299.661 118.1 301.761 124.9 305.561C126.3 306.361 127.2 304.061 125.9 303.361C117.9 298.961 109.2 297.361 100.2 298.461C95.6 298.961 91.2 300.661 87 302.761C84 304.261 78.9 306.361 77 309.161C76.5 309.761 76.7 310.561 77.5 310.861ZM114.8 295.961C120.2 296.561 125.3 298.061 130.2 300.461C131.6 301.161 132.5 298.961 131.2 298.261C126.1 295.761 120.8 294.161 115.2 293.661C113.6 293.361 113.3 295.861 114.8 295.961ZM109.8 327.661C109 327.461 108.4 327.761 108 328.261C98.4 327.461 87.8 333.161 86.1 343.461C84.2 354.961 90.6 366.561 101.9 370.161C112.7 373.561 124.7 365.361 127.4 354.861C131.3 339.961 123.4 331.861 109.8 327.661ZM101.1 366.561C92.8 363.961 88.5 353.861 88.9 345.961C89.4 334.861 101.8 329.361 111.3 331.961C111.7 332.061 112.1 331.961 112.3 331.861C120.2 334.961 125.7 339.561 125.3 349.661C124.8 361.961 112.7 370.161 101.1 366.561Z" fill="#E8E8E8"/>
<path d="M172.9 350.961C173.2 316.861 146.1 288.761 113.3 285.561C113.8 285.561 114.2 285.361 114.6 285.161C114.3 285.061 114.1 285.061 113.8 284.961C113.4 284.861 113 284.861 112.7 284.761C110 284.561 107.3 284.761 104.6 284.461C104.5 284.461 104.5 284.461 104.4 284.361C104 284.361 103.5 284.461 103.1 284.461C102 284.561 100.8 284.661 99.7 284.761C99.8 284.761 99.9 284.861 99.9 284.861C69.2 289.261 44.6 312.961 40.5 344.761C35.4 385.061 67.9 418.461 106.6 422.161C145.8 425.961 172.6 386.161 172.9 350.961ZM107.3 418.761C68.8 417.761 41.4 382.261 44.2 345.561C46.5 314.661 73.6 291.561 103.2 288.461C103.6 288.861 104.3 289.161 105 289.161C139.2 287.661 166.1 314.261 169.1 347.561C172.4 383.061 144.3 419.661 107.3 418.761Z" fill="#E8E8E8"/>
<path d="M254.5 189.061C236.5 173.061 213.8 158.561 187 145.961C185.3 145.161 183.7 144.461 182 143.661C133.7 123.161 80.8999 132.661 45.1 144.161C29.8 149.061 15 155.961 0.199951 164.961V169.761C32.6 150.161 66.8 139.061 100.5 137.161C102.7 137.061 104.8 136.861 106.9 136.761C114.4 136.261 122.1 135.761 129.7 136.061C147.1 136.761 165.5 141.061 184.3 149.061C204.4 157.561 225.1 170.261 245.8 186.661C299.8 229.461 329.2 304.361 320.7 377.561C312.2 450.261 262.3 519.061 193.5 552.661C154.9 571.561 112.5 577.461 70.8999 569.761C53.4999 566.561 36.4 561.361 19.9 554.461C13.1 551.561 6.59995 548.461 0.199951 545.061V549.461C6.29995 552.661 12.6 555.661 19 558.361C48.7999 570.961 80.2 577.461 109.9 577.161C145.4 576.761 182.2 565.461 216.3 544.461C277.5 506.661 319.2 439.761 325.3 369.661C331.2 302.261 304 232.961 254.5 189.061Z" fill="#E8E8E8"/>
<path d="M34.6001 525.461C32.0001 523.561 28.6001 522.861 25.5001 524.461C21.7001 526.461 19.1001 530.961 19.2001 535.161C19.2001 538.661 21.2001 541.661 24.3001 543.261C29.6001 545.961 35.5001 543.861 38.2001 538.661C39.4001 536.361 39.6 533.561 38.8001 531.061C38.0001 528.861 36.5001 526.861 34.6001 525.461ZM26.2001 540.961C22.1001 539.361 21.3001 534.861 23.0001 531.061C23.8001 529.361 25.1001 527.761 26.7001 526.961C29.1001 525.761 32.3001 527.361 34.2001 528.961C36.5001 530.961 36.4001 534.861 35.4001 537.461C34.1001 541.261 29.5001 542.261 26.2001 540.961Z" fill="#E8E8E8"/>
<path d="M32.8 531.961C33.6 531.361 32.7 530.161 31.9 530.761L30.3 531.961C29.5 532.561 30.4 533.761 31.2 533.161C31.7 532.761 32.2 532.361 32.8 531.961ZM31.3 536.161L33.4 534.361C34.1 533.761 33.2 532.561 32.5 533.161L30.4 534.961C29.7 535.561 30.6 536.761 31.3 536.161ZM32.5 535.561C31.9 536.061 31.4 536.461 30.8 536.961C30.1 537.561 31 538.761 31.7 538.161C32.3 537.661 32.8 537.261 33.4 536.761C34.1 536.161 33.2 534.961 32.5 535.561ZM176 185.661C181.3 188.361 187.2 186.261 189.9 181.061C191.1 178.761 191.3 175.961 190.5 173.461C189.8 171.261 188.3 169.261 186.4 167.861C183.8 165.961 180.4 165.261 177.3 166.861C173.5 168.861 170.9 173.361 171 177.561C170.9 181.061 172.8 184.061 176 185.661ZM178.5 169.361C180.9 168.161 184.1 169.761 186 171.361C188.3 173.361 188.2 177.261 187.2 179.961C185.9 183.661 181.3 184.761 178 183.461C173.9 181.861 173.1 177.361 174.8 173.561C175.5 171.761 176.8 170.161 178.5 169.361Z" fill="#E8E8E8"/>
<path d="M182.9 175.561C183.4 175.161 183.9 174.761 184.5 174.361C185.3 173.761 184.4 172.561 183.6 173.161L182 174.361C181.3 174.961 182.2 176.161 182.9 175.561ZM183 178.561L185.1 176.761C185.8 176.161 184.9 174.961 184.2 175.561L182.1 177.361C181.4 177.961 182.3 179.161 183 178.561ZM184.2 177.861C183.6 178.361 183.1 178.761 182.5 179.261C181.8 179.861 182.7 181.061 183.4 180.461C184 179.961 184.5 179.561 185.1 179.061C185.8 178.461 185 177.261 184.2 177.861ZM293.7 427.461C291.7 423.661 287.2 421.061 283 421.161C279.5 421.161 276.5 423.161 274.9 426.261C272.2 431.561 274.3 437.461 279.5 440.161C281.8 441.361 284.6 441.561 287.1 440.761C289.3 440.061 291.3 438.561 292.7 436.661C294.6 433.961 295.3 430.561 293.7 427.461ZM289.3 436.161C287.3 438.461 283.4 438.361 280.7 437.361C277 436.061 275.9 431.461 277.2 428.161C278.8 424.061 283.3 423.261 287.1 424.961C288.8 425.761 290.4 427.061 291.2 428.661C292.4 431.061 290.9 434.361 289.3 436.161Z" fill="#E8E8E8"/>
<path d="M287.5 433.861L286.3 432.261C285.7 431.461 284.5 432.361 285.1 433.161C285.5 433.661 285.9 434.161 286.3 434.761C286.9 435.461 288.1 434.561 287.5 433.861ZM285.1 434.461L283.3 432.361C282.7 431.661 281.5 432.561 282.1 433.261L283.9 435.361C284.5 436.061 285.7 435.161 285.1 434.461ZM282.7 434.461C282.2 433.861 281.8 433.361 281.3 432.761C280.7 432.061 279.5 432.961 280.1 433.661C280.6 434.261 281 434.761 281.5 435.361C282.1 436.061 283.3 435.161 282.7 434.461ZM288.4 291.961C290.9 291.161 293 289.261 294.2 286.961C295.3 284.861 295.6 282.361 295.2 280.061C294.7 276.861 292.7 273.961 289.4 272.961C285.3 271.661 280.3 273.061 277.3 276.061C274.8 278.561 274.1 282.061 275.2 285.361C277.1 291.161 282.7 293.861 288.4 291.961ZM283 275.961C284.7 275.361 286.8 275.061 288.6 275.661C291.1 276.461 292.3 279.861 292.5 282.361C292.7 285.361 289.8 288.061 287.3 289.261C283.7 290.961 279.8 288.461 278.3 285.261C276.5 281.161 279.1 277.361 283 275.961Z" fill="#E8E8E8"/>
<path d="M287.4 283.161C288.1 283.261 288.7 283.261 289.4 283.361C290.4 283.461 290.6 281.961 289.6 281.861L287.6 281.661C286.6 281.661 286.4 283.061 287.4 283.161ZM285.3 285.361C286.2 285.461 287.1 285.461 288.1 285.561C289.1 285.661 289.3 284.161 288.3 284.061C287.4 283.961 286.5 283.961 285.5 283.861C284.5 283.861 284.3 285.261 285.3 285.361ZM284.1 287.061C284.8 287.161 285.6 287.161 286.3 287.261C287.3 287.361 287.5 285.861 286.5 285.761C285.8 285.661 285 285.661 284.3 285.561C283.4 285.461 283.2 286.961 284.1 287.061ZM27.9001 184.261C30.0001 185.361 32.5001 185.661 34.8001 185.261C38.0001 184.761 40.9001 182.761 41.9001 179.461C43.2001 175.361 41.8001 170.361 38.8001 167.361C36.3001 164.861 32.8001 164.161 29.5001 165.261C23.8001 167.061 21.1001 172.761 22.9001 178.361C23.8001 180.961 25.6001 183.061 27.9001 184.261ZM29.7001 168.361C33.7001 166.561 37.5001 169.161 39.0001 173.061C39.6001 174.761 39.9001 176.861 39.3001 178.661C38.5001 181.161 35.1001 182.361 32.6001 182.561C29.6001 182.761 26.9001 179.861 25.7001 177.361C24.0001 173.761 26.5001 169.761 29.7001 168.361Z" fill="#E8E8E8"/>
<path d="M31.5 179.361C31.4 180.361 32.9 180.561 33 179.561L33.2 177.561C33.3 176.561 31.8 176.361 31.7 177.361C31.7 178.061 31.6 178.761 31.5 179.361ZM29.4 178.061C29.3 179.061 30.8 179.261 30.9 178.261C31 177.361 31 176.461 31.1 175.461C31.2 174.461 29.7 174.261 29.6 175.261C29.5 176.261 29.5 177.161 29.4 178.061ZM27.7 176.461C27.6 177.461 29.1 177.661 29.2 176.661C29.3 175.961 29.3 175.161 29.4 174.461C29.5 173.461 28 173.261 27.9 174.261C27.8 174.961 27.8 175.661 27.7 176.461ZM184.4 527.661C181.9 525.161 178.4 524.461 175.1 525.561C169.4 527.361 166.7 533.061 168.5 538.661C169.3 541.161 171.2 543.261 173.5 544.461C175.6 545.561 178.1 545.861 180.4 545.461C183.6 544.961 186.5 542.961 187.5 539.661C188.9 535.561 187.5 530.561 184.4 527.661ZM178.2 542.661C175.2 542.861 172.5 539.961 171.3 537.461C169.6 533.861 172.1 529.961 175.3 528.461C179.3 526.661 183.1 529.261 184.6 533.161C185.2 534.861 185.5 536.961 184.9 538.761C184 541.261 180.7 542.561 178.2 542.661Z" fill="#E8E8E8"/>
<path d="M178.9 537.761C179 536.761 177.5 536.561 177.4 537.561C177.3 538.261 177.3 538.861 177.2 539.561C177.1 540.561 178.6 540.761 178.7 539.761L178.9 537.761ZM176.7 535.761C176.8 534.761 175.3 534.561 175.2 535.561C175.1 536.461 175.1 537.361 175 538.361C174.9 539.361 176.4 539.561 176.5 538.561C176.6 537.561 176.6 536.661 176.7 535.761ZM175 534.561C175.1 533.561 173.6 533.361 173.5 534.361C173.4 535.061 173.4 535.861 173.3 536.561C173.2 537.561 174.7 537.761 174.8 536.761C174.8 536.061 174.9 535.361 175 534.561ZM21.5 510.561C14.1 506.361 6.99995 501.761 0.199951 496.661V498.561C6.69995 503.361 13.5 507.761 20.6 511.761C21.5 512.261 22.2999 511.061 21.5 510.561ZM7.59995 541.161C5.09995 539.761 2.69995 538.261 0.199951 536.761V538.561C2.39995 539.861 4.49995 541.261 6.69995 542.461C7.59995 542.861 8.39995 541.661 7.59995 541.161ZM275.2 308.261C282.9 340.161 282.6 373.761 274 405.461C273.8 406.361 275.1 406.961 275.4 405.961C284 373.961 284.4 340.161 276.6 307.961C276.5 307.061 275 307.361 275.2 308.261ZM310.1 388.361C309.9 389.261 311.4 389.461 311.6 388.561C316.5 358.261 315.5 327.261 308.6 297.361C308.4 296.461 306.9 296.661 307.1 297.561C314 327.361 315 358.261 310.1 388.361ZM283.3 415.061C286.5 406.261 288.5 397.161 289.4 387.861C289.5 386.861 288 386.761 287.9 387.661C287.1 396.861 285.1 405.861 281.9 414.461C281.6 415.361 282.9 415.961 283.3 415.061ZM21.9 201.161C14.4 205.261 7.09995 209.761 0.199951 214.761V216.561C7.29995 211.361 14.7 206.661 22.4 202.461C23.3 202.161 22.7 200.761 21.9 201.161ZM23 189.361C14.9 192.961 7.29995 197.461 0.199951 202.861V204.761C7.39995 199.061 15.2 194.461 23.6 190.761C24.5 190.361 23.9 188.961 23 189.361ZM259.3 442.261C242.2 470.261 218.2 493.761 189.7 510.161C188.9 510.661 189.5 511.961 190.3 511.561C219 495.061 243.3 471.461 260.5 443.261C261 442.261 259.8 441.361 259.3 442.261ZM228.2 524.661C253.1 506.761 274.3 484.061 290.6 458.061C291.1 457.261 289.9 456.361 289.4 457.161C273.2 483.061 252.1 505.561 227.2 523.461C226.5 524.061 227.4 525.261 228.2 524.661ZM212 507.261C204.9 513.161 197.2 518.061 188.8 521.961C187.9 522.361 188.5 523.761 189.4 523.361C197.9 519.361 205.8 514.461 213 508.461C213.7 507.761 212.8 506.661 212 507.261ZM59.9 181.761C59 181.961 59.2 183.461 60.1 183.261C92.1 175.661 125.6 176.261 157.3 184.961C158.2 185.261 158.8 183.861 157.9 183.561C126 174.761 92.2 174.161 59.9 181.761ZM47 156.861C76.1 147.461 106.8 143.761 137.2 146.061C138.2 146.161 138.2 144.661 137.2 144.561C106.6 142.261 75.8 145.961 46.6 155.361C45.7 155.661 46.0999 157.161 47 156.861ZM138.7 166.361C147.8 167.761 156.6 170.261 165.1 173.961C166 174.361 166.6 172.961 165.7 172.661C157.1 168.961 148.2 166.361 138.9 164.961C138 164.661 137.7 166.161 138.7 166.361ZM192.9 202.361C221.5 218.661 245.6 241.861 262.9 269.861C263.4 270.661 264.8 270.061 264.2 269.261C246.8 241.061 222.5 217.561 193.7 201.161C192.9 200.661 192.1 201.861 192.9 202.361ZM207 171.861C233.4 187.261 256.6 207.661 275.2 231.961C275.8 232.761 276.9 231.761 276.3 230.961C257.6 206.561 234.3 186.061 207.8 170.561C207 170.061 206.2 171.361 207 171.861ZM259.3 247.561C265.4 254.461 270.6 262.061 274.7 270.361C275.1 271.261 276.5 270.561 276 269.761C271.8 261.361 266.6 253.661 260.4 246.661C259.8 245.961 258.7 246.861 259.3 247.561ZM155.1 526.961C156 526.761 155.8 525.261 154.9 525.461C123 533.461 89.5 533.461 57.7 525.261C56.7999 525.061 56.2 526.461 57.2 526.661C89.2 534.961 122.9 535.061 155.1 526.961ZM165.8 557.261C136.1 564.461 105.2 565.761 75 561.161C74.1 561.061 73.8999 562.461 74.8999 562.661C105.2 567.261 136.2 565.961 166.1 558.761C167 558.461 166.8 557.061 165.8 557.261ZM75.6 538.861C66.4 538.161 57.4 536.161 48.7 533.161C47.7999 532.861 47.2999 534.261 48.2 534.561C57 537.661 66.1 539.661 75.5 540.361C76.4 540.461 76.5 538.961 75.6 538.861Z" fill="#E8E8E8"/>
</svg>
