<svg width="254" height="789" viewBox="0 0 254 789" fill="none" xmlns="http://www.w3.org/2000/svg">
<path d="M253.132 751.455V744.355C225.032 704.455 179.932 681.955 136.732 661.555C124.032 655.555 110.832 650.155 100.332 640.755C90.1315 631.555 81.5316 619.855 73.0316 609.155C55.7316 587.455 40.4316 563.755 31.9316 537.155C31.1316 534.755 27.3316 535.755 28.1316 538.255C30.8316 546.855 34.3316 555.155 38.2316 563.155C38.0316 563.255 37.9316 563.455 37.7316 563.655C32.4316 572.655 27.7315 581.955 23.8315 591.655C5.83154 574.155 3.63159 544.055 4.13159 520.355C4.73159 494.555 12.1316 468.755 27.5316 447.855C44.1316 482.755 63.2315 519.755 98.8315 537.755C85.6315 541.155 72.2316 542.555 58.5316 542.055C55.6316 537.155 53.1316 531.955 50.9316 526.355C50.0316 523.955 46.1316 525.055 47.1316 527.455C51.0316 537.355 55.6316 546.255 62.4316 554.455C69.6316 563.155 78.2316 570.755 86.4316 578.455C102.832 593.755 120.932 607.655 142.732 614.155C161.632 619.755 183.132 618.155 199.132 606.055C212.932 595.655 220.832 578.155 217.432 561.055V560.955C224.332 556.255 231.532 551.855 238.632 547.655L240.732 546.455C241.532 546.655 242.432 546.255 242.732 545.255C246.132 543.255 249.532 541.355 253.032 539.455V525.555C252.732 528.455 252.532 531.355 252.332 534.355C252.332 534.755 252.432 535.155 252.532 535.455C249.532 537.155 246.432 538.955 243.432 540.655C243.732 537.655 243.932 534.755 244.032 531.755C244.032 531.355 243.932 531.055 243.832 530.855C246.932 529.055 250.032 527.355 253.032 525.555V521.255C241.632 527.955 229.932 534.155 218.532 540.655C217.132 516.655 218.132 492.955 220.032 469.055C222.132 443.855 220.932 418.455 222.132 393.155C224.532 342.255 223.232 292.955 225.032 243.855V243.655C233.932 239.455 243.432 237.155 253.132 236.855V232.955C242.532 233.255 232.132 235.855 222.332 240.655C213.832 240.355 205.432 239.955 197.032 239.355C192.632 227.955 190.032 215.855 189.532 203.455C189.032 190.555 191.332 178.455 195.532 166.855C213.032 165.755 230.632 165.055 248.032 164.255C249.732 164.155 251.432 164.155 253.232 164.055V160.055C251.532 160.155 249.832 160.155 248.032 160.255C239.832 160.655 231.532 160.955 223.232 161.355C223.332 161.155 223.332 160.955 223.332 160.755C223.332 148.655 223.532 128.655 223.932 116.655C224.032 112.555 222.532 99.1551 227.432 97.4551C234.132 95.0551 241.332 93.4551 248.332 92.6551C249.932 92.4551 251.632 92.4551 253.232 92.4551V88.5551H250.532C243.132 88.7551 235.732 90.9551 228.732 92.9551C225.932 93.7551 224.032 94.5551 222.632 95.9551C222.332 95.6551 221.832 95.4551 221.332 95.5551C213.832 95.9551 208.832 100.755 204.532 106.355C191.432 94.2551 190.332 74.5551 197.432 58.8551C205.132 41.8551 222.932 30.2551 241.332 29.1551C245.332 28.9551 249.332 29.2551 253.232 30.1551V25.9551C249.932 25.2551 246.532 24.8551 243.232 24.7551C203.432 23.8551 168.532 78.5551 201.832 108.955L202.132 109.255L200.332 111.955C200.032 112.155 199.832 112.455 199.732 112.855C197.132 116.855 194.732 120.855 192.432 125.055C182.532 114.655 178.432 100.355 175.332 86.6551C171.932 71.8551 173.332 57.1551 179.632 43.3551C191.532 17.2551 218.332 2.9551 246.332 4.1551C248.632 4.2551 250.932 4.4551 253.232 4.8551V0.955101C252.332 0.855101 251.332 0.6551 250.432 0.5551C220.032 -3.2449 191.032 12.7551 176.932 39.6551C169.832 53.1551 168.232 68.1551 170.432 83.0551C172.932 99.1551 178.532 116.955 190.232 128.755C190.232 128.755 190.332 128.855 190.432 128.855C188.732 132.055 187.132 135.255 185.632 138.455C181.732 146.755 178.532 155.355 176.032 164.255C153.432 166.155 130.932 168.955 108.932 173.555H108.832C107.832 173.255 106.632 173.555 106.232 174.855C102.232 187.655 101.632 200.755 104.032 213.855C105.032 219.355 106.732 225.355 109.632 230.255C112.232 234.655 119.832 234.455 124.132 235.155C136.432 237.155 148.732 238.855 161.132 240.155C161.832 240.755 162.732 240.755 163.432 240.355C167.132 240.755 170.932 241.155 174.632 241.455C182.032 268.655 197.932 293.455 219.532 311.555C219.732 338.755 218.032 365.955 218.232 393.155C218.532 417.555 218.132 442.055 216.332 466.355C214.532 491.655 212.932 516.755 214.632 542.155C214.632 542.355 214.732 542.555 214.732 542.755C212.732 543.955 210.632 545.155 208.632 546.355C195.232 554.355 183.032 563.455 172.232 574.755C169.632 577.455 167.232 580.255 164.832 583.055C164.032 583.355 163.332 584.055 163.332 584.855C156.632 592.955 150.532 601.455 144.332 609.955C144.232 610.055 144.132 610.255 144.132 610.355C141.132 609.555 138.132 608.555 135.232 607.455C116.932 600.555 101.632 587.255 87.5316 574.055C80.9316 567.855 74.3316 561.655 68.1316 554.955C65.4316 552.055 63.1316 549.155 61.0316 546.055C75.9316 546.355 90.6316 544.455 104.932 540.155C106.432 539.755 107.032 537.255 105.432 536.555C66.3316 519.255 46.8316 479.555 29.5316 443.055C29.0316 441.955 27.1316 441.655 26.4316 442.655C9.03164 464.955 1.13159 492.355 0.13159 520.355C-0.76841 545.855 2.53159 578.855 23.1316 596.455C24.3316 597.455 25.9316 597.055 26.4316 595.555C30.3316 585.755 34.9316 576.255 40.2316 567.155C47.4316 580.855 56.1316 593.755 65.5316 606.155C73.1316 616.055 81.1316 625.655 89.2316 635.055C98.2316 645.555 108.632 652.555 120.932 658.555C114.732 681.255 111.032 704.655 117.132 727.155C116.932 727.855 117.132 728.655 117.732 729.155C118.832 732.955 120.332 736.755 122.032 740.455C129.332 756.055 139.632 771.855 154.032 780.855C154.432 781.655 155.232 782.155 156.132 782.055C162.232 785.455 169.132 787.655 176.732 788.155C184.832 788.655 192.132 781.155 186.032 774.055C182.932 770.355 176.532 768.455 172.532 765.855C166.432 761.855 161.032 756.755 156.132 751.355C135.732 728.655 130.032 696.155 139.232 667.455C182.532 688.055 226.632 710.355 253.132 751.455ZM221.032 244.455C220.432 254.655 220.032 264.955 219.832 275.155C210.932 265.755 203.832 255.055 198.732 243.355C206.132 243.755 213.532 244.155 221.032 244.455ZM197.032 162.555C199.832 155.655 203.132 149.055 206.932 142.555C210.932 143.755 215.032 144.255 219.132 144.255C219.132 150.155 219.232 155.755 219.232 160.555C219.232 160.855 219.332 161.055 219.332 161.355C211.932 161.655 204.532 162.055 197.032 162.555ZM219.132 140.255C215.732 140.255 212.332 139.855 209.032 139.055C212.232 133.755 215.632 128.555 219.232 123.455C219.132 128.955 219.132 134.655 219.132 140.255ZM220.832 99.2551C220.732 99.7551 220.632 100.355 220.532 100.955C220.132 104.655 219.832 108.855 219.632 113.255C214.832 111.955 209.832 111.855 204.832 111.655C208.932 105.455 214.032 99.8551 220.832 99.2551ZM198.732 121.855C199.832 119.955 201.032 117.755 202.332 115.555C207.832 115.755 213.432 115.655 218.832 117.155C216.732 120.155 214.632 123.155 212.632 126.155C212.432 126.055 212.232 125.955 211.932 125.955C206.832 125.355 201.732 125.255 196.632 125.655C197.332 124.255 198.032 123.055 198.732 121.855ZM194.332 129.655H194.632C199.832 129.155 205.032 129.255 210.232 129.755C208.432 132.555 206.632 135.455 204.932 138.255C204.632 137.955 204.132 137.655 203.532 137.755C198.632 137.855 193.832 138.555 189.232 139.955C190.832 136.455 192.532 133.055 194.332 129.655ZM184.732 150.455C185.432 148.555 186.232 146.555 187.032 144.655C187.232 144.655 187.432 144.655 187.732 144.555C192.632 142.855 197.632 141.855 202.932 141.655C200.832 145.455 198.732 149.355 196.932 153.255C196.532 153.055 196.032 152.955 195.532 153.055C191.132 154.055 186.832 155.155 182.532 156.555C183.232 154.555 183.932 152.455 184.732 150.455ZM181.132 161.055C181.332 161.055 181.632 161.055 181.932 160.955C186.332 159.555 190.732 158.355 195.232 157.255C193.932 160.255 192.732 163.355 191.632 166.455H191.532C187.032 167.955 182.532 169.655 178.232 171.655C179.032 168.055 180.032 164.555 181.132 161.055ZM177.032 176.555C181.332 174.455 185.632 172.655 190.032 171.155C188.732 175.355 187.732 179.555 187.032 183.955C186.932 183.955 186.732 184.055 186.632 184.155C182.732 186.155 178.732 188.155 174.832 190.155C175.332 185.555 176.032 181.055 177.032 176.555ZM140.532 233.455C133.732 232.555 126.932 231.455 120.132 230.355C115.432 229.555 112.832 228.355 111.032 223.555C109.932 220.755 109.132 217.855 108.432 214.855C105.332 202.455 106.232 189.355 109.732 177.255H110.032C126.032 173.855 142.232 171.555 158.532 169.755C152.132 191.455 152.432 214.355 159.432 235.855C153.032 235.155 146.732 234.355 140.532 233.455ZM163.732 236.355C156.332 214.555 155.932 191.355 162.732 169.255C166.832 168.855 170.832 168.455 174.932 168.155C171.932 179.855 170.232 191.755 169.932 203.855C169.632 215.155 170.932 226.455 173.532 237.355C170.232 236.955 166.932 236.655 163.732 236.355ZM174.332 194.755L186.332 188.755C185.832 192.355 185.632 195.955 185.532 199.755C185.532 199.755 185.432 199.755 185.432 199.855C181.732 202.355 177.932 204.455 173.932 206.355C173.832 202.355 174.032 198.555 174.332 194.755ZM174.032 210.755V210.555C178.032 208.755 181.932 206.655 185.632 204.355C185.732 208.255 186.132 212.255 186.732 216.155C186.632 216.155 186.532 216.255 186.432 216.255C182.232 219.055 178.732 222.455 175.732 226.355C174.732 221.255 174.232 216.055 174.032 210.755ZM176.432 230.955C176.932 230.855 177.332 230.655 177.732 230.055C180.332 226.255 183.632 223.055 187.332 220.355C188.132 224.355 189.132 228.355 190.332 232.255C186.432 235.055 182.632 238.155 179.032 241.355C177.932 238.055 177.132 234.555 176.432 230.955ZM180.232 245.755C183.832 242.455 187.632 239.355 191.632 236.455C192.732 239.455 193.832 242.455 195.132 245.355C194.432 245.255 193.632 245.455 193.132 246.155L184.732 257.855C183.032 253.955 181.532 249.855 180.232 245.755ZM186.532 261.955L186.932 261.555C190.132 257.155 193.232 252.755 196.432 248.255C197.632 250.755 198.932 253.155 200.332 255.555C199.732 255.655 199.132 255.955 198.832 256.555C196.532 261.855 194.232 267.155 191.932 272.355C190.032 269.055 188.232 265.555 186.532 261.955ZM194.432 276.555C194.532 276.455 194.632 276.255 194.732 276.155L201.632 260.355C201.932 260.155 202.332 259.955 202.532 259.455C202.532 259.455 202.532 259.355 202.632 259.355C204.632 262.555 206.732 265.555 208.932 268.555C208.632 268.755 208.332 269.055 208.232 269.555C206.032 275.455 203.932 281.255 201.732 287.155C199.132 283.555 196.632 280.155 194.432 276.555ZM204.532 290.655L211.432 271.755C213.232 273.955 215.132 276.055 217.132 278.155C215.532 285.255 214.032 292.455 212.432 299.555C209.732 296.655 207.032 293.755 204.532 290.655ZM219.432 306.255C218.132 305.155 216.932 303.955 215.732 302.855V302.755C216.932 297.055 218.232 291.455 219.432 285.755V306.255ZM231.232 537.955C234.232 536.255 237.132 534.655 240.132 532.955C240.032 536.355 239.732 539.755 239.232 543.055C236.532 544.655 233.832 546.255 231.232 547.855V537.955ZM223.232 542.455C224.532 541.655 225.932 540.955 227.232 540.155V549.355C227.232 549.655 227.332 549.855 227.332 550.155C224.132 552.155 221.032 554.055 217.932 556.155V546.355C217.932 546.055 217.832 545.855 217.832 545.655C219.632 544.555 221.432 543.455 223.232 542.455ZM192.532 605.855C184.032 611.255 174.232 613.355 164.232 613.255C165.832 610.755 167.432 608.255 169.132 605.855C169.632 605.555 170.032 605.055 170.132 604.455C182.032 588.155 197.332 574.955 213.932 563.455C216.732 580.655 206.832 596.755 192.532 605.855ZM205.232 553.155C208.132 551.355 211.032 549.555 213.932 547.855V556.955C213.932 557.555 214.232 558.055 214.532 558.355C211.532 560.355 208.632 562.355 205.732 564.455C205.132 560.755 204.932 557.055 205.132 553.355C205.232 553.255 205.232 553.155 205.232 553.155ZM201.232 555.755C201.232 559.255 201.532 562.855 202.132 566.355C202.232 566.655 202.332 566.855 202.432 567.055C199.832 569.055 197.232 571.055 194.732 573.155C193.632 569.555 192.732 565.955 192.232 562.155C195.032 559.955 198.132 557.755 201.232 555.755ZM180.032 572.555C182.732 569.855 185.532 567.355 188.532 564.955C189.132 568.655 190.032 572.355 191.332 575.955C188.832 578.155 186.332 580.455 183.932 582.755C182.032 579.755 180.332 576.655 179.532 573.155V573.055L180.032 572.555ZM176.332 576.355C177.332 579.355 178.832 582.155 180.532 584.755C180.732 585.055 180.932 585.255 181.232 585.355C179.032 587.655 176.832 589.955 174.732 592.455C172.532 590.155 170.532 587.655 168.532 585.155C171.032 582.155 173.632 579.255 176.332 576.355ZM165.832 588.355C167.832 590.855 169.832 593.255 172.032 595.555C170.532 597.355 169.132 599.255 167.732 601.055C166.832 600.155 165.832 599.355 164.932 598.455C164.232 597.855 163.532 597.155 162.832 596.555L161.832 595.555L161.532 595.255C161.532 594.955 161.432 594.755 161.332 594.455C161.332 594.355 161.232 594.355 161.232 594.255C162.632 592.255 164.232 590.255 165.832 588.355ZM158.332 597.855L158.932 598.455C161.032 600.455 163.232 602.355 165.332 604.355C164.132 606.055 163.032 607.755 161.932 609.455C161.832 609.255 161.632 609.155 161.432 609.055C158.832 607.455 156.132 605.855 153.532 604.355C155.132 602.155 156.732 599.955 158.332 597.855ZM151.132 607.455C153.932 609.055 156.632 610.755 159.432 612.355C159.632 612.455 159.732 612.555 159.932 612.555C159.832 612.655 159.832 612.755 159.732 612.855C155.932 612.555 152.132 611.955 148.432 611.155C149.332 610.055 150.232 608.755 151.132 607.455ZM121.332 674.255C125.232 675.055 129.132 675.255 133.132 674.855H133.332C132.532 678.555 131.932 682.255 131.632 685.955C131.332 685.755 130.932 685.655 130.532 685.655H119.432C119.932 681.755 120.532 677.955 121.332 674.255ZM118.832 689.555H130.432C130.732 689.555 131.032 689.455 131.332 689.355C131.232 691.355 131.232 693.255 131.232 695.255C131.032 695.355 130.932 695.355 130.732 695.455C126.832 697.855 122.632 699.355 118.132 699.855C118.232 696.455 118.432 692.955 118.832 689.555ZM118.032 703.855C122.732 703.355 127.232 701.955 131.432 699.655C131.632 702.455 131.932 705.155 132.332 707.855C132.032 707.855 131.732 707.955 131.432 708.155C128.632 710.155 125.632 711.755 122.532 713.155C121.632 713.555 120.132 713.855 118.732 714.355C118.332 710.955 118.032 707.455 118.032 703.855ZM119.332 718.555C120.032 718.455 121.932 717.755 122.132 717.655C123.232 717.255 124.332 716.755 125.432 716.255C128.132 715.055 130.632 713.555 133.032 711.855L134.232 716.955C134.132 716.955 134.132 717.055 134.032 717.055C130.032 720.455 125.432 722.755 120.732 724.955C120.132 722.955 119.732 720.755 119.332 718.555ZM181.032 775.255C185.032 776.855 184.932 779.755 180.532 783.855C178.632 784.255 176.732 784.355 174.832 784.055C174.532 784.055 174.132 783.955 173.832 783.955C176.232 781.055 178.032 777.855 179.232 774.255C179.832 774.555 180.432 774.855 181.032 775.255ZM175.732 772.155C174.432 776.255 172.232 779.955 169.232 783.055C167.832 782.755 166.532 782.355 165.132 781.955C163.032 781.355 161.032 780.455 159.132 779.455C160.532 778.355 162.332 777.355 163.432 775.955C165.432 773.255 167.132 770.355 168.932 767.555C171.132 769.155 173.432 770.755 175.732 772.155ZM161.032 761.055C162.532 762.455 164.132 763.855 165.732 765.155C164.032 767.855 162.332 770.655 160.532 773.255C159.232 775.155 157.232 775.955 155.632 777.455C153.132 775.855 150.832 774.055 148.732 772.155C153.732 769.555 157.932 765.755 161.032 761.055ZM154.232 754.055L158.132 758.255L158.032 758.355C155.032 763.155 150.732 766.755 145.632 769.155C144.332 767.755 143.032 766.355 141.832 764.755C146.232 762.055 150.232 758.855 153.732 755.055C153.932 754.755 154.132 754.455 154.232 754.055ZM152.132 751.655C151.732 751.655 151.332 751.855 150.932 752.255C147.532 755.955 143.732 759.055 139.432 761.655C137.832 759.455 136.232 757.055 134.732 754.755C135.432 754.455 136.432 754.155 136.932 753.955C138.532 753.255 140.032 752.455 141.532 751.655C143.932 750.255 146.232 748.455 148.232 746.555C149.432 748.255 150.732 749.955 152.132 751.655ZM145.932 743.155C143.432 745.455 140.732 747.455 137.632 749.155C136.132 749.955 134.232 750.455 132.632 751.255C130.832 748.155 129.132 745.055 127.432 741.955C131.732 739.055 136.932 737.855 140.932 734.555C142.432 737.555 144.132 740.455 145.932 743.155ZM135.432 721.155C136.432 724.455 137.732 727.655 139.132 730.855C135.432 734.555 130.032 735.855 125.632 738.555C124.132 735.355 122.832 732.155 121.832 728.955C126.632 726.755 131.332 724.355 135.432 721.155ZM134.232 671.055C133.932 670.855 133.632 670.855 133.132 670.855C129.432 671.255 125.832 671.055 122.232 670.355C123.032 666.955 123.832 663.655 124.732 660.355C128.432 662.155 132.032 663.855 135.732 665.655C135.132 667.455 134.632 669.255 134.232 671.055Z" fill="#E8E8E8"/>
<path d="M152.432 228.955C140.332 228.855 128.431 227.155 116.831 223.855C115.931 223.655 115.632 224.955 116.432 225.155C128.132 228.455 140.232 230.155 152.432 230.255C153.332 230.355 153.332 229.055 152.432 228.955ZM253.132 226.055C244.732 226.255 236.732 228.655 228.732 231.255C220.032 234.055 210.832 236.255 202.032 232.655C201.232 232.355 200.832 233.655 201.632 233.955C209.432 237.155 217.632 235.855 225.432 233.655C234.732 231.055 243.332 227.855 253.032 227.455V226.055H253.132ZM141.632 222.755L113.132 219.155C112.232 219.055 112.232 220.455 113.132 220.555L141.632 224.155C142.532 224.255 142.432 222.855 141.632 222.755ZM127.232 216.955C122.032 216.655 116.932 216.055 111.932 215.155C111.032 214.955 110.732 216.355 111.532 216.455C116.732 217.455 121.932 218.055 127.232 218.355C128.032 218.355 128.032 216.955 127.232 216.955ZM128.032 213.655C122.432 212.655 116.732 211.955 111.032 211.755C110.132 211.755 110.132 213.055 111.032 213.155C116.632 213.355 122.132 214.055 127.732 215.055C128.532 215.155 128.932 213.855 128.032 213.655ZM120.331 208.155C119.531 208.055 112.132 207.155 110.932 207.355C110.932 206.955 110.532 206.555 110.132 206.655C110.032 206.655 110.032 206.655 109.932 206.755C109.632 206.855 109.432 207.155 109.432 207.455V207.755C109.432 208.055 109.632 208.255 109.732 208.355C110.732 209.055 112.631 208.855 113.831 208.955C116.031 209.155 118.231 209.355 120.331 209.555C121.131 209.655 121.131 208.255 120.331 208.155ZM119.232 204.655C115.832 204.255 112.332 203.855 108.932 203.455C108.032 203.355 108.032 204.755 108.932 204.855C112.332 205.255 115.832 205.655 119.232 206.055C120.132 206.155 120.132 204.755 119.232 204.655ZM117.932 200.555C115.032 200.355 112.132 199.955 109.232 199.355C108.332 199.155 108.031 200.455 108.831 200.655C111.831 201.255 114.832 201.755 117.932 201.955C118.732 202.055 118.732 200.655 117.932 200.555ZM114.331 196.955C112.531 196.655 110.732 196.655 108.932 196.755C108.032 196.855 108.032 198.255 108.932 198.155C110.632 198.055 112.232 198.055 113.932 198.255C114.832 198.355 115.231 197.055 114.331 196.955ZM112.732 193.755C111.332 193.655 109.932 193.555 108.632 193.455C107.732 193.355 107.732 194.755 108.632 194.855C110.032 194.955 111.432 195.055 112.732 195.155C113.632 195.155 113.632 193.755 112.732 193.755ZM111.831 191.355C111.031 191.255 110.232 191.155 109.432 190.955C108.532 190.855 108.232 192.155 109.032 192.255C109.832 192.355 110.632 192.455 111.432 192.655C112.332 192.755 112.731 191.455 111.831 191.355ZM230.432 225.355C220.832 225.255 211.232 226.055 201.732 227.455C200.832 227.555 201.232 228.955 202.132 228.755C211.532 227.355 221.032 226.655 230.532 226.655C231.332 226.655 231.332 225.355 230.432 225.355Z" fill="#E8E8E8"/>
<path d="M219.432 229.555C214.632 229.855 209.832 229.955 204.932 229.755C204.032 229.755 204.032 231.055 204.932 231.155C209.732 231.355 214.532 231.255 219.432 230.955C220.332 230.855 220.332 229.455 219.432 229.555ZM235.232 219.655C222.932 220.655 210.732 221.455 198.432 222.055C197.532 222.055 197.532 223.455 198.432 223.455C210.732 222.855 222.932 222.055 235.232 221.055C236.132 220.955 236.132 219.555 235.232 219.655ZM229.032 217.055C218.532 217.455 207.932 217.855 197.432 218.255C196.532 218.255 196.532 219.655 197.432 219.655C207.932 219.255 218.532 218.855 229.032 218.455C229.932 218.455 229.932 217.055 229.032 217.055ZM215.232 211.355C208.832 211.755 202.532 212.455 196.232 213.555C195.332 213.755 195.732 215.055 196.632 214.855C202.832 213.755 209.032 213.055 215.332 212.655C216.132 212.655 216.132 211.355 215.232 211.355ZM214.932 207.255C208.132 207.655 201.432 207.955 194.632 208.055C193.732 208.055 193.732 209.455 194.632 209.455C201.432 209.355 208.132 209.055 214.932 208.655C215.832 208.555 215.832 207.155 214.932 207.255ZM209.732 202.455C204.632 203.055 199.432 203.455 194.232 203.655C193.332 203.655 193.332 205.055 194.232 205.055C199.432 204.855 204.532 204.455 209.732 203.855C210.632 203.755 210.632 202.455 209.732 202.455ZM200.132 198.855L192.232 199.555C191.332 199.655 191.332 201.055 192.232 200.955L200.132 200.255C201.032 200.155 201.032 198.755 200.132 198.855ZM196.332 195.055C194.832 194.955 193.432 194.955 192.032 195.255C191.132 195.355 191.532 196.755 192.432 196.555C193.732 196.355 195.032 196.355 196.432 196.455C197.232 196.455 197.232 195.055 196.332 195.055ZM251.132 131.655C251.132 138.455 250.732 145.155 249.932 151.955C249.832 152.855 251.232 152.855 251.332 151.955C252.032 145.255 252.432 138.455 252.532 131.655C252.532 130.755 251.132 130.755 251.132 131.655ZM246.832 139.555C246.532 143.955 246.132 148.255 245.832 152.655C245.732 153.555 247.132 153.555 247.232 152.655C247.532 148.255 247.932 143.955 248.232 139.555C248.332 138.755 246.932 138.755 246.832 139.555ZM242.832 144.955C242.432 147.255 242.032 149.555 241.732 151.855C241.632 152.755 242.932 153.055 243.032 152.255C243.432 149.955 243.832 147.655 244.132 145.355C244.332 144.455 242.932 144.055 242.832 144.955ZM239.432 147.455C238.632 148.555 238.232 149.855 238.332 151.255C238.332 152.155 239.732 152.155 239.732 151.255C239.632 150.155 239.932 149.055 240.632 148.155C241.132 147.455 239.932 146.755 239.432 147.455ZM200.332 110.155C186.932 99.6551 181.632 82.3551 186.832 66.1551C187.132 65.3551 185.732 64.9551 185.532 65.7551C180.132 82.3551 185.632 100.355 199.332 111.055C200.032 111.655 201.032 110.755 200.332 110.155Z" fill="#E8E8E8"/>
<path d="M197.432 112.455C186.232 103.955 179.832 90.3551 180.332 76.2551C180.332 75.3551 179.032 75.3551 178.932 76.2551C178.332 90.8551 185.132 104.855 196.732 113.555C197.432 114.155 198.132 112.955 197.432 112.455Z" fill="#E8E8E8"/>
<path d="M193.932 118.455C186.132 112.955 181.832 103.355 179.132 94.4551C176.332 85.3551 175.732 75.7551 176.932 66.3551C177.032 65.4551 175.632 65.4551 175.532 66.3551C174.232 76.7551 175.232 87.1551 178.432 97.0551C181.232 105.555 185.632 114.355 193.132 119.555C193.932 120.155 194.632 118.955 193.932 118.455ZM220.632 23.0551C205.232 29.6551 192.832 41.9551 186.132 57.3551C185.832 58.1551 186.931 58.8551 187.331 58.0551C193.931 42.8551 206.131 30.7551 221.331 24.2551C222.131 23.9551 221.432 22.7551 220.632 23.0551ZM229.732 245.155V253.455C229.732 254.355 231.132 254.355 231.132 253.455V245.155C231.132 244.255 229.732 244.255 229.732 245.155ZM225.632 246.455V251.955C225.632 252.855 227.032 252.855 227.032 251.955V246.455C226.932 245.655 225.632 245.655 225.632 246.455ZM233.831 242.855V252.955C233.831 253.855 235.232 253.855 235.232 252.955V242.855C235.232 241.955 233.831 241.955 233.831 242.855ZM239.331 240.555V256.155C239.331 257.055 240.732 257.055 240.732 256.155V240.555C240.732 239.655 239.331 239.655 239.331 240.555ZM243.932 240.055V252.955C243.932 253.855 245.331 253.855 245.331 252.955V240.155C245.331 239.155 243.932 239.155 243.932 240.055ZM248.032 242.855V261.655C248.032 262.555 249.432 262.555 249.432 261.655V242.855C249.432 241.955 248.032 241.955 248.032 242.855ZM253.132 242.155C252.832 242.255 252.632 242.455 252.632 242.755V266.155C252.632 266.555 252.832 266.755 253.132 266.755V242.155ZM249.432 468.055V514.855C249.432 515.755 250.831 515.755 250.831 514.855V468.055C250.831 467.255 249.432 467.255 249.432 468.055ZM245.432 488.255C244.232 497.855 243.632 507.455 243.632 517.155C243.632 518.055 245.032 518.055 245.032 517.155C245.132 507.455 245.731 497.855 246.831 488.255C246.931 487.455 245.532 487.455 245.432 488.255ZM237.532 495.655V519.955C237.532 520.855 238.932 520.855 238.932 519.955V495.655C238.932 494.755 237.532 494.755 237.532 495.655ZM232.432 502.455V521.755C232.432 522.655 233.831 522.655 233.831 521.755V502.455C233.831 501.655 232.432 501.655 232.432 502.455ZM230.532 511.255C230.632 510.355 229.232 510.355 229.132 511.255C228.732 515.655 228.631 520.155 228.831 524.555C228.831 525.455 230.232 525.455 230.232 524.555C230.032 520.055 230.032 515.655 230.532 511.255ZM224.831 512.055C223.431 513.855 223.732 516.055 223.732 518.255V530.955C223.732 531.855 225.132 531.855 225.132 530.955V522.055C225.132 519.655 224.231 515.055 225.831 513.055C226.331 512.355 225.331 511.355 224.831 512.055ZM223.732 499.355C223.432 498.855 223.131 498.255 222.831 497.755C222.731 497.455 222.532 497.255 222.432 496.955C222.432 496.855 222.232 496.655 222.132 496.555C222.232 496.455 222.231 496.355 222.331 496.255C222.731 495.255 220.932 494.655 220.632 495.655C220.432 496.355 220.832 496.955 221.232 497.655C221.632 498.455 222.132 499.255 222.532 500.055C222.932 500.855 224.132 500.155 223.732 499.355ZM225.132 494.755C224.232 492.755 223.331 490.755 222.331 488.755C221.931 487.955 220.732 488.655 221.132 489.455C222.032 491.455 222.932 493.455 223.932 495.455C224.332 496.255 225.532 495.555 225.132 494.755ZM225.532 486.055C224.732 484.855 224.032 483.655 223.232 482.355C222.732 481.555 221.532 482.255 222.032 483.055C222.832 484.255 223.531 485.455 224.331 486.755C224.731 487.555 225.932 486.855 225.532 486.055ZM225.532 479.655C224.832 478.455 224.232 477.255 223.532 476.055C223.132 475.255 221.931 475.955 222.331 476.755C223.031 477.955 223.631 479.155 224.331 480.355C224.831 481.155 225.932 480.455 225.532 479.655ZM225.932 473.855C225.632 472.555 225.032 471.355 224.232 470.355C223.732 469.655 222.532 470.355 223.032 471.055C223.732 472.055 224.232 473.055 224.532 474.255C224.832 475.155 226.232 474.755 225.932 473.855ZM227.432 468.155C226.532 466.655 225.631 465.055 224.831 463.555C224.431 462.755 223.232 463.455 223.632 464.255C224.532 465.755 225.432 467.355 226.232 468.855C226.632 469.655 227.832 468.955 227.432 468.155ZM227.732 462.255C227.232 461.455 226.632 460.655 226.132 459.855C225.632 459.155 225.232 458.155 224.532 457.555C223.432 456.755 222.332 458.155 223.432 458.955C223.632 459.055 223.832 459.055 224.032 458.955C224.132 459.155 224.332 459.455 224.432 459.555C224.732 459.955 224.932 460.355 225.232 460.755C225.732 461.455 226.132 462.155 226.632 462.855C226.932 463.755 228.132 463.055 227.732 462.255ZM253.132 388.355C253.132 388.255 253.032 388.155 253.032 388.155C251.832 386.755 251.132 385.055 251.032 383.255C250.932 382.355 249.532 382.355 249.632 383.255C249.832 385.455 250.632 387.455 252.032 389.155C252.432 389.655 252.932 389.355 253.132 388.855V388.355ZM253.132 377.355L252.532 375.855C252.132 375.055 251.031 375.755 251.331 376.555C251.931 377.955 252.532 379.355 253.132 380.655V377.355ZM253.132 370.055C252.832 369.555 252.631 368.955 252.331 368.455C251.931 367.655 250.732 368.355 251.132 369.155C251.632 370.055 252.032 370.955 252.532 371.855C252.632 372.155 252.932 372.255 253.132 372.155V370.055ZM253.132 364.055C252.932 363.655 252.732 363.255 252.432 362.855C252.032 362.055 250.832 362.755 251.232 363.555C251.832 364.655 252.432 365.755 253.132 366.955V364.055ZM253.132 358.855C252.832 358.355 252.532 357.955 252.232 357.455C251.732 356.755 250.532 357.355 251.032 358.155C251.732 359.255 252.432 360.255 253.132 361.355V358.855ZM253.132 352.555C252.832 352.155 252.631 351.655 252.331 351.255C251.831 350.555 250.632 351.155 251.132 351.955C251.832 352.955 252.432 354.055 253.132 355.055V352.555ZM253.132 344.955C253.032 344.755 252.931 344.655 252.831 344.455C252.431 343.655 251.232 344.355 251.632 345.155L253.132 347.855V344.955ZM253.132 336.455C252.832 336.055 252.631 335.655 252.331 335.355C251.831 334.655 250.632 335.355 251.132 336.055C251.732 337.055 252.432 338.055 253.032 338.955V336.455H253.132ZM253.132 327.155C252.832 326.855 252.432 326.455 252.032 326.155C251.332 325.655 250.631 326.855 251.331 327.355C252.131 327.955 252.632 328.655 253.132 329.455V327.155ZM231.932 317.055C231.032 316.055 230.231 314.955 229.331 313.955C228.631 313.155 228.032 312.255 226.932 312.455C225.432 312.755 226.931 315.255 227.831 314.255L227.932 314.355C228.332 314.755 228.632 315.255 229.032 315.655C229.632 316.455 230.332 317.155 230.932 317.955C231.532 318.755 232.432 317.755 231.932 317.055ZM231.032 308.955C229.632 307.355 228.231 305.855 226.831 304.255C226.231 303.555 225.231 304.555 225.831 305.255C227.231 306.855 228.632 308.355 230.032 309.955C230.732 310.555 231.632 309.555 231.032 308.955ZM232.331 303.555C230.531 301.455 228.731 299.355 226.831 297.355C226.231 296.655 225.231 297.655 225.831 298.355C227.631 300.455 229.431 302.555 231.331 304.555C231.931 305.255 232.831 304.255 232.331 303.555ZM229.532 293.255L226.732 290.455C226.132 289.855 225.132 290.755 225.732 291.455L228.532 294.255C229.132 294.855 230.132 293.855 229.532 293.255ZM253.132 735.855C246.332 722.655 235.032 712.455 223.232 703.655C206.532 691.355 188.632 680.455 170.532 670.555C152.332 660.555 133.032 652.755 115.032 642.455C97.7316 632.455 83.9315 618.355 72.2315 602.255C63.3315 589.955 55.8315 576.755 48.3315 563.555C47.9315 562.755 46.7315 563.455 47.1315 564.255C56.3315 580.455 65.7315 596.555 77.3315 611.155C89.3315 626.255 103.732 638.055 120.732 647.155C139.132 656.955 158.332 665.155 176.532 675.455C194.432 685.555 212.432 696.555 228.532 709.455C238.632 717.555 247.832 727.155 253.232 738.955V735.855H253.132Z" fill="#E8E8E8"/>
<path d="M253.132 723.655C245.732 711.655 233.532 702.355 222.732 694.055C206.732 681.755 189.232 671.355 170.832 662.955C154.032 655.255 136.532 649.255 120.032 640.855C102.332 631.755 87.8316 619.555 76.9316 602.855C72.3316 595.755 68.3315 588.355 64.3315 580.855C63.9315 580.055 62.7316 580.755 63.1316 581.555C72.3316 598.655 81.9315 615.455 97.2315 627.855C110.932 639.055 127.432 646.255 143.732 652.955C161.932 660.555 180.032 667.955 196.932 678.155C214.132 688.355 231.032 700.555 244.832 715.155C248.032 718.555 250.932 722.255 253.232 726.355V723.655H253.132ZM64.9316 538.055C43.0316 516.555 35.6315 486.055 30.2315 456.855C30.0315 455.955 28.7316 456.355 28.9316 457.255C34.3316 486.655 41.9316 517.455 63.9316 539.055C64.6316 539.655 65.5316 538.755 64.9316 538.055Z" fill="#E8E8E8"/>
<path d="M72.1316 537.755C52.5316 517.655 39.5316 491.855 34.9316 464.255C34.8316 463.355 33.4316 463.755 33.6316 464.655C38.3316 492.555 51.5316 518.555 71.2316 538.755C71.7316 539.355 72.7316 538.355 72.1316 537.755Z" fill="#E8E8E8"/>
<path d="M83.9316 536.655C64.0316 525.555 53.3316 504.855 43.5316 485.255C43.1316 484.455 41.9315 485.155 42.3315 485.955C52.2315 505.755 63.2315 526.655 83.2315 537.855C84.0315 538.355 84.7316 537.155 83.9316 536.655ZM32.6315 563.755C31.8315 560.355 29.6316 556.855 28.4316 553.555C27.0316 549.755 25.7315 545.955 24.6315 542.055C22.1315 533.655 20.5316 524.955 19.5316 516.255C17.6316 499.555 18.6315 482.455 22.3315 466.055C22.5315 465.155 21.2316 464.855 21.0316 465.655C17.3316 482.255 16.4315 499.355 18.2315 516.255C19.1315 524.355 20.6315 532.355 22.7315 540.155C23.8315 544.455 25.2315 548.655 26.7315 552.855C28.0315 556.555 30.5316 560.455 31.4316 564.255C31.5316 564.955 32.8315 564.655 32.6315 563.755Z" fill="#E8E8E8"/>
<path d="M28.2316 570.855C13.6316 542.855 9.23161 510.255 15.7316 479.355C15.9316 478.455 14.6317 478.155 14.4317 478.955C7.73168 510.155 12.2317 543.155 27.0317 571.455C27.4317 572.255 28.6316 571.555 28.2316 570.855Z" fill="#E8E8E8"/>
<path d="M19.9316 573.255C10.5316 552.555 6.93161 529.755 9.43161 507.155C9.53161 506.255 8.13158 506.255 8.03158 507.155C5.53158 529.955 9.23153 553.055 18.7315 573.955C19.1315 574.755 20.3316 574.055 19.9316 573.255ZM251.532 565.855C251.632 612.455 251.132 659.155 250.032 705.755C250.032 706.655 251.432 706.655 251.432 705.755C252.532 659.155 253.132 612.455 252.932 565.855C252.832 564.955 251.432 564.955 251.532 565.855ZM247.132 603.455C247.232 636.955 246.932 670.455 246.332 703.955C246.332 704.855 247.732 704.855 247.732 703.955C248.332 670.455 248.632 636.955 248.532 603.455C248.532 602.555 247.132 602.555 247.132 603.455ZM241.332 646.055L241.032 697.855C241.032 698.755 242.432 698.755 242.432 697.855L242.732 646.055C242.632 645.255 241.332 645.255 241.332 646.055ZM237.632 673.155C237.632 672.255 236.232 672.255 236.232 673.155L236.732 691.955C236.732 692.855 238.132 692.855 238.132 691.955L237.632 673.155ZM222.332 562.955C222.132 562.055 220.832 562.455 221.032 563.355C224.532 581.855 216.132 601.455 200.332 611.655C199.632 612.155 200.232 613.355 201.032 612.855C217.332 602.255 225.932 582.155 222.332 562.955Z" fill="#E8E8E8"/>
<path d="M227.232 560.755C227.132 559.855 225.732 559.855 225.832 560.755C227.532 573.655 225.132 586.655 218.732 597.955C218.332 598.755 219.532 599.455 219.932 598.655C226.432 587.155 229.032 573.955 227.232 560.755ZM187.032 619.355C173.232 625.655 157.932 623.955 143.832 619.855C131.332 616.255 119.432 610.455 108.432 603.755C86.5317 590.355 68.1316 571.455 55.0316 549.355C54.5316 548.555 53.4316 549.255 53.8316 550.055C67.4316 573.055 86.6316 592.255 109.532 606.055C121.132 613.055 133.832 618.655 146.932 622.155C160.332 625.755 174.932 626.455 187.732 620.555C188.532 620.155 187.832 618.955 187.032 619.355Z" fill="#E8E8E8"/>
</svg>
