<svg width="405" height="407" viewBox="0 0 405 407" fill="none" xmlns="http://www.w3.org/2000/svg">
<path d="M229.967 189.068C224.767 177.468 211.967 171.968 200.167 176.868C200.067 176.868 199.867 176.868 199.667 176.968C187.667 183.468 182.667 197.268 187.667 209.968C192.267 221.868 207.467 225.768 218.467 220.668C229.667 215.468 234.967 200.068 229.967 189.068ZM217.567 219.068C212.567 221.868 206.367 221.068 201.067 219.768C194.367 218.168 190.467 212.868 188.467 206.568C184.967 195.668 190.567 184.268 200.167 178.768H200.267C211.867 173.468 224.367 179.468 228.767 190.968C232.867 201.568 227.167 213.768 217.567 219.068Z" fill="#F5E9DB"/>
<path d="M208.667 194.468C208.567 194.468 208.467 194.368 208.367 194.468H208.167C206.067 194.568 204.267 196.068 203.867 198.168C203.367 200.368 205.067 202.368 206.967 203.168C209.367 204.068 211.067 202.168 211.567 200.068C212.067 197.568 210.867 195.168 208.667 194.468ZM206.867 201.068C204.467 199.768 205.567 196.368 208.067 196.168C210.967 197.168 209.867 202.668 206.867 201.068Z" fill="#F5E9DB"/>
<path d="M233.067 179.468C228.367 173.068 220.967 169.568 213.067 169.268C207.867 169.068 202.667 169.168 197.867 170.968C193.467 172.568 188.467 175.568 185.567 179.368C184.367 180.968 183.367 182.768 182.467 184.568C180.767 188.168 179.767 192.168 179.367 196.168C178.667 204.268 180.967 212.668 186.067 219.068C190.767 224.968 198.767 229.668 206.267 230.068C214.267 230.368 222.667 226.568 228.767 221.868C241.667 211.868 242.267 192.068 233.067 179.468ZM228.567 219.668C223.667 224.168 217.167 226.668 210.667 227.868C201.767 229.568 194.567 224.668 188.367 218.868C182.367 213.168 180.267 204.468 180.967 196.468C181.367 192.368 182.467 188.268 184.367 184.568C185.267 182.768 186.467 181.068 187.767 179.568C192.767 173.868 203.167 171.168 210.367 170.968C218.167 170.768 225.567 173.668 230.767 179.468C240.867 190.768 239.367 209.768 228.567 219.668Z" fill="#F5E9DB"/>
<path d="M198.667 171.268C179.667 156.568 160.167 142.468 140.167 129.068C139.567 128.668 138.967 129.168 138.867 129.768C138.667 129.968 138.667 130.268 138.867 130.668C152.567 150.168 166.567 169.568 180.667 188.868C181.367 189.768 182.967 188.868 182.267 187.968C169.667 170.768 157.267 153.368 144.967 135.968C152.567 143.868 160.167 151.668 167.767 159.568C167.767 159.668 167.867 159.768 167.867 159.768C167.967 159.968 168.067 160.068 168.267 160.068C174.367 166.368 180.567 172.768 186.667 179.068C187.067 179.468 187.567 178.968 187.467 178.568C187.767 178.868 188.367 178.368 188.167 177.968C185.367 171.768 182.567 165.468 179.767 159.268C180.867 160.068 182.067 160.968 183.167 161.768C185.267 166.568 187.167 171.568 189.767 176.168C190.067 176.668 190.867 176.268 190.567 175.668C188.267 171.568 186.467 167.168 184.667 162.868C185.667 163.668 186.767 164.368 187.767 165.168C188.367 166.868 188.967 168.468 189.567 170.168C190.067 171.568 190.567 173.668 191.567 174.768C191.667 174.968 191.967 174.968 192.167 174.868H192.267C192.367 174.768 192.467 174.668 192.467 174.468V174.368C192.467 173.968 191.967 173.868 191.667 174.068C191.767 173.868 191.767 173.768 191.867 173.568C191.667 173.068 191.467 172.668 191.267 172.168C190.867 171.268 190.567 170.268 190.167 169.268C189.767 168.268 189.367 167.268 189.067 166.168C190.067 166.868 191.067 167.668 192.067 168.468C192.767 170.468 193.567 172.368 194.467 174.168C194.767 174.668 195.467 174.268 195.267 173.668C194.567 172.268 193.967 170.868 193.467 169.468C194.867 170.468 196.167 171.568 197.567 172.568C198.267 173.268 199.567 171.968 198.667 171.268ZM144.367 134.168C145.167 134.768 146.067 135.268 146.867 135.868C147.367 136.668 147.767 137.368 148.267 138.168C146.967 136.868 145.667 135.468 144.367 134.168ZM150.767 140.668C150.067 139.468 149.467 138.268 148.767 137.068C149.267 137.368 149.667 137.668 150.067 137.968C151.467 139.768 152.667 141.768 153.767 143.768L150.767 140.668ZM156.267 146.368C156.267 146.268 156.267 146.268 156.167 146.168C154.867 143.968 153.667 141.668 152.167 139.568C152.967 140.068 153.767 140.668 154.567 141.268C154.867 142.068 155.467 143.068 155.667 143.568C156.267 145.068 156.967 146.468 157.667 147.868L156.267 146.368ZM159.667 149.968C158.867 148.368 158.067 146.768 157.367 145.168C156.967 144.268 156.567 143.368 156.267 142.468C156.267 142.468 156.267 142.368 156.167 142.268C156.767 142.668 157.267 143.068 157.867 143.468C159.167 146.368 160.467 149.268 161.867 152.168L159.667 149.968ZM163.567 153.968V153.568C162.067 150.568 160.767 147.568 159.367 144.568C159.967 144.968 160.567 145.468 161.167 145.868C163.267 149.568 165.067 153.368 166.767 157.268L163.567 153.968ZM168.467 159.068C166.767 154.968 164.867 150.968 162.767 147.068C163.667 147.668 164.467 148.268 165.367 148.968C166.967 153.368 168.867 157.568 171.067 161.768L168.467 159.068ZM173.067 163.768V163.568C170.667 159.168 168.667 154.568 166.767 149.968C167.367 150.368 167.967 150.868 168.567 151.268C171.167 156.468 173.667 161.668 176.067 166.968L173.067 163.768ZM177.967 168.768V168.568C175.467 163.068 172.867 157.668 170.167 152.268C171.167 152.968 172.167 153.768 173.267 154.468L180.667 171.468L177.967 168.768ZM187.267 178.468L182.267 173.268V173.068C179.767 167.268 177.167 161.368 174.667 155.568L178.267 158.268C181.267 164.968 184.267 171.668 187.267 178.468ZM219.367 226.968C238.367 241.668 257.867 255.768 277.867 269.168C278.467 269.568 279.067 269.068 279.167 268.468C279.367 268.268 279.367 267.968 279.167 267.568C265.467 248.068 251.467 228.668 237.367 209.368C236.667 208.468 235.067 209.368 235.767 210.268C248.367 227.468 260.767 244.868 273.067 262.268C265.467 254.368 257.867 246.568 250.267 238.668C250.267 238.568 250.167 238.468 250.167 238.468C250.067 238.268 249.967 238.168 249.767 238.168C243.667 231.868 237.467 225.468 231.367 219.168C230.967 218.768 230.467 219.268 230.567 219.668C230.267 219.368 229.667 219.868 229.867 220.268C232.667 226.468 235.467 232.768 238.267 238.968C237.167 238.168 235.967 237.268 234.867 236.468C232.767 231.668 230.867 226.668 228.267 222.068C227.967 221.568 227.167 221.968 227.467 222.568C229.767 226.668 231.567 231.068 233.367 235.368C232.367 234.568 231.267 233.868 230.267 233.068C229.667 231.368 229.067 229.768 228.467 228.068C227.967 226.668 227.467 224.568 226.467 223.468C226.367 223.268 226.067 223.268 225.867 223.368H225.767C225.667 223.468 225.567 223.568 225.567 223.768V223.868C225.567 224.268 226.067 224.368 226.367 224.168C226.267 224.368 226.267 224.468 226.167 224.668C226.367 225.168 226.567 225.568 226.767 226.068C227.167 226.968 227.467 227.968 227.867 228.968C228.267 229.968 228.667 230.968 228.967 232.068C227.967 231.368 226.967 230.568 225.967 229.768C225.267 227.768 224.467 225.868 223.567 224.068C223.267 223.568 222.567 223.968 222.767 224.568C223.467 225.968 224.067 227.368 224.567 228.768C223.167 227.768 221.867 226.668 220.467 225.668C219.767 224.968 218.467 226.268 219.367 226.968ZM273.567 264.068C272.767 263.468 271.867 262.968 271.067 262.368C270.567 261.568 270.167 260.868 269.667 260.068C271.067 261.468 272.367 262.768 273.567 264.068ZM267.267 257.568C267.967 258.768 268.567 259.968 269.267 261.168C268.767 260.868 268.367 260.568 267.967 260.268C266.567 258.468 265.367 256.468 264.267 254.468L267.267 257.568ZM261.767 251.868C261.767 251.968 261.767 251.968 261.867 252.068C263.167 254.268 264.367 256.568 265.867 258.668C265.067 258.168 264.267 257.568 263.467 256.968C263.167 256.168 262.567 255.168 262.367 254.668C261.767 253.168 261.067 251.768 260.367 250.368L261.767 251.868ZM258.267 248.268C258.367 248.368 258.367 248.368 258.267 248.268C259.067 249.868 259.867 251.468 260.567 253.068C260.967 253.968 261.367 254.868 261.667 255.768C261.667 255.768 261.667 255.868 261.767 255.968C261.167 255.568 260.667 255.168 260.067 254.768C258.767 251.868 257.467 248.968 256.067 246.068L258.267 248.268ZM254.467 244.368V244.768C255.967 247.768 257.267 250.768 258.667 253.768C258.067 253.368 257.467 252.868 256.867 252.468C254.767 248.768 252.967 244.968 251.267 241.068L254.467 244.368ZM249.567 239.268C251.267 243.368 253.167 247.368 255.267 251.268C254.367 250.668 253.567 250.068 252.667 249.368C251.067 244.968 249.167 240.768 246.967 236.568L249.567 239.268ZM244.967 234.468V234.668C247.367 239.068 249.367 243.668 251.267 248.268C250.667 247.868 250.067 247.368 249.467 246.968C246.867 241.768 244.367 236.568 241.967 231.268L244.967 234.468ZM240.067 229.468V229.668C242.567 235.168 245.167 240.568 247.867 245.968C246.867 245.268 245.867 244.468 244.767 243.768L237.367 226.768L240.067 229.468ZM230.667 219.868L235.667 225.068V225.268C238.167 231.068 240.767 236.968 243.267 242.768L239.667 240.068C236.767 233.268 233.767 226.568 230.667 219.868ZM278.367 128.968C278.167 128.768 277.867 128.768 277.467 128.968C269.267 134.668 261.167 140.468 253.067 146.268C253.067 146.168 253.067 146.068 252.967 145.968C246.267 140.468 238.667 136.468 230.367 134.068C229.767 133.868 229.567 134.768 230.167 134.968C238.267 137.368 245.867 141.268 252.367 146.668C252.467 146.668 252.467 146.768 252.567 146.768C241.467 154.668 230.367 162.668 219.367 170.768C219.167 170.868 219.067 171.068 219.067 171.168C219.767 171.268 220.467 171.468 221.167 171.668C238.067 159.268 255.167 147.068 272.267 134.968C264.367 142.568 256.567 150.168 248.667 157.768C248.567 157.768 248.467 157.868 248.467 157.868C248.267 157.968 248.167 158.068 248.167 158.268C241.867 164.368 235.467 170.568 229.167 176.668C229.167 176.668 229.167 176.768 229.067 176.768C229.467 177.168 229.867 177.668 230.267 178.068C236.467 175.268 242.667 172.468 248.967 169.768C248.167 170.868 247.267 172.068 246.467 173.168C241.667 175.268 236.667 177.168 232.067 179.768C231.967 179.868 231.867 179.968 231.867 180.068C232.067 180.268 232.167 180.468 232.367 180.668C232.467 180.668 232.467 180.668 232.567 180.568C236.667 178.268 241.067 176.468 245.367 174.668C244.567 175.668 243.867 176.768 243.067 177.768C241.367 178.368 239.767 178.968 238.067 179.568C236.667 180.068 234.567 180.568 233.467 181.568C233.267 181.668 233.267 181.968 233.367 182.168V182.268C233.467 182.368 233.567 182.468 233.767 182.468H233.867C234.267 182.468 234.367 181.968 234.167 181.668C234.367 181.768 234.467 181.768 234.667 181.868C235.167 181.668 235.567 181.468 236.067 181.268C236.967 180.868 237.967 180.568 238.967 180.168C239.967 179.768 240.967 179.368 242.067 179.068C241.367 180.068 240.567 181.068 239.767 182.068C237.967 182.668 236.267 183.368 234.567 184.168C234.767 184.468 234.867 184.668 235.067 184.968C236.267 184.368 237.467 183.868 238.767 183.368C237.867 184.568 236.967 185.668 236.067 186.868L236.967 188.668C251.667 169.668 265.767 150.168 279.067 130.268C279.467 129.668 278.967 129.068 278.367 128.968ZM249.967 168.368C243.267 171.368 236.467 174.368 229.767 177.368L234.967 172.368H235.167C240.967 169.868 246.867 167.268 252.667 164.768C251.667 165.968 250.767 167.168 249.967 168.368ZM253.667 163.368L236.667 170.768L239.367 168.168H239.567C245.067 165.668 250.467 163.068 255.867 160.368C255.067 161.268 254.367 162.268 253.667 163.368ZM256.967 158.668C251.767 161.268 246.567 163.768 241.267 166.168L244.367 163.168H244.567C248.967 160.768 253.567 158.768 258.167 156.868C257.867 157.468 257.367 158.068 256.967 158.668ZM259.267 155.568C254.867 157.168 250.667 159.068 246.467 161.268L249.167 158.668C253.267 156.968 257.267 155.068 261.167 152.968C260.467 153.768 259.867 154.668 259.267 155.568ZM262.267 151.268C258.567 153.368 254.767 155.168 250.867 156.868L254.167 153.668H254.567C257.567 152.168 260.567 150.868 263.567 149.468C263.167 150.068 262.767 150.668 262.267 151.268ZM264.567 147.968C261.667 149.268 258.767 150.568 255.867 151.968L258.067 149.768H258.167C259.767 148.968 261.267 148.168 262.867 147.468C263.767 147.068 264.667 146.668 265.567 146.368C265.567 146.368 265.667 146.368 265.767 146.268C265.467 146.868 264.967 147.368 264.567 147.968ZM266.867 144.768C266.067 145.068 265.067 145.668 264.567 145.868C263.067 146.468 261.667 147.168 260.267 147.868L261.767 146.468C261.867 146.468 261.867 146.468 261.967 146.368C264.167 145.068 266.467 143.868 268.567 142.368C268.067 143.168 267.467 143.968 266.867 144.768ZM270.067 140.168C268.267 141.568 266.267 142.768 264.267 143.868L267.367 140.868C268.567 140.268 269.767 139.568 270.967 138.868C270.667 139.268 270.367 139.768 270.067 140.168ZM272.267 137.068C271.467 137.568 270.767 137.968 269.967 138.468C271.267 137.168 272.667 135.868 273.967 134.568C273.367 135.368 272.867 136.168 272.267 137.068ZM181.167 209.468C166.467 228.468 152.367 247.968 138.967 267.968C138.567 268.568 139.067 269.168 139.667 269.268C139.867 269.468 140.167 269.468 140.567 269.268C160.067 255.568 179.467 241.568 198.767 227.468C199.667 226.768 198.767 225.168 197.867 225.868C180.667 238.468 163.267 250.868 145.867 263.168C153.767 255.568 161.567 247.968 169.467 240.368C169.567 240.368 169.667 240.268 169.667 240.268C169.867 240.168 169.967 240.068 169.967 239.868C176.267 233.768 182.667 227.568 188.967 221.468C189.367 221.068 188.867 220.568 188.467 220.668C188.767 220.368 188.267 219.768 187.867 219.968C181.667 222.768 175.367 225.568 169.167 228.368C169.967 227.268 170.867 226.068 171.667 224.968C176.467 222.868 181.467 220.968 186.067 218.368C186.567 218.068 186.167 217.268 185.567 217.568C181.467 219.868 177.067 221.668 172.767 223.468C173.567 222.468 174.267 221.368 175.067 220.368C176.767 219.768 178.367 219.168 180.067 218.568C181.467 218.068 183.567 217.568 184.667 216.568C184.867 216.468 184.867 216.168 184.767 215.968V215.868C184.667 215.768 184.567 215.668 184.367 215.668H184.267C183.867 215.668 183.767 216.168 183.967 216.468C183.767 216.368 183.667 216.368 183.467 216.268C182.967 216.468 182.567 216.668 182.067 216.868C181.167 217.268 180.167 217.568 179.167 217.968C178.167 218.368 177.167 218.768 176.067 219.068C176.767 218.068 177.567 217.068 178.367 216.068C180.367 215.368 182.267 214.568 184.067 213.668C184.567 213.368 184.167 212.668 183.567 212.868C182.167 213.568 180.767 214.168 179.367 214.668C180.367 213.268 181.467 211.968 182.467 210.568C183.167 209.868 181.867 208.568 181.167 209.468ZM144.067 263.768C144.667 262.968 145.167 262.068 145.767 261.268C146.567 260.768 147.267 260.368 148.067 259.868C146.767 261.168 145.367 262.468 144.067 263.768ZM150.567 257.368C149.367 258.068 148.167 258.668 146.967 259.368C147.267 258.868 147.567 258.468 147.867 258.068C149.667 256.668 151.667 255.468 153.667 254.368L150.567 257.368ZM156.267 251.868C156.167 251.868 156.167 251.868 156.067 251.968C153.867 253.268 151.567 254.468 149.467 255.968C149.967 255.168 150.567 254.368 151.167 253.568C151.967 253.268 152.967 252.668 153.467 252.468C154.967 251.868 156.367 251.168 157.767 250.468L156.267 251.868ZM159.867 248.468C158.267 249.268 156.667 250.068 155.067 250.768C154.167 251.168 153.267 251.568 152.367 251.868C152.367 251.868 152.267 251.868 152.167 251.968C152.567 251.368 152.967 250.868 153.367 250.268C156.267 248.968 159.167 247.668 162.067 246.268L159.867 248.468ZM163.767 244.568H163.367C160.367 246.068 157.367 247.368 154.367 248.768C154.767 248.168 155.267 247.568 155.667 246.968C159.367 244.868 163.167 243.068 167.067 241.368L163.767 244.568ZM168.867 239.668C164.767 241.368 160.767 243.268 156.867 245.368C157.467 244.468 158.067 243.668 158.767 242.768C163.167 241.168 167.367 239.268 171.567 237.068L168.867 239.668ZM173.667 235.068H173.467C169.067 237.468 164.467 239.468 159.867 241.368C160.267 240.768 160.767 240.168 161.167 239.568C166.367 236.968 171.567 234.468 176.867 232.068L173.667 235.068ZM178.667 230.168H178.467C172.967 232.668 167.567 235.268 162.167 237.968C162.867 236.968 163.667 235.968 164.367 234.868L181.367 227.468L178.667 230.168ZM188.367 220.868L183.167 225.868H182.967C177.167 228.368 171.267 230.968 165.467 233.468L168.167 229.868C174.867 226.868 181.567 223.868 188.367 220.868Z" fill="#F5E9DB"/>
<path d="M213.167 47.7677C213.167 47.6677 213.167 47.5677 213.067 47.3677C212.867 46.0677 212.567 44.8677 212.367 43.5677V43.4677C211.267 37.7677 210.267 32.0677 209.167 26.3677C209.067 25.9677 208.867 25.7677 208.567 25.7677C208.067 25.3677 207.267 25.3677 207.167 26.1677C200.367 71.4677 192.267 116.668 183.067 161.568C182.867 162.668 184.567 163.168 184.867 162.068C193.767 118.968 201.567 75.5677 208.167 31.9677C208.167 35.5677 208.167 39.1677 208.267 42.7677C208.067 42.9677 207.967 43.1677 208.167 43.4677L208.267 43.5677C208.267 52.4677 208.367 61.3677 208.367 70.3677C208.067 70.4677 207.867 70.9677 208.267 71.1677L208.367 71.2677V80.1677C208.267 80.2677 208.267 80.4677 208.367 80.5677V85.2677C208.167 85.4677 208.167 85.7677 208.367 85.9677V89.3677C208.067 89.5677 207.967 89.9677 208.367 90.1677C208.467 116.868 208.667 143.568 208.767 170.268C208.767 170.868 209.667 170.868 209.667 170.268C209.567 143.768 209.367 117.168 209.267 90.6677C212.967 92.8677 216.767 95.0677 220.367 97.3677C224.267 118.868 228.067 140.468 231.767 162.068C231.967 163.268 233.767 162.768 233.567 161.568C227.067 123.568 220.167 85.6677 213.167 47.7677ZM219.567 92.9677C216.167 90.4677 212.667 87.9677 209.267 85.5677V81.4677C212.367 84.2677 215.567 86.8677 218.967 89.2677C219.067 90.4677 219.367 91.6677 219.567 92.9677ZM218.667 87.9677C215.367 85.5677 212.167 82.9677 209.267 80.2677V75.9677C212.167 77.9677 214.967 80.1677 217.667 82.3677C217.967 84.1677 218.267 86.0677 218.667 87.9677ZM216.867 77.8677C217.067 78.8677 217.267 79.8677 217.367 80.8677C214.767 78.6677 211.967 76.6677 209.167 74.7677V71.7677C211.867 73.5677 214.267 75.8677 216.867 77.8677C216.767 77.8677 216.767 77.8677 216.867 77.8677ZM216.067 73.8677C216.267 74.7677 216.367 75.6677 216.567 76.4677C214.167 74.4677 211.767 72.2677 209.167 70.6677V67.5677C211.467 69.5677 213.767 71.5677 215.967 73.7677C215.967 73.8677 216.067 73.8677 216.067 73.8677ZM215.867 72.4677C213.667 70.3677 211.467 68.3677 209.167 66.4677V62.6677C211.167 64.4677 213.067 66.2677 215.067 68.0677C215.267 69.4677 215.567 70.9677 215.867 72.4677ZM214.767 66.4677C212.867 64.7677 211.067 63.0677 209.167 61.3677V57.8677C210.667 59.6677 212.367 61.2677 214.167 62.8677C214.267 64.0677 214.467 65.2677 214.767 66.4677ZM213.067 57.5677C213.267 58.8677 213.567 60.1677 213.767 61.4677C212.167 59.9677 210.567 58.3677 209.167 56.6677C209.167 56.6677 209.067 56.6677 209.067 56.5677V52.8677C210.467 54.3677 211.867 55.9677 213.067 57.5677ZM212.767 55.7677C211.567 54.2677 210.367 52.8677 209.067 51.5677V47.8677C210.067 48.8677 210.967 49.8677 211.867 50.9677C212.167 52.4677 212.467 54.0677 212.767 55.7677ZM211.467 49.0677C210.667 48.2677 209.967 47.3677 209.167 46.5677L209.067 46.4677V44.3677C209.767 45.0677 210.467 45.7677 211.067 46.4677C211.167 47.4677 211.367 48.2677 211.467 49.0677ZM210.767 44.9677C210.167 44.3677 209.567 43.7677 209.067 43.1677V41.0677C209.467 41.5677 209.967 42.0677 210.367 42.5677C210.467 43.2677 210.567 44.1677 210.767 44.9677ZM209.967 40.7677C209.867 40.6677 209.767 40.4677 209.567 40.3677C209.367 40.1677 209.167 40.1677 208.967 40.3677V35.5677C209.267 37.2677 209.667 38.9677 209.967 40.7677ZM209.267 89.6677V86.5677C212.767 89.0677 216.267 91.6677 219.867 94.1677C219.967 94.8677 220.067 95.4677 220.267 96.1677C216.567 93.9677 212.967 91.7677 209.267 89.6677Z" fill="#F5E9DB"/>
<path d="M211.367 95.4677C211.367 94.8677 210.467 94.8677 210.467 95.4677C210.267 120.268 210.467 145.068 211.267 169.768C211.267 170.368 212.167 170.368 212.167 169.768C211.467 145.068 211.167 120.268 211.367 95.4677ZM213.067 114.368V169.868C213.067 170.468 213.967 170.468 213.967 169.868V114.368C213.967 113.768 213.067 113.768 213.067 114.368ZM215.967 122.568C215.967 121.968 215.067 121.968 215.067 122.568C216.167 138.668 216.367 154.868 215.867 170.968C215.867 171.568 216.767 171.568 216.767 170.968C217.367 154.768 217.067 138.668 215.967 122.568ZM218.967 136.168C218.967 135.568 218.067 135.568 218.067 136.168C218.267 147.868 218.567 159.668 218.767 171.368C218.767 171.968 219.667 171.968 219.667 171.368C219.467 159.668 219.267 147.868 218.967 136.168ZM221.567 143.868C221.567 143.268 220.667 143.268 220.667 143.868C221.067 152.968 221.067 162.068 220.567 171.168C220.567 171.768 221.467 171.768 221.467 171.168C221.967 162.068 221.967 152.968 221.567 143.868ZM224.367 149.068C224.367 148.468 223.467 148.468 223.467 149.068C223.667 155.468 223.867 161.968 224.067 168.368C224.067 168.968 224.967 168.968 224.967 168.368C224.767 161.968 224.567 155.568 224.367 149.068ZM226.667 153.868C226.667 153.268 225.767 153.268 225.767 153.868C225.767 158.068 225.967 162.168 226.267 166.368C226.367 166.968 227.267 166.968 227.167 166.368C226.867 162.168 226.667 158.068 226.667 153.868ZM229.567 157.768C229.567 157.168 228.567 157.168 228.667 157.768C228.867 160.168 228.967 162.568 229.167 165.068C229.167 165.668 230.167 165.668 230.067 165.068C229.967 162.568 229.767 160.168 229.567 157.768ZM203.467 352.568C203.467 352.668 203.467 352.768 203.567 352.968C203.767 354.268 204.067 355.468 204.267 356.768V356.868C205.367 362.568 206.367 368.268 207.467 373.968C207.567 374.368 207.767 374.568 208.067 374.568C208.567 374.968 209.367 374.968 209.467 374.168C216.267 328.868 225.267 281.868 234.467 236.968C234.667 235.868 232.967 235.368 232.667 236.468C223.767 279.568 215.067 324.768 208.467 368.368C208.467 364.768 208.467 361.168 208.367 357.568C208.567 357.368 208.667 357.168 208.467 356.868L208.367 356.768C208.367 347.868 208.267 338.968 208.267 329.968C208.567 329.868 208.767 329.368 208.367 329.168L208.267 329.068V320.168C208.367 320.068 208.367 319.868 208.267 319.768V315.068C208.467 314.868 208.467 314.568 208.267 314.368V310.968C208.567 310.768 208.667 310.368 208.267 310.168C208.167 283.468 207.967 256.768 207.867 230.068C207.867 229.468 206.967 229.468 206.967 230.068C207.067 256.568 207.267 283.168 207.367 309.668C203.667 307.468 199.867 305.268 196.267 302.968C192.367 281.468 188.567 259.868 184.867 238.268C184.667 237.068 182.867 237.568 183.067 238.768C189.467 276.768 196.367 314.668 203.467 352.568ZM196.967 307.368C200.367 309.868 203.867 312.368 207.267 314.768V318.868C204.167 316.068 200.967 313.468 197.567 311.068C197.467 309.868 197.167 308.668 196.967 307.368ZM197.867 312.468C201.167 314.868 204.367 317.468 207.267 320.168V324.468C204.367 322.468 201.567 320.268 198.867 318.068C198.567 316.168 198.267 314.268 197.867 312.468ZM199.767 322.468C199.567 321.468 199.367 320.468 199.267 319.468C201.867 321.668 204.667 323.668 207.467 325.568V328.568C204.667 326.868 202.267 324.568 199.767 322.468ZM200.467 326.468C200.267 325.568 200.167 324.668 199.967 323.868C202.367 325.868 204.767 328.068 207.367 329.668V332.768C205.067 330.768 202.767 328.768 200.567 326.568C200.567 326.568 200.567 326.468 200.467 326.468ZM200.667 327.868C202.867 329.968 205.067 331.968 207.367 333.868V337.668C205.367 335.868 203.467 334.068 201.467 332.268C201.267 330.868 200.967 329.368 200.667 327.868ZM201.767 333.868C203.667 335.568 205.467 337.268 207.367 338.968V342.468C205.867 340.668 204.167 339.068 202.367 337.468C202.267 336.268 202.067 335.068 201.767 333.868ZM203.467 342.768C203.267 341.468 202.967 340.168 202.767 338.868C204.367 340.368 205.967 341.968 207.367 343.668C207.367 343.668 207.467 343.668 207.467 343.768V347.468C206.067 345.968 204.667 344.368 203.467 342.768ZM203.767 344.668C204.967 346.168 206.167 347.568 207.467 348.868V352.568C206.467 351.568 205.567 350.568 204.667 349.468L203.767 344.668ZM205.067 351.268C205.867 352.068 206.567 352.968 207.367 353.768L207.467 353.868V355.968C206.767 355.268 206.067 354.568 205.467 353.868C205.367 352.968 205.167 352.068 205.067 351.268ZM205.767 355.368C206.367 355.968 206.967 356.568 207.467 357.168V359.268C207.067 358.768 206.567 358.268 206.167 357.768C206.067 357.068 205.967 356.168 205.767 355.368ZM206.567 359.668C206.667 359.768 206.767 359.968 206.967 360.068C207.167 360.268 207.367 360.268 207.567 360.068V364.868C207.267 363.068 206.867 361.368 206.567 359.668ZM207.267 310.668V313.768C203.767 311.268 200.267 308.668 196.667 306.168C196.567 305.468 196.467 304.868 196.267 304.168C199.967 306.368 203.667 308.568 207.267 310.668Z" fill="#F5E9DB"/>
<path d="M205.167 304.868C205.167 305.468 206.067 305.468 206.067 304.868C206.267 280.068 206.067 253.468 205.267 228.768C205.267 228.168 204.367 228.168 204.367 228.768C205.067 253.468 205.367 280.068 205.167 304.868ZM203.467 286.068V228.768C203.467 228.168 202.567 228.168 202.567 228.768V286.068C202.567 286.568 203.467 286.568 203.467 286.068ZM200.567 277.868C200.567 278.468 201.467 278.468 201.467 277.868C200.367 261.768 200.167 245.568 200.667 229.468C200.667 228.868 199.767 227.968 199.767 228.568C199.167 244.668 199.467 261.768 200.567 277.868ZM197.567 264.168C197.567 264.768 198.467 264.768 198.467 264.168C198.267 252.468 197.967 239.768 197.767 228.068C197.767 227.468 196.867 227.468 196.867 228.068C197.067 239.768 197.267 252.468 197.567 264.168ZM194.967 256.468C194.967 257.068 195.867 257.068 195.867 256.468C195.467 247.368 195.467 238.268 195.967 229.168C195.967 228.568 195.067 228.568 195.067 229.168C194.567 238.268 194.567 247.368 194.967 256.468ZM192.167 251.268C192.167 251.868 193.067 251.868 193.067 251.268C192.867 244.868 192.667 238.368 192.467 231.968C192.467 231.368 191.567 231.368 191.567 231.968C191.767 238.368 191.967 244.868 192.167 251.268ZM189.867 246.468C189.867 247.068 190.767 247.068 190.767 246.468C190.767 242.268 190.567 238.168 190.267 233.968C190.167 233.368 189.267 233.368 189.367 233.968C189.667 238.168 189.867 242.268 189.867 246.468ZM186.967 242.568C186.967 243.168 187.967 243.168 187.867 242.568C187.667 240.168 187.567 237.768 187.367 235.268C187.367 234.668 186.367 234.668 186.467 235.268C186.667 237.768 186.767 240.168 186.967 242.568ZM361.167 204.568C361.267 204.568 361.367 204.568 361.567 204.468C362.867 204.268 364.067 203.968 365.367 203.768H365.467C371.167 202.668 376.867 201.668 382.567 200.568C382.967 200.468 383.167 200.268 383.167 199.968C383.567 199.468 383.567 198.668 382.767 198.568C337.467 191.768 292.267 183.668 247.367 174.468C246.267 174.268 245.767 175.968 246.867 176.268C289.967 185.168 333.367 192.968 376.967 199.568C373.367 199.568 369.767 199.568 366.167 199.668C365.967 199.468 365.767 199.368 365.467 199.568L365.367 199.668C356.467 199.668 347.567 199.768 338.567 199.768C338.467 199.468 337.967 199.268 337.767 199.668L337.667 199.768H328.767C328.667 199.668 328.467 199.668 328.367 199.768H323.667C323.467 199.568 323.167 199.568 322.967 199.768H319.567C319.367 199.468 318.967 199.368 318.767 199.768C292.067 199.868 265.367 200.068 238.667 200.168C238.067 200.168 238.067 201.068 238.667 201.068C265.167 200.968 291.767 200.768 318.267 200.668C316.067 204.368 313.867 208.168 311.567 211.768C290.067 215.668 268.467 219.468 246.867 223.168C245.667 223.368 246.167 225.168 247.367 224.968C285.267 218.468 323.267 211.668 361.167 204.568ZM315.967 210.968C318.467 207.568 320.967 204.068 323.367 200.668H327.467C324.667 203.768 322.067 206.968 319.667 210.368C318.467 210.568 317.167 210.768 315.967 210.968ZM320.967 210.068C323.367 206.768 325.967 203.568 328.667 200.668H332.967C330.967 203.568 328.767 206.368 326.567 209.068C324.767 209.468 322.867 209.768 320.967 210.068ZM330.967 208.268C329.967 208.468 328.967 208.668 327.967 208.768C330.167 206.168 332.167 203.368 334.067 200.568H337.067C335.367 203.368 333.067 205.768 330.967 208.268ZM335.067 207.568C334.167 207.768 333.267 207.868 332.467 208.068C334.467 205.668 336.667 203.268 338.267 200.668H341.367C339.367 202.968 337.367 205.268 335.167 207.468C335.067 207.368 335.067 207.468 335.067 207.568ZM336.467 207.268C338.567 205.068 340.567 202.868 342.467 200.568H346.267C344.467 202.568 342.667 204.468 340.867 206.468C339.467 206.768 337.967 206.968 336.467 207.268ZM342.367 206.168C344.067 204.268 345.767 202.468 347.467 200.568H350.967C349.167 202.068 347.567 203.768 345.967 205.568L342.367 206.168ZM351.267 204.568C349.967 204.768 348.667 205.068 347.367 205.268C348.867 203.668 350.467 202.068 352.167 200.668C352.167 200.668 352.167 200.568 352.267 200.568H355.967C354.567 201.968 352.967 203.268 351.267 204.568ZM353.167 204.168C354.667 202.968 356.067 201.768 357.367 200.468H361.067C360.067 201.468 359.067 202.368 357.967 203.268L353.167 204.168ZM359.767 202.968C360.567 202.168 361.467 201.468 362.267 200.668L362.367 200.568H364.467C363.767 201.268 363.067 201.968 362.367 202.568C361.467 202.668 360.667 202.768 359.767 202.968ZM363.967 202.168C364.567 201.568 365.167 200.968 365.767 200.468H367.867C367.367 200.868 366.867 201.368 366.367 201.768C365.567 201.868 364.767 202.068 363.967 202.168ZM368.167 201.368C368.267 201.268 368.467 201.168 368.567 200.968C368.767 200.768 368.767 200.568 368.567 200.368H373.367C371.667 200.768 369.867 201.068 368.167 201.368ZM319.267 200.668H322.367C319.867 204.168 317.267 207.668 314.767 211.268C314.067 211.368 313.467 211.468 312.767 211.668C314.967 207.968 317.067 204.368 319.267 200.668Z" fill="#F5E9DB"/>
<path d="M313.467 202.868C314.067 202.868 314.067 201.968 313.467 201.968C288.667 201.768 263.867 201.968 239.167 202.768C238.567 202.768 238.567 203.668 239.167 203.668C263.867 202.868 288.667 202.668 313.467 202.868ZM294.567 204.568H239.067C238.467 204.568 238.467 205.468 239.067 205.468H294.567C295.167 205.468 295.167 204.568 294.567 204.568ZM286.367 207.468C286.967 207.468 286.967 206.568 286.367 206.568C270.267 207.668 254.067 207.868 237.967 207.368C237.367 207.368 237.367 208.268 237.967 208.268C254.067 208.768 270.267 208.568 286.367 207.468ZM272.767 210.468C273.367 210.468 273.367 209.568 272.767 209.568C261.067 209.768 249.267 210.068 237.567 210.268C236.967 210.268 236.967 211.168 237.567 211.168C249.267 210.968 260.967 210.668 272.767 210.468ZM265.067 213.068C265.667 213.068 265.667 212.168 265.067 212.168C255.967 212.568 246.867 212.568 237.767 212.068C237.167 212.068 237.167 212.968 237.767 212.968C246.867 213.368 255.967 213.468 265.067 213.068ZM259.767 215.768C260.367 215.768 260.367 214.868 259.767 214.868C253.367 215.068 246.867 215.268 240.467 215.468C239.867 215.468 239.867 216.368 240.467 216.368C246.967 216.168 253.367 215.968 259.767 215.768ZM255.067 218.168C255.667 218.168 255.667 217.268 255.067 217.268C250.867 217.268 246.767 217.468 242.567 217.768C241.967 217.868 241.967 218.768 242.567 218.668C246.667 218.268 250.867 218.168 255.067 218.168ZM251.167 221.068C251.767 221.068 251.767 220.068 251.167 220.168C248.767 220.368 246.367 220.468 243.867 220.668C243.267 220.668 243.267 221.668 243.867 221.568C246.267 221.368 248.767 221.168 251.167 221.068ZM178.867 198.368C152.367 198.468 125.767 198.668 99.267 198.768C101.467 195.068 103.667 191.268 105.967 187.668C127.467 183.768 149.067 179.968 170.667 176.268C171.867 176.068 171.367 174.268 170.167 174.468C132.167 180.968 94.167 187.768 56.267 194.868C56.167 194.868 56.067 194.868 55.867 194.968C54.567 195.168 53.367 195.468 52.067 195.668H51.967C46.267 196.768 40.567 197.768 34.867 198.868C34.467 198.968 34.267 199.168 34.267 199.468C33.867 199.968 33.867 200.768 34.667 200.868C79.467 207.568 125.967 216.468 170.367 225.568C170.767 225.068 171.167 224.468 171.567 223.968C128.667 215.068 83.767 206.468 40.467 199.868C44.067 199.868 47.667 199.868 51.267 199.768C51.467 199.968 51.667 200.068 51.967 199.868L52.067 199.768C60.967 199.768 69.867 199.668 78.867 199.668C78.967 199.968 79.467 200.168 79.667 199.768L79.767 199.668H88.667C88.767 199.768 88.967 199.768 89.067 199.668H93.767C93.967 199.868 94.267 199.868 94.467 199.668H97.867C98.067 199.968 98.467 200.068 98.667 199.668C125.367 199.568 152.067 199.368 178.767 199.268C179.467 199.268 179.467 198.368 178.867 198.368ZM48.867 198.368C48.667 198.568 48.667 198.768 48.867 198.968H44.067C45.767 198.668 47.567 198.368 49.267 197.968C49.167 198.168 48.967 198.268 48.867 198.368ZM51.767 198.968H49.667C50.167 198.568 50.667 198.068 51.167 197.668C51.967 197.468 52.867 197.368 53.667 197.168C52.967 197.868 52.367 198.368 51.767 198.968ZM55.067 198.968H52.967C53.667 198.268 54.367 197.568 55.067 196.968C55.867 196.768 56.767 196.668 57.567 196.468C56.767 197.268 55.867 197.968 55.067 198.768C55.167 198.868 55.067 198.868 55.067 198.968ZM60.067 198.968H56.367C57.367 197.968 58.367 197.068 59.467 196.168L64.267 195.268C62.867 196.468 61.367 197.668 60.067 198.968ZM65.167 198.868H61.467C62.967 197.468 64.567 196.068 66.167 194.868C67.467 194.668 68.767 194.368 70.067 194.168C68.467 195.868 66.867 197.368 65.167 198.868ZM69.967 198.868H66.467C68.267 197.368 69.867 195.668 71.467 193.868C72.667 193.668 73.867 193.468 75.067 193.168C73.367 195.168 71.667 196.968 69.967 198.868ZM74.967 198.868H71.167C72.967 196.868 74.767 194.968 76.567 192.968C78.067 192.668 79.567 192.468 81.067 192.168C78.967 194.368 76.967 196.568 74.967 198.868ZM79.267 198.868H76.167C78.167 196.568 80.167 194.268 82.367 192.068C82.467 191.968 82.467 191.968 82.467 191.868C83.367 191.668 84.267 191.568 85.067 191.368C83.067 193.768 80.867 196.168 79.267 198.868ZM80.267 198.868C82.067 196.168 84.367 193.768 86.367 191.268C87.367 191.068 88.367 190.868 89.367 190.768C87.167 193.368 85.167 196.168 83.267 198.968C82.267 198.868 81.267 198.868 80.267 198.868ZM88.767 198.768H84.467C86.467 195.868 88.667 193.068 90.867 190.368C92.767 190.068 94.567 189.668 96.467 189.368C94.067 192.668 91.467 195.768 88.767 198.768ZM94.067 198.768H89.967C92.767 195.668 95.367 192.468 97.767 189.068C98.967 188.868 100.267 188.568 101.467 188.368C98.967 191.868 96.567 195.368 94.067 198.768ZM98.267 198.768H95.167C97.667 195.268 100.267 191.768 102.767 188.168C103.467 188.068 104.067 187.968 104.767 187.768C102.567 191.468 100.367 195.068 98.267 198.768Z" fill="#F5E9DB"/>
<path d="M103.967 196.568C103.367 196.568 103.367 197.468 103.967 197.468C128.767 197.668 155.367 197.468 180.067 196.668C180.667 196.668 180.667 195.768 180.067 195.768C155.367 196.568 128.767 196.768 103.967 196.568ZM122.867 194.968H180.167C180.767 194.968 180.767 194.068 180.167 194.068H122.867C122.267 193.968 122.267 194.968 122.867 194.968ZM131.067 191.968C130.467 191.968 130.467 192.868 131.067 192.868C147.167 191.768 163.367 191.568 179.467 192.068C180.067 192.068 180.967 191.168 180.367 191.168C164.267 190.668 147.167 190.868 131.067 191.968ZM144.667 188.968C144.067 188.968 144.067 189.868 144.667 189.868C156.367 189.668 169.067 189.368 180.767 189.168C181.367 189.168 181.367 188.268 180.767 188.268C169.067 188.568 156.467 188.768 144.667 188.968ZM152.467 186.468C151.867 186.468 151.867 187.368 152.467 187.368C161.567 186.968 170.667 186.968 179.767 187.468C180.367 187.468 180.367 186.568 179.767 186.568C170.567 186.068 161.467 185.968 152.467 186.468ZM157.667 183.668C157.067 183.668 157.067 184.568 157.667 184.568C164.067 184.368 170.567 184.168 176.967 183.968C177.567 183.968 177.567 183.068 176.967 183.068C170.567 183.268 164.067 183.468 157.667 183.668ZM162.467 181.268C161.867 181.268 161.867 182.168 162.467 182.168C166.667 182.168 170.767 181.968 174.967 181.668C175.567 181.568 175.567 180.668 174.967 180.768C170.767 181.168 166.567 181.368 162.467 181.268ZM166.267 178.368C165.667 178.368 165.667 179.368 166.267 179.268C168.667 179.068 171.067 178.968 173.567 178.768C174.167 178.768 174.167 177.768 173.567 177.868C171.167 178.068 168.667 178.268 166.267 178.368ZM148.067 254.268C138.367 243.368 131.967 230.168 129.167 215.868C128.967 214.668 127.167 215.168 127.367 216.368C130.267 230.968 136.867 244.368 146.767 255.568C147.567 256.468 148.867 255.168 148.067 254.268ZM190.067 278.568C176.067 276.568 163.367 269.868 153.967 259.268C153.167 258.368 151.867 259.668 152.667 260.568C162.267 271.368 175.267 278.268 189.567 280.368C190.767 280.468 191.267 278.768 190.067 278.568ZM263.067 258.368C258.767 262.268 254.167 265.768 249.267 268.668C249.367 268.568 249.367 268.368 249.167 268.168C246.767 265.368 244.467 262.468 242.367 259.468C242.067 258.968 241.267 259.468 241.567 259.968C243.767 263.068 246.067 265.968 248.467 268.868C248.567 268.968 248.567 268.968 248.667 268.968C241.667 273.068 233.967 276.168 225.967 278.168C224.867 278.468 225.267 280.168 226.467 279.968C240.667 276.468 253.567 269.568 264.267 259.668C265.167 258.868 263.867 257.568 263.067 258.368ZM289.967 216.568C287.167 225.068 283.167 232.968 278.067 240.268L277.967 240.168C277.767 239.968 277.567 239.968 277.467 240.068C276.967 239.168 274.767 237.568 274.167 237.168C272.767 236.068 271.367 235.068 269.867 234.168C269.367 233.868 268.867 234.668 269.367 234.968C271.067 236.068 272.767 237.168 274.367 238.468C275.067 239.068 275.767 239.668 276.467 240.368C276.767 240.668 276.967 240.968 277.267 241.168C274.367 245.168 271.167 248.968 267.567 252.468C266.767 253.268 268.067 254.568 268.867 253.768C279.267 243.468 286.967 230.968 291.667 217.068C292.067 215.968 290.267 215.468 289.967 216.568ZM289.567 182.768C286.467 168.368 279.767 155.268 269.867 144.368C269.067 143.468 267.767 144.768 268.567 145.668C276.467 154.468 282.267 164.668 285.767 175.768C284.267 176.668 282.267 176.968 280.667 177.468C279.067 177.968 277.567 178.668 276.167 179.368C275.667 179.668 276.067 180.368 276.667 180.168C278.467 179.268 280.367 178.568 282.267 177.968C283.567 177.568 284.967 177.368 286.167 176.668C286.767 178.768 287.367 180.968 287.867 183.168C288.067 184.368 289.767 183.868 289.567 182.768ZM264.867 137.668C252.667 128.868 239.467 121.968 225.267 117.068C224.167 116.668 223.667 118.468 224.767 118.868C232.167 121.468 239.367 124.568 246.267 128.268C244.067 130.868 242.667 133.868 242.167 137.168C242.067 137.768 242.967 137.968 243.067 137.368C243.567 134.168 244.867 131.268 246.967 128.868C247.067 128.768 247.067 128.668 247.067 128.668C252.867 131.868 258.567 135.368 263.967 139.268C264.867 139.868 265.767 138.268 264.867 137.668ZM146.967 141.968C137.867 154.468 130.567 168.068 125.167 182.568C124.767 183.668 126.467 184.168 126.967 183.068C132.367 168.768 139.567 155.268 148.567 142.968C149.267 141.968 147.667 141.068 146.967 141.968ZM160.167 160.468C155.467 165.568 151.767 171.268 149.067 177.668C148.867 178.168 148.967 178.868 149.567 178.968H149.867C150.667 179.068 151.167 178.268 150.967 177.668C153.567 171.768 157.067 166.468 161.467 161.668C162.267 160.968 160.967 159.668 160.167 160.468ZM187.267 139.068C183.967 140.868 180.767 142.768 177.567 144.768C175.067 146.268 171.767 147.768 169.867 150.068C169.167 150.968 170.367 152.268 171.167 151.368C173.167 148.968 176.867 147.368 179.567 145.668C182.367 143.868 185.267 142.268 188.267 140.668C189.267 140.068 188.367 138.468 187.267 139.068ZM161.267 236.168C158.967 234.368 157.367 230.868 155.967 228.368C154.467 225.768 153.167 223.168 151.967 220.468C151.467 219.368 149.967 220.368 150.367 221.368C151.867 224.768 153.567 228.068 155.467 231.168C156.767 233.468 158.167 236.068 160.267 237.668C161.267 238.368 162.167 236.868 161.267 236.168ZM187.267 255.268V255.168C187.067 254.868 186.567 254.668 186.267 254.768H186.167C186.067 254.768 186.067 254.868 186.067 254.868C184.967 254.868 183.067 253.968 182.167 253.668C180.467 253.068 178.867 252.268 177.267 251.368C174.867 249.968 172.667 248.168 170.367 246.468C169.467 245.768 168.567 247.368 169.467 248.068C172.367 250.268 175.167 252.368 178.367 254.068C180.567 255.168 184.367 257.168 186.867 256.668C187.367 256.468 187.467 255.768 187.267 255.268ZM244.167 244.968C240.067 248.768 235.467 251.768 230.367 254.068C229.267 254.568 230.267 256.068 231.267 255.668C236.467 253.268 241.167 250.168 245.467 246.368C246.267 245.368 244.967 244.168 244.167 244.968ZM264.167 221.168C262.367 226.168 259.667 230.668 255.967 234.568C255.167 235.468 256.467 236.668 257.267 235.868C261.167 231.768 264.067 226.968 265.967 221.668C266.367 220.468 264.567 220.068 264.167 221.168ZM248.367 149.868C242.567 146.168 236.467 142.968 230.167 140.068C229.067 139.568 228.167 141.168 229.267 141.668C235.567 144.468 241.667 147.768 247.467 151.468C248.467 152.068 249.367 150.468 248.367 149.868ZM268.867 178.768C266.267 172.168 261.567 166.568 257.567 160.768C256.867 159.768 255.367 160.768 255.967 161.668C259.867 167.268 264.567 172.868 267.167 179.268C267.567 180.368 269.367 179.868 268.867 178.768ZM157.367 236.468C153.567 232.268 150.667 227.468 148.567 222.168C148.367 221.668 147.467 221.868 147.667 222.368C149.867 227.768 152.867 232.668 156.667 237.068C157.067 237.568 157.667 236.868 157.367 236.468ZM155.967 239.568C150.867 234.468 147.767 228.068 144.767 221.568C144.567 221.068 143.767 221.468 143.967 222.068C146.867 228.668 150.067 235.068 155.267 240.268C155.767 240.668 156.467 239.968 155.967 239.568ZM185.267 260.168C184.967 259.668 184.467 259.568 183.867 259.368C182.167 258.868 180.567 258.268 179.067 257.568C175.867 256.168 172.967 254.168 170.267 251.968C169.867 251.568 169.167 252.268 169.667 252.568C171.867 254.368 174.167 255.968 176.667 257.268C177.767 257.868 178.967 258.468 180.167 258.968C180.867 259.268 181.567 259.568 182.267 259.768C182.567 259.868 183.667 260.068 184.167 260.368C184.167 260.468 184.167 260.568 184.267 260.568L184.367 260.668C184.467 260.868 184.767 260.968 184.967 260.868C185.067 260.868 185.067 260.768 185.167 260.768C185.267 260.668 185.367 260.468 185.267 260.168ZM186.167 262.968C179.567 261.268 173.367 258.468 167.767 254.568C167.267 254.268 166.867 255.068 167.267 255.368C172.967 259.368 179.167 262.168 185.967 263.868C186.467 263.968 186.767 263.068 186.167 262.968ZM158.367 158.968C152.467 163.368 148.267 169.368 146.267 176.468C146.067 177.068 146.967 177.268 147.167 176.668C149.167 169.868 153.167 163.968 158.867 159.768C159.267 159.468 158.867 158.668 158.367 158.968Z" fill="#F5E9DB"/>
<path d="M155.167 157.068C152.867 159.068 150.967 161.368 149.267 163.868C145.967 161.968 142.667 159.968 139.367 158.068C138.867 157.768 138.367 158.568 138.867 158.868C142.167 160.768 145.367 162.668 148.667 164.668C147.967 165.768 147.367 166.868 146.767 167.968C145.567 170.068 144.567 172.268 143.667 174.568C143.267 175.568 141.867 177.468 142.367 178.568C142.467 178.768 142.767 178.868 142.967 178.768C143.267 178.668 143.267 178.368 143.067 178.168C142.967 177.768 143.967 176.168 144.067 175.768L145.267 173.068C146.067 171.268 146.967 169.568 147.867 167.868C148.367 166.968 148.867 166.068 149.467 165.268C149.567 165.268 149.667 165.368 149.667 165.368C150.167 165.668 150.667 164.868 150.167 164.568C150.067 164.568 150.067 164.468 149.967 164.468C151.567 162.068 153.467 159.768 155.767 157.868C156.267 157.368 155.567 156.668 155.167 157.068ZM191.667 115.368C184.267 117.468 176.967 119.668 170.267 123.468C163.667 127.168 157.967 132.368 152.367 137.368C151.467 138.168 152.767 139.468 153.667 138.668C157.867 134.968 161.967 131.368 166.467 128.168C166.467 128.268 166.467 128.368 166.567 128.468C168.867 131.868 170.867 135.268 172.767 138.868C172.867 139.168 173.167 139.168 173.367 139.068C170.767 140.368 168.167 141.768 166.267 143.968C165.867 144.368 166.567 145.068 166.867 144.568C169.367 141.668 173.367 140.068 176.767 138.268C178.567 137.368 180.367 136.468 182.267 135.668C183.867 134.968 185.567 134.468 186.967 133.368C187.467 133.068 186.967 132.268 186.467 132.568C185.067 133.568 183.367 134.168 181.767 134.868C179.667 135.768 177.567 136.868 175.567 137.868C174.867 138.268 174.167 138.568 173.367 138.968C173.567 138.868 173.667 138.568 173.567 138.368C171.667 134.768 169.667 131.268 167.367 127.968C167.267 127.868 167.167 127.768 166.967 127.768C168.367 126.768 169.767 125.868 171.167 124.968C177.567 121.068 184.967 119.068 192.167 117.068C193.267 116.868 192.767 115.068 191.667 115.368ZM185.667 136.568L176.367 141.068C173.967 142.168 170.867 143.068 169.367 145.468C169.067 145.968 169.867 146.468 170.167 145.968C171.567 143.668 175.267 142.668 177.567 141.468L186.067 137.368C186.667 137.068 186.167 136.368 185.667 136.568ZM248.067 147.368C244.967 145.168 241.767 143.168 238.367 141.368C236.667 140.468 234.967 139.668 233.267 138.868C232.367 138.468 231.567 138.068 230.667 138.568C230.167 138.868 230.667 139.668 231.167 139.368C232.067 138.868 234.867 140.668 235.767 141.068C237.267 141.768 238.667 142.568 240.067 143.368C242.667 144.868 245.167 146.468 247.567 148.268C248.167 148.468 248.567 147.668 248.067 147.368ZM269.467 174.268C266.867 169.868 264.067 165.568 261.267 161.268C260.967 160.768 260.167 161.268 260.467 161.768C263.267 166.068 265.967 170.368 268.667 174.768C268.967 175.268 269.767 174.768 269.467 174.268ZM273.367 178.268C270.567 171.168 267.167 164.368 263.167 157.768C262.867 157.268 262.067 157.768 262.367 158.268C266.267 164.768 269.667 171.468 272.467 178.568C272.767 179.068 273.567 178.768 273.367 178.268ZM268.267 222.968C265.967 227.668 263.167 231.968 259.867 235.968C259.467 236.368 260.167 237.068 260.467 236.568C263.867 232.568 266.767 228.168 269.067 223.368C269.367 222.868 268.567 222.368 268.267 222.968ZM272.967 221.068C271.767 224.968 269.867 228.468 267.467 231.768C266.167 233.668 264.667 235.368 263.167 237.068C262.567 237.668 261.267 238.568 261.367 239.568C261.367 239.868 261.667 240.068 261.967 239.968H262.167C262.467 239.968 262.567 239.668 262.467 239.368V239.268C262.767 238.768 263.667 237.968 263.867 237.768C264.567 236.968 265.167 236.168 265.867 235.468C267.067 234.068 268.167 232.568 269.167 231.068C271.167 228.068 272.767 224.868 273.867 221.368C273.967 220.768 273.067 220.468 272.967 221.068ZM244.667 249.768C241.067 252.968 237.067 255.368 232.567 256.868C231.967 257.068 232.267 257.968 232.767 257.768C237.467 256.168 241.667 253.668 245.267 250.468C245.667 249.968 245.067 249.368 244.667 249.768ZM248.467 251.568C246.167 254.068 243.567 256.068 240.667 257.868C239.767 258.368 231.867 262.968 231.367 262.268C230.967 261.768 230.367 262.468 230.767 262.868C231.467 263.668 232.567 262.868 233.267 262.568C235.267 261.668 237.267 260.768 239.267 259.668C242.967 257.768 246.367 255.368 249.167 252.168C249.567 251.768 248.867 251.068 248.467 251.568ZM276.767 158.268C274.167 160.468 271.267 162.268 268.267 163.868C267.767 164.168 268.167 164.968 268.767 164.668C271.867 163.068 274.767 161.168 277.467 158.968C277.867 158.468 277.267 157.868 276.767 158.268Z" fill="#F5E9DB"/>
<path d="M189.167 128.068C188.167 125.268 187.067 122.468 186.067 119.668C185.867 119.168 184.967 119.368 185.167 119.868L188.267 128.268C188.467 128.868 189.367 128.668 189.167 128.068ZM146.667 233.968C144.067 235.368 141.467 236.868 138.867 238.268C138.767 238.268 138.567 238.268 138.467 238.368C138.267 238.468 138.167 238.668 137.967 238.768C137.567 239.168 138.067 239.768 138.567 239.468C141.467 237.868 144.367 236.268 147.167 234.668C147.667 234.468 147.167 233.668 146.667 233.968ZM172.167 259.668C169.867 262.568 167.767 265.568 165.767 268.668C165.467 269.168 166.267 269.668 166.567 269.168C168.467 266.068 170.567 263.168 172.767 260.368C173.167 259.768 172.567 259.168 172.167 259.668ZM186.667 269.368C186.667 268.768 185.767 268.768 185.767 269.368C185.867 271.368 185.667 273.368 185.067 275.368C184.867 275.968 185.767 276.168 185.967 275.568C186.567 273.568 186.767 271.468 186.667 269.368ZM134.267 128.368C132.067 126.568 130.167 124.468 128.367 122.268C127.667 121.368 126.367 122.668 127.067 123.568C128.467 125.368 129.967 126.968 131.567 128.468C128.967 127.968 126.367 127.668 123.767 127.468C122.867 127.468 122.667 128.468 123.167 128.968C122.967 129.268 122.967 129.668 123.267 130.068C124.767 131.768 126.367 133.268 128.167 134.668C129.067 135.368 129.967 133.768 129.067 133.068C127.667 131.968 126.367 130.768 125.167 129.468C127.667 129.668 130.067 129.968 132.467 130.568C132.967 130.668 133.367 130.368 133.567 129.968C134.167 129.968 134.967 129.068 134.267 128.368ZM143.067 118.568C141.867 116.368 140.767 114.168 139.967 111.868C139.567 110.768 137.767 111.268 138.167 112.368C138.767 114.068 139.567 115.768 140.367 117.468C138.967 116.868 137.567 116.268 136.267 115.568C135.567 115.168 134.667 115.768 134.967 116.568C135.567 118.268 136.167 120.068 136.767 121.768C134.867 120.868 132.867 120.168 130.867 119.568C129.767 119.268 129.267 120.968 130.367 121.368C132.967 122.168 135.467 123.168 137.867 124.368C138.567 124.668 139.467 124.168 139.167 123.368C138.567 121.668 137.967 119.868 137.367 118.168C138.867 118.868 140.367 119.468 141.967 120.068C142.767 120.068 143.467 119.168 143.067 118.568ZM131.667 266.468C130.167 264.668 127.967 263.768 126.067 265.468C125.367 266.068 125.267 267.168 125.467 267.968C125.567 268.568 125.767 269.268 125.867 269.868C125.467 270.868 124.867 271.068 124.167 270.468C123.667 270.168 123.267 269.668 122.867 269.168C122.067 268.268 120.767 269.568 121.567 270.468C122.667 271.768 125.167 273.668 126.867 271.968C127.567 271.268 127.767 270.468 127.667 269.468C127.567 268.968 127.467 268.468 127.367 267.868C127.067 266.968 127.567 266.468 128.667 266.368C129.467 266.468 129.967 267.268 130.467 267.768C131.067 268.568 132.367 267.368 131.667 266.468ZM141.267 276.268C139.367 277.468 137.367 278.668 135.467 279.768C135.867 278.168 136.267 276.568 136.767 274.968C136.967 274.368 136.267 273.668 135.667 273.868C134.467 274.268 133.167 274.668 131.967 275.068C132.467 273.468 133.067 271.768 133.867 270.368C134.467 269.368 132.867 268.468 132.267 269.468C131.067 271.568 130.467 274.068 129.567 276.268C129.367 276.868 130.067 277.568 130.667 277.368C131.967 276.968 133.167 276.568 134.467 276.068C133.967 277.868 133.467 279.568 133.067 281.368C132.867 282.168 133.667 282.768 134.367 282.368C136.967 280.868 139.467 279.268 142.067 277.768C143.167 277.168 142.267 275.668 141.267 276.268ZM285.167 278.168C284.867 276.668 283.067 276.168 281.767 276.068C280.767 275.968 279.667 276.368 278.667 276.468C278.067 276.568 277.467 276.368 276.967 275.968C276.767 275.768 277.367 273.568 278.167 273.868C279.267 274.168 279.767 272.468 278.667 272.068C277.467 271.668 276.167 272.768 275.567 273.768C274.867 274.968 274.867 276.068 275.767 277.168C276.567 278.168 278.267 278.268 279.467 278.168C280.467 277.968 281.467 277.768 282.467 277.868C283.667 278.068 283.767 279.268 282.867 279.868C282.267 280.368 281.367 279.968 280.767 279.668C279.767 279.068 278.867 280.668 279.867 281.268C282.467 282.868 285.767 281.368 285.167 278.168ZM289.167 271.568C288.767 272.568 288.267 273.568 287.667 274.568C286.967 273.968 286.267 273.368 285.667 272.768C286.367 271.968 287.067 271.268 287.767 270.468C288.567 269.568 287.267 268.268 286.467 269.168L284.367 271.468C283.967 270.968 283.467 270.568 283.067 270.068C283.367 269.868 283.667 269.568 283.967 269.368C284.467 268.968 285.067 268.568 285.567 268.068C285.967 267.768 285.867 267.068 285.567 266.768C285.167 266.368 284.667 266.468 284.267 266.768L282.467 268.168C282.167 268.368 281.867 268.668 281.567 268.868C281.167 269.168 281.067 269.468 280.967 269.968C280.967 270.168 280.967 270.268 281.067 270.468C281.067 270.668 281.167 270.868 281.267 270.968C283.167 272.968 285.067 275.068 287.267 276.668C287.667 276.968 288.267 276.768 288.467 276.368C289.367 275.068 290.067 273.568 290.667 272.068C291.367 270.968 289.567 270.468 289.167 271.568ZM284.567 119.268C283.667 120.168 282.767 121.168 281.867 122.068C281.467 122.468 280.767 123.468 280.067 124.068L281.067 115.668C281.167 114.968 280.267 114.468 279.667 114.868C276.967 116.768 274.567 118.868 272.267 121.168C271.467 121.968 272.767 123.268 273.567 122.468C275.267 120.768 277.067 119.168 278.967 117.668L278.067 125.468C277.967 125.968 278.567 126.368 278.967 126.368C279.867 126.368 280.367 126.068 281.067 125.468C282.767 123.968 284.267 122.168 285.767 120.568C286.667 119.668 285.467 118.368 284.567 119.268ZM292.567 125.768C291.367 124.868 290.267 123.868 289.067 122.968C289.067 122.368 288.367 121.968 287.867 122.168C287.167 122.068 286.367 122.868 286.867 123.468C285.467 125.668 284.067 127.868 282.767 130.068C282.567 130.368 282.567 130.968 282.867 131.168L285.667 133.368C286.567 134.068 287.867 132.868 286.967 132.068C286.267 131.468 285.467 130.868 284.767 130.268C285.167 129.568 285.667 128.868 286.067 128.168C287.067 128.568 287.867 129.168 288.667 129.768C289.567 130.468 290.867 129.168 289.967 128.468C289.067 127.768 288.067 127.068 286.967 126.568C287.367 125.868 287.767 125.168 288.267 124.568C289.067 125.168 289.867 125.868 290.667 126.468C290.667 126.668 290.767 126.968 290.967 127.168C291.667 127.768 292.567 127.568 292.867 126.668C292.867 126.368 292.767 125.968 292.567 125.768Z" fill="#F5E9DB"/>
<path d="M293.667 117.268C284.067 108.168 272.467 101.468 260.767 95.5676C247.667 88.8676 233.767 84.4676 219.267 81.9676C218.167 81.7676 217.667 83.5676 218.767 83.7676C245.367 88.4676 272.267 100.268 292.367 118.668C312.367 136.968 317.267 163.768 321.167 189.368C321.367 190.568 323.067 190.068 322.967 188.868C318.867 162.568 313.667 136.268 293.667 117.268Z" fill="#F5E9DB"/>
<path d="M336.467 160.868C333.167 161.768 329.767 163.168 326.367 163.868C325.067 157.068 323.267 150.368 320.867 143.968C319.567 140.568 318.067 137.268 316.367 134.168C316.867 133.968 317.367 133.668 317.867 133.468C318.967 132.968 320.067 132.368 321.067 131.868C323.267 130.768 325.367 129.668 327.567 128.568C328.067 128.268 327.667 127.468 327.067 127.768C324.667 128.968 322.267 130.268 319.767 131.468C318.867 131.968 316.867 132.468 315.867 133.368C311.267 125.268 305.067 117.968 298.267 111.668C297.967 111.368 297.667 111.168 297.467 110.968C308.667 100.968 319.067 90.1677 328.467 78.4677C329.167 77.5677 327.967 76.2677 327.167 77.1677C317.667 88.8677 307.267 99.7677 296.067 109.668C287.467 102.268 277.767 96.5677 267.567 91.6677C269.267 88.2677 270.967 84.8677 272.567 81.4677C272.867 80.9677 272.067 80.4677 271.767 80.9677C270.067 84.3677 268.367 87.7677 266.667 91.2677C265.067 90.4677 263.367 89.6677 261.667 88.9677C254.267 85.5677 246.767 82.4677 238.967 80.0677C239.467 75.3677 240.267 70.7677 241.267 66.2677C241.367 65.6677 240.567 65.4677 240.367 66.0677C239.267 70.6677 238.567 75.2677 237.967 79.8677C231.167 77.8677 224.167 76.4677 216.967 76.0677C215.767 75.9677 215.767 77.8677 216.967 77.8677C232.367 78.7677 246.767 84.3677 260.667 90.5677C262.467 91.3677 264.167 92.1677 265.867 92.9677C265.967 93.1677 266.167 93.2677 266.367 93.2677C277.267 98.5677 287.567 104.768 296.667 112.968C306.367 121.668 314.067 132.468 318.867 144.568C321.367 150.868 323.067 157.568 324.367 164.368C323.967 164.568 324.167 165.068 324.567 165.168C326.167 173.468 327.067 181.968 328.167 190.168C328.267 191.268 330.167 191.368 329.967 190.168C328.867 181.768 327.867 173.268 326.267 164.868C329.667 164.168 333.167 162.768 336.467 161.868C337.267 161.568 337.067 160.668 336.467 160.868ZM340.967 231.668C336.867 230.768 332.667 229.768 328.567 228.868C329.967 222.768 330.867 216.668 331.267 210.468C331.367 209.268 329.567 209.268 329.467 210.468C327.467 239.268 314.967 266.568 294.567 286.968C274.367 307.068 246.567 319.068 218.267 320.768C218.167 320.668 217.967 320.568 217.667 320.568C216.967 320.568 216.667 321.168 216.867 321.668C216.767 322.168 217.067 322.668 217.767 322.668C226.367 322.168 234.767 320.768 242.967 318.568C243.867 322.368 245.067 326.068 246.367 329.668C246.567 330.168 247.467 329.968 247.267 329.468C245.867 325.868 244.767 322.068 243.867 318.368C253.867 315.568 263.467 311.468 272.467 306.268C274.967 309.668 277.167 313.168 279.267 316.868C279.567 317.368 280.367 316.968 280.067 316.368C277.967 312.668 275.767 309.168 273.267 305.768C281.467 300.868 289.067 295.068 295.967 288.368L296.167 288.168C306.067 297.168 315.467 306.668 324.567 316.568C325.367 317.468 326.667 316.168 325.867 315.268C316.767 305.368 307.367 295.968 297.467 286.868C305.467 278.768 312.167 269.468 317.467 259.468C320.167 260.868 322.967 262.268 325.667 263.568C325.667 263.768 325.767 263.868 325.967 263.968C326.267 264.068 326.467 264.068 326.767 264.168C327.267 264.268 327.567 263.568 327.167 263.368L317.867 258.668C322.567 249.568 326.167 239.868 328.467 229.968L340.867 232.768C341.267 232.668 341.467 231.768 340.967 231.668ZM197.167 319.768C168.367 317.568 141.167 305.068 120.567 284.868C100.167 264.668 87.8671 236.768 85.6671 208.268C85.5671 207.068 83.7671 207.068 83.8671 208.268C84.4671 216.568 85.967 224.768 88.267 232.768H87.967C83.867 234.468 79.667 236.168 75.567 237.968C75.067 238.168 75.267 239.068 75.767 238.868C79.867 237.168 84.0671 235.468 88.1671 233.668C88.2671 233.668 88.3671 233.568 88.3671 233.468C91.3671 243.668 95.567 253.468 100.967 262.568C96.867 265.368 92.667 268.268 88.567 271.068C88.067 271.368 88.567 272.168 89.067 271.868C93.267 269.068 97.367 266.168 101.567 263.368C106.567 271.568 112.467 279.268 119.367 286.168L120.367 287.168C109.267 297.768 98.067 308.368 86.967 318.968C86.067 319.768 87.367 321.068 88.267 320.268C99.367 309.668 110.567 299.068 121.667 288.468C129.367 295.868 138.067 302.068 147.467 307.068C145.967 310.068 144.567 313.168 143.067 316.168C142.367 317.568 140.467 319.868 141.667 321.368C142.067 321.868 142.667 321.168 142.267 320.768C141.567 319.868 144.867 314.468 145.367 313.468C146.367 311.468 147.267 309.468 148.267 307.568C157.567 312.468 167.367 316.168 177.567 318.568C176.467 322.968 175.367 327.368 174.467 331.768C174.367 332.368 175.267 332.568 175.367 331.968C176.267 327.568 177.367 323.068 178.467 318.668C184.667 320.068 190.867 321.068 197.167 321.568C198.367 321.668 198.267 319.768 197.167 319.768Z" fill="#F5E9DB"/>
<path d="M195.767 312.768C169.467 310.368 144.767 298.668 126.067 280.068C107.467 261.568 96.267 236.068 94.067 210.068C93.967 208.868 92.1671 208.868 92.2671 210.068C94.4671 236.868 105.967 262.168 124.767 281.368C143.467 300.468 169.267 312.168 195.767 314.568C196.967 314.668 196.967 312.868 195.767 312.768ZM323.267 211.768C317.267 265.968 273.267 309.168 219.067 314.268C217.867 314.368 217.867 316.168 219.067 316.068C246.067 313.468 271.367 301.868 290.867 282.968C310.167 264.168 322.167 238.368 325.167 211.768C325.167 210.668 323.367 210.668 323.267 211.768ZM198.067 80.7676C184.667 82.2676 172.267 87.3676 160.467 93.6676C148.767 99.9676 135.867 106.568 126.567 116.168C117.267 125.668 109.867 138.368 103.567 150.068C97.167 162.068 92.6671 175.068 91.9671 188.768C91.8671 189.968 93.7671 189.968 93.7671 188.768C94.4671 175.368 98.867 162.868 105.067 151.068C110.967 139.768 118.367 128.368 126.667 118.768C134.967 109.168 147.567 103.068 158.467 96.9677C170.767 90.0677 183.867 84.2676 197.967 82.7676C199.267 82.4676 199.267 80.5676 198.067 80.7676Z" fill="#F5E9DB"/>
<path d="M198.567 75.2677C190.067 76.0677 181.767 77.7677 173.667 80.1677C172.167 75.1677 170.467 70.2677 168.767 65.3677C168.567 64.8677 167.667 65.0677 167.867 65.5677C169.667 70.4677 171.267 75.3677 172.767 80.3677C163.267 83.2677 154.167 87.3677 145.567 92.4677C142.367 88.1677 139.067 83.9677 135.867 79.6677C135.567 79.1677 134.767 79.6677 135.067 80.1677C138.267 84.4677 141.567 88.7677 144.767 92.9677C136.467 97.9677 128.667 103.968 121.667 110.868C121.167 111.368 120.767 111.868 120.267 112.268C120.267 112.168 120.167 111.968 120.067 111.868C109.567 100.368 99.0671 88.8677 88.1671 77.7677C87.3671 76.9677 86.0671 78.1677 86.8671 79.0677C97.7671 90.1677 108.267 101.768 118.767 113.168C118.867 113.268 119.067 113.368 119.167 113.368C111.667 121.168 105.367 130.068 100.067 139.468C95.967 137.468 91.9671 135.468 87.8671 133.468C87.3671 133.168 86.8671 133.968 87.3671 134.268C91.4671 136.268 95.467 138.268 99.567 140.268C98.867 141.668 98.0671 143.068 97.3671 144.468C93.5671 152.068 90.7671 160.168 88.4671 168.268C84.1671 167.168 79.8671 165.968 75.4671 164.768C74.8671 164.568 74.6671 165.468 75.2671 165.668C79.5671 166.868 83.8671 168.068 88.2671 169.168C86.3671 175.968 84.8671 182.868 83.4671 189.768C83.2671 190.868 84.9671 191.368 85.2671 190.268C88.3671 175.368 91.8671 160.568 98.3671 146.768C104.167 134.368 112.267 123.068 121.867 113.168C142.067 92.3677 169.767 79.7677 198.467 77.0677C199.667 76.9677 199.667 75.1677 198.567 75.2677Z" fill="#F5E9DB"/>
<path d="M122.567 135.168C109.867 147.868 105.567 165.668 101.567 182.568C101.467 183.168 102.267 183.368 102.467 182.768C106.367 165.968 110.667 148.368 123.267 135.768C123.567 135.468 122.967 134.768 122.567 135.168Z" fill="#F5E9DB"/>
<path d="M122.267 139.868C111.267 150.868 107.467 166.368 104.567 181.168C104.467 181.768 105.367 181.968 105.467 181.368C108.367 166.668 112.067 151.368 122.967 140.468C123.367 140.068 122.667 139.368 122.267 139.868ZM120.867 262.468C111.067 248.768 104.967 232.568 103.467 215.768C103.367 215.168 102.467 215.168 102.567 215.768C104.167 232.768 110.167 249.068 120.067 262.968C120.367 263.368 121.167 262.968 120.867 262.468Z" fill="#F5E9DB"/>
<path d="M123.967 259.268C116.667 250.568 111.567 240.368 108.767 229.368C108.667 228.768 107.767 229.068 107.867 229.568C110.667 240.668 115.967 251.068 123.267 259.868C123.767 260.368 124.367 259.668 123.967 259.268ZM191.667 303.168C174.267 301.168 157.667 294.668 143.467 284.368C142.967 284.068 142.567 284.768 142.967 285.168C157.267 295.568 174.067 302.068 191.567 304.168C192.267 304.168 192.267 303.268 191.667 303.168Z" fill="#F5E9DB"/>
<path d="M189.067 299.168C177.967 297.668 167.167 294.468 156.967 289.768C156.467 289.568 155.967 290.268 156.467 290.568C166.667 295.368 177.567 298.468 188.767 300.068C189.367 300.168 189.667 299.268 189.067 299.168ZM273.167 277.868C259.667 290.168 243.067 298.568 225.167 302.268C224.567 302.368 224.867 303.268 225.367 303.168C243.367 299.368 260.067 290.868 273.767 278.468C274.267 278.068 273.567 277.468 273.167 277.868Z" fill="#F5E9DB"/>
<path d="M256.667 284.368C252.667 288.068 248.067 290.768 243.067 292.968C240.367 294.168 237.567 295.168 234.767 296.168C231.867 297.168 228.967 298.468 225.867 298.368C225.267 298.368 225.267 299.268 225.867 299.268C228.867 299.368 231.567 298.268 234.267 297.268C237.067 296.268 239.867 295.268 242.667 294.068C247.967 291.868 252.967 288.968 257.267 284.968C257.767 284.668 257.067 283.968 256.667 284.368ZM312.267 215.868C307.667 231.368 302.867 247.368 292.767 260.268C292.367 260.768 293.067 261.368 293.367 260.868C303.667 247.868 308.567 231.768 313.167 216.068C313.267 215.468 312.367 215.268 312.267 215.868Z" fill="#F5E9DB"/>
<path d="M308.667 217.168C306.667 227.568 302.967 237.568 297.667 246.768C297.367 247.268 298.167 247.768 298.467 247.268C303.867 237.968 307.567 227.968 309.567 217.468C309.667 216.768 308.767 216.568 308.667 217.168ZM293.067 136.068C292.667 135.568 292.067 136.268 292.467 136.668C303.667 150.268 311.267 166.568 314.767 183.768C314.867 184.368 315.767 184.068 315.667 183.568C312.067 166.168 304.367 149.768 293.067 136.068Z" fill="#F5E9DB"/>
<path d="M313.267 183.868C311.767 178.368 310.467 172.768 308.367 167.468C306.467 162.668 303.967 158.068 300.867 153.868C300.567 153.368 299.767 153.868 300.067 154.368C303.167 158.768 305.767 163.468 307.767 168.468C309.767 173.568 310.967 178.868 312.367 184.068C312.567 184.668 313.367 184.368 313.267 183.868ZM270.567 112.668C255.767 102.768 239.067 96.1676 221.467 93.3676C220.867 93.2676 220.667 94.1676 221.267 94.2676C238.767 97.0676 255.467 103.668 270.167 113.468C270.667 113.768 271.067 112.968 270.567 112.668Z" fill="#F5E9DB"/>
<path d="M252.167 106.068C242.667 100.968 232.367 97.8677 221.667 96.9677C221.067 96.8677 221.067 97.8677 221.667 97.8677C232.167 98.7677 242.367 101.868 251.667 106.868C252.267 107.168 252.667 106.368 252.167 106.068ZM196.867 91.8677C180.067 97.1677 162.267 101.668 147.767 112.068C147.267 112.368 147.767 113.168 148.267 112.868C162.767 102.568 180.467 98.0677 197.167 92.7677C197.667 92.5677 197.467 91.6677 196.867 91.8677Z" fill="#F5E9DB"/>
<path d="M195.267 97.1677C190.267 98.0677 185.267 99.0677 180.267 100.368C175.867 101.468 171.367 102.668 167.567 105.068C167.067 105.368 167.567 106.168 168.067 105.868C172.167 103.368 176.867 102.268 181.367 101.068C186.067 99.8677 190.767 98.8677 195.567 98.0677C196.067 97.9677 195.767 97.0677 195.267 97.1677ZM27.4671 194.568C26.1671 199.068 24.5671 203.468 22.6671 207.768C20.3671 204.068 17.8671 200.568 15.1671 197.168C14.7671 196.668 14.067 196.868 13.767 197.368C11.667 200.668 9.46708 203.868 7.36708 207.168C5.36708 203.268 3.46706 199.268 1.66706 195.268C1.16706 194.168 -0.332972 195.168 0.0670276 196.168C2.06703 200.668 4.16705 205.068 6.46705 209.368C6.76705 209.968 7.66703 209.868 8.06703 209.368C10.267 206.068 12.4671 202.668 14.6671 199.368C17.3671 202.868 19.767 206.468 22.067 210.168C22.367 210.668 23.3671 210.768 23.6671 210.168C25.9671 205.268 27.8671 200.268 29.3671 195.068C29.5671 193.968 27.7671 193.468 27.4671 194.568ZM215.367 0.867682C215.267 5.76768 215.267 10.6677 215.167 15.4677C211.167 9.86769 205.767 5.16771 200.967 0.267706C200.367 -0.332294 199.467 0.167682 199.467 0.867682C199.367 0.967682 199.267 1.16768 199.267 1.36768C199.167 4.46768 199.267 7.5677 199.367 10.6677C199.467 11.8677 200.267 17.1677 200.167 18.2677C199.867 18.5677 199.667 18.9677 199.967 19.4677C199.967 19.4677 199.967 19.5677 200.067 19.5677C200.367 20.0677 201.067 20.1677 201.467 19.7677C202.767 18.4677 201.467 14.9677 201.367 13.3677C201.067 9.86768 200.967 6.36768 201.067 2.86768C206.067 7.86768 211.567 12.7677 215.267 18.7677C215.767 19.5677 216.967 19.2677 216.967 18.2677C217.067 12.3677 217.067 6.5677 217.167 0.6677C217.267 -0.2323 215.467 -0.232318 215.367 0.867682ZM402.967 206.968C400.667 207.268 398.467 207.568 396.167 207.768C392.667 208.068 393.167 204.968 393.067 202.368C392.967 201.468 392.967 200.568 392.967 199.668C395.867 199.268 398.767 198.868 401.567 198.468C402.767 198.268 402.267 196.568 401.067 196.668C398.367 197.068 395.567 197.468 392.867 197.868C392.767 195.268 392.767 192.668 392.867 190.068C395.567 190.268 398.167 190.668 400.767 191.168C401.867 191.368 402.367 189.668 401.267 189.368C398.367 188.768 395.467 188.368 392.567 188.168C392.167 188.168 391.867 188.368 391.767 188.668C391.367 188.768 391.067 189.068 391.067 189.468C390.967 192.868 390.967 196.168 391.167 199.568C391.267 202.268 390.967 205.868 391.767 208.368C392.067 209.168 392.367 209.768 393.467 209.668C396.867 209.568 400.167 209.268 403.567 208.768C404.667 208.568 404.167 206.768 402.967 206.968ZM213.867 395.868C212.367 394.768 210.267 394.168 208.567 393.468C201.367 390.268 206.967 380.368 212.967 385.168C213.867 385.868 215.167 384.568 214.267 383.868C210.367 380.768 202.967 382.168 203.167 388.268C203.267 391.068 204.367 392.868 206.667 394.468C208.167 395.568 210.267 396.068 211.967 396.868C215.367 398.468 214.767 403.668 211.367 404.768C208.967 405.568 206.367 404.568 204.667 402.768C203.867 401.868 202.567 403.168 203.367 404.068C207.367 408.268 215.167 407.568 216.767 401.568C217.467 399.068 215.567 397.168 213.867 395.868ZM167.167 217.968C145.167 215.468 123.367 211.868 101.667 207.468C101.067 207.368 100.867 208.268 101.467 208.368C123.167 212.868 145.167 216.368 167.167 218.968C167.767 218.968 167.767 218.068 167.167 217.968ZM228.067 242.168C223.667 269.268 218.567 296.168 212.767 322.968C212.667 323.568 213.567 323.768 213.667 323.168C219.467 296.368 224.567 269.368 228.967 242.368C229.067 241.868 228.167 241.568 228.067 242.168ZM323.567 191.868C300.867 188.868 278.367 185.168 255.867 180.868C255.267 180.768 255.067 181.668 255.667 181.768C278.167 186.168 300.867 189.868 323.567 192.868C324.067 192.868 324.067 191.868 323.567 191.868ZM199.467 93.5677C195.167 115.468 191.967 137.468 189.767 159.668C189.667 160.268 190.667 160.268 190.667 159.668C192.867 137.568 196.167 115.668 200.367 93.8677C200.467 93.1677 199.567 92.9677 199.467 93.5677Z" fill="#F5E9DB"/>
</svg>
