<svg width="2078" height="49" viewBox="0 0 2078 49" fill="none" xmlns="http://www.w3.org/2000/svg">
<path d="M33.6729 8.71284L33.3376 8.36062C28.4508 3.28223 21.9442 0.483742 15.0285 0.483742C9.70831 0.483742 4.63333 2.13738 0.348877 5.20985L33.6729 39.8387L34.0069 40.191C38.8986 45.2694 45.4003 48.0679 52.3164 48.0679C57.6362 48.0679 62.7116 46.4142 66.9957 43.3418L33.6729 8.71284Z" fill="#D2A979"/>
<path d="M71.615 8.71284L71.2801 8.36062C66.3933 3.28223 59.8866 0.483742 52.9706 0.483742C47.6508 0.483742 42.5754 2.13738 38.2914 5.20985L71.615 39.8387L71.9494 40.191C76.8411 45.2694 83.3424 48.0679 90.2585 48.0679C95.5784 48.0679 100.654 46.4142 104.938 43.3418L71.615 8.71284Z" fill="#D2A979"/>
<path d="M109.557 8.71284L109.223 8.36062C104.335 3.28223 97.8291 0.483742 90.9134 0.483742C85.5929 0.483742 80.5179 2.13738 76.2335 5.20985L109.557 39.8387L109.892 40.191C114.783 45.2694 121.285 48.0679 128.201 48.0679C133.521 48.0679 138.596 46.4142 142.881 43.3418L109.557 8.71284Z" fill="#D2A979"/>
<path d="M147.5 8.71284L147.165 8.36062C142.278 3.28223 135.771 0.483742 128.855 0.483742C123.536 0.483742 118.46 2.13738 114.175 5.20985L147.5 39.8387L147.834 40.191C152.725 45.2694 159.227 48.0679 166.143 48.0679C171.464 48.0679 176.538 46.4142 180.823 43.3418L147.5 8.71284Z" fill="#D2A979"/>
<path d="M185.442 8.71284L185.107 8.36062C180.22 3.28223 173.713 0.483742 166.798 0.483742C161.478 0.483742 156.403 2.13738 152.119 5.20985L185.442 39.8387L185.776 40.191C190.668 45.2694 197.169 48.0679 204.086 48.0679C209.406 48.0679 214.481 46.4142 218.765 43.3418L185.442 8.71284Z" fill="#D2A979"/>
<path d="M223.384 8.71284L223.049 8.36062C218.162 3.28223 211.655 0.483742 204.74 0.483742C199.42 0.483742 194.345 2.13738 190.061 5.20985L223.384 39.8387L223.719 40.191C228.61 45.2694 235.111 48.0679 242.028 48.0679C247.348 48.0679 252.423 46.4142 256.707 43.3418L223.384 8.71284Z" fill="#D2A979"/>
<path d="M261.327 8.71284L260.991 8.36062C256.105 3.28223 249.599 0.483742 242.682 0.483742C237.362 0.483742 232.287 2.13738 228.003 5.20985L261.327 39.8387L261.661 40.191C266.553 45.2694 273.055 48.0679 279.97 48.0679C285.29 48.0679 290.365 46.4142 294.649 43.3418L261.327 8.71284Z" fill="#D2A979"/>
<path d="M299.269 8.71284L298.934 8.36062C294.047 3.28223 287.541 0.483742 280.624 0.483742C275.304 0.483742 270.229 2.13738 265.945 5.20985L299.269 39.8387L299.603 40.191C304.495 45.2694 310.996 48.0679 317.912 48.0679C323.232 48.0679 328.307 46.4142 332.591 43.3418L299.269 8.71284Z" fill="#D2A979"/>
<path d="M337.211 8.71284L336.876 8.36062C331.989 3.28223 325.483 0.483742 318.567 0.483742C313.246 0.483742 308.172 2.13738 303.887 5.20985L337.211 39.8387L337.545 40.191C342.437 45.2694 348.939 48.0679 355.854 48.0679C361.174 48.0679 366.249 46.4142 370.534 43.3418L337.211 8.71284Z" fill="#D2A979"/>
<path d="M375.153 8.71284L374.818 8.36062C369.931 3.28223 363.425 0.483742 356.509 0.483742C351.189 0.483742 346.114 2.13738 341.83 5.20985L375.153 39.8387L375.487 40.191C380.379 45.2694 386.881 48.0679 393.796 48.0679C399.117 48.0679 404.192 46.4142 408.476 43.3418L375.153 8.71284Z" fill="#D2A979"/>
<path d="M413.095 8.71284L412.76 8.36062C407.873 3.28223 401.367 0.483742 394.451 0.483742C389.131 0.483742 384.056 2.13738 379.772 5.20985L413.095 39.8387L413.429 40.191C418.321 45.2694 424.823 48.0679 431.74 48.0679C437.059 48.0679 442.135 46.4142 446.419 43.3418L413.095 8.71284Z" fill="#D2A979"/>
<path d="M451.038 8.71284L450.703 8.36062C445.816 3.28223 439.309 0.483742 432.393 0.483742C427.074 0.483742 421.998 2.13738 417.714 5.20985L451.038 39.8387L451.373 40.191C456.263 45.2694 462.765 48.0679 469.682 48.0679C475.002 48.0679 480.077 46.4142 484.361 43.3418L451.038 8.71284Z" fill="#D2A979"/>
<path d="M488.981 8.71284L488.645 8.36062C483.759 3.28223 477.252 0.483742 470.336 0.483742C465.016 0.483742 459.94 2.13738 455.656 5.20985L488.981 39.8387L489.315 40.191C494.206 45.2694 500.708 48.0679 507.624 48.0679C512.944 48.0679 518.019 46.4142 522.303 43.3418L488.981 8.71284Z" fill="#D2A979"/>
<path d="M526.923 8.71284L526.588 8.36062C521.701 3.28223 515.194 0.483742 508.278 0.483742C502.958 0.483742 497.883 2.13738 493.599 5.20985L526.923 39.8387L527.257 40.191C532.149 45.2694 538.65 48.0679 545.566 48.0679C550.886 48.0679 555.961 46.4142 560.245 43.3418L526.923 8.71284Z" fill="#D2A979"/>
<path d="M564.865 8.71284L564.53 8.36062C559.643 3.28223 553.136 0.483742 546.221 0.483742C540.9 0.483742 535.826 2.13738 531.541 5.20985L564.865 39.8387L565.199 40.191C570.091 45.2694 576.592 48.0679 583.508 48.0679C588.828 48.0679 593.903 46.4142 598.188 43.3418L564.865 8.71284Z" fill="#D2A979"/>
<path d="M602.807 8.71284L602.472 8.36062C597.585 3.28223 591.079 0.483742 584.163 0.483742C578.843 0.483742 573.768 2.13738 569.484 5.20985L602.807 39.8387L603.141 40.191C608.033 45.2694 614.535 48.0679 621.45 48.0679C626.771 48.0679 631.845 46.4142 636.13 43.3418L602.807 8.71284Z" fill="#D2A979"/>
<path d="M640.749 8.71284L640.414 8.36062C635.527 3.28223 629.021 0.483742 622.105 0.483742C616.785 0.483742 611.71 2.13738 607.426 5.20985L640.749 39.8387L641.083 40.191C645.975 45.2694 652.476 48.0679 659.393 48.0679C664.713 48.0679 669.788 46.4142 674.072 43.3418L640.749 8.71284Z" fill="#D2A979"/>
<path d="M678.691 8.71284L678.356 8.36062C673.469 3.28223 666.963 0.483742 660.047 0.483742C654.727 0.483742 649.652 2.13738 645.368 5.20985L678.691 39.8387L679.026 40.191C683.917 45.2694 690.419 48.0679 697.335 48.0679C702.655 48.0679 707.731 46.4142 712.015 43.3418L678.691 8.71284Z" fill="#D2A979"/>
<path d="M716.634 8.71284L716.298 8.36062C711.412 3.28223 704.906 0.483742 697.989 0.483742C692.669 0.483742 687.594 2.13738 683.31 5.20985L716.634 39.8387L716.968 40.191C721.86 45.2694 728.362 48.0679 735.277 48.0679C740.597 48.0679 745.673 46.4142 749.957 43.3418L716.634 8.71284Z" fill="#D2A979"/>
<path d="M754.576 8.71284L754.241 8.36062C749.354 3.28223 742.848 0.483742 735.931 0.483742C730.611 0.483742 725.536 2.13738 721.252 5.20985L754.576 39.8387L754.91 40.191C759.802 45.2694 766.304 48.0679 773.22 48.0679C778.539 48.0679 783.615 46.4142 787.899 43.3418L754.576 8.71284Z" fill="#D2A979"/>
<path d="M792.518 8.71284L792.184 8.36062C787.296 3.28223 780.79 0.483742 773.874 0.483742C768.554 0.483742 763.479 2.13738 759.194 5.20985L792.518 39.8387L792.852 40.191C797.744 45.2694 804.246 48.0679 811.162 48.0679C816.482 48.0679 821.557 46.4142 825.842 43.3418L792.518 8.71284Z" fill="#D2A979"/>
<path d="M830.461 8.71284L830.126 8.36062C825.239 3.28223 818.732 0.483742 811.817 0.483742C806.497 0.483742 801.421 2.13738 797.136 5.20985L830.461 39.8387L830.795 40.191C835.686 45.2694 842.188 48.0679 849.104 48.0679C854.425 48.0679 859.499 46.4142 863.784 43.3418L830.461 8.71284Z" fill="#D2A979"/>
<path d="M868.403 8.71284L868.068 8.36062C863.181 3.28223 856.674 0.483742 849.759 0.483742C844.439 0.483742 839.364 2.13738 835.08 5.20985L868.403 39.8387L868.737 40.191C873.629 45.2694 880.13 48.0679 887.047 48.0679C892.367 48.0679 897.442 46.4142 901.726 43.3418L868.403 8.71284Z" fill="#D2A979"/>
<path d="M906.345 8.71284L906.01 8.36062C901.123 3.28223 894.617 0.483742 887.701 0.483742C882.381 0.483742 877.306 2.13738 873.022 5.20985L906.345 39.8387L906.68 40.191C911.571 45.2694 918.072 48.0679 924.989 48.0679C930.309 48.0679 935.384 46.4142 939.672 43.3418L906.345 8.71284Z" fill="#D2A979"/>
<path d="M944.292 8.71284L943.953 8.36062C939.07 3.28223 932.56 0.483742 925.643 0.483742C920.323 0.483742 915.248 2.13738 910.964 5.20985L944.292 39.8387L944.621 40.191C949.514 45.2694 956.016 48.0679 962.931 48.0679C968.247 48.0679 973.328 46.4142 977.609 43.3418L944.292 8.71284Z" fill="#D2A979"/>
<path d="M982.229 8.71284L981.891 8.36062C977.007 3.28223 970.506 0.483742 963.59 0.483742C958.264 0.483742 953.193 2.13738 948.902 5.20985L982.229 39.8387L982.568 40.191C987.451 45.2694 993.953 48.0679 1000.88 48.0679C1006.19 48.0679 1011.27 46.4142 1015.56 43.3418L982.229 8.71284Z" fill="#D2A979"/>
<path d="M1020.18 8.71284L1019.84 8.36062C1014.95 3.28223 1008.44 0.483742 1001.53 0.483742C996.211 0.483742 991.13 2.13738 986.849 5.20985L1020.18 39.8387L1020.51 40.191C1025.4 45.2694 1031.9 48.0679 1038.82 48.0679C1044.13 48.0679 1049.21 46.4142 1053.49 43.3418L1020.18 8.71284Z" fill="#D2A979"/>
<path d="M1058.11 8.71284L1057.77 8.36062C1052.89 3.28223 1046.39 0.483742 1039.47 0.483742C1034.15 0.483742 1029.08 2.13738 1024.79 5.20985L1058.11 39.8387L1058.45 40.191C1063.35 45.2694 1069.85 48.0679 1076.76 48.0679C1082.08 48.0679 1087.15 46.4142 1091.44 43.3418L1058.11 8.71284Z" fill="#D2A979"/>
<path d="M1096.06 8.71284L1095.72 8.36062C1090.84 3.28223 1084.33 0.483742 1077.41 0.483742C1072.1 0.483742 1067.01 2.13738 1062.73 5.20985L1096.06 39.8387L1096.39 40.191C1101.28 45.2694 1107.78 48.0679 1114.7 48.0679C1120.02 48.0679 1125.1 46.4142 1129.38 43.3418L1096.06 8.71284Z" fill="#D2A979"/>
<path d="M1134 8.71284L1133.67 8.36062C1128.78 3.28223 1122.27 0.483742 1115.36 0.483742C1110.03 0.483742 1104.96 2.13738 1100.67 5.20985L1134 39.8387L1134.34 40.191C1139.23 45.2694 1145.73 48.0679 1152.65 48.0679C1157.96 48.0679 1163.03 46.4142 1167.32 43.3418L1134 8.71284Z" fill="#D2A979"/>
<path d="M1171.94 8.71284L1171.61 8.36062C1166.72 3.28223 1160.21 0.483742 1153.3 0.483742C1147.98 0.483742 1142.9 2.13738 1138.62 5.20985L1171.94 39.8387L1172.27 40.191C1177.17 45.2694 1183.67 48.0679 1190.58 48.0679C1195.91 48.0679 1200.98 46.4142 1205.26 43.3418L1171.94 8.71284Z" fill="#D2A979"/>
<path d="M1209.88 8.71284L1209.55 8.36062C1204.66 3.28223 1198.16 0.483742 1191.24 0.483742C1185.92 0.483742 1180.85 2.13738 1176.56 5.20985L1209.88 39.8387L1210.22 40.191C1215.11 45.2694 1221.62 48.0679 1228.53 48.0679C1233.85 48.0679 1238.92 46.4142 1243.21 43.3418L1209.88 8.71284Z" fill="#D2A979"/>
<path d="M1247.83 8.71284L1247.49 8.36062C1242.61 3.28223 1236.1 0.483742 1229.18 0.483742C1223.86 0.483742 1218.78 2.13738 1214.5 5.20985L1247.83 39.8387L1248.16 40.191C1253.05 45.2694 1259.55 48.0679 1266.47 48.0679C1271.79 48.0679 1276.87 46.4142 1281.15 43.3418L1247.83 8.71284Z" fill="#D2A979"/>
<path d="M1285.77 8.71284L1285.44 8.36062C1280.54 3.28223 1274.04 0.483742 1267.13 0.483742C1261.8 0.483742 1256.73 2.13738 1252.45 5.20985L1285.77 39.8387L1286.11 40.191C1291 45.2694 1297.5 48.0679 1304.42 48.0679C1309.73 48.0679 1314.8 46.4142 1319.09 43.3418L1285.77 8.71284Z" fill="#D2A979"/>
<path d="M1323.71 8.71284L1323.37 8.36062C1318.49 3.28223 1311.98 0.483742 1305.06 0.483742C1299.75 0.483742 1294.67 2.13738 1290.39 5.20985L1323.71 39.8387L1324.04 40.191C1328.94 45.2694 1335.44 48.0679 1342.35 48.0679C1347.68 48.0679 1352.75 46.4142 1357.03 43.3418L1323.71 8.71284Z" fill="#D2A979"/>
<path d="M1361.65 8.71284L1361.32 8.36062C1356.43 3.28223 1349.93 0.483742 1343.01 0.483742C1337.69 0.483742 1332.61 2.13738 1328.33 5.20985L1361.65 39.8387L1361.99 40.191C1366.88 45.2694 1373.38 48.0679 1380.3 48.0679C1385.62 48.0679 1390.69 46.4142 1394.98 43.3418L1361.65 8.71284Z" fill="#D2A979"/>
<path d="M1399.6 8.71284L1399.26 8.36062C1394.38 3.28223 1387.86 0.483742 1380.95 0.483742C1375.63 0.483742 1370.55 2.13738 1366.27 5.20985L1399.6 39.8387L1399.93 40.191C1404.82 45.2694 1411.32 48.0679 1418.24 48.0679C1423.56 48.0679 1428.63 46.4142 1432.92 43.3418L1399.6 8.71284Z" fill="#D2A979"/>
<path d="M1437.53 8.71284L1437.21 8.36062C1432.31 3.28223 1425.81 0.483742 1418.9 0.483742C1413.57 0.483742 1408.5 2.13738 1404.22 5.20985L1437.53 39.8387L1437.87 40.191C1442.77 45.2694 1449.27 48.0679 1456.18 48.0679C1461.5 48.0679 1466.58 46.4142 1470.86 43.3418L1437.53 8.71284Z" fill="#D2A979"/>
<path d="M1475.48 8.71284L1475.14 8.36062C1470.26 3.28223 1463.75 0.483742 1456.83 0.483742C1451.52 0.483742 1446.44 2.13738 1442.15 5.20985L1475.48 39.8387L1475.81 40.191C1480.7 45.2694 1487.21 48.0679 1494.12 48.0679C1499.45 48.0679 1504.52 46.4142 1508.8 43.3418L1475.48 8.71284Z" fill="#D2A979"/>
<path d="M1513.42 8.71284L1513.09 8.36062C1508.2 3.28223 1501.7 0.483742 1494.78 0.483742C1489.45 0.483742 1484.38 2.13738 1480.1 5.20985L1513.42 39.8387L1513.76 40.191C1518.65 45.2694 1525.15 48.0679 1532.07 48.0679C1537.38 48.0679 1542.46 46.4142 1546.75 43.3418L1513.42 8.71284Z" fill="#D2A979"/>
<path d="M1551.37 8.71284L1551.03 8.36062C1546.14 3.28223 1539.63 0.483742 1532.72 0.483742C1527.4 0.483742 1522.32 2.13738 1518.04 5.20985L1551.37 39.8387L1551.7 40.191C1556.59 45.2694 1563.09 48.0679 1570.01 48.0679C1575.33 48.0679 1580.4 46.4142 1584.68 43.3418L1551.37 8.71284Z" fill="#D2A979"/>
<path d="M1589.3 8.71284L1588.97 8.36062C1584.08 3.28223 1577.58 0.483742 1570.66 0.483742C1565.34 0.483742 1560.27 2.13738 1555.99 5.20985L1589.3 39.8387L1589.64 40.191C1594.53 45.2694 1601.04 48.0679 1607.95 48.0679C1613.27 48.0679 1618.35 46.4142 1622.63 43.3418L1589.3 8.71284Z" fill="#D2A979"/>
<path d="M1627.25 8.71284L1626.91 8.36062C1622.03 3.28223 1615.52 0.483742 1608.6 0.483742C1603.29 0.483742 1598.21 2.13738 1593.92 5.20985L1627.25 39.8387L1627.58 40.191C1632.47 45.2694 1638.97 48.0679 1645.89 48.0679C1651.21 48.0679 1656.29 46.4142 1660.57 43.3418L1627.25 8.71284Z" fill="#D2A979"/>
<path d="M1665.19 8.71284L1664.86 8.36062C1659.97 3.28223 1653.46 0.483742 1646.55 0.483742C1641.22 0.483742 1636.15 2.13738 1631.87 5.20985L1665.19 39.8387L1665.53 40.191C1670.42 45.2694 1676.92 48.0679 1683.84 48.0679C1689.15 48.0679 1694.23 46.4142 1698.51 43.3418L1665.19 8.71284Z" fill="#D2A979"/>
<path d="M1703.13 8.71284L1702.8 8.36062C1697.91 3.28223 1691.4 0.483742 1684.49 0.483742C1679.17 0.483742 1674.1 2.13738 1669.81 5.20985L1703.13 39.8387L1703.46 40.191C1708.36 45.2694 1714.86 48.0679 1721.77 48.0679C1727.1 48.0679 1732.17 46.4142 1736.45 43.3418L1703.13 8.71284Z" fill="#D2A979"/>
<path d="M1741.07 8.71284L1740.74 8.36062C1735.85 3.28223 1729.35 0.483742 1722.43 0.483742C1717.11 0.483742 1712.04 2.13738 1707.75 5.20985L1741.07 39.8387L1741.41 40.191C1746.3 45.2694 1752.8 48.0679 1759.72 48.0679C1765.04 48.0679 1770.12 46.4142 1774.4 43.3418L1741.07 8.71284Z" fill="#D2A979"/>
<path d="M1779.02 8.71284L1778.68 8.36062C1773.8 3.28223 1767.29 0.483742 1760.37 0.483742C1755.05 0.483742 1749.98 2.13738 1745.69 5.20985L1779.02 39.8387L1779.35 40.191C1784.24 45.2694 1790.74 48.0679 1797.66 48.0679C1802.98 48.0679 1808.05 46.4142 1812.34 43.3418L1779.02 8.71284Z" fill="#D2A979"/>
<path d="M1816.96 8.71284L1816.63 8.36062C1811.73 3.28223 1805.23 0.483742 1798.32 0.483742C1793 0.483742 1787.92 2.13738 1783.64 5.20985L1816.96 39.8387L1817.29 40.191C1822.19 45.2694 1828.69 48.0679 1835.6 48.0679C1840.92 48.0679 1846 46.4142 1850.28 43.3418L1816.96 8.71284Z" fill="#D2A979"/>
<path d="M1854.9 8.71284L1854.56 8.36062C1849.68 3.28223 1843.17 0.483742 1836.25 0.483742C1830.94 0.483742 1825.87 2.13738 1821.58 5.20985L1854.9 39.8387L1855.23 40.191C1860.12 45.2694 1866.63 48.0679 1873.54 48.0679C1878.87 48.0679 1883.94 46.4142 1888.23 43.3418L1854.9 8.71284Z" fill="#D2A979"/>
<path d="M1892.84 8.71284L1892.51 8.36062C1887.62 3.28223 1881.12 0.483742 1874.2 0.483742C1868.88 0.483742 1863.8 2.13738 1859.52 5.20985L1892.84 39.8387L1893.18 40.191C1898.07 45.2694 1904.57 48.0679 1911.49 48.0679C1916.81 48.0679 1921.89 46.4142 1926.17 43.3418L1892.84 8.71284Z" fill="#D2A979"/>
<path d="M1930.79 8.71284L1930.45 8.36062C1925.56 3.28223 1919.05 0.483742 1912.14 0.483742C1906.82 0.483742 1901.75 2.13738 1897.46 5.20985L1930.79 39.8387L1931.13 40.191C1936.01 45.2694 1942.51 48.0679 1949.43 48.0679C1954.75 48.0679 1959.82 46.4142 1964.11 43.3418L1930.79 8.71284Z" fill="#D2A979"/>
<path d="M1968.73 8.71284L1968.4 8.36062C1963.51 3.28223 1957 0.483742 1950.09 0.483742C1944.77 0.483742 1939.69 2.13738 1935.41 5.20985L1968.73 39.8387L1969.06 40.191C1973.96 45.2694 1980.46 48.0679 1987.37 48.0679C1992.69 48.0679 1997.77 46.4142 2002.05 43.3418L1968.73 8.71284Z" fill="#D2A979"/>
<path d="M2006.67 8.71284L2006.33 8.36062C2001.45 3.28223 1994.95 0.483742 1988.03 0.483742C1982.71 0.483742 1977.64 2.13738 1973.34 5.20985L2006.67 39.8387L2007.01 40.191C2011.89 45.2694 2018.4 48.0679 2025.31 48.0679C2030.64 48.0679 2035.71 46.4142 2040 43.3418L2006.67 8.71284Z" fill="#D2A979"/>
<path d="M2044.62 8.71284L2044.28 8.36062C2039.4 3.28223 2032.88 0.483742 2025.97 0.483742C2020.65 0.483742 2015.57 2.13738 2011.29 5.20985L2044.62 39.8387L2044.95 40.191C2049.84 45.2694 2056.34 48.0679 2063.26 48.0679C2068.57 48.0679 2073.65 46.4142 2077.94 43.3418L2044.62 8.71284Z" fill="#D2A979"/>
</svg>
