<svg width="276" height="15" viewBox="0 0 276 15" fill="none" xmlns="http://www.w3.org/2000/svg">
<path d="M11.66 2.61002L11.53 2.72002L11.7 2.92001V2.97002V2.53001L11.66 2.61002ZM10.3 11.62L10.17 11.73L10.07 11.82C10.3581 12.103 10.6729 12.3575 11.01 12.58V12.2C10.6491 11.9621 10.314 11.6873 10.01 11.38L10.3 11.62Z" fill="#A4897A"/>
<path d="M16.91 3.07998L17.21 3.42997C18.58 4.96997 19.97 6.52998 21.38 8.04998L21.57 3.53997C19.92 1.88997 18.48 1.73998 16.91 3.07998ZM12 2.75997C14.53 5.75997 17.15 8.68997 19.83 11.62L20.19 12C20.4943 12.2981 20.8296 12.5629 21.19 12.79L21.38 8.50997C19.77 6.77997 18.19 4.99998 16.63 3.24998C15.07 1.49998 13.59 1.44997 12 2.75997ZM15.17 11.74C16.81 13.42 18.35 13.57 19.95 12.22L19.6 11.84C16.91 8.90997 14.27 5.94998 11.74 2.95998L11.4 7.44997L14.81 11.34L15.17 11.74ZM14.91 12L14.55 11.61L12.21 8.95998L11.37 7.95998L11.04 12.22C11.6003 12.663 12.3036 12.8853 13.0168 12.8447C13.7299 12.8042 14.4035 12.5037 14.91 12Z" fill="white"/>
<path d="M21.59 3.10005V3.09004H21.58L21.59 3.10005ZM21.47 3.18004L21.35 3.30005L21.53 3.49005V3.05005L21.47 3.18004ZM20.42 12.2401L20.29 12.3501L20.2 12.44C20.5051 12.717 20.8406 12.9586 21.2 13.16V12.79C20.8396 12.563 20.5044 12.2981 20.2 12L20.42 12.2401Z" fill="#A4897A"/>
<path d="M16.91 3.07998C18.48 1.73998 19.91 1.88998 21.53 3.48998L21.35 3.29998L21.47 3.17997L21.58 3.08997C20.9342 2.39471 20.0623 1.95166 19.12 1.83997C18.2007 1.83829 17.3174 2.19735 16.66 2.83997C16.8532 3.0237 17.0368 3.2173 17.21 3.41997L16.91 3.07998ZM16.66 2.84998L16.57 2.93998L16.44 3.04998L16.61 3.24998C18.17 4.99998 19.75 6.77997 21.36 8.50997V8.04998C19.95 6.52998 18.56 4.96997 17.19 3.42997C17.0233 3.22779 16.8464 3.03422 16.66 2.84998ZM15.17 11.74L15.38 11.98L15.25 12.09L15.14 12.18C15.8031 12.8939 16.7014 13.3448 17.67 13.45C18.6119 13.4615 19.5205 13.1023 20.2 12.45L19.95 12.23C18.35 13.57 16.81 13.42 15.17 11.74Z" fill="#A4897A"/>
<path d="M16.61 3.24995L16.44 3.04996L16.57 2.93996L16.66 2.84996C16.0361 2.14118 15.1762 1.68281 14.24 1.55995C13.7842 1.55587 13.3322 1.64216 12.9099 1.8138C12.4877 1.98544 12.1037 2.23903 11.78 2.55995L12.01 2.78995C13.59 1.44995 15 1.60995 16.61 3.24995Z" fill="#A4897A"/>
<path d="M20 12.22L20.25 12.44L20.34 12.35L20.47 12.24L20.25 12L19.89 11.62C17.21 8.69001 14.59 5.74001 12.06 2.76001L11.83 2.53001V2.95001C14.36 5.95001 17 8.90002 19.69 11.83L20 12.22ZM15.14 12.18C15.06 12.11 14.99 12.03 14.91 11.95C14.406 12.4566 13.7338 12.7609 13.0206 12.8051C12.3074 12.8493 11.6027 12.6305 11.04 12.19V12.57C11.5065 12.8973 12.052 13.0941 12.62 13.14C13.5532 13.1618 14.4578 12.8172 15.14 12.18ZM11.77 2.52002V2.53001H11.78L11.77 2.52002Z" fill="#A4897A"/>
<path d="M14.55 11.56L14.91 11.95C14.99 12.03 15.06 12.1099 15.14 12.1799L15.25 12.09L15.38 11.9799L15.17 11.74L14.81 11.34L11.4 7.44995V7.92995L12.24 8.92995L14.55 11.56Z" fill="#A4897A"/>
<path d="M26.77 3.49998L27.08 3.83998L31.36 8.36998L31.46 3.84999C29.77 2.21999 28.31 2.13998 26.77 3.49998ZM21.84 3.31999C24.47 6.22999 27.17 9.09999 29.91 11.96C30.03 12.1 30.16 12.22 30.28 12.34C30.5847 12.6318 30.92 12.89 31.28 13.11L31.37 8.82999C29.73 7.11999 28.1 5.40998 26.5 3.67998C24.9 1.94998 23.38 1.99999 21.84 3.31999ZM25.26 12.2C26.93 13.84 28.47 13.96 30.03 12.56L29.68 12.2C26.9333 9.33331 24.23 6.44332 21.57 3.52998L21.38 8.02998L24.89 11.82L25.26 12.2ZM25 12.42C24.88 12.31 24.75 12.18 24.63 12.05L22.22 9.45999L21.35 8.45999L21.16 12.72C21.7233 13.155 22.4282 13.3652 23.1378 13.3098C23.8474 13.2544 24.5111 12.9372 25 12.42Z" fill="white"/>
<path d="M31.47 3.41V3.39999L31.46 3.41H31.47ZM31.35 3.5L31.23 3.62L31.41 3.81V3.37C31.383 3.40976 31.3628 3.45368 31.35 3.5ZM30.5 12.57L30.38 12.69L30.28 12.78C30.5848 13.0516 30.9204 13.2866 31.28 13.48V13.11C30.92 12.89 30.5847 12.6319 30.28 12.34L30.5 12.57Z" fill="#A4897A"/>
<path d="M26.77 3.49997C28.31 2.13997 29.77 2.21997 31.41 3.80997L31.23 3.61996L31.35 3.49997C31.3816 3.46421 31.4187 3.43381 31.46 3.40997C30.8002 2.72089 29.9108 2.29752 28.96 2.21997C28.0384 2.23621 27.1608 2.61743 26.52 3.27997C26.719 3.4539 26.9061 3.64099 27.08 3.83997L26.77 3.49997Z" fill="#A4897A"/>
<path d="M26.52 3.28003L26.42 3.37003L26.3 3.48003L26.48 3.68002C28.08 5.41002 29.71 7.12003 31.35 8.83003V8.37003L27.07 3.84003C26.8993 3.64138 26.7155 3.4543 26.52 3.28003ZM25.26 12.2L25.48 12.43L25.35 12.55C25.3185 12.5858 25.2813 12.6162 25.24 12.64C25.9159 13.3398 26.8211 13.7728 27.79 13.86C28.7291 13.8387 29.6227 13.4511 30.28 12.78C30.1918 12.7124 30.1083 12.6389 30.03 12.56C28.47 14 26.93 13.84 25.26 12.2Z" fill="#A4897A"/>
<path d="M26.48 3.68005L26.3 3.48006L26.42 3.37006L26.52 3.28006C25.87 2.58429 24.9879 2.15035 24.04 2.06006C23.1274 2.06254 22.2519 2.42137 21.6 3.06006L21.84 3.29005C23.38 2.00005 24.85 2.08005 26.48 3.68005ZM30 12.5601C30.0783 12.639 30.1618 12.7125 30.25 12.7801L30.35 12.6901L30.47 12.5701L30.25 12.3401C30.13 12.2201 30 12.1001 29.88 11.9601C27.14 9.10007 24.44 6.23007 21.81 3.32007L21.57 3.09006V3.52007C24.2367 6.42673 26.94 9.31673 29.68 12.1901L30 12.5601ZM25.24 12.6401C25.1585 12.5719 25.0817 12.4984 25.01 12.4201C24.5277 12.9448 23.8673 13.2713 23.1575 13.336C22.4477 13.4007 21.7393 13.199 21.17 12.7701V13.1501C21.6456 13.4606 22.1932 13.6432 22.76 13.6801C23.222 13.6816 23.6795 13.5903 24.1055 13.4117C24.5315 13.233 24.9173 12.9706 25.24 12.6401ZM21.59 3.09006V3.10007L21.6 3.09006H21.59Z" fill="#A4897A"/>
<path d="M24.64 12.05C24.76 12.18 24.89 12.31 25.01 12.42C25.0817 12.4984 25.1585 12.5719 25.24 12.64C25.2813 12.6162 25.3185 12.5858 25.35 12.55L25.48 12.43L25.26 12.2L24.89 11.82L21.38 8V8.48L22.25 9.48L24.64 12.05Z" fill="#A4897A"/>
<path d="M36.67 3.70998L36.99 4.04998L41.35 8.48998V3.97997C39.65 2.38997 38.18 2.30998 36.67 3.70998ZM31.72 3.62998C34.43 6.47998 37.17 9.29997 39.96 12.12L40.33 12.49C40.6353 12.7753 40.9706 13.0268 41.33 13.24V8.95998L36.33 3.88998C34.72 2.31998 33.24 2.24998 31.72 3.62998ZM35.32 12.44C37.03 14.05 38.55 14.13 40.09 12.72L39.73 12.35C36.93 9.52998 34.1733 6.69331 31.46 3.83997L31.36 8.34998L34.95 12.06L35.32 12.44ZM35.07 12.66C34.95 12.55 34.82 12.43 34.7 12.3L32.25 9.75997L31.35 8.82998L31.26 13.09C31.8348 13.505 32.5436 13.691 33.2481 13.6115C33.9526 13.5319 34.6022 13.1927 35.07 12.66Z" fill="white"/>
<path d="M41.26 3.63L41.14 3.75L41.32 3.94V3.5C41.293 3.53977 41.2728 3.58369 41.26 3.63ZM40.56 12.72L40.44 12.84L40.34 12.93C40.6479 13.192 40.9832 13.42 41.34 13.61V13.24C40.9806 13.0268 40.6453 12.7754 40.34 12.49L40.56 12.72Z" fill="#A4897A"/>
<path d="M36.67 3.71001C38.18 2.31001 39.67 2.39 41.32 3.94L41.14 3.75L41.26 3.63C41.2916 3.59424 41.3287 3.56383 41.37 3.53999C40.6927 2.86293 39.795 2.45134 38.84 2.38C37.9176 2.42464 37.0476 2.82203 36.41 3.49001C36.6132 3.66618 36.8068 3.85311 36.99 4.05L36.67 3.71001Z" fill="#A4897A"/>
<path d="M36.41 3.48999L36.32 3.58998L36.2 3.70999L36.38 3.88998L41.38 8.95999V8.48999L37 4.04999C36.8136 3.85283 36.6166 3.66589 36.41 3.48999ZM35.32 12.44L35.54 12.67L35.42 12.79L35.31 12.88C35.9975 13.5658 36.9109 13.9781 37.88 14.04C38.3429 14.0259 38.7984 13.9206 39.2206 13.7301C39.6427 13.5396 40.0232 13.2677 40.34 12.93C40.26 12.86 40.17 12.8 40.09 12.72C38.55 14.13 37 14.05 35.32 12.44Z" fill="#A4897A"/>
<path d="M36.38 3.89006L36.2 3.71007L36.32 3.59006L36.41 3.49007C35.7488 2.80604 34.8588 2.38953 33.91 2.32007C32.9862 2.3538 32.1115 2.74453 31.47 3.41006L31.72 3.63007C33.24 2.25007 34.72 2.32006 36.38 3.89006ZM31.35 8.82007V8.83006L32.25 9.76006L31.35 8.82007ZM40.09 12.7201C40.17 12.8001 40.26 12.8601 40.34 12.9301L40.44 12.8401L40.56 12.7201L40.33 12.4901L39.96 12.1201C37.17 9.30006 34.43 6.48007 31.72 3.63007L31.47 3.41006V3.84006C34.1833 6.70006 36.94 9.53673 39.74 12.3501L40.09 12.7201ZM35.31 12.8801L35.07 12.6601C34.6022 13.1928 33.9526 13.532 33.2481 13.6115C32.5436 13.6911 31.8348 13.5051 31.26 13.0901V13.4701C31.7404 13.7738 32.2921 13.9462 32.86 13.9701C33.3202 13.9594 33.7737 13.8576 34.1942 13.6705C34.6148 13.4834 34.994 13.2148 35.31 12.8801Z" fill="#A4897A"/>
<path d="M34.7 12.3C34.82 12.43 34.95 12.55 35.07 12.66L35.31 12.88L35.42 12.79L35.54 12.67L35.32 12.44L34.95 12.06L31.36 8.34998V8.81998L32.26 9.75996L34.7 12.3Z" fill="#A4897A"/>
<path d="M46.59 3.75002L46.9 4.08002L51.34 8.46002L51.28 3.95002C49.54 2.38002 48.07 2.33002 46.59 3.75002ZM41.63 3.75002C44.3833 6.56335 47.1767 9.34669 50.01 12.1C50.1257 12.2308 50.2493 12.3543 50.38 12.47C50.6875 12.7499 51.0225 12.9978 51.38 13.21V8.93001L46.38 3.93001C44.61 2.40001 43.13 2.35002 41.63 3.75002ZM45.37 12.5C47.1 14.09 48.63 14.15 50.15 12.7L49.78 12.35C46.94 9.57002 44.1367 6.77669 41.37 3.97002V8.48001L45.01 12.13L45.37 12.5ZM45.13 12.73C45.01 12.62 44.87 12.5 44.75 12.37L42.26 9.87001L41.35 8.96002V13.22C41.9301 13.6173 42.6362 13.7869 43.3335 13.6965C44.0308 13.6061 44.6703 13.262 45.13 12.73Z" fill="white"/>
<path d="M51.28 3.50996V3.49997H51.27L51.28 3.50996ZM51.17 3.59998L51.05 3.71997L51.24 3.90997V3.46997C51.209 3.50871 51.1853 3.55276 51.17 3.59998ZM50.61 12.7L50.5 12.82L50.4 12.91C50.706 13.1717 51.0416 13.3966 51.4 13.58V13.21C51.0425 12.9977 50.7075 12.7498 50.4 12.47L50.61 12.7Z" fill="#A4897A"/>
<path d="M46.59 3.75003C48.07 2.33003 49.54 2.38003 51.24 3.91003L51.05 3.72003L51.17 3.60004C51.1981 3.56474 51.232 3.53431 51.27 3.51003C50.5868 2.84303 49.6836 2.44833 48.73 2.40002C47.8077 2.4472 46.9415 2.85696 46.32 3.54002C46.523 3.70936 46.7166 3.88964 46.9 4.08003L46.59 3.75003Z" fill="#A4897A"/>
<path d="M46.32 3.54004L46.23 3.63005L46.11 3.76004L46.3 3.94005L51.3 8.94005V8.47005L46.86 4.09004C46.6898 3.8973 46.5096 3.71371 46.32 3.54004ZM45.37 12.5L45.6 12.73L45.48 12.8501C45.4484 12.8858 45.4113 12.9162 45.37 12.94C46.0646 13.6171 46.9815 14.0186 47.95 14.0701C48.8872 14.0195 49.767 13.6029 50.4 12.91C50.3119 12.846 50.2283 12.7758 50.15 12.7C48.63 14.15 47.1 14.09 45.37 12.5Z" fill="#A4897A"/>
<path d="M46.3 3.94003L46.11 3.76003L46.23 3.63004L46.32 3.54002C45.6476 2.86625 44.7504 2.46396 43.8 2.41003C42.8759 2.45309 42.0062 2.85918 41.38 3.54002L41.63 3.75003C43.13 2.35003 44.61 2.40003 46.3 3.94003ZM41.35 8.95003V8.96004L42.26 9.87003L41.35 8.95003Z" fill="#A4897A"/>
<path d="M50.15 12.7C50.2283 12.7758 50.3119 12.846 50.4 12.91L50.5 12.82L50.61 12.7L50.38 12.47C50.2493 12.3543 50.1257 12.2308 50.01 12.1C47.17 9.34004 44.3767 6.5567 41.63 3.75003L41.38 3.54002V4.00003C44.1467 6.81336 46.95 9.6067 49.79 12.38L50.15 12.7ZM45.37 12.94C45.2851 12.8758 45.2049 12.8056 45.13 12.73C44.6695 13.2674 44.026 13.6149 43.3242 13.7054C42.6223 13.7959 41.9118 13.623 41.33 13.22V13.6C41.8151 13.8906 42.365 14.0556 42.93 14.08C43.8618 14.0363 44.7386 13.6267 45.37 12.94ZM41.37 3.53003V3.54002L41.38 3.53003H41.37Z" fill="#A4897A"/>
<path d="M44.75 12.37C44.87 12.5 45.01 12.62 45.13 12.73C45.2049 12.8056 45.2851 12.8758 45.37 12.94C45.4113 12.9161 45.4484 12.8858 45.48 12.85L45.6 12.73L45.37 12.5L44.99 12.13L41.35 8.47998V8.99998L42.26 9.91998L44.75 12.37Z" fill="#A4897A"/>
<path d="M56.54 3.67995L56.86 4.01996L61.32 8.42995V3.91995C59.52 2.31995 58 2.26995 56.54 3.67995ZM51.54 3.71996C54.36 6.44996 57.18 9.27996 59.99 12.05C60.11 12.19 60.25 12.3099 60.37 12.4299C60.6753 12.7124 61.0107 12.9605 61.37 13.17V8.88995L56.3 3.88995C55.6543 3.21938 54.795 2.79501 53.87 2.68996C53.4304 2.6842 52.9948 2.77322 52.5927 2.95096C52.1906 3.1287 51.8316 3.39098 51.54 3.71996ZM55.39 12.4299C57.12 14.0099 58.63 14.0799 60.13 12.6499L59.77 12.2899L51.28 3.93996L51.34 8.43996L53.19 10.24L55.01 12.05C55.13 12.19 55.27 12.3099 55.39 12.4299ZM55.15 12.6499C55.0169 12.5404 54.8931 12.42 54.78 12.2899C54.36 11.8799 53.92 11.46 53.54 11.05L52.27 9.82996L51.34 8.91995V13.19C51.9291 13.5802 52.6397 13.7437 53.34 13.6499C54.0303 13.5065 54.6612 13.158 55.15 12.6499Z" fill="white"/>
<path d="M61.27 3.47005V3.46005L61.26 3.47005H61.27ZM61.16 3.56004L61.04 3.68004L61.23 3.87004V3.42004L61.16 3.56004ZM60.6 12.65L60.48 12.7701L60.38 12.87C60.6924 13.1261 61.027 13.3537 61.38 13.55V13.17C61.0207 12.9606 60.6853 12.7125 60.38 12.43L60.6 12.65Z" fill="#A4897A"/>
<path d="M56.54 3.67996C58.03 2.26996 59.54 2.31996 61.23 3.86996L61.04 3.67996L61.16 3.55997L61.26 3.46997C60.5706 2.79737 59.6616 2.39613 58.7 2.33997C57.7724 2.38042 56.8987 2.78674 56.27 3.46997C56.4765 3.64246 56.6735 3.82606 56.86 4.01997L56.54 3.67996Z" fill="#A4897A"/>
<path d="M56.27 3.46997L56.18 3.55997L56.06 3.67996L56.25 3.86996L61.32 8.86996V8.40997L56.86 3.99997C56.6729 3.8129 56.476 3.63598 56.27 3.46997ZM55.39 12.43L55.62 12.65L55.5 12.77L55.39 12.87C56.0922 13.5537 57.0209 13.9558 58 14C58.9241 13.9569 59.7937 13.5508 60.42 12.87L60.17 12.65C58.63 14.08 57.12 14 55.39 12.43Z" fill="#A4897A"/>
<path d="M56.25 3.86996L56.06 3.67996L56.18 3.55997L56.27 3.46997C55.5853 2.79039 54.6735 2.38792 53.71 2.33997C53.2488 2.36256 52.7967 2.47781 52.381 2.67882C51.9652 2.87983 51.5942 3.16249 51.29 3.50996L51.54 3.71997C51.8242 3.3937 52.1744 3.13142 52.5674 2.95042C52.9604 2.76943 53.3873 2.67384 53.82 2.66997C54.745 2.77502 55.6043 3.19939 56.25 3.86996ZM51.34 8.91997V8.92996L52.27 9.82997L51.34 8.91997ZM60.13 12.65L60.38 12.87L60.48 12.77L60.6 12.65L60.37 12.43C60.25 12.31 60.11 12.19 59.99 12.05C57.18 9.27997 54.36 6.44997 51.54 3.71997L51.29 3.50996V3.93997L59.78 12.29L60.13 12.65ZM55.39 12.87L55.15 12.65C54.6639 13.1562 54.0367 13.5047 53.35 13.65C52.6496 13.7437 51.939 13.5802 51.35 13.19V13.57C51.8535 13.8537 52.4221 14.0018 53 14C53.2055 13.9937 53.4098 13.9669 53.61 13.92C53.78 13.86 53.98 13.79 54.19 13.7C54.6347 13.4942 55.0406 13.2134 55.39 12.87ZM51.28 3.49997V3.50996L51.29 3.49997H51.28Z" fill="#A4897A"/>
<path d="M54.78 12.2899C54.8931 12.42 55.0169 12.5404 55.15 12.6499L55.39 12.8699L55.5 12.7699L55.62 12.6499L55.39 12.4299C55.27 12.3099 55.13 12.1899 55.01 12.0499L53.19 10.2399L51.34 8.43994V8.91994L52.27 9.82994L53.54 11.0499C53.92 11.4599 54.36 11.8799 54.78 12.2899Z" fill="#A4897A"/>
<path d="M66.53 3.68003L66.85 4.02004L71.3 8.43003V3.92003C69.51 2.32003 68 2.27003 66.53 3.68003ZM61.53 3.68003L69.97 12.05C70.09 12.19 70.23 12.31 70.35 12.43C70.6553 12.7124 70.9906 12.9606 71.35 13.17V8.89004L66.27 3.89004C64.53 2.32004 63 2.27003 61.53 3.68003ZM65.37 12.43C67.1 14.01 68.61 14.08 70.11 12.65L69.75 12.29L61.28 3.90003V8.41004L64.96 12.05C65.12 12.19 65.25 12.31 65.37 12.43ZM65.13 12.65C64.9969 12.5405 64.8731 12.4201 64.76 12.29L62.24 9.80004L61.32 8.89004V13.16C61.901 13.575 62.6182 13.7531 63.3259 13.6584C64.0335 13.5637 64.6786 13.2032 65.13 12.65Z" fill="white"/>
<path d="M71.26 3.47005V3.46005L71.25 3.47005H71.26ZM71.14 3.56004L71.03 3.68004L71.21 3.87004V3.42004L71.14 3.56004ZM70.58 12.65L70.46 12.7701L70.37 12.87C70.6779 13.1321 71.0131 13.3601 71.37 13.55V13.17C71.0107 12.9606 70.6753 12.7125 70.37 12.43L70.58 12.65Z" fill="#A4897A"/>
<path d="M66.53 3.67996C68.02 2.26996 69.53 2.31996 71.21 3.86996L71.03 3.67996L71.14 3.55997L71.25 3.46997C70.558 2.79517 69.645 2.39376 68.68 2.33997C67.7554 2.38086 66.8849 2.78733 66.26 3.46997C66.4665 3.64246 66.6634 3.82606 66.85 4.01997L66.53 3.67996Z" fill="#A4897A"/>
<path d="M66.26 3.46997L66.17 3.55997L66.05 3.67996L66.23 3.86996L71.31 8.86996V8.40997L66.85 3.99997C66.6629 3.8129 66.466 3.63598 66.26 3.46997ZM65.37 12.43L65.6 12.65L65.48 12.77L65.38 12.87C66.0695 13.5426 66.9785 13.9438 67.94 14C68.8665 13.9552 69.7387 13.5496 70.37 12.87C70.29 12.8 70.19 12.73 70.11 12.65C68.61 14.08 67.1 14 65.37 12.43Z" fill="#A4897A"/>
<path d="M66.23 3.86996L66.05 3.67996L66.17 3.55997L66.26 3.46997C65.5706 2.79737 64.6616 2.39613 63.7 2.33997C62.7754 2.38086 61.905 2.78733 61.28 3.46997L61.53 3.67996C63 2.26996 64.53 2.31996 66.23 3.86996ZM70.11 12.65C70.19 12.73 70.29 12.8 70.37 12.87L70.46 12.77L70.58 12.65L70.35 12.43C70.23 12.31 70.09 12.19 69.97 12.05L61.53 3.67996L61.28 3.46997V3.88997L69.75 12.28L70.11 12.65ZM65.38 12.87L65.13 12.65C64.6804 13.1895 64.045 13.541 63.3491 13.6354C62.6531 13.7298 61.9471 13.5602 61.37 13.16V13.54C61.8637 13.8333 62.4258 13.992 63 14C63.9113 13.9519 64.7667 13.5458 65.38 12.87ZM61.27 3.45998V3.46997H61.28L61.27 3.45998Z" fill="#A4897A"/>
<path d="M64.76 12.29C64.8731 12.4201 64.9969 12.5405 65.13 12.65L65.38 12.87L65.48 12.77L65.6 12.65L65.37 12.43C65.25 12.31 65.12 12.19 65 12.05L61.32 8.41003V8.89003L62.24 9.80003L64.76 12.29Z" fill="#A4897A"/>
<path d="M76.51 3.68003L76.83 4.02004L81.29 8.43003V3.92003C79.49 2.32003 78 2.27003 76.51 3.68003ZM71.52 3.68003L79.95 12.05L80.33 12.43C80.6354 12.7124 80.9707 12.9606 81.33 13.17V8.89004L76.26 3.89004C74.51 2.32004 73 2.27003 71.52 3.68003ZM75.35 12.43C77.08 14.01 78.59 14.08 80.09 12.65L79.73 12.29L71.26 3.90003V8.41004L74.94 12.05C75.1 12.19 75.23 12.31 75.35 12.43ZM75.12 12.65C74.9813 12.5434 74.854 12.4227 74.74 12.29L72.23 9.80004L71.31 8.89004V13.16C71.8918 13.5726 72.6084 13.7494 73.3154 13.6548C74.0223 13.5601 74.6672 13.2011 75.12 12.65Z" fill="white"/>
<path d="M81.13 3.56004L81.01 3.68004L81.2 3.87004V3.42004L81.13 3.56004ZM80.56 12.65L80.44 12.78L80.35 12.87C80.6578 13.1321 80.9931 13.3601 81.35 13.55V13.17C80.9906 12.9606 80.6553 12.7125 80.35 12.43L80.56 12.65Z" fill="#A4897A"/>
<path d="M76.51 3.67996C78 2.26996 79.51 2.31996 81.2 3.86996L81.01 3.67996L81.13 3.55997L81.24 3.46997C80.548 2.79517 79.635 2.39376 78.67 2.33997C77.7424 2.38042 76.8687 2.78674 76.24 3.46997C76.4465 3.64246 76.6435 3.82606 76.83 4.01997L76.51 3.67996Z" fill="#A4897A"/>
<path d="M76.24 3.46997L76.15 3.55997L76.03 3.67996L76.22 3.86996L81.29 8.86996V8.40997L76.83 3.99997C76.643 3.8129 76.446 3.63598 76.24 3.46997ZM75.35 12.43L75.58 12.65L75.46 12.78L75.36 12.87C76.0494 13.5426 76.9584 13.9438 77.92 14C78.8465 13.9552 79.7187 13.5496 80.35 12.87C80.27 12.8 80.17 12.73 80.09 12.65C78.59 14.08 77.08 14 75.35 12.43Z" fill="#A4897A"/>
<path d="M76.22 3.86996L76.03 3.67996L76.15 3.55997L76.24 3.46997C75.5531 2.79956 74.648 2.39849 73.69 2.33997C72.7624 2.38042 71.8887 2.78674 71.26 3.46997L71.52 3.67996C73 2.26996 74.51 2.31996 76.22 3.86996Z" fill="#A4897A"/>
<path d="M80.09 12.6499C80.17 12.7299 80.27 12.7999 80.35 12.8699L80.44 12.78L80.56 12.6499L80.33 12.4299L79.95 12.05L71.52 3.67995L71.26 3.46996V3.88995L79.73 12.28L80.09 12.6499ZM75.36 12.8699L75.12 12.6499C74.6686 13.1902 74.0315 13.5421 73.3339 13.6364C72.6363 13.7308 71.9286 13.5608 71.35 13.16V13.5399C71.8349 13.8283 72.386 13.9868 72.95 14C73.4064 13.98 73.8544 13.8699 74.268 13.676C74.6816 13.482 75.0528 13.2081 75.36 12.8699Z" fill="#A4897A"/>
<path d="M74.74 12.29C74.854 12.4227 74.9813 12.5434 75.12 12.65L75.36 12.87L75.46 12.78L75.58 12.65L75.35 12.43C75.23 12.31 75.1 12.19 74.98 12.05L71.3 8.41003V8.89003L72.22 9.80003L74.74 12.29Z" fill="#A4897A"/>
<path d="M86.5 3.68003L86.82 4.02004L91.27 8.43003V3.92003H91.22C89.48 2.32003 88 2.27003 86.5 3.68003ZM81.5 3.68003L89.94 12.06C90.06 12.19 90.19 12.31 90.31 12.43C90.6153 12.7124 90.9507 12.9606 91.31 13.17V8.89004L86.24 3.89004C84.5 2.32004 83 2.27003 81.5 3.68003ZM85.33 12.43C87.06 14.01 88.57 14.08 90.07 12.65L89.71 12.29L81.25 3.90003V8.41004L84.92 12.05C85.08 12.19 85.21 12.31 85.33 12.43ZM85.1 12.65C84.9635 12.5408 84.8364 12.4204 84.72 12.29L82.21 9.80004L81.29 8.89004V13.16C81.8718 13.5726 82.5884 13.7494 83.2953 13.6548C84.0023 13.5601 84.6471 13.2011 85.1 12.65Z" fill="white"/>
<path d="M91.23 3.46996V3.45996L91.22 3.46996H91.23Z" fill="#A4897A"/>
<path d="M91.12 3.56004L91 3.68004L91.18 3.87004H91.23V3.42004C91.1839 3.45853 91.1465 3.50621 91.12 3.56004ZM90.54 12.65L90.42 12.78L90.33 12.87C90.6379 13.1321 90.9732 13.3601 91.33 13.55V13.17C90.9707 12.9606 90.6354 12.7125 90.33 12.43L90.54 12.65Z" fill="#A4897A"/>
<path d="M86.5 3.67996C87.99 2.26996 89.5 2.31996 91.18 3.86996L91 3.67996L91.12 3.55997C91.1484 3.52491 91.1821 3.49454 91.22 3.46997C90.528 2.79517 89.6151 2.39376 88.65 2.33997C87.726 2.38302 86.8562 2.78913 86.23 3.46997C86.4365 3.64246 86.6335 3.82606 86.82 4.01997L86.5 3.67996Z" fill="#A4897A"/>
<path d="M86.23 3.46997L86.14 3.55997L86.02 3.67996L86.2 3.86996L91.27 8.86996V8.40997L86.82 3.99997C86.6329 3.8129 86.436 3.63598 86.23 3.46997ZM85.33 12.43L85.56 12.65L85.44 12.78L85.34 12.87C86.0295 13.5426 86.9385 13.9438 87.9 14C88.8265 13.9552 89.6988 13.5496 90.33 12.87C90.25 12.8 90.15 12.73 90.07 12.65C88.57 14.08 87.06 14 85.33 12.43Z" fill="#A4897A"/>
<path d="M86.2 3.86996L86.02 3.67996L86.14 3.55997L86.23 3.46997C85.5431 2.79956 84.638 2.39849 83.68 2.33997C82.7524 2.38042 81.8787 2.78674 81.25 3.46997L81.5 3.67996C83 2.26996 84.5 2.31996 86.2 3.86996ZM90.07 12.65C90.15 12.73 90.25 12.8 90.33 12.87L90.42 12.78L90.54 12.65L90.31 12.43C90.19 12.31 90.06 12.19 89.94 12.06L81.5 3.67996L81.25 3.46997V3.88997L89.71 12.28L90.07 12.65ZM85.34 12.87L85.1 12.65C84.6486 13.1902 84.0116 13.5421 83.314 13.6364C82.6164 13.7308 81.9087 13.5609 81.33 13.16V13.54C81.8149 13.8283 82.366 13.9868 82.93 14C83.3864 13.98 83.8343 13.8699 84.248 13.676C84.6616 13.482 85.0328 13.2081 85.34 12.87ZM81.24 3.45998V3.46997H81.25L81.24 3.45998Z" fill="#A4897A"/>
<path d="M84.72 12.29C84.8364 12.4204 84.9635 12.5408 85.1 12.65L85.34 12.87L85.44 12.78L85.56 12.65L85.33 12.43C85.21 12.31 85.08 12.19 84.96 12.05L81.29 8.41003V8.89003L82.21 9.80003L84.72 12.29Z" fill="#A4897A"/>
<path d="M96.48 3.68003L96.8 4.02004L101.25 8.43003V3.92003H101.2C99.47 2.32003 98 2.27003 96.48 3.68003ZM91.49 3.68003L99.92 12.06L100.29 12.43C100.595 12.7124 100.931 12.9606 101.29 13.17V8.89004L96.22 3.89004C94.49 2.32004 93 2.27003 91.49 3.68003ZM95.32 12.43C97.05 14.01 98.55 14.08 100.05 12.66L99.69 12.29L91.23 3.90003V8.41004L94.9 12.06C95.06 12.19 95.19 12.31 95.32 12.43ZM95.08 12.66C94.946 12.5445 94.8191 12.421 94.7 12.29L92.19 9.80004L91.27 8.89004V13.16C91.8515 13.5715 92.5667 13.7485 93.2729 13.6558C93.9791 13.5631 94.6244 13.2076 95.08 12.66Z" fill="white"/>
<path d="M101.1 3.56004L100.98 3.68004L101.17 3.87004H101.22V3.42004L101.1 3.56004ZM100.52 12.66L100.4 12.78L100.31 12.87C100.618 13.1321 100.953 13.3601 101.31 13.55V13.17C100.951 12.9606 100.615 12.7125 100.31 12.43L100.52 12.66Z" fill="#A4897A"/>
<path d="M96.48 3.67996C97.97 2.26996 99.48 2.31996 101.17 3.86996L100.98 3.67996L101.1 3.55997L101.21 3.46997C100.518 2.79517 99.6051 2.39376 98.64 2.33997C97.7124 2.38042 96.8387 2.78674 96.21 3.46997C96.4165 3.64246 96.6135 3.82606 96.8 4.01997L96.48 3.67996Z" fill="#A4897A"/>
<path d="M96.21 3.46997L96.12 3.55997L96 3.67996L96.19 3.86996L101.26 8.86996V8.40997L96.8 3.99997C96.6129 3.8129 96.416 3.63598 96.21 3.46997ZM95.32 12.43L95.54 12.66L95.42 12.78C95.3916 12.815 95.3579 12.8454 95.32 12.87C96.0095 13.5426 96.9185 13.9438 97.88 14C98.8065 13.9552 99.6787 13.5496 100.31 12.87L100.05 12.66C98.55 14.08 97.05 14 95.32 12.43Z" fill="#A4897A"/>
<path d="M96.19 3.86996L96 3.67996L96.12 3.55997L96.21 3.46997C95.5262 2.79498 94.6193 2.39311 93.66 2.33997C92.7324 2.38042 91.8586 2.78674 91.23 3.46997L91.49 3.67996C93 2.26996 94.49 2.31996 96.19 3.86996ZM100.05 12.66L100.31 12.87L100.4 12.78L100.52 12.66L100.29 12.43L99.92 12.06L91.49 3.67996L91.23 3.46997V3.88997L99.69 12.28L100.05 12.66ZM95.32 12.87L95.08 12.66C94.626 13.1967 93.9884 13.5452 93.2915 13.6376C92.5946 13.73 91.8882 13.5598 91.31 13.16V13.54C91.7949 13.8283 92.346 13.9868 92.91 14C93.3664 13.98 93.8144 13.8699 94.228 13.676C94.6417 13.482 95.0128 13.2081 95.32 12.87Z" fill="#A4897A"/>
<path d="M94.7 12.29C94.8191 12.421 94.946 12.5445 95.08 12.66L95.32 12.87C95.3579 12.8455 95.3916 12.8151 95.42 12.78L95.54 12.66L95.32 12.43C95.19 12.31 95.06 12.19 94.94 12.06L91.27 8.41003V8.89003L92.19 9.80003L94.7 12.29Z" fill="#A4897A"/>
<path d="M106.47 3.68003L106.79 4.02004L111.24 8.43003V3.92003H111.19C109.45 2.32003 108 2.27003 106.47 3.68003ZM101.47 3.68003L109.9 12.06L110.27 12.43C110.577 12.7101 110.912 12.9581 111.27 13.17V8.89004L106.21 3.89004C104.47 2.32004 103 2.27003 101.47 3.68003ZM105.3 12.43C107.03 14.02 108.53 14.08 110.04 12.66L109.67 12.3L101.22 3.90003V8.41004L104.89 12.06C105 12.19 105.18 12.31 105.3 12.43ZM105.06 12.66C104.94 12.55 104.8 12.43 104.68 12.3L102.18 9.80004L101.26 8.89004V13.16C101.841 13.5685 102.554 13.7439 103.258 13.6513C103.961 13.5586 104.605 13.2048 105.06 12.66Z" fill="white"/>
<path d="M111.2 3.46996V3.45996L111.19 3.46996H111.2Z" fill="#A4897A"/>
<path d="M111.09 3.56004L110.97 3.68004L111.15 3.87004H111.2V3.42004L111.09 3.56004ZM110.5 12.66L110.38 12.78L110.29 12.87C110.598 13.1321 110.933 13.3601 111.29 13.55V13.17C110.932 12.9581 110.597 12.7101 110.29 12.43L110.5 12.66Z" fill="#A4897A"/>
<path d="M106.47 3.67996C107.96 2.26996 109.47 2.31996 111.15 3.86996L110.97 3.67996L111.09 3.55997L111.19 3.46997C110.501 2.79737 109.592 2.39613 108.63 2.33997C107.702 2.38042 106.829 2.78674 106.2 3.46997C106.407 3.64246 106.603 3.82606 106.79 4.01997L106.47 3.67996Z" fill="#A4897A"/>
<path d="M106.2 3.46997L106.11 3.55997L105.99 3.67996L106.18 3.86996L111.24 8.86996V8.40997L106.79 3.99997C106.603 3.8129 106.406 3.63598 106.2 3.46997ZM105.3 12.43L105.52 12.66L105.41 12.78L105.3 12.87C105.989 13.5426 106.898 13.9438 107.86 14C108.787 13.9552 109.659 13.5496 110.29 12.87C110.21 12.8 110.12 12.74 110.04 12.66C108.53 14.08 107 14 105.3 12.43Z" fill="#A4897A"/>
<path d="M106.18 3.86996L105.99 3.67996L106.11 3.55997L106.2 3.46997C105.513 2.79956 104.608 2.39849 103.65 2.33997C102.722 2.38042 101.849 2.78674 101.22 3.46997L101.47 3.67996C103 2.26996 104.47 2.31996 106.18 3.86996ZM110 12.66C110.08 12.74 110.17 12.8 110.25 12.87L110.34 12.78L110.46 12.66L110.23 12.43L109.86 12.06L101.43 3.67996L101.18 3.46997V3.88997L109.63 12.29L110 12.66ZM105.3 12.87L105.06 12.66C104.606 13.1967 103.968 13.5452 103.271 13.6376C102.575 13.73 101.868 13.5598 101.29 13.16V13.54C101.775 13.8283 102.326 13.9868 102.89 14C103.346 13.98 103.794 13.8699 104.208 13.676C104.622 13.482 104.993 13.2081 105.3 12.87ZM101.21 3.45998V3.46997H101.22L101.21 3.45998Z" fill="#A4897A"/>
<path d="M104.68 12.3C104.8 12.43 104.94 12.55 105.06 12.66L105.3 12.87L105.41 12.78L105.52 12.66L105.3 12.43C105.18 12.31 105.04 12.19 104.92 12.06L101.25 8.41003V8.89003L102.17 9.80003L104.68 12.3Z" fill="#A4897A"/>
<path d="M116.45 3.68003L116.77 4.02004L121.22 8.43003V3.92003H121.17C119.44 2.32003 118 2.27003 116.45 3.68003ZM111.46 3.68003L119.88 12.06C120 12.19 120.13 12.31 120.26 12.43C120.567 12.7104 120.902 12.9584 121.26 13.17V8.89004L116.2 3.89004C114.46 2.32004 113 2.27003 111.46 3.68003ZM115.28 12.43C117.01 14.02 118.51 14.08 120.02 12.66L119.66 12.3L111.2 3.90003V8.41004L114.86 12.06C115 12.19 115.16 12.31 115.28 12.43ZM115 12.66L114.62 12.3L112.12 9.80004L111.2 8.89004V13.16C111.781 13.5685 112.494 13.7439 113.198 13.6513C113.901 13.5586 114.545 13.2048 115 12.66Z" fill="white"/>
<path d="M121.07 3.56004L120.95 3.68004L121.14 3.87004H121.19V3.42004L121.07 3.56004ZM120.48 12.66L120.36 12.78L120.27 12.87C120.58 13.1298 120.915 13.3576 121.27 13.55V13.17C120.912 12.9584 120.577 12.7104 120.27 12.43L120.48 12.66Z" fill="#A4897A"/>
<path d="M116.45 3.67996C117.95 2.26996 119.45 2.31996 121.14 3.86996L120.95 3.67996L121.07 3.55997L121.18 3.46997C120.488 2.79517 119.575 2.39376 118.61 2.33997C117.682 2.38042 116.809 2.78674 116.18 3.46997C116.389 3.63986 116.586 3.82361 116.77 4.01997L116.45 3.67996Z" fill="#A4897A"/>
<path d="M116.18 3.46997L116.09 3.55997L115.97 3.67996L116.16 3.86996L121.22 8.86996V8.40997L116.77 3.99997C116.585 3.81048 116.388 3.63343 116.18 3.46997ZM115.28 12.43L115.51 12.66L115.39 12.78L115.28 12.87C115.969 13.5426 116.878 13.9438 117.84 14C118.767 13.9552 119.639 13.5496 120.27 12.87C120.19 12.8 120.1 12.74 120.02 12.66C118.51 14.08 117 14 115.28 12.43Z" fill="#A4897A"/>
<path d="M116.16 3.86996L115.97 3.67996L116.09 3.55997L116.18 3.46997C115.496 2.79498 114.589 2.39311 113.63 2.33997C113.172 2.35913 112.722 2.46886 112.307 2.66281C111.892 2.85676 111.519 3.1311 111.21 3.46997L111.46 3.67996C113 2.26996 114.46 2.31996 116.16 3.86996ZM120 12.66C120.08 12.74 120.17 12.8 120.25 12.87L120.34 12.78L120.46 12.66L120.24 12.43C120.11 12.31 119.98 12.19 119.86 12.06L111.44 3.67996L111.19 3.46997V3.88997L119.65 12.29L120 12.66ZM115.28 12.87L115.04 12.66C114.586 13.1967 113.948 13.5452 113.252 13.6376C112.555 13.73 111.848 13.5598 111.27 13.16V13.54C111.755 13.8283 112.306 13.9868 112.87 14C113.326 13.98 113.774 13.8699 114.188 13.676C114.602 13.482 114.973 13.2081 115.28 12.87ZM111.2 3.45998V3.46997H111.21L111.2 3.45998Z" fill="#A4897A"/>
<path d="M114.66 12.3L115.04 12.66L115.28 12.87L115.39 12.78L115.51 12.66L115.28 12.43C115.16 12.31 115.02 12.19 114.9 12.06L111.24 8.41003V8.89003L112.16 9.80003L114.66 12.3Z" fill="#A4897A"/>
<path d="M126.44 3.68003L126.76 4.02004L131.2 8.43003V3.92003C129.42 2.32003 127.93 2.27003 126.44 3.68003ZM121.44 3.68003L129.86 12.06C129.98 12.19 130.12 12.31 130.24 12.43C130.547 12.7104 130.882 12.9584 131.24 13.17V8.89004L126.19 3.89004C124.44 2.32004 122.94 2.27003 121.44 3.68003ZM125.26 12.43C126.99 14.02 128.49 14.08 130 12.66L129.64 12.3L121.19 3.90003V8.41004L124.85 12.06C125 12.19 125.14 12.31 125.26 12.43ZM125 12.66C124.88 12.55 124.75 12.43 124.63 12.3L122.12 9.80004L121.2 8.89004V13.16C121.781 13.5685 122.494 13.7439 123.198 13.6513C123.901 13.5586 124.545 13.2048 125 12.66Z" fill="white"/>
<path d="M131.17 3.47005V3.46005L131.16 3.47005H131.17ZM131.06 3.56004L130.94 3.68004L131.13 3.87004V3.42004L131.06 3.56004ZM130.46 12.66L130.35 12.78L130.25 12.87C130.558 13.1318 130.893 13.3597 131.25 13.55V13.17C130.892 12.9584 130.557 12.7104 130.25 12.43L130.46 12.66Z" fill="#A4897A"/>
<path d="M126.44 3.67996C127.93 2.26996 129.44 2.31996 131.13 3.86996L130.94 3.67996L131.06 3.55997L131.16 3.46997C130.471 2.79737 129.562 2.39613 128.6 2.33997C127.672 2.38042 126.799 2.78674 126.17 3.46997C126.376 3.64246 126.573 3.82606 126.76 4.01997L126.44 3.67996Z" fill="#A4897A"/>
<path d="M126.17 3.46997L126.08 3.55997L125.96 3.67996L126.15 3.86996L131.2 8.86996V8.40997L126.76 3.99997C126.573 3.8129 126.376 3.63598 126.17 3.46997ZM125.26 12.43L125.49 12.66L125.37 12.78L125.26 12.87C125.952 13.5448 126.865 13.9462 127.83 14C128.754 13.9569 129.624 13.5508 130.25 12.87C130.17 12.8 130.08 12.74 130 12.66C128.49 14.08 127 14 125.26 12.43Z" fill="#A4897A"/>
<path d="M126.15 3.86996L125.96 3.67996L126.08 3.55997L126.17 3.46997C125.483 2.79956 124.578 2.39849 123.62 2.33997C122.692 2.38042 121.819 2.78674 121.19 3.46997L121.44 3.67996C122.94 2.26996 124.44 2.31996 126.15 3.86996Z" fill="#A4897A"/>
<path d="M130 12.66C130.08 12.74 130.17 12.7999 130.25 12.8699L130.35 12.78L130.46 12.66L130.24 12.4299C130.12 12.3099 129.98 12.19 129.86 12.06L121.44 3.67995L121.19 3.46996V3.88995L129.64 12.2899L130 12.66ZM125.26 12.8699L125.02 12.66C124.566 13.1967 123.928 13.5452 123.232 13.6376C122.535 13.73 121.828 13.5598 121.25 13.16V13.5399C121.735 13.8283 122.286 13.9868 122.85 14C123.306 13.98 123.754 13.8699 124.168 13.676C124.582 13.482 124.953 13.2081 125.26 12.8699ZM121.18 3.45996V3.46996H121.19L121.18 3.45996Z" fill="#A4897A"/>
<path d="M124.65 12.3C124.77 12.43 124.9 12.55 125.02 12.66L125.26 12.87L125.37 12.78L125.49 12.66L125.26 12.43C125.14 12.31 125 12.19 124.88 12.06L121.22 8.41003V8.89003L122.14 9.80003L124.65 12.3Z" fill="#A4897A"/>
<path d="M136.42 3.68003L136.74 4.02004L141.19 8.43003V3.92003C139.41 2.32003 137.92 2.27003 136.42 3.68003ZM131.43 3.68003L139.84 12.06C139.96 12.19 140.1 12.31 140.22 12.43C140.527 12.7104 140.862 12.9584 141.22 13.17V8.89004L136.16 3.89004C134.43 2.32004 132.93 2.27003 131.43 3.68003ZM135.24 12.43C136.97 14.02 138.47 14.08 139.98 12.66L139.62 12.3L131.17 3.90003V8.41004L134.84 12.06L135.24 12.43ZM135 12.66C134.88 12.55 134.75 12.43 134.63 12.3L132.12 9.80004L131.2 8.89004V13.16C131.781 13.5685 132.494 13.7439 133.198 13.6513C133.901 13.5586 134.545 13.2048 135 12.66Z" fill="white"/>
<path d="M141 3.56004L140.88 3.68004L141.07 3.87004V3.42004L141 3.56004ZM140.45 12.66L140.33 12.78L140.23 12.87C140.538 13.1318 140.873 13.3597 141.23 13.55V13.17C140.872 12.9584 140.537 12.7104 140.23 12.43L140.45 12.66Z" fill="#A4897A"/>
<path d="M136.42 3.67996C137.92 2.26996 139.42 2.31996 141.11 3.86996L140.92 3.67996L141.04 3.55997L141.15 3.46997C140.458 2.79517 139.545 2.39376 138.58 2.33997C137.656 2.38302 136.786 2.78913 136.16 3.46997C136.363 3.64263 136.557 3.82624 136.74 4.01997L136.42 3.67996Z" fill="#A4897A"/>
<path d="M136.16 3.46997L136.06 3.55997L135.94 3.67996L136.13 3.86996L141.19 8.86996V8.40997L136.74 3.99997C136.556 3.81307 136.363 3.63616 136.16 3.46997ZM135.24 12.43L135.47 12.66L135.35 12.78L135.24 12.87C135.932 13.5448 136.845 13.9462 137.81 14C138.734 13.9569 139.604 13.5508 140.23 12.87C140.15 12.8 140.06 12.74 139.98 12.66C138.47 14.08 137 14 135.24 12.43Z" fill="#A4897A"/>
<path d="M136.13 3.86996L135.94 3.67996L136.06 3.55997L136.16 3.46997C135.473 2.79956 134.568 2.39849 133.61 2.33997C132.682 2.38042 131.809 2.78674 131.18 3.46997L131.43 3.67996C132.93 2.26996 134.43 2.31996 136.13 3.86996Z" fill="#A4897A"/>
<path d="M140 12.66C140.08 12.74 140.17 12.7999 140.25 12.8699L140.35 12.78L140.47 12.66L140.24 12.4299C140.12 12.3099 139.98 12.19 139.86 12.06L131.45 3.67995L131.2 3.46996V3.88995L139.65 12.2899L140 12.66ZM135.24 12.8699L135 12.66C134.546 13.1967 133.908 13.5452 133.211 13.6376C132.515 13.73 131.808 13.5598 131.23 13.16V13.5399C131.711 13.8279 132.259 13.9864 132.82 14C133.278 13.9813 133.728 13.8719 134.143 13.6779C134.559 13.4839 134.932 13.2093 135.24 12.8699ZM131.17 3.45996V3.46996H131.18L131.17 3.45996Z" fill="#A4897A"/>
<path d="M134.63 12.3C134.75 12.43 134.88 12.55 135 12.66L135.24 12.87L135.35 12.78L135.47 12.66L135.24 12.43L134.87 12.06L131.2 8.41003V8.89003L132.12 9.80003L134.63 12.3Z" fill="#A4897A"/>
<path d="M146.41 3.68003L146.73 4.02004L151.17 8.43003V3.92003C149.4 2.32003 147.9 2.27003 146.41 3.68003ZM141.42 3.68003L149.82 12.06L150.2 12.43C150.505 12.7124 150.841 12.9606 151.2 13.17V8.89004L146.2 3.89004C144.42 2.32004 142.91 2.27003 141.42 3.68003ZM145.22 12.43C146.95 14.02 148.45 14.08 149.96 12.66L149.6 12.3L141.16 3.90003V8.41004L144.83 12.06L145.22 12.43ZM145 12.66C144.88 12.55 144.75 12.43 144.63 12.3L142.13 9.80004L141.21 8.89004V13.16C141.79 13.5656 142.501 13.7393 143.202 13.6467C143.904 13.5542 144.545 13.2021 145 12.66Z" fill="white"/>
<path d="M151.14 3.47005V3.46005L151.13 3.47005H151.14ZM151 3.56004L150.88 3.68004L151.07 3.87004V3.42004L151 3.56004ZM150.43 12.66L150.31 12.78L150.22 12.87C150.526 13.1344 150.862 13.3626 151.22 13.55V13.17C150.861 12.9606 150.525 12.7125 150.22 12.43L150.43 12.66Z" fill="#A4897A"/>
<path d="M146.41 3.67996C147.9 2.26996 149.41 2.31996 151.1 3.86996L150.91 3.67996L151.03 3.55997L151.13 3.46997C150.441 2.79737 149.532 2.39613 148.57 2.33997C147.642 2.38042 146.769 2.78674 146.14 3.46997C146.347 3.64246 146.543 3.82606 146.73 4.01997L146.41 3.67996Z" fill="#A4897A"/>
<path d="M146.14 3.46997L146.05 3.55997L145.93 3.67996L146.12 3.86996L151.12 8.86996V8.40997L146.73 3.99997C146.543 3.8129 146.346 3.63598 146.14 3.46997ZM145.22 12.43L145.45 12.66L145.33 12.78L145.22 12.87C145.912 13.5448 146.825 13.9462 147.79 14C148.717 13.9552 149.589 13.5496 150.22 12.87C150.14 12.8 150.04 12.74 149.96 12.66C148.45 14.08 147 14 145.22 12.43Z" fill="#A4897A"/>
<path d="M146.12 3.86996L145.93 3.67996L146.05 3.55997L146.14 3.46997C145.456 2.79498 144.549 2.39311 143.59 2.33997C142.662 2.38042 141.789 2.78674 141.16 3.46997L141.42 3.67996C142.91 2.26996 144.42 2.31996 146.12 3.86996Z" fill="#A4897A"/>
<path d="M150 12.66C150.08 12.74 150.18 12.7999 150.26 12.8699L150.35 12.78L150.47 12.66L150.24 12.4299L149.86 12.06L141.46 3.67995L141.2 3.46996V3.88995L149.64 12.2899L150 12.66ZM145.22 12.8699C145.14 12.7999 145.06 12.74 144.98 12.66C144.526 13.1967 143.888 13.5452 143.192 13.6376C142.495 13.73 141.788 13.5598 141.21 13.16V13.5399C141.691 13.8279 142.239 13.9864 142.8 14C143.258 13.9813 143.708 13.8719 144.123 13.6779C144.539 13.4839 144.912 13.2093 145.22 12.8699ZM141.15 3.45996V3.46996H141.16L141.15 3.45996Z" fill="#A4897A"/>
<path d="M144.61 12.3C144.73 12.43 144.86 12.55 144.98 12.66C145.1 12.77 145.14 12.8 145.22 12.87L145.33 12.78L145.45 12.66L145.22 12.43L144.85 12.06L141.18 8.41003V8.89003L142.1 9.80003L144.61 12.3Z" fill="#A4897A"/>
<path d="M156.39 3.68003L156.71 4.02004L161.15 8.43003V3.92003C159.38 2.32003 157.89 2.27003 156.39 3.68003ZM151.4 3.68003L159.81 12.06L160.18 12.43C160.485 12.7124 160.821 12.9606 161.18 13.17V8.89004L156.18 3.89004C154.4 2.32004 152.9 2.27003 151.4 3.68003ZM155.2 12.43C156.93 14.02 158.43 14.08 159.94 12.66L159.58 12.3L151.14 3.90003V8.41004L154.8 12.06L155.2 12.43ZM155 12.66C154.866 12.5479 154.739 12.4277 154.62 12.3L152.12 9.80004L151.2 8.89004V13.16C151.781 13.5685 152.494 13.7439 153.198 13.6513C153.901 13.5586 154.545 13.2048 155 12.66Z" fill="white"/>
<path d="M161.13 3.47005V3.46005L161.12 3.47005H161.13ZM161 3.56004L160.88 3.68004L161.07 3.87004V3.42004L161 3.56004ZM160.41 12.66L160.29 12.78L160.2 12.87C160.506 13.1344 160.842 13.3626 161.2 13.55V13.17C160.841 12.9606 160.505 12.7125 160.2 12.43L160.41 12.66Z" fill="#A4897A"/>
<path d="M156.39 3.67996C157.89 2.26996 159.39 2.31996 161.08 3.86996L160.89 3.67996L161.01 3.55997L161.12 3.46997C160.431 2.79737 159.522 2.39613 158.56 2.33997C157.632 2.38042 156.759 2.78674 156.13 3.46997C156.333 3.64263 156.527 3.82624 156.71 4.01997L156.39 3.67996Z" fill="#A4897A"/>
<path d="M156.13 3.46997L156.03 3.55997L155.91 3.67996L156.1 3.86996L161.1 8.86996V8.40997L156.71 3.99997C156.526 3.81307 156.333 3.63616 156.13 3.46997ZM155.2 12.43L155.43 12.66L155.31 12.78L155.21 12.87C155.899 13.5426 156.808 13.9438 157.77 14C158.698 13.9595 159.571 13.5532 160.2 12.87C160.12 12.8 160.02 12.74 159.94 12.66C158.43 14.08 156.93 14 155.2 12.43Z" fill="#A4897A"/>
<path d="M156.1 3.86996L155.91 3.67996L156.03 3.55997L156.13 3.46997C155.443 2.79956 154.538 2.39849 153.58 2.33997C152.652 2.38042 151.779 2.78674 151.15 3.46997L151.4 3.67996C152.9 2.26996 154.4 2.31996 156.1 3.86996Z" fill="#A4897A"/>
<path d="M159.94 12.66C160.02 12.74 160.12 12.7999 160.2 12.8699L160.29 12.78L160.41 12.66L160.18 12.4299L159.81 12.06L151.4 3.67995L151.15 3.46996V3.88995L159.59 12.2899L159.94 12.66ZM155.21 12.8699C155.13 12.7999 155.05 12.74 154.97 12.66C154.516 13.1967 153.878 13.5452 153.182 13.6376C152.485 13.73 151.778 13.5598 151.2 13.16V13.5399C151.681 13.8279 152.229 13.9864 152.79 14C153.248 13.9802 153.697 13.8703 154.113 13.6764C154.528 13.4824 154.901 13.2084 155.21 12.8699ZM151.14 3.45996V3.46996H151.15L151.14 3.45996Z" fill="#A4897A"/>
<path d="M154.59 12.3C154.709 12.4277 154.836 12.5479 154.97 12.66C155.05 12.74 155.13 12.8 155.21 12.87L155.31 12.78L155.43 12.66L155.2 12.43L154.83 12.06L151.17 8.41003V8.89003L152.09 9.80003L154.59 12.3Z" fill="#A4897A"/>
<path d="M166.38 3.68003L166.7 4.02004L171.13 8.43003V3.92003C169.37 2.32003 167.88 2.27003 166.38 3.68003ZM161.39 3.68003L169.79 12.06L170.16 12.43C170.465 12.7124 170.801 12.9606 171.16 13.17V8.89004L166.16 3.89004C164.39 2.32004 162.88 2.27003 161.39 3.68003ZM165.18 12.43C166.91 14.02 168.41 14.08 169.92 12.66L169.56 12.3L161.13 3.90003V8.41004L164.79 12.06L165.18 12.43ZM165 12.66C164.88 12.55 164.74 12.43 164.62 12.3L162.12 9.80004L161.2 8.89004V13.16C161.781 13.5685 162.494 13.7439 163.198 13.6513C163.901 13.5586 164.545 13.2048 165 12.66Z" fill="white"/>
<path d="M171.11 3.47005V3.46005L171.1 3.47005H171.11ZM171 3.56004L170.88 3.68004L171.07 3.87004V3.42004L171 3.56004ZM170.39 12.66L170.27 12.78L170.18 12.87C170.488 13.1321 170.823 13.3601 171.18 13.55V13.17C170.821 12.9606 170.485 12.7125 170.18 12.43L170.39 12.66Z" fill="#A4897A"/>
<path d="M166.38 3.67996C167.88 2.26996 169.38 2.31996 171.07 3.86996L170.88 3.67996L171 3.55997L171.1 3.46997C170.411 2.79737 169.502 2.39613 168.54 2.33997C167.612 2.38042 166.739 2.78674 166.11 3.46997C166.316 3.64246 166.513 3.82606 166.7 4.01997L166.38 3.67996Z" fill="#A4897A"/>
<path d="M166.11 3.46997L166.02 3.55997L165.9 3.67996L166.09 3.86996L171.09 8.86996V8.40997L166.7 3.99997C166.513 3.8129 166.316 3.63598 166.11 3.46997ZM165.18 12.43L165.41 12.66L165.29 12.78L165.19 12.87C165.879 13.5426 166.788 13.9438 167.75 14C168.678 13.9595 169.551 13.5532 170.18 12.87C170.1 12.8 170 12.74 169.92 12.66C168.41 14.08 166.91 14 165.18 12.43Z" fill="#A4897A"/>
<path d="M166.09 3.86996L165.9 3.67996L166.02 3.55997L166.11 3.46997C165.426 2.79498 164.519 2.39311 163.56 2.33997C162.632 2.38042 161.759 2.78674 161.13 3.46997L161.39 3.67996C162.88 2.26996 164.39 2.31996 166.09 3.86996ZM169.92 12.66C170 12.74 170.1 12.8 170.18 12.87L170.27 12.78L170.39 12.66L170.16 12.43L169.79 12.06L161.39 3.67996L161.13 3.46997V3.88997L169.56 12.29L169.92 12.66ZM165.19 12.87C165.11 12.8 165.03 12.74 164.95 12.66C164.496 13.1967 163.858 13.5452 163.161 13.6376C162.465 13.73 161.758 13.5598 161.18 13.16V13.54C161.661 13.828 162.209 13.9864 162.77 14C163.228 13.9814 163.678 13.8719 164.093 13.6779C164.509 13.4839 164.882 13.2093 165.19 12.87Z" fill="#A4897A"/>
<path d="M164.57 12.3C164.69 12.43 164.83 12.55 164.95 12.66C165.07 12.77 165.11 12.8 165.19 12.87L165.29 12.78L165.41 12.66L165.18 12.43L164.81 12.06L161.15 8.41003V8.89003L162.07 9.80003L164.57 12.3Z" fill="#A4897A"/>
<path d="M176.36 3.68003L176.69 4.02004L181.12 8.43003V3.92003H181.07C179.35 2.32003 177.86 2.27003 176.36 3.68003ZM171.37 3.68003L179.77 12.06L180.14 12.43C180.445 12.7124 180.781 12.9606 181.14 13.17V8.89004L176.14 3.89004C174.37 2.32004 172.87 2.27003 171.37 3.68003ZM175.17 12.43C176.89 14.02 178.39 14.08 179.9 12.66L179.54 12.3L171.11 3.90003V8.41004L174.77 12.06C174.91 12.19 175.05 12.31 175.17 12.43ZM174.93 12.66C174.81 12.55 174.67 12.43 174.55 12.3L172.05 9.80004L171.14 8.89004V13.16C171.72 13.5656 172.431 13.7393 173.132 13.6467C173.834 13.5542 174.475 13.2021 174.93 12.66Z" fill="white"/>
<path d="M181.1 3.46996V3.45996L181.09 3.46996H181.1Z" fill="#A4897A"/>
<path d="M181 3.56004L180.88 3.68004L181.07 3.87004H181.12V3.42004L181 3.56004ZM180.37 12.66L180.25 12.78L180.16 12.87C180.468 13.1321 180.803 13.3601 181.16 13.55V13.17C180.801 12.9606 180.465 12.7125 180.16 12.43L180.37 12.66Z" fill="#A4897A"/>
<path d="M176.36 3.67996C177.86 2.26996 179.36 2.31996 181.05 3.86996L180.86 3.67996L180.98 3.55997L181.09 3.46997C180.401 2.79737 179.492 2.39613 178.53 2.33997C177.602 2.38042 176.729 2.78674 176.1 3.46997C176.3 3.62997 176.48 3.81997 176.69 4.01997L176.36 3.67996Z" fill="#A4897A"/>
<path d="M176.1 3.46997L176 3.55997L175.88 3.67996L176.07 3.86996L181.07 8.86996V8.40997L176.69 3.99997C176.48 3.81997 176.3 3.62997 176.1 3.46997ZM175.17 12.43L175.39 12.66L175.27 12.78L175.17 12.87C175.859 13.5426 176.768 13.9438 177.73 14C178.658 13.9595 179.531 13.5532 180.16 12.87L179.9 12.66C178.39 14.08 176.89 14 175.17 12.43Z" fill="#A4897A"/>
<path d="M176.07 3.86996L175.88 3.67996L176 3.55997L176.1 3.46997C175.413 2.79956 174.508 2.39849 173.55 2.33997C172.622 2.38042 171.749 2.78674 171.12 3.46997L171.37 3.67996C172.87 2.26996 174.37 2.31996 176.07 3.86996ZM179.9 12.66L180.16 12.87L180.25 12.78L180.37 12.66L180.14 12.43L179.77 12.06L171.37 3.67996L171.12 3.46997V3.88997L179.55 12.29L179.9 12.66ZM175.17 12.87L174.93 12.66C174.476 13.1967 173.838 13.5452 173.141 13.6376C172.445 13.73 171.738 13.5598 171.16 13.16V13.54C171.641 13.828 172.189 13.9864 172.75 14C173.208 13.9814 173.658 13.8719 174.073 13.6779C174.489 13.4839 174.862 13.2093 175.17 12.87ZM171.11 3.45998V3.46997H171.12L171.11 3.45998Z" fill="#A4897A"/>
<path d="M174.55 12.3C174.67 12.43 174.81 12.55 174.93 12.66L175.17 12.87L175.27 12.78L175.39 12.66L175.17 12.43C175.05 12.31 174.91 12.19 174.79 12.06L171.13 8.41003V8.89003L172.04 9.80003L174.55 12.3Z" fill="#A4897A"/>
<path d="M186.35 3.68003L186.67 4.02004L191.1 8.43003V3.92003C189.34 2.32003 187.85 2.27003 186.35 3.68003ZM181.36 3.68003L189.75 12.06L190.12 12.43C190.425 12.7124 190.761 12.9606 191.12 13.17V8.89004L186.12 3.89004C184.36 2.32004 182.86 2.27003 181.36 3.68003ZM185.15 12.43C186.87 14.02 188.37 14.08 189.89 12.66L189.53 12.3L181.1 3.90003V8.41004L184.75 12.06C184.89 12.19 185 12.31 185.15 12.43ZM184.91 12.66L184.53 12.3L182 9.80004L181.08 8.89004V13.16C181.663 13.5773 182.383 13.7578 183.094 13.665C183.804 13.5722 184.454 13.213 184.91 12.66Z" fill="white"/>
<path d="M191 3.56004L190.88 3.68004L191.07 3.87004V3.42004L191 3.56004ZM190.35 12.66L190.23 12.78L190.14 12.87C190.448 13.1321 190.783 13.3601 191.14 13.55V13.17C190.781 12.9606 190.445 12.7125 190.14 12.43L190.35 12.66Z" fill="#A4897A"/>
<path d="M186.35 3.67996C187.85 2.26996 189.35 2.31996 191.04 3.86996L190.85 3.67996L190.97 3.55997L191.08 3.46997C190.388 2.79517 189.475 2.39376 188.51 2.33997C187.583 2.38257 186.71 2.78853 186.08 3.46997C186.287 3.64246 186.483 3.82606 186.67 4.01997L186.35 3.67996Z" fill="#A4897A"/>
<path d="M186.08 3.46997L185.99 3.55997L185.87 3.67996L186.06 3.86996L191.06 8.86996V8.40997L186.67 3.99997C186.483 3.8129 186.286 3.63598 186.08 3.46997ZM185.15 12.43L185.37 12.66L185.26 12.78L185.15 12.87C185.839 13.5426 186.748 13.9438 187.71 14C188.638 13.9595 189.511 13.5532 190.14 12.87C190.06 12.8 189.97 12.74 189.89 12.66C188.37 14.08 186.87 14 185.15 12.43Z" fill="#A4897A"/>
<path d="M186.06 3.86996L185.87 3.67996L185.99 3.55997L186.08 3.46997C185.396 2.79498 184.489 2.39311 183.53 2.33997C182.604 2.38469 181.731 2.79029 181.1 3.46997L181.36 3.67996C182.86 2.26996 184.36 2.31996 186.06 3.86996Z" fill="#A4897A"/>
<path d="M189.89 12.66C189.97 12.74 190.06 12.7999 190.14 12.8699L190.23 12.78L190.35 12.66L190.12 12.4299L189.75 12.06L181.36 3.67995L181.1 3.46996V3.88995L189.53 12.2899L189.89 12.66ZM185.15 12.8699L184.91 12.66C184.456 13.1967 183.818 13.5452 183.122 13.6376C182.425 13.73 181.718 13.5598 181.14 13.16V13.5399C181.621 13.8279 182.169 13.9864 182.73 14C183.188 13.9813 183.638 13.8719 184.053 13.6779C184.469 13.4839 184.842 13.2093 185.15 12.8699Z" fill="#A4897A"/>
<path d="M184.53 12.3L184.91 12.66L185.15 12.87L185.26 12.78L185.37 12.66L185.15 12.43C185.03 12.31 184.89 12.19 184.77 12.06L181.12 8.41003V8.89003L182.04 9.80003L184.53 12.3Z" fill="#A4897A"/>
<path d="M196.33 3.68003L196.66 4.02004L201.08 8.43003V3.92003H201.03C199.33 2.32003 197.83 2.27003 196.33 3.68003ZM191.34 3.68003L199.73 12.06C199.85 12.19 199.99 12.31 200.11 12.43C200.417 12.7104 200.752 12.9584 201.11 13.17V8.89004L196.06 3.89004C194.35 2.32004 192.84 2.27003 191.34 3.68003ZM195.13 12.43C196.85 14.02 198.36 14.08 199.87 12.66L199.51 12.3L191.08 3.90003V8.41004L194.73 12.06L195.13 12.43ZM194.89 12.66C194.77 12.55 194.64 12.43 194.52 12.3L192.02 9.80004L191.1 8.89004V13.16C191.68 13.5656 192.391 13.7393 193.092 13.6467C193.794 13.5542 194.435 13.2021 194.89 12.66Z" fill="white"/>
<path d="M201.07 3.47005V3.46005L201.06 3.47005H201.07ZM201 3.56004L200.88 3.68004L201.07 3.87004H201.12V3.42004L201 3.56004ZM200.33 12.66L200.21 12.78L200.12 12.87C200.428 13.1321 200.763 13.3601 201.12 13.55V13.17C200.762 12.9584 200.427 12.7104 200.12 12.43L200.33 12.66Z" fill="#A4897A"/>
<path d="M196.33 3.67996C197.83 2.26996 199.33 2.31996 201.02 3.86996L200.83 3.67996L200.95 3.55997L201.06 3.46997C200.371 2.79737 199.462 2.39613 198.5 2.33997C197.572 2.38042 196.699 2.78674 196.07 3.46997C196.277 3.64246 196.473 3.82606 196.66 4.01997L196.33 3.67996Z" fill="#A4897A"/>
<path d="M196.07 3.46997L195.97 3.55997L195.86 3.67996L196.04 3.86996L201.09 8.86996V8.40997L196.66 3.99997C196.473 3.8129 196.276 3.63598 196.07 3.46997ZM195.13 12.43L195.36 12.66L195.24 12.78L195.13 12.87C195.819 13.5426 196.728 13.9438 197.69 14C198.618 13.9595 199.491 13.5532 200.12 12.87C200.04 12.8 199.95 12.74 199.87 12.66C198.36 14.08 196.85 14 195.13 12.43Z" fill="#A4897A"/>
<path d="M196 3.86996L195.82 3.67996L195.93 3.55997L196.03 3.46997C195.346 2.79498 194.439 2.39311 193.48 2.33997C192.552 2.38042 191.679 2.78674 191.05 3.46997L191.3 3.67996C192.84 2.26996 194.35 2.31996 196 3.86996Z" fill="#A4897A"/>
<path d="M199.87 12.66C199.95 12.74 200.04 12.7999 200.12 12.8699L200.21 12.78L200.33 12.66L200.11 12.4299C199.99 12.3099 199.85 12.19 199.73 12.06L191.34 3.67995L191.09 3.46996V3.88995L199.52 12.2899L199.87 12.66ZM195.13 12.8699L194.89 12.66C194.436 13.1967 193.798 13.5452 193.102 13.6376C192.405 13.73 191.698 13.5598 191.12 13.16V13.5399C191.601 13.8279 192.149 13.9864 192.71 14C193.168 13.9813 193.618 13.8719 194.033 13.6779C194.449 13.4839 194.822 13.2093 195.13 12.8699ZM191.08 3.45996V3.46996H191.09L191.08 3.45996Z" fill="#A4897A"/>
<path d="M194.52 12.3C194.64 12.43 194.77 12.55 194.89 12.66L195.13 12.87L195.24 12.78L195.36 12.66L195.13 12.43L194.75 12.06L191.1 8.41003V8.89003L192.02 9.80003L194.52 12.3Z" fill="#A4897A"/>
<path d="M206.32 3.68003L206.64 4.02004L211.07 8.43003V3.92003C209.31 2.32003 207.82 2.27003 206.32 3.68003ZM201.33 3.68003L209.71 12.06C209.83 12.19 209.97 12.31 210.09 12.43C210.397 12.7104 210.732 12.9584 211.09 13.17V8.89004L206.09 3.89004C204.33 2.32004 202.83 2.27003 201.33 3.68003ZM205.11 12.43C206.83 14.02 208.34 14.08 209.85 12.66L209.49 12.3L201.07 3.90003V8.41004L204.73 12.06L205.11 12.43ZM204.87 12.66C204.75 12.55 204.62 12.43 204.5 12.3L202 9.80004L201.09 8.89004V13.16C201.669 13.5627 202.378 13.7347 203.077 13.6422C203.776 13.5497 204.416 13.1994 204.87 12.66Z" fill="white"/>
<path d="M210.94 3.56004L210.82 3.68004L211.01 3.87004V3.42004L210.94 3.56004ZM210.31 12.66L210.2 12.78L210.1 12.87C210.408 13.1321 210.743 13.3601 211.1 13.55V13.17C210.742 12.9584 210.407 12.7104 210.1 12.43L210.31 12.66Z" fill="#A4897A"/>
<path d="M206.32 3.67996C207.82 2.26996 209.32 2.31996 211.01 3.86996L210.82 3.67996L210.94 3.55997L211.05 3.46997C210.361 2.79737 209.452 2.39613 208.49 2.33997C207.56 2.38211 206.684 2.78793 206.05 3.46997C206.256 3.64246 206.453 3.82606 206.64 4.01997L206.32 3.67996Z" fill="#A4897A"/>
<path d="M206.05 3.46997L205.96 3.55997L205.84 3.67996L206.03 3.86996L211.03 8.86996V8.40997L206.64 3.99997C206.453 3.8129 206.256 3.63598 206.05 3.46997ZM205.11 12.43L205.34 12.66L205.22 12.78L205.11 12.87C205.799 13.5426 206.708 13.9438 207.67 14C208.598 13.9595 209.471 13.5532 210.1 12.87C210.02 12.8 209.93 12.74 209.85 12.66C208.34 14.08 206.83 14 205.11 12.43Z" fill="#A4897A"/>
<path d="M206 3.86996L205.81 3.67996L205.93 3.55997L206.02 3.46997C205.339 2.79719 204.436 2.3955 203.48 2.33997C202.55 2.38211 201.674 2.78793 201.04 3.46997L201.3 3.67996C202.83 2.26996 204.33 2.31996 206 3.86996Z" fill="#A4897A"/>
<path d="M209.85 12.66C209.93 12.74 210.02 12.7999 210.1 12.8699L210.2 12.78L210.31 12.66L210.09 12.4299C209.97 12.3099 209.83 12.19 209.71 12.06L201.33 3.67995L201.07 3.46996V3.88995L209.49 12.2899L209.85 12.66ZM205.11 12.8699L204.87 12.66C204.416 13.1967 203.778 13.5452 203.081 13.6376C202.385 13.73 201.678 13.5598 201.1 13.16V13.5399C201.582 13.8267 202.129 13.9851 202.69 14C203.148 13.9813 203.598 13.8719 204.013 13.6779C204.429 13.4839 204.802 13.2093 205.11 12.8699Z" fill="#A4897A"/>
<path d="M204.5 12.3C204.62 12.43 204.75 12.55 204.87 12.66L205.11 12.87L205.22 12.78L205.34 12.66L205.11 12.43L204.74 12.06L201.08 8.41003V8.89003L201.99 9.80003L204.5 12.3Z" fill="#A4897A"/>
<path d="M216.31 3.68003L216.63 4.02004L221.05 8.43003V3.92003C219.3 2.32003 217.81 2.27003 216.31 3.68003ZM211.31 3.68003L219.7 12.06L220.07 12.43C220.377 12.7104 220.712 12.9584 221.07 13.17V8.89004L216.07 3.89004C214.32 2.32004 212.81 2.27003 211.31 3.68003ZM215.09 12.43C216.81 14.02 218.32 14.08 219.83 12.66L219.47 12.3L211.05 3.90003V8.41004L214.7 12.06L215.09 12.43ZM214.85 12.66C214.73 12.55 214.6 12.43 214.48 12.3L211.98 9.80004L211.07 8.89004V13.16C211.649 13.5627 212.358 13.7347 213.057 13.6422C213.756 13.5497 214.396 13.1994 214.85 12.66Z" fill="white"/>
<path d="M221.04 3.47005V3.46005L221.03 3.47005H221.04ZM220.93 3.56004L220.81 3.68004L220.99 3.87004V3.42004L220.93 3.56004ZM220.3 12.66L220.18 12.78L220.08 12.87C220.39 13.1298 220.725 13.3576 221.08 13.55V13.17C220.722 12.9584 220.387 12.7104 220.08 12.43L220.3 12.66Z" fill="#A4897A"/>
<path d="M216.31 3.67996C217.81 2.26996 219.31 2.31996 220.99 3.86996L220.81 3.67996L220.93 3.55997L221.03 3.46997C220.341 2.79737 219.432 2.39613 218.47 2.33997C217.542 2.38042 216.669 2.78674 216.04 3.46997C216.246 3.64246 216.443 3.82606 216.63 4.01997L216.31 3.67996Z" fill="#A4897A"/>
<path d="M216 3.46997L215.91 3.55997L215.79 3.67996L215.97 3.86996L220.97 8.86996V8.40997L216.63 3.99997C216.43 3.81176 216.22 3.63483 216 3.46997ZM215.09 12.43L215.32 12.66L215.2 12.78L215.09 12.87C215.779 13.5426 216.688 13.9438 217.65 14C218.578 13.9595 219.451 13.5532 220.08 12.87C220 12.8 219.91 12.74 219.83 12.66C218.32 14.08 216.81 14 215.09 12.43Z" fill="#A4897A"/>
<path d="M216 3.86996L215.82 3.67996L215.94 3.55997L216.03 3.46997C215.346 2.79498 214.439 2.39311 213.48 2.33997C212.552 2.38042 211.679 2.78674 211.05 3.46997L211.3 3.67996C212.81 2.26996 214.32 2.31996 216 3.86996Z" fill="#A4897A"/>
<path d="M219.83 12.66C219.91 12.74 220 12.7999 220.08 12.8699L220.18 12.78L220.3 12.66L220.07 12.4299L219.7 12.06L211.31 3.67995L211.06 3.46996V3.88995L219.48 12.2899L219.83 12.66ZM215.09 12.8699C215.01 12.7999 214.93 12.74 214.85 12.66C214.396 13.1967 213.758 13.5452 213.062 13.6376C212.365 13.73 211.658 13.5598 211.08 13.16V13.5399C211.562 13.8267 212.109 13.9851 212.67 14C213.128 13.9813 213.578 13.8719 213.993 13.6779C214.409 13.4839 214.782 13.2093 215.09 12.8699ZM211.05 3.45996V3.46996H211.06L211.05 3.45996Z" fill="#A4897A"/>
<path d="M214.48 12.3C214.6 12.43 214.73 12.55 214.85 12.66C214.97 12.77 215.01 12.8 215.09 12.87L215.2 12.78L215.32 12.66L215.09 12.43L214.72 12.06L211.07 8.41003V8.89003L211.98 9.80003L214.48 12.3Z" fill="#A4897A"/>
<path d="M226.29 3.68003L226.61 4.02004L231.03 8.43003V3.92003C229.28 2.32003 227.79 2.27003 226.29 3.68003ZM221.3 3.68003L229.68 12.06L230.05 12.43C230.357 12.7104 230.692 12.9584 231.05 13.17V8.89004L226.05 3.89004C224.3 2.32004 222.8 2.27003 221.3 3.68003ZM225.07 12.43C226.79 14.02 228.3 14.08 229.81 12.66L229.45 12.3L221 3.90003V8.41004L224.65 12.06L225.07 12.43ZM224.83 12.66C224.71 12.55 224.58 12.43 224.46 12.3L222 9.80004L221.08 8.89004V13.16C221.657 13.5541 222.359 13.721 223.051 13.6287C223.743 13.5364 224.377 13.1914 224.83 12.66Z" fill="white"/>
<path d="M230.91 3.56004L230.79 3.68004L230.98 3.87004V3.42004L230.91 3.56004ZM230.28 12.66L230.16 12.78L230.06 12.87C230.37 13.1298 230.705 13.3576 231.06 13.55V13.17C230.702 12.9584 230.367 12.7104 230.06 12.43L230.28 12.66Z" fill="#A4897A"/>
<path d="M226.29 3.67996C227.79 2.26996 229.29 2.31996 230.98 3.86996L230.79 3.67996L230.91 3.55997L231.02 3.46997C230.331 2.79737 229.422 2.39613 228.46 2.33997C227.53 2.38211 226.654 2.78793 226.02 3.46997C226.227 3.64246 226.423 3.82606 226.61 4.01997L226.29 3.67996Z" fill="#A4897A"/>
<path d="M226 3.46997L225.91 3.55997L225.79 3.67996L225.98 3.86996L230.98 8.86996V8.40997L226.61 3.99997C226.416 3.81234 226.213 3.63541 226 3.46997ZM225.07 12.43L225.3 12.66L225.18 12.78L225.07 12.87C225.759 13.5426 226.668 13.9438 227.63 14C228.558 13.9595 229.431 13.5532 230.06 12.87C229.98 12.8 229.89 12.74 229.81 12.66C228.3 14.08 226.79 14 225.07 12.43Z" fill="#A4897A"/>
<path d="M226 3.86996L225.81 3.67996L225.93 3.55997L226.02 3.46997C225.339 2.79719 224.436 2.3955 223.48 2.33997C222.55 2.38211 221.674 2.78793 221.04 3.46997L221.3 3.67996C222.8 2.26996 224.3 2.31996 226 3.86996Z" fill="#A4897A"/>
<path d="M229.81 12.66C229.89 12.74 229.98 12.7999 230.06 12.8699L230.16 12.78L230.28 12.66L230.05 12.4299L229.68 12.06L221.3 3.67995L221.04 3.46996V3.88995L229.45 12.2899L229.81 12.66ZM225.07 12.8699C224.99 12.7999 224.91 12.74 224.83 12.66C224.376 13.1967 223.738 13.5452 223.042 13.6376C222.345 13.73 221.638 13.5598 221.06 13.16V13.5399C221.542 13.8267 222.089 13.9851 222.65 14C223.108 13.9813 223.558 13.8719 223.973 13.6779C224.389 13.4839 224.762 13.2093 225.07 12.8699Z" fill="#A4897A"/>
<path d="M224.46 12.3C224.58 12.43 224.71 12.55 224.83 12.66C224.95 12.77 224.99 12.8 225.07 12.87L225.18 12.78L225.3 12.66L225.07 12.43L224.7 12.06L221.05 8.41003V8.89003L221.97 9.80003L224.46 12.3Z" fill="#A4897A"/>
<path d="M236.28 3.68003L236.6 4.02004L241.02 8.43003V3.92003C239.27 2.32003 237.78 2.27003 236.28 3.68003ZM231.28 3.68003L239.66 12.06L240.03 12.43C240.337 12.7104 240.672 12.9584 241.03 13.17V8.89004L236.03 3.89004C234.29 2.32004 232.79 2.27003 231.28 3.68003ZM235.05 12.43C236.77 14.02 238.28 14.08 239.79 12.66L239.43 12.3L231 3.90003V8.41004L234.65 12.06L235.05 12.43ZM234.82 12.66C234.7 12.55 234.56 12.43 234.44 12.3L232 9.80004L231.08 8.89004V13.16C231.657 13.5491 232.356 13.7131 233.045 13.6209C233.734 13.5288 234.366 13.1869 234.82 12.66Z" fill="white"/>
<path d="M241.01 3.47005V3.46005L241 3.47005H241.01ZM240.9 3.56004L240.78 3.68004L240.96 3.87004V3.42004L240.9 3.56004ZM240.26 12.66L240.14 12.78L240.05 12.87C240.358 13.1325 240.693 13.3605 241.05 13.55V13.17C240.692 12.9584 240.357 12.7104 240.05 12.43L240.26 12.66Z" fill="#A4897A"/>
<path d="M236.28 3.67996C237.78 2.26996 239.28 2.31996 240.96 3.86996L240.78 3.67996L240.9 3.55997L241 3.46997C240.311 2.79737 239.402 2.39613 238.44 2.33997C237.513 2.38257 236.64 2.78853 236.01 3.46997C236.217 3.64246 236.413 3.82606 236.6 4.01997L236.28 3.67996Z" fill="#A4897A"/>
<path d="M236 3.46997L235.91 3.55997L235.79 3.67996L235.97 3.86996L240.97 8.86996V8.40997L236.6 3.99997C236.41 3.81262 236.209 3.6357 236 3.46997ZM235.05 12.43L235.28 12.66L235.16 12.78L235.06 12.87C235.744 13.545 236.651 13.9468 237.61 14C238.54 13.9578 239.416 13.552 240.05 12.87C239.97 12.8 239.87 12.74 239.79 12.66C238.28 14.08 236.77 14 235.05 12.43Z" fill="#A4897A"/>
<path d="M236 3.86996L235.82 3.67996L235.94 3.55997L236.03 3.46997C235.346 2.79498 234.439 2.39311 233.48 2.33997C232.553 2.38257 231.68 2.78853 231.05 3.46997L231.3 3.67996C232.79 2.26996 234.29 2.31996 236 3.86996ZM239.79 12.66C239.87 12.74 239.97 12.8 240.05 12.87L240.14 12.78L240.26 12.66L240.03 12.43L239.66 12.06L231.28 3.67996L231.03 3.46997V3.88997L239.44 12.29L239.79 12.66ZM235.06 12.87C234.98 12.8 234.9 12.74 234.82 12.66C234.364 13.1974 233.725 13.5462 233.026 13.6386C232.328 13.731 231.62 13.5604 231.04 13.16V13.54C231.525 13.8283 232.076 13.9868 232.64 14C233.564 13.958 234.434 13.5517 235.06 12.87ZM231.02 3.45998V3.46997H231.03L231.02 3.45998Z" fill="#A4897A"/>
<path d="M234.44 12.3C234.56 12.43 234.7 12.55 234.82 12.66C234.94 12.77 234.98 12.8 235.06 12.87L235.16 12.78L235.28 12.66L235.05 12.43L234.68 12.06L231 8.41003V8.89003L231.92 9.80003L234.44 12.3Z" fill="#A4897A"/>
<path d="M246.26 3.68003L246.58 4.02004L251 8.43003V3.92003C249.26 2.32003 247.76 2.27003 246.26 3.68003ZM241.27 3.68003L249.64 12.06L250.01 12.43C250.315 12.7124 250.651 12.9606 251.01 13.17V8.89004L246.01 3.89004C244.28 2.32004 242.77 2.27003 241.27 3.68003ZM245 12.43C246.71 14.02 248.22 14.08 249.73 12.66L249.37 12.3L240.97 3.90003V8.41004L244.61 12.06C244.78 12.19 244.92 12.31 245 12.43ZM244.8 12.66C244.68 12.55 244.54 12.43 244.42 12.3L241.93 9.80004L241.02 8.89004V13.16C241.6 13.5605 242.308 13.7311 243.006 13.6387C243.705 13.5463 244.344 13.1975 244.8 12.66Z" fill="white"/>
<path d="M250.88 3.56004L250.76 3.68004L250.95 3.87004V3.42004L250.88 3.56004ZM250.24 12.66L250.12 12.78L250.03 12.87C250.336 13.1344 250.672 13.3626 251.03 13.55V13.17C250.671 12.9606 250.335 12.7125 250.03 12.43L250.24 12.66Z" fill="#A4897A"/>
<path d="M246.26 3.67996C247.76 2.26996 249.26 2.31996 250.95 3.86996L250.76 3.67996L250.88 3.55997L250.99 3.46997C250.301 2.79737 249.392 2.39613 248.43 2.33997C247.5 2.38211 246.624 2.78793 245.99 3.46997C246.196 3.64246 246.393 3.82606 246.58 4.01997L246.26 3.67996Z" fill="#A4897A"/>
<path d="M246 3.46997L245.91 3.55997L245.79 3.67996L245.98 3.86996L250.98 8.86996V8.40997L246.58 3.99997C246.396 3.81317 246.203 3.63626 246 3.46997ZM245 12.43L245.22 12.66L245.1 12.78L245 12.87C245.684 13.545 246.591 13.9468 247.55 14C248.48 13.9578 249.356 13.552 249.99 12.87C249.91 12.8 249.81 12.74 249.73 12.66C248.26 14.08 246.75 14 245 12.43Z" fill="#A4897A"/>
<path d="M246 3.86996L245.81 3.67996L245.93 3.55997L246.02 3.46997C245.341 2.79408 244.437 2.39184 243.48 2.33997C242.552 2.38042 241.679 2.78674 241.05 3.46997L241.3 3.67996C242.77 2.26996 244.28 2.31996 246 3.86996ZM249.77 12.66C249.85 12.74 249.95 12.8 250.03 12.87L250.12 12.78L250.24 12.66L250.01 12.43L249.64 12.06L241.27 3.67996L241.02 3.46997V3.88997L249.42 12.29L249.77 12.66ZM245 12.87L244.76 12.66C244.304 13.1974 243.665 13.5462 242.966 13.6386C242.268 13.731 241.56 13.5604 240.98 13.16V13.54C241.465 13.8283 242.016 13.9868 242.58 14C243.504 13.958 244.374 13.5517 245 12.87ZM241.01 3.45998V3.46997H241.02L241.01 3.45998ZM244.42 12.3C244.54 12.43 244.68 12.55 244.8 12.66L245.04 12.87L245.14 12.78L245.26 12.66L245.04 12.43C244.92 12.31 244.78 12.19 244.66 12.06L241 8.40997V8.88997L241.91 9.79997L244.42 12.3Z" fill="#A4897A"/>
<path d="M256.25 3.68003L256.57 4.02004L260.98 8.43003V3.92003H260.93C259.24 2.32003 257.75 2.27003 256.25 3.68003ZM251.25 3.68003L259.62 12.06L259.99 12.43C260.295 12.7124 260.631 12.9606 260.99 13.17V8.89004L255.99 3.89004C254.26 2.32004 252.76 2.27003 251.25 3.68003ZM255 12.43C256.72 14.02 258.22 14.08 259.73 12.66L259.38 12.3L251 3.90003V8.41004L254.64 12.06C254.76 12.19 254.9 12.31 255 12.43ZM254.78 12.66C254.66 12.55 254.52 12.43 254.4 12.3L251.91 9.80004L251 8.89004V13.16C251.579 13.5627 252.288 13.7347 252.987 13.6422C253.686 13.5497 254.326 13.1994 254.78 12.66Z" fill="white"/>
<path d="M260.98 3.46996V3.45996L260.97 3.46996H260.98Z" fill="#A4897A"/>
<path d="M260.87 3.56004L260.75 3.68004L260.93 3.87004H260.98V3.42004L260.87 3.56004ZM260.22 12.66L260.1 12.78L260.01 12.87C260.316 13.1344 260.652 13.3626 261.01 13.55V13.17C260.651 12.9606 260.315 12.7125 260.01 12.43L260.22 12.66Z" fill="#A4897A"/>
<path d="M256.25 3.67996C257.75 2.26996 259.25 2.31996 260.93 3.86996L260.75 3.67996L260.87 3.55997L260.97 3.46997C260.283 2.79956 259.378 2.39849 258.42 2.33997C257.49 2.38211 256.614 2.78793 255.98 3.46997C256.186 3.64246 256.383 3.82606 256.57 4.01997L256.25 3.67996Z" fill="#A4897A"/>
<path d="M256 3.46997L255.91 3.55997L255.79 3.67996L255.97 3.86996L260.97 8.86996V8.40997L256.57 3.99997C256.389 3.81344 256.199 3.63653 256 3.46997ZM255 12.43L255.22 12.66L255.1 12.78L255 12.87C255.687 13.5404 256.592 13.9414 257.55 14C258.48 13.9578 259.356 13.552 259.99 12.87C259.91 12.8 259.81 12.74 259.73 12.66C258.24 14.08 256.74 14 255 12.43Z" fill="#A4897A"/>
<path d="M256 3.86996L255.82 3.67996L255.94 3.55997L256.03 3.46997C255.349 2.79719 254.446 2.3955 253.49 2.33997C252.56 2.38211 251.684 2.78793 251.05 3.46997L251.3 3.67996C252.76 2.26996 254.26 2.31996 256 3.86996ZM259.75 12.66C259.83 12.74 259.93 12.8 260.01 12.87L260.1 12.78L260.22 12.66L259.99 12.43L259.62 12.06L251.25 3.67996L251 3.46997V3.88997L259.41 12.29L259.75 12.66ZM255 12.87L254.76 12.66C254.306 13.1967 253.668 13.5452 252.971 13.6376C252.275 13.73 251.568 13.5598 250.99 13.16V13.54C251.471 13.8292 252.019 13.9878 252.58 14C253.504 13.958 254.374 13.5517 255 12.87ZM250.99 3.45998V3.46997H251L250.99 3.45998ZM254.4 12.3C254.52 12.43 254.66 12.55 254.78 12.66L255.02 12.87L255.12 12.78L255.24 12.66L255.02 12.43C254.9 12.31 254.76 12.19 254.64 12.06L251 8.40997V8.88997L251.91 9.79997L254.4 12.3Z" fill="#A4897A"/>
<path d="M269.39 2.83006C268.399 2.81238 267.439 3.16955 266.7 3.83006L272.37 9.51005C272.903 8.93522 273.256 8.21631 273.384 7.4427C273.512 6.66909 273.41 5.87491 273.09 5.15889C272.771 4.44286 272.247 3.83658 271.586 3.41542C270.925 2.99426 270.154 2.77678 269.37 2.79005L269.39 2.83006ZM274.7 12.3501L266.3 3.93005C264.45 2.03005 262.84 1.85005 261.23 3.37005L269.59 11.7501L269.96 12.1201C271.68 13.7101 273.18 13.7701 274.7 12.3501ZM265 12.1201C266.72 13.7101 268.23 13.7701 269.74 12.3501L269.38 11.9901L261 3.61006V8.12005L264.63 11.7501L265 12.1201ZM264.73 12.3501L264.39 11.9901L260.98 8.59006V12.8601C261.556 13.2574 262.26 13.4253 262.954 13.331C263.647 13.2367 264.281 12.8869 264.73 12.3501Z" fill="white"/>
<path d="M272.33 9.58994L272.57 9.80994L272.34 9.58994H272.33ZM266.7 3.86994C267.439 3.20943 268.399 2.85226 269.39 2.86994C270.174 2.85667 270.945 3.07414 271.606 3.49531C272.268 3.91647 272.791 4.52275 273.11 5.23877C273.43 5.9548 273.532 6.74898 273.404 7.52259C273.276 8.2962 272.923 9.01511 272.39 9.58994L272.62 9.80994C273.354 9.01472 273.761 7.97205 273.76 6.88994C273.761 6.04636 273.517 5.22072 273.057 4.51354C272.597 3.80636 271.941 3.24816 271.17 2.90693C270.398 2.56569 269.544 2.45615 268.711 2.59162C267.879 2.72709 267.103 3.10174 266.48 3.66994L266.56 3.74994L266.7 3.86994ZM266.63 3.91994C266.653 3.91442 266.677 3.91442 266.7 3.91994L266.54 3.75994L266.46 3.67994L266.41 3.72994L266.63 3.91994ZM265 12.1199L265.23 12.3499L265.11 12.4699L265.02 12.5599C265.704 13.2349 266.611 13.6368 267.57 13.6899C268.497 13.6452 269.369 13.2396 270 12.5599C269.92 12.4899 269.82 12.4299 269.74 12.3499C268.21 13.7699 266.7 13.7099 265 12.1199Z" fill="#A4897A"/>
<path d="M266.3 3.92998L274.7 12.35C273.18 13.77 271.7 13.71 269.96 12.12L270.19 12.35L270.07 12.47L269.98 12.56C270.658 13.2374 271.563 13.64 272.52 13.69C273.002 13.6643 273.473 13.5433 273.907 13.3338C274.342 13.1244 274.73 12.8308 275.05 12.47L275.17 12.35L272.6 9.76999L272.36 9.54999L266.69 3.86998C266.667 3.86446 266.643 3.86446 266.62 3.86998L266.4 3.62999L266.45 3.57999C266.072 3.12371 265.606 2.74727 265.081 2.47258C264.555 2.19789 263.981 2.03044 263.39 1.97998C262.932 1.99859 262.482 2.10807 262.067 2.30206C261.651 2.49605 261.278 2.77068 260.97 3.10999L261.22 3.30998C262.84 1.84998 264.45 1.99998 266.3 3.92998Z" fill="#A4897A"/>
<path d="M269.72 12.3501C269.8 12.4301 269.9 12.49 269.98 12.56L270.07 12.47L270.19 12.3501L269.96 12.12L269.59 11.75L261.23 3.37004L260.98 3.17004V3.61005L269.36 11.9901L269.72 12.3501ZM265 12.56C264.787 12.381 264.583 12.1908 264.39 11.9901L264.73 12.3501C264.281 12.8842 263.65 13.2322 262.958 13.3265C262.267 13.4208 261.565 13.2545 260.99 12.86V13.2401C261.467 13.5204 262.007 13.6753 262.56 13.69C263.49 13.6479 264.366 13.2421 265 12.56Z" fill="#A4897A"/>
<path d="M265 12.56L265.09 12.47L265.21 12.35L264.98 12.12L264.61 11.75L261 8.12V8.59L264.41 11.99C264.597 12.1902 264.793 12.3805 265 12.56Z" fill="#A4897A"/>
</svg>
